<svg width="14" height="14" viewBox="0 0 14 14" fill="none" xmlns="http://www.w3.org/2000/svg">
<path d="M10.6301 8.01384C9.46439 8.48959 8.48384 9.32963 7.83484 10.4085C7.18585 11.4874 6.90323 12.7473 7.02917 14H0C0 10.1343 3.13423 7.00001 7 7.00001C8.32941 7.00001 9.57191 7.37043 10.6301 8.01384ZM7 7.00001C6.53974 7.00099 6.08382 6.91119 5.65831 6.73573C5.23281 6.56028 4.84609 6.30263 4.52029 5.97753C4.19449 5.65242 3.93602 5.26626 3.75966 4.84113C3.5833 4.416 3.49252 3.96026 3.49252 3.50001C3.49252 3.03975 3.5833 2.58401 3.75966 2.15889C3.93602 1.73376 4.19449 1.34759 4.52029 1.02249C4.84609 0.697385 5.23281 0.439733 5.65831 0.264282C6.08382 0.0888305 6.53974 -0.000974569 7 7.97598e-06C7.92696 0.00198684 8.81528 0.371609 9.47005 1.02777C10.1248 1.68393 10.4925 2.57304 10.4925 3.50001C10.4925 4.42697 10.1248 5.31608 9.47005 5.97224C8.81528 6.62841 7.92696 6.99803 7 7.00001ZM9.91667 9.33335H14V10.5H9.91667V9.33335ZM8.75 11.0833H14V12.25H8.75V11.0833ZM8.16667 12.8333H14V14H8.16667V12.8333Z" fill="currentColor"/>
</svg>
