<svg width="15" height="15" viewBox="0 0 15 15" fill="none" xmlns="http://www.w3.org/2000/svg">
<path d="M6.94538 13.5646L5.80887 13.5579C5.49651 13.5589 5.18223 13.5522 4.86986 13.5363C4.12101 13.5022 3.37349 13.4432 2.62855 13.3594C2.28736 13.3229 1.94616 13.2802 1.60689 13.2311C1.34579 13.1941 1.08585 13.1492 0.82743 13.0966C0.613582 13.0505 0.479027 13.0053 0.422802 12.9601C0.321885 12.8885 0.244996 12.665 0.194057 12.2912C0.142638 11.9163 0.163782 11.4367 0.256529 10.85C0.293532 10.6246 0.369941 10.4396 0.486716 10.2954C0.602049 10.1513 0.743813 10.0273 0.910566 9.92348C1.08549 9.81583 1.27242 9.73125 1.46753 9.67263C1.67529 9.60852 1.88404 9.54764 2.09369 9.49001C2.30706 9.43235 2.5137 9.36891 2.71265 9.30116C2.90391 9.23671 3.08798 9.15265 3.26192 9.05031C3.45751 8.93353 3.60792 8.8182 3.71461 8.70575C3.81005 8.60966 3.88766 8.49739 3.94383 8.37416C3.99045 8.26796 4.01399 8.15263 4.01399 8.03633C4.01399 7.9186 4.00919 7.78837 4.00054 7.64372C3.9818 7.43708 3.90731 7.27177 3.77708 7.14923C3.6382 7.01948 3.49451 6.89597 3.34602 6.77776C3.26285 6.7032 3.19439 6.61371 3.14419 6.51393C3.08428 6.40208 3.03085 6.28688 2.98416 6.16889C2.93611 6.02953 2.88997 5.89017 2.8448 5.74937C2.77506 5.72922 2.70925 5.69737 2.65018 5.65518C2.58356 5.59831 2.523 5.5347 2.46949 5.46536C2.39256 5.35951 2.33571 5.24044 2.30177 5.11407C2.25787 4.97879 2.23929 4.83657 2.24699 4.69455C2.25612 4.56816 2.28351 4.45571 2.33013 4.35672C2.37145 4.25051 2.43297 4.15344 2.51082 4.07175C2.51082 3.72911 2.52956 3.38696 2.56608 3.04336C2.60356 2.75503 2.66844 2.44411 2.76119 2.1106C2.84865 1.78815 2.99474 1.4854 3.19272 1.21725C3.3614 0.981775 3.56275 0.775136 3.79102 0.602136C3.99626 0.448918 4.22107 0.323827 4.45947 0.230186C4.68121 0.142886 4.91229 0.0814493 5.14811 0.0470944C5.36772 0.0163388 5.58829 0.000480565 5.80887 0C6.07798 0.000169236 6.34627 0.029657 6.60899 0.0879416C6.8733 0.146569 7.12175 0.225381 7.35386 0.325336C7.57145 0.416362 7.77917 0.5294 7.97377 0.662686C8.1535 0.789072 8.29575 0.915939 8.39666 1.04136C8.63379 1.3217 8.8137 1.64577 8.92624 1.99527C9.03772 2.34223 9.11605 2.67381 9.16267 2.99002C9.20928 3.35043 9.23235 3.71566 9.23235 4.08568C9.29755 4.13014 9.35032 4.19052 9.38565 4.26109C9.42217 4.325 9.45292 4.40622 9.47551 4.50521C9.49906 4.6042 9.50146 4.72626 9.48272 4.87043C9.46446 5.06842 9.42505 5.2246 9.3645 5.33657C9.31435 5.43652 9.24589 5.52618 9.16267 5.60088C9.07953 5.67248 8.99111 5.72246 8.89836 5.74937C8.87914 5.80703 8.86088 5.86614 8.84358 5.92525L8.81955 5.98965C7.99875 6.12244 7.23509 6.49356 6.62351 7.05685C6.01192 7.62015 5.57939 8.35079 5.3797 9.15792C5.18 9.96506 5.22194 10.8131 5.50031 11.5966C5.77868 12.3801 6.2812 13.0644 6.94538 13.5646Z" fill="currentColor"/>
<path d="M9.5447 7.13625C9.5447 6.93195 9.62586 6.73601 9.77033 6.59155C9.91479 6.44708 10.1107 6.36592 10.315 6.36592C10.5193 6.36592 10.7153 6.44708 10.8597 6.59155C11.0042 6.73601 11.0854 6.93195 11.0854 7.13625V7.23332C11.3679 7.30589 11.6351 7.41834 11.8802 7.56347L11.9494 7.49378C12.021 7.42225 12.106 7.36552 12.1995 7.32683C12.293 7.28814 12.3932 7.26826 12.4945 7.2683C12.5957 7.26834 12.6959 7.28832 12.7894 7.32709C12.8828 7.36586 12.9678 7.42267 13.0393 7.49427C13.1108 7.56586 13.1676 7.65084 13.2063 7.74436C13.2449 7.83788 13.2648 7.93811 13.2648 8.03932C13.2647 8.14052 13.2448 8.24073 13.206 8.33421C13.1672 8.4277 13.1104 8.51263 13.0388 8.58417L12.9696 8.65241C13.1143 8.89749 13.2267 9.16468 13.2993 9.44772H13.3964C13.6007 9.44772 13.7966 9.52888 13.9411 9.67335C14.0855 9.81781 14.1667 10.0138 14.1667 10.2181C14.1667 10.4224 14.0855 10.6183 13.9411 10.7628C13.7966 10.9072 13.6007 10.9884 13.3964 10.9884H13.2993C13.2275 11.2676 13.1165 11.5352 12.9696 11.7832L13.0388 11.8524C13.1833 11.997 13.2644 12.193 13.2644 12.3973C13.2643 12.6017 13.1831 12.7976 13.0386 12.9421C12.8941 13.0866 12.6981 13.1677 12.4937 13.1676C12.2894 13.1676 12.0934 13.0864 11.9489 12.9418L11.8802 12.8726C11.6321 13.0194 11.3645 13.1304 11.0854 13.2023V13.2994C11.0854 13.5037 11.0042 13.6996 10.8597 13.8441C10.7153 13.9885 10.5193 14.0697 10.315 14.0697C10.1107 14.0697 9.91479 13.9885 9.77033 13.8441C9.62586 13.6996 9.5447 13.5037 9.5447 13.2994V13.2023C9.2654 13.1304 8.99765 13.0194 8.74938 12.8726L8.68018 12.9418C8.53572 13.0863 8.33978 13.1675 8.13547 13.1675C7.93117 13.1675 7.73523 13.0863 7.59076 12.9418C7.4463 12.7974 7.36514 12.6014 7.36514 12.3971C7.36514 12.1928 7.4463 11.9969 7.59076 11.8524L7.65996 11.7832C7.51322 11.5351 7.40224 11.2675 7.3303 10.9884H7.23323C7.02892 10.9884 6.83299 10.9072 6.68852 10.7628C6.54406 10.6183 6.4629 10.4224 6.4629 10.2181C6.4629 10.0138 6.54406 9.81781 6.68852 9.67335C6.83299 9.52888 7.02892 9.44772 7.23323 9.44772H7.3303C7.40287 9.16468 7.51531 8.89749 7.65996 8.65241L7.59076 8.5832C7.4463 8.43861 7.36519 8.24255 7.36528 8.03816C7.36532 7.93695 7.3853 7.83674 7.42407 7.74326C7.46284 7.64977 7.51965 7.56484 7.59124 7.4933C7.66284 7.42177 7.74782 7.36504 7.84134 7.32635C7.93486 7.28766 8.03509 7.26777 8.13629 7.26782C8.34069 7.26791 8.53668 7.34919 8.68114 7.49378L8.74938 7.56347C8.99762 7.41652 9.26537 7.30537 9.5447 7.23332V7.13625ZM10.315 11.7587C10.5174 11.7587 10.7177 11.7189 10.9047 11.6415C11.0916 11.5641 11.2615 11.4506 11.4045 11.3075C11.5476 11.1645 11.6611 10.9946 11.7386 10.8077C11.816 10.6207 11.8559 10.4204 11.8559 10.2181C11.8559 10.0157 11.816 9.81536 11.7386 9.62843C11.6611 9.4415 11.5476 9.27165 11.4045 9.12859C11.2615 8.98552 11.0916 8.87204 10.9047 8.79462C10.7177 8.71721 10.5174 8.67737 10.315 8.67739C9.90645 8.67744 9.51462 8.83977 9.22572 9.1287C8.93683 9.41763 8.77453 9.80947 8.77453 10.2181C8.77453 10.6266 8.93683 11.0185 9.22572 11.3074C9.51462 11.5963 9.90645 11.7587 10.315 11.7587Z" fill="currentColor"/>
</svg>
