<svg width="13" height="14" viewBox="0 0 13 14" fill="none" xmlns="http://www.w3.org/2000/svg">
<path d="M11.4875 0H0.716637C0.319294 0 0 0.319294 0 0.709541V13.5664C0.00709542 13.9567 0.482488 14.1412 0.759209 13.8715L2.1641 12.4099C2.34858 12.2254 2.65368 12.2396 2.82397 12.4383L3.85281 13.6232C4.0231 13.8219 4.3282 13.829 4.51268 13.6516L5.76148 12.417C5.94596 12.2325 6.25106 12.2467 6.42135 12.4454L7.45018 13.6303C7.62047 13.829 7.92558 13.8361 8.11006 13.6587L9.35885 12.4241C9.54333 12.2396 9.84843 12.2538 10.0187 12.4525L11.3527 13.8432C11.5159 14.0276 11.7997 14.056 11.9842 13.8928C12.1261 13.7651 12.2183 13.5806 12.2183 13.3678V0.709541C12.2041 0.319294 11.8848 0 11.4875 0ZM8.37259 9.08213H3.83152C3.51933 9.08213 3.26389 8.82669 3.26389 8.51449C3.26389 8.2023 3.51933 7.94686 3.83152 7.94686H8.37259C8.68479 7.94686 8.94022 8.2023 8.94022 8.51449C8.94022 8.82669 8.68479 9.08213 8.37259 9.08213ZM8.37259 6.52778H3.83152C3.51933 6.52778 3.26389 6.27235 3.26389 5.96015C3.26389 5.64795 3.51933 5.39251 3.83152 5.39251H8.37259C8.68479 5.39251 8.94022 5.64795 8.94022 5.96015C8.94022 6.27235 8.68479 6.52778 8.37259 6.52778ZM8.37259 3.97343H3.83152C3.51933 3.97343 3.26389 3.718 3.26389 3.4058C3.26389 3.0936 3.51933 2.83817 3.83152 2.83817H8.37259C8.68479 2.83817 8.94022 3.0936 8.94022 3.4058C8.94022 3.718 8.68479 3.97343 8.37259 3.97343Z" fill="currentColor"/>
</svg>
