<svg width="14" height="15" viewBox="0 0 14 15" fill="none" xmlns="http://www.w3.org/2000/svg">
<path d="M7.98061 13.6832L8.21595 12.3126L7.22083 11.343C7.05352 11.1969 6.93281 11.0048 6.87369 10.7906C6.81457 10.5765 6.81963 10.3497 6.88825 10.1384C6.95687 9.92706 7.08602 9.74056 7.25969 9.602C7.43335 9.46344 7.64388 9.37893 7.86515 9.35895L9.06829 9.18266C9.01855 9.14912 8.97086 9.11262 8.9255 9.07337C8.78978 8.95987 8.67955 8.81901 8.60202 8.65998C8.53809 8.52394 8.50013 8.37717 8.49008 8.2272C8.48124 8.08412 8.49042 7.9405 8.5174 7.79971C8.53458 7.7006 8.5642 7.60406 8.60554 7.51237C8.6393 7.4367 8.68682 7.36795 8.74569 7.30964C8.80624 7.25052 8.87236 7.19739 8.94313 7.15098C9.0271 7.0935 9.10692 7.03018 9.18199 6.96148C9.26513 6.88271 9.33375 6.78992 9.38472 6.68736C9.44201 6.57189 9.49666 6.45202 9.54337 6.33479C9.59009 6.19817 9.63152 6.05009 9.66942 5.90201C9.76809 5.87169 9.85853 5.81923 9.93384 5.74864C10.017 5.66987 10.0856 5.57708 10.1366 5.47452C10.2047 5.32608 10.249 5.16783 10.2679 5.0056C10.2872 4.88014 10.2854 4.75234 10.2626 4.62747C10.2456 4.53961 10.2159 4.4547 10.1745 4.37538C10.1433 4.30344 10.0894 4.24369 10.0211 4.20527C10.0301 3.83018 10.0062 3.45502 9.94971 3.0841C9.89883 2.73959 9.81712 2.40035 9.70556 2.07046C9.58798 1.71344 9.40901 1.37966 9.1767 1.08415C9.0582 0.93812 8.92098 0.808318 8.7686 0.69809C8.58901 0.564086 8.3965 0.44834 8.19392 0.352572C7.97113 0.246922 7.73888 0.162519 7.50024 0.100486C7.24626 0.0333891 6.98463 -0.000388302 6.72194 3.36734e-06C6.49868 0.00184822 6.27589 0.0210031 6.05559 0.0572958C5.82285 0.0982303 5.59527 0.164435 5.37689 0.254734C5.13822 0.355038 4.91315 0.485046 4.70701 0.641679C4.47719 0.817549 4.27642 1.02843 4.11205 1.26661C3.92139 1.54475 3.77702 1.85194 3.68456 2.17624C3.59081 2.488 3.52301 2.80699 3.48183 3.12993C3.43535 3.48313 3.41737 3.83949 3.42807 4.19557C3.35453 4.28362 3.29695 4.38385 3.25795 4.49173C3.21713 4.59719 3.19132 4.70786 3.18127 4.8205C3.16702 4.9647 3.18293 5.11028 3.22798 5.24799C3.26302 5.3786 3.32059 5.50209 3.3981 5.6129C3.45158 5.6854 3.51309 5.75164 3.58143 5.81034C3.64064 5.85507 3.70757 5.88853 3.77887 5.90906C3.82559 6.05714 3.8723 6.20257 3.91902 6.34184C3.96454 6.46172 4.01572 6.57937 4.07239 6.69441C4.11728 6.79928 4.18329 6.89379 4.2663 6.97205C4.4276 7.10339 4.56775 7.22943 4.69379 7.35018C4.828 7.48997 4.90531 7.67475 4.91062 7.86846C4.91855 8.01125 4.92472 8.14258 4.92472 8.26334C4.9265 8.39151 4.90191 8.51868 4.85248 8.63695C4.80305 8.75522 4.72983 8.86206 4.63738 8.95085C4.50153 9.0874 4.34867 9.20589 4.18256 9.30342C3.92203 9.47048 3.63589 9.59375 3.33552 9.66833C3.01204 9.75647 1.60352 10.2386 1.29943 10.3426C1.01267 10.4354 0.744244 10.5774 0.506151 10.7622C0.271831 10.9606 0.121822 11.2407 0.0865943 11.5458C-0.000734228 11.8978 -0.0222496 12.263 0.0231319 12.6229C0.0724916 13.0036 0.149175 13.231 0.253183 13.3077C0.483258 13.4205 0.728984 13.4981 0.982119 13.5378C2.91992 13.911 4.88867 14.1002 6.86209 14.1028C7.2458 14.1028 7.6157 14.0945 7.9718 14.0781C7.95558 13.9467 7.95855 13.8137 7.98061 13.6832Z" fill="currentColor"/>
<path d="M13.7945 10.31L12.3278 10.0967C12.204 10.0716 12.0871 10.0202 11.9849 9.94603C11.8827 9.87182 11.7977 9.77651 11.7355 9.66657L11.0806 8.33738C11.0312 8.23602 10.9625 8.18401 10.8973 8.18401C10.832 8.18401 10.7659 8.23602 10.7139 8.33738L10.059 9.66657C9.99644 9.77615 9.91125 9.87117 9.80913 9.94533C9.70702 10.0195 9.5903 10.0711 9.46672 10.0967L8.00091 10.31C7.77615 10.3426 7.72415 10.4995 7.88809 10.6582L8.9458 11.6912C9.03065 11.7846 9.09459 11.895 9.13335 12.0151C9.17211 12.1352 9.1848 12.2621 9.17056 12.3875L8.92112 13.848C8.8938 14.0093 8.95638 14.1054 9.0692 14.1054C9.12148 14.1034 9.17242 14.0883 9.21728 14.0613L10.5271 13.3703C10.6414 13.3179 10.7657 13.2908 10.8915 13.2908C11.0173 13.2908 11.1416 13.3179 11.256 13.3703L12.5658 14.0613C12.6108 14.088 12.6616 14.1031 12.7139 14.1054C12.8258 14.1054 12.8902 14.0093 12.862 13.848L12.6125 12.3875C12.5983 12.2621 12.611 12.1352 12.6497 12.0151C12.6885 11.895 12.7524 11.7846 12.8373 11.6912L13.895 10.6582C14.0695 10.496 14.0201 10.34 13.7945 10.31Z" fill="currentColor"/>
</svg>
