<svg width="14" height="15" viewBox="0 0 14 15" fill="none" xmlns="http://www.w3.org/2000/svg">
<path d="M12.7894 10.0984C12.624 8.73176 12.1373 8.07029 12.117 8.04377L12.1139 8.03909C11.6896 7.49619 11.1248 7.62256 10.8846 7.76608C10.8705 7.77544 10.8534 7.77388 10.8409 7.76296C10.6334 7.58511 10.4197 7.53987 10.259 7.53987C10.025 7.53987 9.85648 7.63504 9.8206 7.65688L9.75507 7.69744C9.74103 7.70524 9.72387 7.70368 9.71295 7.69276C9.60843 7.60071 9.4805 7.53831 9.33542 7.51023C9.16225 7.47747 9.0156 7.50243 8.96724 7.51335C8.87676 7.53051 8.76287 7.57887 8.65055 7.63348C8.63183 7.64284 8.60843 7.63348 8.60219 7.61476L8.23713 6.6834L8.23245 6.67404L8.20593 6.63972C7.883 6.2341 7.43838 6.19666 7.22621 6.23722C6.82996 6.31366 6.5585 6.55859 6.46022 6.92521C6.39314 7.17638 6.43214 7.40259 6.43838 7.42755L6.4415 7.44159L6.95008 9.24346C6.95632 9.2653 6.93916 9.2887 6.91732 9.2887C6.85024 9.29026 6.80811 9.29806 6.79719 9.29962L6.78003 9.30274C6.77847 9.30274 6.77691 9.30274 6.77535 9.3043L6.75819 9.30898C6.32762 9.44315 6.05616 9.6678 5.95164 9.97513C5.80811 10.401 6.0624 10.7801 6.09205 10.8222L6.10453 10.8394C6.10609 10.841 6.10609 10.8425 6.10765 10.8441L7.61155 12.4353L9.17005 13.972C9.22465 14.0266 9.29797 14.0594 9.37598 14.0641C9.3869 14.0641 9.39782 14.0656 9.41186 14.0656C9.50546 14.0656 9.72231 14.0329 10.663 13.7333C11.1404 13.582 11.5975 13.426 11.6568 13.4057C12.1638 13.2559 12.3385 13.0765 12.3963 12.9829L12.4056 12.9658C12.9454 11.9767 12.8019 10.1857 12.7956 10.1109L12.7894 10.0984Z" fill="currentColor"/>
<path d="M13.6739 1.40415H12.5117C12.4571 1.40415 12.4134 1.36046 12.4134 1.30586V1.13269C12.4134 0.52115 11.9267 0.00944973 11.3151 8.93566e-05C10.6942 -0.00771096 10.1841 0.496189 10.1841 1.11553V1.30742C10.1841 1.36202 10.1404 1.40571 10.0858 1.40571H3.78003C3.72543 1.40571 3.68175 1.36202 3.68175 1.30742V1.13425C3.68175 0.52271 3.19501 0.0110098 2.58346 0.0016494C1.961 -0.00771098 1.45242 0.496189 1.45242 1.11709V1.30742C1.45242 1.36202 1.40874 1.40571 1.35413 1.40571H0.322933C0.143526 1.40571 0 1.55079 0 1.72864V12.3605C0 12.5383 0.145086 12.6834 0.322933 12.6834L7.21373 12.6818L5.76131 11.1467L5.73635 11.1171L5.71451 11.0859C5.67083 11.0235 5.29017 10.4572 5.5117 9.80508C5.64431 9.41351 5.93604 9.11709 6.38066 8.92521L5.98908 7.53831L5.98284 7.50399C5.97192 7.44471 5.91888 7.13425 6.01404 6.7848C6.16381 6.23098 6.56786 5.86124 7.15601 5.74736C7.23089 5.73332 7.31045 5.72552 7.3947 5.72552C7.61622 5.72552 8.17785 5.78324 8.60686 6.32458L8.65679 6.38698L8.69891 6.45875L8.91888 7.02037C8.9766 7.00945 9.07176 6.99541 9.18565 6.99541C9.27613 6.99541 9.36662 7.00321 9.45398 7.02037C9.57254 7.04377 9.68643 7.08121 9.79095 7.13269C9.9142 7.08433 10.0842 7.03909 10.2871 7.03909C10.4493 7.03909 10.6911 7.07029 10.9423 7.20914C11.0842 7.1639 11.2324 7.1405 11.3838 7.1405C11.6958 7.1405 12.1466 7.2419 12.5226 7.72396L12.5289 7.73332C12.5538 7.76608 13.1154 8.52895 13.2964 10.0251L13.2995 10.0547C13.3058 10.1249 13.4212 11.5711 13.0624 12.6818H13.5523C13.8003 12.6818 14 12.4806 14 12.2341V1.72864C13.9984 1.54923 13.8534 1.40415 13.6739 1.40415ZM10.83 1.11553C10.83 0.851883 11.0484 0.639715 11.312 0.645955C11.5679 0.653755 11.7676 0.870604 11.7676 1.12489V2.3901C11.7676 2.64596 11.5679 2.8628 11.312 2.86904C11.0468 2.87684 10.83 2.66312 10.83 2.39947V1.11553ZM2.09828 1.11553C2.09828 0.851883 2.31669 0.639715 2.58034 0.645955C2.83619 0.653755 3.03588 0.870604 3.03588 1.12489V2.3901C3.03588 2.64596 2.83619 2.8628 2.58034 2.86904C2.31513 2.87684 2.09828 2.66312 2.09828 2.39947V1.11553ZM13.3666 4.27934C13.3666 4.33394 13.3229 4.37762 13.2683 4.37762H0.681747C0.627145 4.37762 0.583463 4.33394 0.583463 4.27934V3.82848C0.583463 3.77388 0.627145 3.7302 0.681747 3.7302H13.2699C13.3245 3.7302 13.3682 3.77388 13.3682 3.82848V4.27934H13.3666Z" fill="currentColor"/>
</svg>
