<svg width="14" height="14" viewBox="0 0 14 14" fill="none" xmlns="http://www.w3.org/2000/svg">
<path d="M13.0912 9.60351H8.74386C8.25263 9.60351 7.85965 9.21053 7.85965 8.7193C7.85965 8.22807 8.25263 7.83509 8.74386 7.83509H13.1158C13.607 7.83509 14 8.22807 14 8.7193C13.9754 9.23509 13.5825 9.60351 13.0912 9.60351ZM13.0912 6.11579H8.74386C8.25263 6.11579 7.85965 5.72281 7.85965 5.23158C7.85965 4.74035 8.25263 4.34737 8.74386 4.34737H13.1158C13.607 4.34737 14 4.74035 14 5.23158C13.9754 5.72281 13.5825 6.11579 13.0912 6.11579ZM13.0912 2.62807H8.74386C8.25263 2.62807 7.85965 2.23509 7.85965 1.74386C7.85965 1.25263 8.25263 0.859649 8.74386 0.859649H13.1158C13.607 0.859649 14 1.25263 14 1.74386C14 2.23509 13.5825 2.62807 13.0912 2.62807ZM5.23158 13.9754H1.74386C0.785965 13.9754 0 13.1895 0 12.2316V9.60351C0 8.64561 0.785965 7.85965 1.74386 7.85965H5.23158C6.18947 7.85965 6.97544 8.64561 6.97544 9.60351V12.2316C7 13.1895 6.21404 13.9754 5.23158 13.9754ZM5.23158 6.11579H1.74386C0.785965 6.11579 0 5.32982 0 4.37193V1.74386C0 0.785965 0.785965 0 1.74386 0H5.23158C6.18947 0 6.97544 0.785965 6.97544 1.74386V4.37193C7 5.32982 6.21404 6.11579 5.23158 6.11579ZM8.74386 11.3719H13.1158C13.607 11.3719 14 11.7649 14 12.2561C14 12.7474 13.607 13.1404 13.1158 13.1404H8.74386C8.25263 13.1404 7.85965 12.7474 7.85965 12.2561C7.85965 11.7404 8.25263 11.3719 8.74386 11.3719Z" fill="currentColor"/>
</svg>
