<svg width="14" height="16" viewBox="0 0 14 16" fill="none" xmlns="http://www.w3.org/2000/svg">
<path d="M7.47013 12.3052H3.15814C3.02236 12.301 2.89352 12.2442 2.79894 12.1467C2.70436 12.0492 2.65146 11.9187 2.65146 11.7828C2.65146 11.647 2.70436 11.5165 2.79894 11.419C2.89352 11.3215 3.02236 11.2646 3.15814 11.2605H7.57987C7.76517 10.6357 8.08735 10.06 8.523 9.57535H3.15717C3.02139 9.57122 2.89256 9.51438 2.79798 9.41687C2.70339 9.31937 2.6505 9.18887 2.6505 9.05303C2.6505 8.91719 2.70339 8.78668 2.79798 8.68918C2.89256 8.59168 3.02139 8.53483 3.15717 8.5307H10.3179C10.5916 8.45339 10.8757 8.4193 11.16 8.42967C11.952 8.44971 12.7201 8.7048 13.3667 9.16252V3.24802C13.3682 2.99873 13.3201 2.75164 13.2254 2.52104C13.1307 2.29044 12.9912 2.08092 12.8149 1.9046C12.6387 1.72828 12.4292 1.58866 12.1987 1.49382C11.9681 1.39898 11.7211 1.35081 11.4718 1.35209H11.1518V3.35727C11.1532 3.60656 11.1051 3.85365 11.0104 4.08425C10.9157 4.31485 10.7762 4.52437 10.6 4.70069C10.4237 4.87701 10.2143 5.01663 9.98372 5.11147C9.75317 5.20631 9.5061 5.25448 9.25681 5.2532H4.31203C3.80826 5.25192 3.32562 5.0506 2.97026 4.69351C2.6149 4.33643 2.41592 3.85283 2.41707 3.34905V1.35209H1.89499C1.6457 1.35081 1.39863 1.39898 1.16808 1.49382C0.937532 1.58866 0.728081 1.72828 0.551849 1.9046C0.375617 2.08092 0.236105 2.29044 0.141385 2.52104C0.0466658 2.75164 -0.00137943 2.99873 3.01398e-05 3.24802V13.7795C-0.00137943 14.0288 0.0466658 14.2759 0.141385 14.5065C0.236105 14.7371 0.375617 14.9466 0.551849 15.123C0.728081 15.2993 0.937532 15.4389 1.16808 15.5337C1.39863 15.6286 1.6457 15.6768 1.89499 15.6755H10.2159C9.45422 15.4882 8.77425 15.058 8.27884 14.4499C7.78344 13.8418 7.49955 13.089 7.47013 12.3052Z" fill="currentColor"/>
<path d="M11.1866 15.049C10.4696 15.0494 9.78022 14.7722 9.2631 14.2755C8.72754 13.7578 8.40711 13.0571 8.36589 12.3134V12.2123C8.3502 11.8945 8.38396 11.5762 8.46596 11.2687C8.74268 10.5552 9.25874 9.96004 9.92585 9.58502C10.1613 9.38925 10.4547 9.2766 10.7607 9.26452H11.2779C11.6967 9.272 12.1088 9.36996 12.4862 9.5517C12.8635 9.73343 13.197 9.99463 13.4639 10.3174C13.8435 10.8326 14.0316 11.4641 13.9957 12.1031C14.0132 12.788 13.7921 13.4577 13.3701 13.9976C13.1035 14.3199 12.7703 14.5808 12.3934 14.7623C12.0165 14.9437 11.6048 15.0416 11.1866 15.049ZM9.82337 11.5225C9.76332 11.5266 9.7047 11.5427 9.65099 11.5699C9.59727 11.597 9.54953 11.6347 9.5106 11.6806C9.46209 11.7177 9.42277 11.7655 9.39572 11.8203C9.36866 11.8751 9.35459 11.9354 9.35459 11.9965C9.35459 12.0576 9.36866 12.1179 9.39572 12.1727C9.42277 12.2274 9.46209 12.2753 9.5106 12.3124L10.5538 13.3653C10.59 13.4141 10.6372 13.4537 10.6915 13.481C10.7458 13.5083 10.8058 13.5225 10.8666 13.5225C10.9274 13.5225 10.9873 13.5083 11.0416 13.481C11.0959 13.4537 11.1431 13.4141 11.1793 13.3653L12.8485 11.6811C12.8955 11.6426 12.9333 11.5941 12.9589 11.539C12.9845 11.4839 12.9974 11.4238 12.9966 11.3631C12.9958 11.3023 12.9812 11.2426 12.9541 11.1882C12.9269 11.1339 12.8879 11.0864 12.8398 11.0493C12.804 10.9999 12.7569 10.9598 12.7026 10.9321C12.6482 10.9044 12.5881 10.89 12.5271 10.89C12.4661 10.89 12.4059 10.9044 12.3516 10.9321C12.2972 10.9598 12.2502 10.9999 12.2143 11.0493L10.8608 12.4139L10.6524 12.2032L10.1352 11.6811C10.0964 11.6352 10.0488 11.5976 9.99526 11.5703C9.94172 11.5431 9.88328 11.5268 9.82337 11.5225ZM9.30129 4.312H4.3947C4.27074 4.31245 4.14792 4.28836 4.03332 4.24111C3.91872 4.19387 3.8146 4.12441 3.72697 4.03673C3.63935 3.94906 3.56994 3.84491 3.52275 3.73028C3.47557 3.61566 3.45154 3.49283 3.45205 3.36887V1.36466H5.32912C5.38071 0.999406 5.55391 0.662202 5.82075 0.407513C6.07832 0.151952 6.42477 0.005926 6.78756 2.92892e-07C7.16998 -0.000232031 7.5396 0.137753 7.8283 0.388529C8.11701 0.639306 8.30536 0.985976 8.35864 1.36466H10.2362V3.36887C10.2371 3.61786 10.1391 3.85702 9.96386 4.03385C9.78857 4.21068 9.55027 4.31072 9.30129 4.312ZM6.77258 1.35354C6.759 1.35354 6.74561 1.35668 6.73345 1.36272C6.72129 1.36876 6.71069 1.37753 6.70249 1.38835C6.63239 1.4802 6.55408 1.57253 6.47867 1.66147L6.46707 1.67501L6.44193 1.7045C6.09666 2.01536 5.87422 2.43966 5.81495 2.90045C5.81493 3.02615 5.83968 3.15063 5.88777 3.26677C5.93587 3.38291 6.00637 3.48844 6.09525 3.57733C6.18413 3.66623 6.28965 3.73674 6.40578 3.78485C6.52192 3.83296 6.64639 3.85772 6.7721 3.85772C6.8978 3.85772 7.02227 3.83296 7.13841 3.78485C7.25454 3.73674 7.36006 3.66623 7.44894 3.57733C7.53783 3.48844 7.60833 3.38291 7.65642 3.26677C7.70451 3.15063 7.72926 3.02615 7.72924 2.90045C7.67179 2.44251 7.45168 2.02046 7.10903 1.71127L7.10661 1.70836L7.10371 1.70305C7.0196 1.60637 6.92292 1.49421 6.84412 1.39077C6.83878 1.38304 6.83244 1.37605 6.82527 1.36998C6.80996 1.35893 6.79146 1.35316 6.77258 1.35354ZM6.71022 3.47522C6.70348 3.47603 6.69666 3.47603 6.68992 3.47522C6.56743 3.43019 6.45688 3.35773 6.36672 3.26338C6.27656 3.16904 6.20919 3.05531 6.16977 2.9309C6.16496 2.90735 6.16948 2.88285 6.18238 2.86257C6.19527 2.84228 6.21553 2.82779 6.2389 2.82214C6.24635 2.82046 6.25398 2.81965 6.26162 2.81972C6.28194 2.81921 6.30187 2.82543 6.3183 2.8374C6.33474 2.84938 6.34676 2.86644 6.3525 2.88595C6.38358 2.97623 6.43343 3.05892 6.49874 3.12857C6.56406 3.19822 6.64338 3.25326 6.73149 3.29008C6.75415 3.29476 6.77426 3.3077 6.78791 3.32638C6.80157 3.34506 6.8078 3.36814 6.80539 3.39116C6.80298 3.41417 6.7921 3.43547 6.77487 3.45091C6.75765 3.46636 6.73529 3.47485 6.71215 3.47474L6.71022 3.47522Z" fill="currentColor"/>
</svg>
