<svg width="14" height="14" viewBox="0 0 14 14" fill="none" xmlns="http://www.w3.org/2000/svg">
<path d="M7 0C3.15 0 0 3.15 0 7C0 9.48889 1.32222 11.8222 3.5 13.0667C5.67778 14.3111 8.32222 14.3111 10.5 13.0667C12.6778 11.8222 14 9.48889 14 7C14 3.15 10.85 0 7 0ZM4.00556 5.79444C3.92778 5.71667 3.85 5.6 3.88889 5.44444V3.92778C3.88889 3.81111 3.92778 3.69444 4.00556 3.57778C4.12222 3.53889 4.23889 3.5 4.35556 3.5H8.67222C8.94444 3.5 9.13889 3.73333 9.13889 3.96667V5.48333C9.13889 5.6 9.1 5.71667 9.02222 5.79444C8.94444 5.87222 8.82778 5.95 8.67222 5.95H4.35556C4.23889 5.95 4.12222 5.91111 4.00556 5.79444ZM10.1889 6.41667C10.1889 6.61111 10.1111 6.80556 9.95556 6.92222C9.8 7.03889 9.64444 7.07778 9.45 7.07778H6.92222C6.88333 7.07778 6.84444 7.07778 6.80556 7.11667C6.76667 7.15556 6.76667 7.19444 6.76667 7.23333V8.24444H6.88333C7 8.24444 7.07778 8.28333 7.15556 8.36111C7.23333 8.43889 7.27222 8.51667 7.27222 8.63333V10.1111C7.27222 10.3056 7.07778 10.5 6.88333 10.4611H6.06667C5.87222 10.4611 5.67778 10.3056 5.67778 10.1111V8.63333C5.67778 8.51667 5.71667 8.43889 5.79444 8.36111C5.87222 8.28333 5.95 8.24444 6.06667 8.28333H6.18333V6.88333C6.18333 6.68889 6.33889 6.53333 6.49444 6.53333H9.45C9.56667 6.53333 9.64444 6.49444 9.64444 6.37778V5.25C9.64444 5.13333 9.56667 5.01667 9.45 5.01667H9.33333V4.47222H9.45C9.64444 4.47222 9.83889 4.55 9.99444 4.70556C10.15 4.86111 10.2278 5.05556 10.2278 5.25V6.41667H10.1889Z" fill="currentColor"/>
</svg>
