<svg width="14" height="15" viewBox="0 0 14 15" fill="none" xmlns="http://www.w3.org/2000/svg">
<path d="M10.9569 7.44352C11.8929 7.44352 12.7452 7.79865 13.3923 8.37948V3.04307C13.3923 1.36843 12.0223 0 10.3493 0H3.04307C1.36843 0 0 1.37001 0 3.04307V10.3477C0 12.0223 1.37001 13.3908 3.04307 13.3908H8.11747C7.60924 12.7641 7.30462 11.9655 7.30462 11.0958C7.30462 9.07869 8.9398 7.44352 10.9569 7.44352ZM3.04307 3.38557H10.3477C10.6823 3.38557 10.9569 3.6602 10.9569 3.99481C10.9569 4.32942 10.6823 4.60406 10.3477 4.60406H3.04307C2.70846 4.60406 2.43382 4.32942 2.43382 3.99481C2.4354 3.6602 2.70846 3.38557 3.04307 3.38557ZM5.47847 10.6902H3.04307C2.70846 10.6902 2.43382 10.4156 2.43382 10.0809C2.43382 9.74634 2.70846 9.4717 3.04307 9.4717H5.47847C5.81308 9.4717 6.08771 9.74634 6.08771 10.0809C6.08771 10.4156 5.81308 10.6902 5.47847 10.6902ZM5.47847 7.64712H3.04307C2.70846 7.64712 2.43382 7.37249 2.43382 7.03788C2.43382 6.70327 2.70846 6.42864 3.04307 6.42864H5.47847C5.81308 6.42864 6.08771 6.70327 6.08771 7.03788C6.08771 7.37249 5.81308 7.64712 5.47847 7.64712Z" fill="currentColor"/>
<path d="M10.9569 8.05276C9.27598 8.05276 7.91386 9.41488 7.91386 11.0958C7.91386 12.7768 9.27598 14.1389 10.9569 14.1389C12.6379 14.1389 14 12.7768 14 11.0958C14 9.41488 12.6379 8.05276 10.9569 8.05276ZM12.4848 11.1242V11.7808H11.3673V12.1375H12.4848V12.7941H11.3673V13.6054H10.5324V12.7941H9.42908V12.1375H10.5324V11.7808H9.42908V11.1242H10.2041L9.27914 9.24916H10.1946L10.7896 10.515C10.8654 10.6744 10.919 10.8133 10.9506 10.9348C10.9885 10.8038 11.0422 10.6649 11.1116 10.515L11.7177 9.24916H12.6331L11.6972 11.1242H12.4848Z" fill="currentColor"/>
</svg>
