<svg width="14" height="14" viewBox="0 0 14 14" fill="none" xmlns="http://www.w3.org/2000/svg">
<path d="M11.0075 10.453C10.8825 10.4527 10.7601 10.4896 10.656 10.559C10.5519 10.6283 10.4707 10.727 10.4227 10.8425C10.3747 10.958 10.362 11.0851 10.3863 11.2078C10.4106 11.3305 10.4707 11.4433 10.559 11.5318C10.6474 11.6203 10.7601 11.6806 10.8827 11.7051C11.0054 11.7296 11.1325 11.7171 11.2481 11.6693C11.3637 11.6215 11.4625 11.5405 11.532 11.4365C11.6015 11.3325 11.6386 11.2102 11.6386 11.0852C11.6395 11.002 11.6238 10.9195 11.5924 10.8424C11.561 10.7654 11.5146 10.6954 11.4558 10.6366C11.3971 10.5777 11.3271 10.5311 11.2502 10.4996C11.1732 10.4681 11.0907 10.4522 11.0075 10.453Z" fill="currentColor"/>
<path d="M11.0469 8.09375C10.4628 8.09375 9.89185 8.26695 9.40621 8.59144C8.92057 8.91594 8.54206 9.37715 8.31854 9.91676C8.09503 10.4564 8.03655 11.0502 8.15049 11.623C8.26444 12.1959 8.5457 12.722 8.9587 13.135C9.3717 13.5481 9.8979 13.8293 10.4707 13.9433C11.0436 14.0572 11.6374 13.9987 12.177 13.7752C12.7166 13.5517 13.1778 13.1732 13.5023 12.6875C13.8268 12.2019 14 11.6309 14 11.0469C14 10.2637 13.6889 9.51252 13.135 8.9587C12.5812 8.40488 11.8301 8.09375 11.0469 8.09375ZM12.9063 10.9375V11.1562C12.9073 11.2259 12.882 11.2934 12.8353 11.3452C12.7887 11.3969 12.7241 11.4291 12.6547 11.4352L12.3506 11.4603C12.3255 11.5106 12.3003 11.5861 12.2752 11.6375L12.4775 11.8902C12.5171 11.9469 12.5362 12.0153 12.5316 12.0843C12.527 12.1533 12.4991 12.2187 12.4523 12.2697L12.2752 12.4469C12.2271 12.4986 12.1611 12.5299 12.0907 12.5343C12.0203 12.5388 11.9509 12.5161 11.8967 12.4709L11.6441 12.2697C11.5869 12.2992 11.5277 12.3244 11.4669 12.3452L11.4417 12.6492C11.4416 12.6854 11.4339 12.7212 11.4191 12.7542C11.4044 12.7872 11.3828 12.8168 11.356 12.841C11.3291 12.8652 11.2974 12.8835 11.263 12.8948C11.2286 12.906 11.1922 12.9099 11.1563 12.9062H10.9309C10.8613 12.9068 10.7941 12.8811 10.7426 12.8343C10.6911 12.7874 10.6592 12.7229 10.6531 12.6536L10.628 12.3495C10.5766 12.3244 10.5011 12.2992 10.4508 12.2741L10.1981 12.4753C10.1416 12.5148 10.0735 12.5339 10.0047 12.5295C9.93594 12.5251 9.87071 12.4975 9.81969 12.4512L9.6425 12.2741C9.59035 12.2261 9.55865 12.16 9.55396 12.0893C9.54928 12.0187 9.57198 11.9489 9.61734 11.8945L9.81969 11.6419C9.78934 11.585 9.76373 11.5258 9.74313 11.4647L9.44016 11.4384C9.40465 11.4377 9.36968 11.4296 9.33741 11.4148C9.30514 11.4 9.27626 11.3786 9.25257 11.3522C9.22888 11.3257 9.21088 11.2947 9.19969 11.261C9.18849 11.2273 9.18435 11.1916 9.1875 11.1562V10.9375C9.18645 10.8678 9.21197 10.8002 9.2589 10.7486C9.30583 10.697 9.37063 10.6652 9.44016 10.6597L9.74313 10.6334C9.76828 10.5831 9.79344 10.5077 9.81969 10.4573L9.61734 10.2036C9.57776 10.1469 9.55868 10.0784 9.56325 10.0094C9.56782 9.94041 9.59578 9.87504 9.6425 9.82406L9.81969 9.64687C9.86508 9.60043 9.92573 9.57197 9.99046 9.56674C10.0552 9.56152 10.1196 9.57988 10.1719 9.61844L10.4245 9.81969C10.5 9.79562 10.5514 9.76937 10.6269 9.74422L10.652 9.44016C10.6528 9.40495 10.6608 9.37027 10.6754 9.33824C10.69 9.30621 10.7111 9.2775 10.7372 9.25385C10.7633 9.23021 10.7939 9.21213 10.8272 9.20072C10.8605 9.18932 10.8958 9.18482 10.9309 9.1875H11.1836C11.2533 9.1867 11.3206 9.21232 11.3722 9.2592C11.4237 9.30607 11.4556 9.37073 11.4614 9.44016L11.4877 9.74422C11.5486 9.76476 11.6078 9.79 11.6648 9.81969L11.9164 9.61844C11.9731 9.5789 12.0414 9.55975 12.1104 9.56412C12.1793 9.56849 12.2447 9.59612 12.2959 9.6425L12.4688 9.81969C12.5207 9.86775 12.5522 9.93386 12.5569 10.0044C12.5616 10.075 12.539 10.1447 12.4939 10.1992L12.2916 10.453C12.3213 10.5096 12.3465 10.5685 12.367 10.6291L12.67 10.6553C12.7045 10.657 12.7383 10.6658 12.7693 10.6812C12.8003 10.6966 12.8277 10.7182 12.8499 10.7447C12.8721 10.7712 12.8885 10.802 12.8982 10.8352C12.9079 10.8684 12.9107 10.9032 12.9063 10.9375Z" fill="currentColor"/>
<path d="M10.0625 0H3.9375C3.64742 0 3.36922 0.115234 3.1641 0.320352C2.95898 0.52547 2.84375 0.803669 2.84375 1.09375V12.9062H0.546875C0.401835 12.9062 0.262735 12.9639 0.160176 13.0664C0.057617 13.169 0 13.3081 0 13.4531C0 13.5982 0.057617 13.7373 0.160176 13.8398C0.262735 13.9424 0.401835 14 0.546875 14H8.28187C7.68974 13.4452 7.27807 12.7252 7.1003 11.9335C6.92253 11.1417 6.98688 10.3148 7.28498 9.56014C7.58309 8.80544 8.10119 8.15779 8.77202 7.70126C9.44285 7.24472 10.2354 7.0004 11.0469 7H11.1562V1.09375C11.1562 0.803669 11.041 0.52547 10.8359 0.320352C10.6308 0.115234 10.3526 0 10.0625 0ZM6.125 9.84375H4.59375V8.3125H6.125V9.84375ZM6.125 6.5625H4.59375V5.03125H6.125V6.5625ZM6.125 3.28125H4.59375V1.75H6.125V3.28125ZM9.40625 6.5625H7.875V5.03125H9.40625V6.5625ZM9.40625 3.28125H7.875V1.75H9.40625V3.28125Z" fill="currentColor"/>
</svg>
