<svg width="14" height="13" viewBox="0 0 14 13" fill="none" xmlns="http://www.w3.org/2000/svg">
<path d="M7.61574 0.245314L13.8308 6.07399C13.9082 6.14657 13.9625 6.24139 13.9863 6.34604C14.0102 6.45069 14.0027 6.56028 13.9646 6.66046C13.9266 6.76063 13.8599 6.84671 13.7732 6.90741C13.6865 6.96812 13.5839 7.00062 13.4789 7.00066L12.8638 6.99999V11.6667C12.8638 11.8418 12.8301 12.0151 12.7646 12.1769C12.6991 12.3387 12.6031 12.4857 12.4821 12.6095C12.3611 12.7333 12.2174 12.8315 12.0593 12.8985C11.9012 12.9655 11.7317 13 11.5606 13H2.43807C2.26693 13 2.09747 12.9655 1.93936 12.8985C1.78124 12.8315 1.63758 12.7333 1.51656 12.6095C1.39555 12.4857 1.29955 12.3387 1.23406 12.1769C1.16857 12.0151 1.13486 11.8418 1.13486 11.6667V6.99999H0.520395C0.4155 6.99981 0.313099 6.96725 0.226576 6.90658C0.140054 6.84591 0.0734341 6.75994 0.0354255 6.65991C-0.00258321 6.55988 -0.0102129 6.45045 0.0135337 6.34592C0.0372802 6.24139 0.0912983 6.14661 0.168528 6.07399L6.3829 0.245314C6.55114 0.0875296 6.77109 0 6.99932 0C7.22755 0 7.44749 0.0875296 7.61574 0.245314ZM3.91201 7.90333C3.78985 8.02834 3.72123 8.19788 3.72123 8.37466C3.72123 8.55144 3.78985 8.72097 3.91201 8.84599C4.71388 9.66639 5.80145 10.1273 6.93546 10.1273C8.06947 10.1273 9.15704 9.66639 9.95892 8.84599C10.0776 8.72026 10.1433 8.55186 10.1418 8.37706C10.1403 8.20226 10.0718 8.03505 9.95098 7.91145C9.83017 7.78784 9.66673 7.71773 9.49589 7.71621C9.32504 7.71469 9.16044 7.78189 9.03755 7.90333C8.48009 8.47356 7.72408 8.7939 6.93579 8.7939C6.1475 8.7939 5.39149 8.47356 4.83403 7.90333C4.77351 7.84134 4.70165 7.79217 4.62255 7.75862C4.54344 7.72507 4.45865 7.7078 4.37302 7.7078C4.28739 7.7078 4.2026 7.72507 4.12349 7.75862C4.04439 7.79217 3.97252 7.84134 3.91201 7.90333Z" fill="currentColor"/>
</svg>
