<svg width="14" height="14" viewBox="0 0 14 14" fill="none" xmlns="http://www.w3.org/2000/svg">
<path d="M1.73939 1.20256H12.2998C12.6636 1.20256 12.9606 0.933334 12.9606 0.602098C12.9606 0.270863 12.6636 0 12.2998 0H1.73939C1.37552 0 1.07855 0.269231 1.07855 0.600466C1.07855 0.93007 1.37552 1.20256 1.73939 1.20256ZM13.3392 2.40839H0.660839C0.29697 2.40839 0 2.71189 0 3.08065V13.0814C0 13.4501 0.29697 13.7536 0.660839 13.7536H13.3392C13.703 13.7536 14 13.4501 14 13.0814V3.07902C14 2.70699 13.703 2.40839 13.3392 2.40839ZM9.17506 8.69371C9.53893 8.69371 9.8359 8.96294 9.8359 9.29417C9.8359 9.62378 9.53893 9.89464 9.17506 9.89464H7.59231V11.3485C7.59231 11.7173 7.32471 12.0207 7 12.0207C6.67529 12.0207 6.40769 11.7173 6.40769 11.3485V9.8979H4.8282C4.46434 9.8979 4.16737 9.62867 4.16737 9.29744C4.16737 8.96783 4.46434 8.69697 4.8282 8.69697H6.40769V7.83217H4.8282C4.46434 7.83217 4.16737 7.56294 4.16737 7.2317C4.16737 6.9021 4.46434 6.63124 4.8282 6.63124H5.70443L5.37972 6.00303L4.9979 5.26061C4.82984 4.93263 4.92611 4.54266 5.21492 4.38765C5.50373 4.23427 5.87902 4.37622 6.04545 4.70093L6.35385 5.29814C6.35874 5.30629 6.36527 5.31772 6.37016 5.32587L6.68671 5.93939H6.68998L7.01142 6.56107L7.33287 5.93939H7.33613L7.65268 5.32587C7.65758 5.31445 7.6641 5.30629 7.669 5.29814L7.97739 4.70093C8.14545 4.37296 8.51911 4.23263 8.80792 4.38765C9.09674 4.54103 9.19301 4.93263 9.02494 5.26061L8.64312 6.00303L8.31841 6.63124H8.31515H9.17669C9.54056 6.63124 9.83753 6.90047 9.83753 7.2317C9.83753 7.56131 9.54056 7.83217 9.17669 7.83217H7.59068V8.69371H9.17506Z" fill="currentColor"/>
</svg>
