<svg width="14" height="14" viewBox="0 0 14 14" fill="none" xmlns="http://www.w3.org/2000/svg">
<path d="M5.7311 0C2.56514 0 0 2.27618 0 5.0852C0 6.68887 0.839897 8.11555 2.14944 9.05041V11.6204L4.66063 10.0758C5.01431 10.1357 5.37239 10.1659 5.7311 10.166C8.8967 10.166 11.4622 7.88978 11.4622 5.0852C11.4666 2.27618 8.8967 0 5.7311 0ZM2.8674 5.81239C2.77249 5.81186 2.67861 5.79262 2.59114 5.75578C2.50367 5.71893 2.42433 5.6652 2.35764 5.59766C2.29096 5.53011 2.23825 5.45009 2.20252 5.36216C2.1668 5.27422 2.14876 5.18011 2.14944 5.0852C2.14944 4.68317 2.47018 4.358 2.86777 4.358C3.26499 4.358 3.58573 4.68317 3.58573 5.0852C3.58129 5.48723 3.26056 5.81239 2.86777 5.81239H2.8674ZM5.7311 5.81239C5.63616 5.81191 5.54224 5.79271 5.45473 5.75588C5.36722 5.71906 5.28783 5.66533 5.22111 5.59779C5.15439 5.53024 5.10164 5.4502 5.06589 5.36224C5.03014 5.27428 5.01209 5.18014 5.01277 5.0852C5.01277 4.68317 5.33351 4.358 5.7311 4.358C6.12833 4.358 6.44906 4.68317 6.44906 5.0852C6.44974 5.18011 6.4317 5.27422 6.39598 5.36216C6.36025 5.45009 6.30754 5.53011 6.24086 5.59766C6.17417 5.6652 6.09483 5.71893 6.00736 5.75578C5.91989 5.79262 5.82601 5.81186 5.7311 5.81239ZM8.5985 5.81239C8.50359 5.81186 8.40971 5.79262 8.32225 5.75578C8.23478 5.71893 8.15543 5.6652 8.08875 5.59766C8.02206 5.53011 7.96935 5.45009 7.93363 5.36216C7.8979 5.27422 7.87986 5.18011 7.88054 5.0852C7.88054 4.68317 8.20128 4.358 8.59887 4.358C8.99609 4.358 9.31683 4.68317 9.31683 5.0852C9.31751 5.18011 9.29947 5.27422 9.26375 5.36216C9.22802 5.45009 9.17531 5.53011 9.10863 5.59766C9.04194 5.6652 8.9626 5.71893 8.87513 5.75578C8.78766 5.79262 8.69378 5.81186 8.59887 5.81239H8.5985ZM12.3291 4.3447L12.3516 4.70608C12.3564 5.04899 12.3516 5.01758 12.3516 5.33351C12.3516 8.66649 9.7595 10.9745 6.1601 10.9745H4.92225C5.90699 11.9455 7.04952 12.5415 8.63471 12.5415C8.97355 12.5415 9.30353 12.5101 9.62389 12.4558L11.9363 13.8965V11.525C13.1919 10.6533 14 9.30315 14 7.78558C14 6.43058 13.3545 5.2112 12.3291 4.34433V4.3447Z" fill="currentColor"/>
</svg>
