<svg width="12" height="14" viewBox="0 0 12 14" fill="none" xmlns="http://www.w3.org/2000/svg">
<path d="M11.3283 10.1694C11.377 10.3542 11.377 10.5486 11.3089 10.7333C11.2408 10.9181 11.1242 11.0736 10.9686 11.1903C10.7936 11.3167 10.5797 11.3847 10.3658 11.3847H0.983903C0.770014 11.3847 0.556125 11.3167 0.390847 11.1903C0.235291 11.0736 0.118625 10.9181 0.0505691 10.7333C-0.00776424 10.5583 -0.0174865 10.3542 0.0311246 10.1694C0.0894579 9.96528 0.206125 9.79028 0.381125 9.66389L1.28529 8.98333C1.45057 8.86667 1.53807 8.68194 1.53807 8.47778V5.35694C1.53807 4.8125 1.64501 4.2875 1.86862 3.79167C2.08251 3.31528 2.37418 2.87778 2.75335 2.51805C3.27835 2.0125 3.92001 1.65278 4.62974 1.46806V1.03056C4.62974 0.466667 5.10613 0 5.68946 0C6.27279 0 6.74918 0.456944 6.74918 1.03056V1.46806C6.9339 1.51667 7.12835 1.575 7.30335 1.65278C7.79918 1.84722 8.23668 2.14861 8.62557 2.51805C9.00474 2.8875 9.30613 3.31528 9.51029 3.79167C9.72418 4.2875 9.84085 4.8125 9.84085 5.35694V8.47778C9.84085 8.67222 9.92835 8.85694 10.0936 8.98333L10.9978 9.66389C11.1533 9.79028 11.27 9.96528 11.3283 10.1694ZM4.36724 12.2889V12.25H6.99224V12.2986C6.99224 13.5236 6.39918 14 5.67974 14C4.95057 14 4.36724 13.5139 4.36724 12.2889Z" fill="currentColor"/>
</svg>
