<svg width="14" height="16" viewBox="0 0 14 16" fill="none" xmlns="http://www.w3.org/2000/svg">
<path d="M8.85466 0V2.83447C8.8554 3.00397 8.88953 3.17166 8.95511 3.32796C9.02069 3.48427 9.11643 3.62611 9.23685 3.7454C9.35727 3.86468 9.50002 3.95907 9.65694 4.02316C9.81385 4.08725 9.98186 4.1198 10.1514 4.11893H13.4548V6.10871C11.7033 4.88452 8.27929 5.31581 6.45242 7.65966C4.46924 10.1598 4.91748 13.2071 6.6078 15.067H1.53212C0.54806 15.067 0.00659179 14.2825 0.00659179 13.5744V10.8539L0.00282505 8.32826L0.00188337 6.68031L0 4.1566V1.43607C0 0.717564 0.487793 0 1.41441 0H8.85466ZM13.5329 9.83119C13.6396 9.83156 13.7426 9.87044 13.8229 9.94069C13.9032 10.0109 13.9554 10.1078 13.9699 10.2135C14.0856 11.0499 13.8651 11.8981 13.3569 12.5724L13.8559 13.0725C13.9323 13.1564 13.9734 13.2665 13.9708 13.3799C13.9681 13.4933 13.9219 13.6014 13.8418 13.6817C13.7616 13.762 13.6536 13.8083 13.5402 13.8112C13.4268 13.814 13.3166 13.773 13.2326 13.6968L12.7306 13.1939C12.2638 13.5437 11.7096 13.7581 11.1289 13.8135C10.5483 13.8688 9.96353 13.7631 9.43902 13.5078C8.91451 13.2526 8.4705 12.8577 8.15576 12.3666C7.84103 11.8755 7.66774 11.3071 7.65495 10.7239C7.64995 10.663 7.6576 10.6017 7.67744 10.544C7.69728 10.4862 7.72886 10.4331 7.77021 10.3881C7.81156 10.3431 7.86177 10.3072 7.91769 10.2826C7.97361 10.258 8.03401 10.2452 8.09511 10.2451C8.15621 10.2449 8.21667 10.2574 8.2727 10.2818C8.32872 10.3062 8.37908 10.3419 8.42062 10.3867C8.46216 10.4315 8.49398 10.4845 8.51406 10.5422C8.53414 10.5999 8.54206 10.6611 8.53731 10.722C8.5519 11.1699 8.69741 11.6037 8.95585 11.9698C9.21429 12.3359 9.57433 12.6182 9.99148 12.7819C10.4086 12.9456 10.8646 12.9835 11.3031 12.8909C11.7415 12.7982 12.1432 12.5792 12.4585 12.2607C12.7056 12.0094 12.8916 11.7045 13.002 11.3698C13.1124 11.035 13.1442 10.6793 13.0951 10.3303C13.0866 10.2679 13.0916 10.2044 13.1097 10.1442C13.1279 10.0839 13.1587 10.0282 13.2002 9.98092C13.2418 9.9336 13.2929 9.89575 13.3503 9.86992C13.4077 9.84409 13.47 9.83088 13.5329 9.83119ZM12.4142 7.56361C12.6412 7.65213 12.7532 7.90827 12.6647 8.13521L12.0385 9.73984L12.6647 11.3445C12.6993 11.4516 12.6918 11.5678 12.6435 11.6695C12.5953 11.7712 12.5101 11.8506 12.4053 11.8916C12.3005 11.9326 12.184 11.932 12.0796 11.89C11.9752 11.848 11.8908 11.7677 11.8436 11.6656L11.0912 9.73984L11.8436 7.8141C11.886 7.70521 11.97 7.61765 12.077 7.57068C12.184 7.5237 12.3053 7.52116 12.4142 7.56361ZM11.1693 7.56361C11.3963 7.65213 11.5083 7.90827 11.4198 8.13521L10.7936 9.73984L11.4198 11.3445C11.4544 11.4516 11.4468 11.5678 11.3986 11.6695C11.3504 11.7712 11.2652 11.8506 11.1604 11.8916C11.0556 11.9326 10.9391 11.932 10.8347 11.89C10.7303 11.848 10.6459 11.7677 10.5987 11.6656L9.84625 9.73984L10.5987 7.8141C10.6411 7.70521 10.7251 7.61765 10.8321 7.57068C10.9391 7.5237 11.0604 7.52116 11.1693 7.56361ZM9.92347 7.56361C10.1514 7.65213 10.2625 7.90827 10.174 8.13521L9.54774 9.73984L10.174 11.3445C10.2086 11.4516 10.201 11.5678 10.1528 11.6695C10.1046 11.7712 10.0194 11.8506 9.91457 11.8916C9.80976 11.9326 9.69326 11.932 9.58885 11.89C9.48445 11.848 9.40002 11.7677 9.35281 11.6656L8.60041 9.73984L9.35281 7.8141C9.39528 7.70521 9.47925 7.61765 9.58627 7.57068C9.69329 7.5237 9.81458 7.52116 9.92347 7.56361ZM8.00432 9.12681C8.12919 9.12681 8.24896 9.17641 8.33726 9.26471C8.42556 9.35301 8.47516 9.47277 8.47516 9.59765C8.47516 9.72252 8.42556 9.84229 8.33726 9.93059C8.24896 10.0189 8.12919 10.0685 8.00432 10.0685C7.87944 10.0685 7.75968 10.0189 7.67138 9.93059C7.58308 9.84229 7.53348 9.72252 7.53348 9.59765C7.53348 9.47277 7.58308 9.35301 7.67138 9.26471C7.75968 9.17641 7.87944 9.12681 8.00432 9.12681ZM5.85163 5.56159H2.77232C2.56209 5.56069 2.35929 5.63928 2.20456 5.78161C2.04983 5.92394 1.95461 6.11949 1.93799 6.32906C1.92301 6.53867 1.98804 6.74616 2.11997 6.90972C2.2519 7.07328 2.44093 7.18076 2.64896 7.21048L2.77138 7.2199H5.85163C6.31305 7.2199 6.68784 6.84887 6.68784 6.39121C6.68747 6.28182 6.66554 6.17356 6.62331 6.07265C6.58107 5.97173 6.51936 5.88012 6.4417 5.80307C6.36403 5.72602 6.27195 5.66504 6.1707 5.6236C6.06945 5.58217 5.96103 5.56109 5.85163 5.56159ZM7.59939 2.24874H2.77232C2.56194 2.24786 2.35901 2.32659 2.20426 2.46911C2.04951 2.61164 1.95439 2.80741 1.93799 3.01716C1.92301 3.22676 1.98804 3.43425 2.11997 3.59782C2.2519 3.76138 2.44093 3.86885 2.64896 3.89857L2.77138 3.90799H7.59939C7.74586 3.90808 7.8898 3.86979 8.01686 3.79692C8.14391 3.72406 8.24966 3.61917 8.32355 3.49271C8.39684 3.36692 8.43545 3.22395 8.43545 3.07837C8.43545 2.93279 8.39684 2.78981 8.32355 2.66403C8.24946 2.5376 8.14352 2.43281 8.01629 2.36011C7.88906 2.28741 7.74499 2.24933 7.59845 2.24968L7.59939 2.24874ZM9.52891 0L13.4181 3.47011H10.625C10.4819 3.47098 10.3401 3.44365 10.2076 3.3897C10.0751 3.33575 9.95446 3.25622 9.85268 3.15566C9.75089 3.0551 9.66991 2.93547 9.61436 2.80362C9.55881 2.67176 9.52977 2.53025 9.52891 2.38717V0Z" fill="currentColor"/>
</svg>
