<svg width="14" height="14" viewBox="0 0 14 14" fill="none" xmlns="http://www.w3.org/2000/svg">
<path d="M9.21686 3.72944C9.21686 1.68849 7.52837 0 5.34701 0H0V13.72H1.97003V7.45817H5.41722C7.52765 7.45817 9.21686 5.76967 9.21686 3.72944ZM5.06548 5.48814H1.89911V1.89982H5.06548C5.98029 1.97003 6.82417 2.74443 6.82417 3.65852C6.8951 4.57333 5.98029 5.48814 5.06548 5.48814ZM13.9306 10.343C13.8604 10.2019 13.7193 10.0615 13.7193 10.0615L13.0158 8.23185C12.8754 7.88083 12.4534 7.6695 12.2421 7.6695H8.58287C8.37154 7.6695 7.9496 7.88011 7.80919 8.23185L7.10499 10.0615C7.10499 10.0615 6.96458 10.2019 6.89438 10.343C6.82346 10.4834 6.75325 10.5536 6.75325 11.3982C6.75325 12.1719 6.89438 12.4534 7.10499 12.5946L7.24612 12.6648V13.4385C7.24612 13.6498 7.31632 13.72 7.52765 13.72H8.0198C8.23113 13.72 8.37154 13.72 8.37154 13.5087V12.8052H12.2414V13.5087C12.2414 13.72 12.3818 13.72 12.5931 13.72H13.0853C13.2966 13.72 13.3668 13.6498 13.3668 13.4385V12.6648L13.5079 12.5946C13.7186 12.5236 13.859 12.2428 13.859 11.3982C14.0703 10.5536 14.0001 10.4132 13.9299 10.343H13.9306ZM8.09072 9.85014C8.09072 9.77993 8.30205 8.93533 8.37226 8.65379C8.44246 8.58359 8.65379 8.23185 8.93533 8.30277H11.9606C12.2421 8.30277 12.4534 8.58359 12.5236 8.65379C12.5938 8.93533 12.8052 9.77993 12.8052 9.85014C12.8052 9.99126 12.7343 9.99126 12.7343 9.99126H8.16093C8.16093 9.92034 8.02052 9.99126 8.09072 9.85014ZM8.16093 11.8202C7.88011 11.8202 7.59857 11.5386 7.59857 11.2578C7.59857 10.9763 7.88011 10.6947 8.16093 10.6947C8.44246 10.6947 8.724 10.9763 8.724 11.2578C8.72496 11.332 8.71105 11.4056 8.68309 11.4743C8.65512 11.543 8.61367 11.6054 8.56118 11.6579C8.50869 11.7103 8.44623 11.7517 8.37749 11.7795C8.30874 11.8074 8.2351 11.8212 8.16093 11.8202ZM12.7343 11.8202C12.4534 11.8202 12.1719 11.5386 12.1719 11.2578C12.1719 10.9763 12.4534 10.6947 12.7343 10.6947C13.0158 10.6947 13.2973 10.9763 13.2973 11.2578C13.2983 11.332 13.2844 11.4056 13.2564 11.4743C13.2285 11.543 13.187 11.6054 13.1345 11.6579C13.082 11.7103 13.0196 11.7517 12.9508 11.7795C12.8821 11.8074 12.8084 11.8212 12.7343 11.8202Z" fill="currentColor"/>
</svg>
