<svg width="14" height="14" viewBox="0 0 14 14" fill="none" xmlns="http://www.w3.org/2000/svg">
<path d="M3.9375 0H10.0625C10.4106 0 10.7444 0.138281 10.9906 0.384422C11.2367 0.630564 11.375 0.964403 11.375 1.3125V7.4375C11.375 7.7856 11.2367 8.11944 10.9906 8.36558C10.7444 8.61172 10.4106 8.75 10.0625 8.75H3.9375C3.5894 8.75 3.25556 8.61172 3.00942 8.36558C2.76328 8.11944 2.625 7.7856 2.625 7.4375V1.3125C2.625 0.964403 2.76328 0.630564 3.00942 0.384422C3.25556 0.138281 3.5894 0 3.9375 0ZM6.96172 1.75219C8.18409 2.21397 8.94797 3.71481 8.29872 4.90788L6.73247 3.33003L7.34366 2.71425L6.96172 2.32947C6.77075 2.52197 6.42709 2.59897 6.19784 2.48347L5.01397 3.67631L5.70128 4.36909L6.15978 3.90731L7.72559 5.48494C6.96172 5.90822 5.89247 5.79294 5.12838 4.94616L4.74644 5.33116C4.86106 5.48494 4.93741 5.63894 5.09031 5.75444L5.05203 5.79294H4.97569C4.78472 5.79294 4.59375 5.98544 4.59375 6.17772C4.59375 6.37022 4.74644 6.5625 4.97569 6.5625C5.16666 6.5625 5.35763 6.4085 5.35763 6.1775V6.10072L5.43419 6.06222C6.31247 6.678 7.30559 6.755 8.37506 6.10072L8.79506 6.524L9.40625 5.94672L8.94797 5.48516C10.1701 3.56081 8.48969 1.67541 6.96172 1.75219ZM0.4375 10.9375H2.625C2.91667 10.9375 3.0625 11.0833 3.0625 11.375V13.5625C3.0625 13.8542 2.91667 14 2.625 14H0.4375C0.145833 14 0 13.8542 0 13.5625V11.375C0 11.0833 0.145833 10.9375 0.4375 10.9375ZM5.90625 10.9375H8.09375C8.38542 10.9375 8.53125 11.0833 8.53125 11.375V13.5625C8.53125 13.8542 8.38542 14 8.09375 14H5.90625C5.61458 14 5.46875 13.8542 5.46875 13.5625V11.375C5.46875 11.0833 5.61458 10.9375 5.90625 10.9375ZM11.375 10.9375H13.5625C13.8542 10.9375 14 11.0833 14 11.375V13.5625C14 13.8542 13.8542 14 13.5625 14H11.375C11.0833 14 10.9375 13.8542 10.9375 13.5625V11.375C10.9375 11.0833 11.0833 10.9375 11.375 10.9375Z" fill="currentColor"/>
<path d="M6.5625 7.21875H7.4375V12.4688H6.5625V7.21875Z" fill="currentColor"/>
<path d="M1.26221 12.0312C1.89308 10.0222 4.22277 8.53125 7.00002 8.53125C9.77727 8.53125 12.107 10.0222 12.7378 12.0312H11.7777C11.1149 10.5066 9.22624 9.40625 7.00002 9.40625C4.7738 9.40625 2.88533 10.5066 2.2223 12.0312H1.26221Z" fill="currentColor"/>
</svg>
