<svg width="14" height="14" viewBox="0 0 14 14" fill="none" xmlns="http://www.w3.org/2000/svg">
<path d="M11.8839 14.0005H2.11608C1.55506 13.9998 1.01721 13.7767 0.620515 13.38C0.223817 12.9833 0.000661653 12.4454 0 11.8844V2.11658C0.000529327 1.55547 0.223626 1.0175 0.620338 0.620692C1.01705 0.223886 1.55497 0.000661899 2.11608 0L11.8839 0C12.445 0.000661899 12.9829 0.223886 13.3797 0.620692C13.7764 1.0175 13.9995 1.55547 14 2.11658V11.8844C13.9993 12.4454 13.7762 12.9833 13.3795 13.38C12.9828 13.7767 12.4449 13.9998 11.8839 14.0005ZM2.8891 10.9074C2.75958 10.9075 2.6354 10.959 2.54382 11.0506C2.45223 11.1422 2.40072 11.2664 2.40059 11.3959C2.40085 11.5253 2.45242 11.6494 2.54399 11.7409C2.63556 11.8323 2.75967 11.8838 2.8891 11.8839H11.1104C11.2397 11.8837 11.3637 11.8322 11.4552 11.7407C11.5466 11.6492 11.5981 11.5253 11.5984 11.3959C11.5983 11.2665 11.5468 11.1424 11.4554 11.0508C11.3639 10.9592 11.2398 10.9077 11.1104 10.9074H2.8891ZM2.8891 8.95382C2.75958 8.95395 2.6354 9.00546 2.54382 9.09705C2.45223 9.18863 2.40072 9.31281 2.40059 9.44234C2.40085 9.57177 2.45242 9.69582 2.54399 9.7873C2.63556 9.87878 2.75967 9.93022 2.8891 9.93036H11.1104C11.2398 9.93022 11.3638 9.87876 11.4553 9.78727C11.5468 9.69578 11.5983 9.57173 11.5984 9.44234C11.5983 9.3129 11.5468 9.1888 11.4554 9.09723C11.3639 9.00565 11.2398 8.95408 11.1104 8.95382H2.8891ZM4.56416 3.10661C4.53593 3.10654 4.50782 3.11041 4.48066 3.11811C4.40317 3.14056 4.3377 3.19274 4.29854 3.26328C4.25938 3.33382 4.24972 3.41699 4.27165 3.49462L5.4902 7.75828C5.49032 7.76078 5.49032 7.76328 5.4902 7.76578C5.50929 7.82844 5.54794 7.88336 5.60048 7.92249C5.65302 7.96163 5.7167 7.98293 5.78221 7.98328C5.81168 7.98318 5.84099 7.9788 5.86921 7.97028C5.94644 7.94692 6.01129 7.89395 6.0496 7.82294C6.08792 7.75193 6.09659 7.66865 6.07372 7.59127L5.6062 5.95621C5.91775 5.65177 6.323 5.46148 6.75624 5.41619C6.83828 5.41594 6.91999 5.42653 6.99925 5.44769C7.16009 5.51311 7.30754 5.60751 7.43426 5.7262C7.58264 5.86089 7.77231 5.94127 7.97228 5.95421C8.11821 5.95278 8.25869 5.89861 8.3678 5.80171C8.60926 5.6151 8.81825 5.38989 8.98632 5.13518C9.02732 5.07668 9.07382 5.01118 9.13083 4.93518C9.28703 4.72826 9.42111 4.50554 9.53084 4.27065C9.55284 4.22465 9.57784 4.17315 9.60484 4.12065C9.67625 3.99228 9.71923 3.85006 9.73085 3.70363C9.73085 3.69213 9.73085 3.68313 9.73385 3.67513C9.73385 3.65713 9.73385 3.63713 9.73685 3.61813C9.74085 3.56813 9.74485 3.51813 9.72185 3.49462C9.71613 3.48888 9.70924 3.48443 9.70164 3.48158C9.69405 3.47874 9.68593 3.47756 9.67785 3.47812C9.64852 3.47985 9.61973 3.48679 9.59284 3.49863L9.57134 3.51013C9.25546 3.75778 8.86189 3.88519 8.4608 3.86964C8.4183 3.86964 8.3743 3.86964 8.3298 3.86614C8.31314 3.8671 8.29645 3.8671 8.27979 3.86614C8.01196 3.83938 7.7552 3.74548 7.53328 3.59314C7.31137 3.4408 7.13147 3.23494 7.01025 2.99461C6.93352 2.85303 6.82241 2.73304 6.68715 2.64566C6.55189 2.55828 6.39682 2.50633 6.23622 2.49459C6.12685 2.49563 6.01853 2.51594 5.91621 2.55459C5.49624 2.69698 5.09986 2.90124 4.74017 3.16061C4.68833 3.12441 4.62638 3.10551 4.56316 3.10661H4.56416Z" fill="currentColor"/>
</svg>
