<svg width="14" height="14" viewBox="0 0 14 14" fill="none" xmlns="http://www.w3.org/2000/svg">
<path d="M12.898 11.2756C13.0623 11.4402 13.1545 11.6633 13.1545 11.8959C13.1545 12.1284 13.0623 12.3515 12.898 12.5162L12.2777 13.1365C11.8193 13.5949 11.2164 13.8741 10.4856 13.9665C10.3043 13.9892 10.1219 14.0004 9.93924 14.0001C9.40739 14.0001 8.83353 13.9103 8.22612 13.7316C6.57736 13.247 4.8433 12.1542 3.34478 10.6552C1.84626 9.15626 0.75294 7.42274 0.268348 5.77387C0.0270941 4.9524 -0.0523005 4.19223 0.0334544 3.51486C0.125899 2.78408 0.405095 2.18116 0.863478 1.72278L1.48383 1.10242C1.64848 0.938165 1.87156 0.845919 2.10413 0.845919C2.3367 0.845919 2.55978 0.938165 2.72443 1.10242L5.454 3.83189C5.61826 3.99655 5.71051 4.21965 5.71051 4.45224C5.71051 4.68483 5.61826 4.90792 5.454 5.07259L4.83364 5.6925C4.48273 6.04342 4.832 7.17973 5.82619 8.1738C6.82037 9.16788 7.95613 9.5177 8.30749 9.16634L8.92784 8.54599C9.09251 8.38173 9.3156 8.28948 9.54819 8.28948C9.78078 8.28948 10.0039 8.38173 10.1685 8.54599L12.898 11.2756ZM8.38535 4.91281C8.57142 4.91302 8.74982 4.98703 8.88139 5.1186C9.01297 5.25017 9.08697 5.42857 9.08718 5.61465C9.08718 5.70771 9.12415 5.79697 9.18996 5.86278C9.25577 5.92859 9.34502 5.96556 9.43809 5.96556C9.53116 5.96556 9.62042 5.92859 9.68623 5.86278C9.75204 5.79697 9.78901 5.70771 9.78901 5.61465C9.7886 5.2425 9.64058 4.88571 9.37743 4.62256C9.11429 4.35941 8.75749 4.21139 8.38535 4.21098C8.29228 4.21098 8.20302 4.24796 8.13721 4.31377C8.0714 4.37957 8.03443 4.46883 8.03443 4.5619C8.03443 4.65497 8.0714 4.74422 8.13721 4.81003C8.20302 4.87584 8.29228 4.91281 8.38535 4.91281ZM13.5586 3.4291C13.1294 2.41193 12.4096 1.54401 11.4893 0.93404C10.5691 0.324068 9.48937 -0.000841307 8.38535 1.63604e-06C8.29228 1.63604e-06 8.20302 0.0369729 8.13721 0.102782C8.0714 0.168592 8.03443 0.257848 8.03443 0.350917C8.03443 0.443985 8.0714 0.533242 8.13721 0.599051C8.20302 0.664861 8.29228 0.701832 8.38535 0.701832C11.094 0.701832 13.2982 2.90602 13.2982 5.61465C13.2982 5.70771 13.3351 5.79697 13.4009 5.86278C13.4667 5.92859 13.556 5.96556 13.6491 5.96556C13.7421 5.96556 13.8314 5.92859 13.8972 5.86278C13.963 5.79697 14 5.70771 14 5.61465C14.0014 4.86385 13.8513 4.12049 13.5586 3.4291ZM8.38535 2.80732C9.93332 2.80732 11.1927 4.06667 11.1927 5.61465C11.1927 5.70771 11.2296 5.79697 11.2954 5.86278C11.3613 5.92859 11.4505 5.96556 11.5436 5.96556C11.6367 5.96556 11.7259 5.92859 11.7917 5.86278C11.8575 5.79697 11.8945 5.70771 11.8945 5.61465C11.8945 5.15382 11.8037 4.6975 11.6274 4.27175C11.451 3.846 11.1925 3.45915 10.8667 3.1333C10.5408 2.80744 10.154 2.54896 9.72824 2.37261C9.30249 2.19626 8.84617 2.10549 8.38535 2.10549C8.29228 2.10549 8.20302 2.14246 8.13721 2.20827C8.0714 2.27408 8.03443 2.36334 8.03443 2.45641C8.03443 2.54948 8.0714 2.63873 8.13721 2.70454C8.20302 2.77035 8.29228 2.80732 8.38535 2.80732Z" fill="currentColor"/>
</svg>
