<svg width="13" height="14" viewBox="0 0 13 14" fill="none" xmlns="http://www.w3.org/2000/svg">
<path d="M12.5815 13.4037L11.7642 12.7168C12.3629 11.5563 11.9075 10.1301 10.7468 9.53152C9.58625 8.93275 8.16007 9.38831 7.56146 10.5488C6.96285 11.7094 7.41825 13.1355 8.57893 13.7341C9.51004 14.2145 10.6464 14.0249 11.3708 13.2683L12.1472 13.9209C12.2902 14.0409 12.5033 14.0223 12.6232 13.8792C12.743 13.7365 12.7242 13.5236 12.5815 13.4037ZM9.66137 13.0403L9.66106 13.0406C8.88441 13.0407 8.25471 12.4115 8.2544 11.6349C8.25409 10.8582 8.88347 10.2284 9.66012 10.2279C10.4368 10.2282 11.0662 10.8582 11.0658 11.6349C11.0654 12.4104 10.4369 13.0393 9.66137 13.0403Z" fill="black"/>
<path d="M11.5979 2.89617L9.22565 0.458299C9.09228 0.311989 8.92948 0.195529 8.74794 0.116561C8.5664 0.0375921 8.37021 -0.00210088 8.17225 8.56664e-05H1.0562C0.471958 0.00102271 -0.000779902 0.475166 9.65986e-07 1.05941C9.65986e-07 1.07971 0.000625584 1.09986 0.00187497 1.12016V12.8485C-0.00343493 13.4618 0.489293 13.9631 1.10259 13.9684H7.31533C6.78111 13.4164 6.48769 12.675 6.49948 11.9069C6.47949 10.0068 8.00374 8.45033 9.90391 8.43034C9.94154 8.42987 9.97934 8.43018 10.017 8.43096C10.7305 8.42659 11.4254 8.65835 11.9934 9.08986V3.81884C11.9601 3.47779 11.822 3.15543 11.5979 2.89617ZM5.6488 9.09579C5.63334 9.09548 5.61788 9.0947 5.60242 9.09314H2.70352C2.39773 9.10157 2.13802 8.87075 2.11069 8.5659C2.11522 8.2687 2.35994 8.03147 2.6573 8.036C2.67276 8.03616 2.68822 8.03709 2.70368 8.03865H5.60273C5.90852 8.03022 6.16823 8.2612 6.19557 8.5659C6.19072 8.86309 5.946 9.10048 5.6488 9.09579ZM9.33903 6.46052C9.32341 6.46021 9.30779 6.45927 9.29218 6.45771H2.70352C2.39773 6.46614 2.13802 6.23532 2.11069 5.93047C2.11522 5.63327 2.35994 5.39588 2.6573 5.40057C2.67276 5.40073 2.68822 5.40166 2.70368 5.40322H9.29249C9.59859 5.39464 9.85846 5.62546 9.88579 5.93047C9.88095 6.22767 9.63638 6.46505 9.33903 6.46052ZM9.33903 4.02249C9.32341 4.02234 9.30779 4.02124 9.29218 4.01968H2.70352C2.39773 4.02812 2.13802 3.79729 2.11069 3.49244C2.11522 3.19524 2.35994 2.95801 2.6573 2.96254C2.67276 2.9627 2.68822 2.96364 2.70368 2.9652H9.29249C9.59859 2.95661 9.85846 3.18743 9.88579 3.49244C9.88095 3.78979 9.63638 4.02702 9.33903 4.02249Z" fill="black"/>
</svg>
