<svg width="14" height="14" viewBox="0 0 14 14" fill="none" xmlns="http://www.w3.org/2000/svg">
<path d="M7.66071 7.79392H7.08538V8.52938C6.62146 9.26334 6.37573 10.1141 6.37684 10.9823C6.37684 11.6101 6.50296 12.2081 6.73111 12.7537H0V11.3366H1.41708V0.708538C1.41708 0.520622 1.49173 0.340403 1.6246 0.207526C1.75748 0.0746494 1.9377 0 2.12561 0H10.6281C10.816 0 10.9962 0.0746494 11.1291 0.207526C11.262 0.340403 11.3366 0.520622 11.3366 0.708538V6.3903C10.6582 6.33733 9.97646 6.43577 9.34073 6.67852C8.70501 6.92126 8.13117 7.30225 7.66071 7.79392ZM3.54269 2.12561V3.54269H5.6683V2.12561H3.54269ZM3.54269 4.95976V6.37684H5.6683V4.95976H3.54269ZM3.54269 7.79392V9.21099H5.6683V7.79392H3.54269ZM7.08538 2.12561V3.54269H9.21099V2.12561H7.08538ZM7.08538 4.95976V6.37684H9.21099V4.95976H7.08538Z" fill="currentColor"/>
<path d="M10.8442 7.47507C11.6809 7.4762 12.4831 7.80915 13.0747 8.40089C13.6663 8.99263 13.9991 9.79486 14 10.6316C13.9989 11.4682 13.666 12.2703 13.0744 12.8619C12.4828 13.4535 11.6808 13.7863 10.8442 13.7874C10.0074 13.7865 9.20519 13.4537 8.61345 12.8621C8.02171 12.2705 7.68876 11.4684 7.68764 10.6316C7.68858 9.79473 8.02144 8.9924 8.6132 8.40064C9.20496 7.80888 10.0073 7.47601 10.8442 7.47507ZM10.5253 11.1368L9.24996 9.86143L8.61228 10.4991L10.5253 12.4122L13.0761 9.86143L12.4384 9.22375L10.5253 11.1368Z" fill="currentColor"/>
</svg>
