<svg width="14" height="14" viewBox="0 0 14 14" fill="none" xmlns="http://www.w3.org/2000/svg">
<path d="M2.10857 4.6643C2.05429 4.78102 2.03642 4.91139 2.05731 5.03841C2.1102 5.37123 2.44587 5.60721 2.77624 5.54374C2.90297 5.52006 3.01969 5.4589 3.11129 5.36817C3.18545 5.29499 3.23927 5.20375 3.26745 5.10344C3.29563 5.00314 3.2972 4.89722 3.272 4.79612C3.25308 4.72004 3.272 4.67854 3.32286 4.62809C4.27981 3.67358 5.23512 2.71705 6.19187 1.76234C6.21913 1.73508 6.25737 1.7186 6.29053 1.69724L6.24394 1.68768L5.89079 1.1317C5.8796 1.14696 5.86373 1.17645 5.84095 1.19944C4.84413 2.19728 3.84629 3.19389 2.8509 4.19295C2.77705 4.267 2.70524 4.31094 2.59498 4.32152C2.49101 4.33103 2.39136 4.3677 2.30602 4.42786C2.22069 4.48803 2.15267 4.56956 2.10878 4.6643H2.10857Z" fill="currentColor"/>
<path d="M13.9485 4.28754C13.8897 4.18176 13.8061 4.10018 13.6747 4.0658V4.0656C13.634 4.05454 13.592 4.04866 13.5498 4.0481C12.8364 4.04729 12.1229 4.04749 11.4097 4.0477C11.3877 4.0477 11.366 4.05095 11.3147 4.05522H11.3151C11.4073 4.0656 11.4925 4.0837 11.5706 4.11015C11.805 4.18888 11.9754 4.34104 12.0792 4.57723C12.2263 4.91147 12.1797 5.23208 11.9382 5.5061C11.7222 5.75124 11.4512 5.85112 11.1487 5.79497C11.1043 5.78664 11.0604 5.77543 11.0175 5.76141C10.6674 5.64789 10.456 5.39462 10.4224 5.026C10.4092 4.88136 10.359 4.78107 10.2617 4.68301C10.0734 4.49382 9.89555 4.29446 9.7088 4.10364C9.68321 4.07918 9.65153 4.06204 9.61705 4.054C9.60614 4.05128 9.59494 4.04985 9.58369 4.04973C7.84414 4.04709 6.10459 4.04709 4.36504 4.04973C4.32163 4.05173 4.28042 4.06945 4.24909 4.09957C4.02275 4.33354 3.7993 4.57029 3.57878 4.80975C3.55437 4.8362 3.54298 4.88441 3.54257 4.92245C3.53789 5.39665 3.19653 5.76649 2.72335 5.80637C2.58918 5.81734 2.45439 5.79476 2.33113 5.74066C2.19369 5.67987 2.0736 5.58574 1.98174 5.46681C1.88988 5.34788 1.82915 5.2079 1.80505 5.05957C1.72592 4.57174 2.07847 4.12602 2.59641 4.0477H2.59559H2.596H2.49225C1.86059 4.0477 1.22832 4.05665 0.596667 4.04342C0.310031 4.03732 0.102326 4.1191 0 4.39984V12.6515C0.0451619 12.7863 0.114126 12.898 0.229268 12.9621C0.26792 12.9835 0.311455 12.9995 0.360889 13.0095C0.405237 13.0184 0.451416 13.0207 0.496782 13.0209C4.83355 13.0215 9.17032 13.0209 13.5071 13.0225C13.7608 13.0225 13.9135 12.8976 14 12.6712V4.40045C13.9857 4.36158 13.9685 4.32384 13.9485 4.28754ZM11.5088 6.82821C11.5176 6.8266 11.5266 6.82598 11.5356 6.82638C11.5649 6.8276 11.5979 6.83716 11.6089 6.85343C11.7303 7.03347 11.8452 7.21819 11.9791 7.42874L10.4615 7.68628V7.99347H11.8686V8.68229H10.4597V8.98601H12.2187V9.66649C12.1829 9.66853 12.1455 9.6726 12.1083 9.6726C11.6034 9.67321 11.098 9.673 10.5933 9.673C10.454 9.673 10.4546 9.67321 10.4536 9.81744C10.4521 10.0225 10.4556 10.2282 10.4458 10.4328C10.4377 10.6009 10.3744 10.7359 10.2664 10.823C10.2613 10.8271 10.2573 10.8322 10.252 10.836C10.2493 10.8381 10.2463 10.8391 10.2436 10.8409C10.1745 10.8895 10.089 10.9202 9.98852 10.928C9.81153 10.9418 9.63394 10.9453 9.45634 10.9463C9.39694 10.9467 9.33774 10.9467 9.27854 10.9467C9.19941 10.9469 9.12048 10.9471 9.04154 10.9479C9.02201 10.9481 8.98926 10.9278 8.98458 10.9109C8.92498 10.6952 8.86944 10.4784 8.81085 10.2542L9.70494 9.8626C9.70494 9.673 9.70494 9.673 9.5131 9.673H7.76765V8.99089H9.69883V8.68554H8.15234V8.00038H9.69721V7.74833L9.4303 7.74792C9.3414 7.74772 9.25271 7.74792 9.16381 7.74874C8.88388 7.7522 8.60396 7.75932 8.32404 7.76094C8.29169 7.76094 8.24002 7.74325 8.23046 7.71985C8.14807 7.52252 8.07321 7.32234 7.98695 7.09979L8.2685 7.1002C8.35944 7.1002 8.44813 7.1002 8.53703 7.09959C9.53487 7.09206 10.5272 7.02086 11.5088 6.82821ZM2.27986 10.5941C2.24304 10.5941 2.21558 10.5909 2.19605 10.5815C2.1635 10.5657 2.15231 10.5327 2.15516 10.4701C2.1633 10.2821 2.1574 10.0933 2.1574 9.89678H6.62131V10.5921H6.5021C5.09476 10.5921 3.68721 10.5909 2.27986 10.5941ZM2.60068 7.91209V7.22246H6.1937V7.91209H2.60068Z" fill="currentColor"/>
<path d="M7.76216 1.7186C7.77803 1.72979 7.80223 1.74667 7.82278 1.76742C8.76304 2.70667 9.70249 3.64714 10.6442 4.58557C10.6979 4.63907 10.7164 4.68037 10.6916 4.76052C10.6124 5.01685 10.7099 5.27907 10.9099 5.42819C10.9764 5.47782 11.0543 5.51505 11.141 5.53519C11.4937 5.61758 11.8306 5.39462 11.8951 5.03556C11.9135 4.93286 11.9053 4.82714 11.8711 4.72856C11.8369 4.62999 11.7779 4.54186 11.6998 4.47267C11.6039 4.38672 11.4844 4.33164 11.3568 4.3146C11.3009 4.30457 11.2494 4.27783 11.2091 4.23791C10.1939 3.22583 9.18015 2.21233 8.1678 1.19741C8.16312 1.19293 8.15946 1.18764 8.1556 1.18235C8.1379 1.15794 8.12752 1.12946 8.12 1.11644H8.11979L7.74914 1.70965L7.76216 1.7186ZM6.1819 1.00008C6.21323 1.15631 6.28768 1.29546 6.39164 1.40633C6.39733 1.41223 6.40221 1.41854 6.40791 1.42423C6.41808 1.43441 6.42866 1.44315 6.43904 1.45271C6.44839 1.46126 6.45734 1.47021 6.46711 1.47835L6.48542 1.49218C6.62701 1.60285 6.80501 1.66917 7.00051 1.66957C7.11792 1.67025 7.23416 1.64611 7.3416 1.59875C7.44904 1.55138 7.54526 1.48186 7.62397 1.39472C7.70267 1.30759 7.76208 1.20481 7.79831 1.09312C7.83453 0.981427 7.84675 0.863344 7.83417 0.746602C7.79125 0.323056 7.43707 -0.000401239 6.99807 5.62488e-06C6.8778 -0.00043722 6.75888 0.0252737 6.64954 0.0753569C6.5402 0.12544 6.44305 0.198698 6.36483 0.290054C6.28662 0.381411 6.2292 0.488681 6.19656 0.604432C6.16391 0.720183 6.15683 0.841648 6.17579 0.960409C6.17803 0.973632 6.17946 0.987262 6.1819 1.00008Z" fill="currentColor"/>
</svg>
