<svg width="14" height="14" viewBox="0 0 14 14" fill="none" xmlns="http://www.w3.org/2000/svg">
<path d="M7.01574 0C7.11087 0 7.2052 0.0048789 7.30033 0.100015L13.7915 4.59986C13.9907 4.79989 14.0908 5.09994 13.8915 5.29915C13.6915 5.49999 13.3915 5.60001 13.1923 5.39998L12.9922 5.29996V8.09956C12.3738 7.58798 11.5978 7.30538 10.7952 7.29945C8.89731 7.29945 7.29952 8.89968 7.29952 10.8C7.29952 12.1994 8.19884 13.4995 9.49659 13.9996H2.00687C1.4076 13.9996 1.00754 13.5996 1.00754 12.9995V5.19995L0.808323 5.39998C0.508279 5.5992 0.309062 5.49999 0.109033 5.29996C-0.0909964 5.09994 0.00901839 4.79989 0.209048 4.59986L6.70024 0.100015C6.79538 0.00487889 6.8897 -1.74695e-08 6.98403 0H7.01655H7.01574ZM9.92917 4.39089H4.0714C3.99468 4.38799 3.91817 4.4006 3.84644 4.42796C3.7747 4.45532 3.70923 4.49687 3.65392 4.55012C3.59862 4.60338 3.55463 4.66724 3.52458 4.73789C3.49453 4.80854 3.47905 4.88452 3.47905 4.9613C3.47905 5.03807 3.49453 5.11406 3.52458 5.1847C3.55463 5.25535 3.59862 5.31922 3.65392 5.37247C3.70923 5.42572 3.7747 5.46727 3.84644 5.49463C3.91817 5.52199 3.99468 5.5346 4.0714 5.53171H9.92999C10.0049 5.53171 10.0792 5.51694 10.1484 5.48826C10.2177 5.45957 10.2806 5.41752 10.3336 5.36452C10.3866 5.31151 10.4287 5.24859 10.4574 5.17933C10.486 5.11008 10.5008 5.03585 10.5008 4.96089C10.5008 4.88593 10.486 4.8117 10.4574 4.74245C10.4287 4.67319 10.3866 4.61027 10.3336 4.55726C10.2806 4.50426 10.2177 4.46221 10.1484 4.43353C10.0792 4.40484 10.0049 4.39008 9.92999 4.39008L9.92917 4.39089Z" fill="currentColor"/>
<path d="M13.7834 10.4788C13.7828 10.47 13.7815 10.4613 13.7793 10.4528V10.4479L13.7769 10.4341C13.7322 10.2194 13.5891 10.0812 13.411 10.0812H13.3817C13.2363 10.0814 13.0967 10.0239 12.9937 9.92126C12.8906 9.81866 12.8325 9.67935 12.832 9.53392C12.832 9.4648 12.8646 9.3656 12.8784 9.33064C12.9646 9.13142 12.8727 8.90293 12.6588 8.78666L11.9888 8.41018L11.9766 8.4053C11.927 8.38904 11.8685 8.37033 11.8034 8.37033C11.6762 8.37298 11.5545 8.42283 11.4619 8.51019C11.3562 8.61346 11.1424 8.76877 11.0147 8.76877C10.8879 8.76877 10.6732 8.61427 10.5675 8.51019C10.4761 8.42102 10.3536 8.37087 10.226 8.37033C10.1667 8.37216 10.1081 8.38398 10.0528 8.4053L10.0414 8.41018L9.33884 8.78828L9.33396 8.79072C9.16321 8.89643 9.09409 9.14037 9.1811 9.33389L9.18272 9.33633L9.18354 9.33877C9.19736 9.36885 9.24045 9.47212 9.24045 9.56238C9.23981 9.70781 9.18147 9.84703 9.07826 9.94948C8.97505 10.0519 8.83539 10.1092 8.68997 10.1088H8.66069C8.47449 10.1088 8.33544 10.2454 8.29479 10.465L8.29316 10.4771V10.4812C8.29316 10.4877 8.28991 10.4967 8.28828 10.5072C8.27283 10.6016 8.23543 10.8227 8.23543 11.0032C8.24012 11.1785 8.25916 11.3531 8.29235 11.5253V11.5301L8.2956 11.544C8.33951 11.7586 8.48262 11.8969 8.66151 11.8969H8.67614C8.97944 11.8969 9.22582 12.1432 9.22582 12.4441C9.22582 12.5132 9.19329 12.6124 9.17947 12.6474C9.09653 12.8344 9.17459 13.0767 9.35836 13.1987L9.36324 13.2011L10.0259 13.567L10.0381 13.5719C10.0885 13.5882 10.1455 13.6069 10.2097 13.6069C10.3487 13.6069 10.474 13.554 10.5512 13.467C10.5593 13.4621 10.5675 13.454 10.5756 13.4467C10.6553 13.3776 10.87 13.1938 11.0123 13.1938C11.118 13.1938 11.2944 13.3036 11.4725 13.48C11.5451 13.5528 11.6393 13.6001 11.7411 13.6148C11.8428 13.6295 11.9466 13.6107 12.0368 13.5613L12.0392 13.5597L12.7182 13.1865L12.7206 13.184C12.8914 13.0783 12.9605 12.8344 12.8735 12.6409L12.8727 12.6384L12.8711 12.636C12.8396 12.571 12.8245 12.4992 12.8272 12.427L12.828 12.4205V12.4148C12.828 12.1123 13.076 11.8676 13.3776 11.8676H13.4094C13.5956 11.8676 13.7346 11.731 13.7753 11.5123L13.7769 11.4992V11.4952L13.7818 11.4732C13.798 11.3813 13.8354 11.1683 13.8354 10.9732C13.8314 10.8072 13.814 10.6419 13.7834 10.4788ZM11.035 11.8611C10.5545 11.8611 10.165 11.4732 10.165 10.9959C10.165 10.5178 10.5545 10.1316 11.035 10.1316C11.5148 10.1316 11.9043 10.5178 11.9043 10.9959C11.9043 11.4732 11.5148 11.8603 11.0342 11.8603L11.035 11.8611Z" fill="currentColor"/>
</svg>
