<svg width="14" height="14" viewBox="0 0 14 14" fill="none" xmlns="http://www.w3.org/2000/svg">
<path d="M12.25 1.74998H9.62503V0.875006C9.62503 0.391971 9.23305 0 8.75006 0H5.25005C4.76661 0 4.37501 0.391971 4.37501 0.875021V1.74998H1.75001C0.783567 1.74998 0 2.53356 0 3.50004V5.68372H14V3.50004C14.0001 2.53355 13.2165 1.74998 12.25 1.74998ZM8.75008 1.74998H5.25004V1.31249C5.25004 1.07109 5.44572 0.875006 5.68749 0.875006H8.31252C8.55415 0.875006 8.75008 1.07109 8.75008 1.31249V1.74998ZM6.99958 7.87504C7.48255 7.87504 7.87454 7.48283 7.87454 7.00002C7.87454 6.8398 7.82865 6.69201 7.7534 6.56253H6.24634C6.17085 6.69201 6.12501 6.8398 6.12501 7.00002C6.12501 7.48283 6.51615 7.87505 6.99958 7.87505V7.87504Z" fill="currentColor"/>
<path d="M8.68738 6.56253C8.72411 6.70283 8.75003 6.84767 8.75003 7.00002C8.75003 7.96643 7.96646 8.75001 6.99997 8.75001C6.03354 8.75001 5.24999 7.96643 5.24999 7.00002C5.24999 6.84767 5.27542 6.70283 5.31168 6.56253H0V11.375C0 12.3414 0.783567 13.1251 1.75001 13.1251H12.25C13.2165 13.1251 14 12.3414 14 11.375V6.56253H8.68738Z" fill="currentColor"/>
</svg>
