<svg width="14" height="14" viewBox="0 0 14 14" fill="none" xmlns="http://www.w3.org/2000/svg">
<path d="M13.2222 7.77778H4.66667V8.55556C4.66667 8.76184 4.58472 8.95967 4.43886 9.10553C4.293 9.25139 4.09517 9.33333 3.88889 9.33333H3.11111C2.90483 9.33333 2.707 9.25139 2.56114 9.10553C2.41528 8.95967 2.33333 8.76184 2.33333 8.55556V7.77778H0.777778C0.571498 7.77778 0.373667 7.69583 0.227806 7.54997C0.0819442 7.40411 0 7.20628 0 7C0 6.79372 0.0819442 6.59589 0.227806 6.45003C0.373667 6.30417 0.571498 6.22222 0.777778 6.22222H2.33333V5.44444C2.33333 5.0149 2.68157 4.66667 3.11111 4.66667H3.88889C4.31843 4.66667 4.66667 5.0149 4.66667 5.44444V6.22222H13.2222C13.4285 6.22222 13.6263 6.30417 13.7722 6.45003C13.9181 6.59589 14 6.79372 14 7C14 7.20628 13.9181 7.40411 13.7722 7.54997C13.6263 7.69583 13.4285 7.77778 13.2222 7.77778ZM13.2222 3.11111H10.8889V3.88889C10.8889 4.09517 10.8069 4.293 10.6611 4.43886C10.5152 4.58472 10.3174 4.66667 10.1111 4.66667H9.33333C9.12705 4.66667 8.92922 4.58472 8.78336 4.43886C8.6375 4.293 8.55556 4.09517 8.55556 3.88889V3.11111H0.777778C0.571498 3.11111 0.373667 3.02917 0.227806 2.88331C0.0819442 2.73744 0 2.53961 0 2.33333C0 2.12705 0.0819442 1.92922 0.227806 1.78336C0.373667 1.6375 0.571498 1.55556 0.777778 1.55556H8.55556V0.777778C8.55556 0.348232 8.90379 0 9.33333 0H10.1111C10.5407 0 10.8889 0.348232 10.8889 0.777778V1.55556H13.2222C13.4285 1.55556 13.6263 1.6375 13.7722 1.78336C13.9181 1.92922 14 2.12705 14 2.33333C14 2.53961 13.9181 2.73744 13.7722 2.88331C13.6263 3.02917 13.4285 3.11111 13.2222 3.11111ZM0.777778 10.8889H8.55556V10.1111C8.55556 9.68157 8.90379 9.33333 9.33333 9.33333H10.1111C10.5407 9.33333 10.8889 9.68157 10.8889 10.1111V10.8889H13.2222C13.4285 10.8889 13.6263 10.9708 13.7722 11.1167C13.9181 11.2626 14 11.4604 14 11.6667C14 11.8729 13.9181 12.0708 13.7722 12.2166C13.6263 12.3625 13.4285 12.4444 13.2222 12.4444H10.8889V13.2222C10.8889 13.4285 10.8069 13.6263 10.6611 13.7722C10.5152 13.9181 10.3174 14 10.1111 14H9.33333C9.12705 14 8.92922 13.9181 8.78336 13.7722C8.6375 13.6263 8.55556 13.4285 8.55556 13.2222V12.4444H0.777778C0.571498 12.4444 0.373667 12.3625 0.227806 12.2166C0.0819442 12.0708 0 11.8729 0 11.6667C0 11.4604 0.0819442 11.2626 0.227806 11.1167C0.373667 10.9708 0.571498 10.8889 0.777778 10.8889Z" fill="currentColor"/>
</svg>
