<svg width="13" height="14" viewBox="0 0 13 14" fill="none" xmlns="http://www.w3.org/2000/svg">
<path d="M4.93281 5.93281C5.43594 5.42969 6.025 5.04688 6.66875 4.79688L6.66719 4.79375C7.48281 4.37031 8.04062 3.51875 8.04062 2.53906C8.03906 1.13906 6.9 0 5.5 0C4.1 0 2.96094 1.13906 2.96094 2.53906C2.96094 3.51875 3.51875 4.37031 4.33437 4.79375L3.58125 5.92344H0.846875C0.379687 5.92344 0 6.30312 0 6.77031V8.4625C0 8.92969 0.379687 9.30937 0.846875 9.30937H3.45937C3.50625 8.03281 4.025 6.84063 4.93281 5.93281ZM3.49687 10.1531H0.423437C0.189062 10.1531 0 10.3422 0 10.5766C0 10.8109 0.189062 11 0.423437 11H3.68125C3.59531 10.725 3.53437 10.4422 3.49687 10.1531Z" fill="currentColor"/>
<path d="M11.6812 6.31875C10.8328 5.46875 9.70156 5 8.5 5C7.29844 5 6.16719 5.46875 5.31875 6.31875C4.46875 7.16719 4 8.29844 4 9.5C4 10.7016 4.46875 11.8328 5.31875 12.6812C6.16719 13.5312 7.29844 14 8.5 14C9.70156 14 10.8328 13.5312 11.6812 12.6812C12.5312 11.8328 13 10.7016 13 9.5C13 8.29844 12.5312 7.16719 11.6812 6.31875ZM10.625 10.0312H6.375C6.08125 10.0312 5.84375 9.79375 5.84375 9.5C5.84375 9.20625 6.08125 8.96875 6.375 8.96875H10.625C10.9187 8.96875 11.1562 9.20625 11.1562 9.5C11.1562 9.79375 10.9187 10.0312 10.625 10.0312Z" fill="currentColor"/>
</svg>
