<svg width="14" height="14" viewBox="0 0 14 14" fill="none" xmlns="http://www.w3.org/2000/svg">
<path d="M13.8581 4.16444L13.0673 3.37355C12.8503 3.15658 12.4583 3.19157 12.1924 3.45054L6.23617 9.40675C5.9702 9.67271 5.93521 10.0577 6.15918 10.2816L6.95007 11.0725C7.16704 11.2895 7.55899 11.2545 7.82496 10.9885L13.7742 5.03933C14.0401 4.77336 14.0751 4.38142 13.8581 4.16444ZM7.54499 11.8074L7.57299 11.8284L5.09532 13.1372H10.1067C10.4776 13.1372 10.7786 12.8363 10.7786 12.4653V8.62985L7.71297 11.6814C7.66398 11.7374 7.60098 11.7654 7.54499 11.8074ZM5.37528 9.94567C5.42428 9.81269 5.49427 9.68671 5.60625 9.57472L10.7856 4.41641V0.67191C10.7856 0.30096 10.4846 0 10.1136 0H0.67191C0.30096 0 0 0.30096 0 0.67191V12.4653C0 12.8363 0.30096 13.1372 0.67191 13.1372H4.00347L5.34029 9.91068L5.37528 9.94567ZM1.68677 1.00787H8.76283C9.13378 1.00787 9.43474 1.18984 9.43474 1.42081C9.43474 1.65178 9.13378 1.83376 8.76283 1.83376H1.68677C1.31582 1.83376 1.01486 1.65178 1.01486 1.42081C1.00787 1.19684 1.31582 1.00787 1.68677 1.00787ZM1.68677 3.22657H8.76283C9.13378 3.22657 9.43474 3.42254 9.43474 3.66051C9.43474 3.89848 9.13378 4.09445 8.76283 4.09445H1.68677C1.31582 4.09445 1.01486 3.89848 1.01486 3.66051C1.00787 3.42254 1.31582 3.22657 1.68677 3.22657ZM1.68677 6.39715C1.31582 6.39715 1.01486 6.19417 1.01486 5.94921C1.01486 5.70424 1.31582 5.50127 1.68677 5.50127H6.06819C6.43914 5.50127 6.7401 5.70424 6.7401 5.94921C6.7401 6.19417 6.43914 6.39715 6.06819 6.39715H1.68677ZM5.49427 10.3306L4.22044 13.2632L7.05506 11.8214L5.49427 10.3306Z" fill="currentColor"/>
</svg>
