<svg width="13" height="15" viewBox="0 0 13 15" fill="none" xmlns="http://www.w3.org/2000/svg">
<path d="M3.70986 6.52877C4.07665 6.88365 4.5113 7.1657 4.98945 7.35911C5.4686 7.55072 5.98173 7.64967 6.5 7.65041C7.01412 7.65041 7.53641 7.54988 8.00973 7.35911C8.4885 7.16593 8.92373 6.88387 9.29096 6.52877C9.65669 6.17275 9.94721 5.75087 10.1462 5.28682C10.3429 4.82772 10.4473 4.32112 10.4473 3.82244C10.4473 3.32376 10.3429 2.81717 10.1462 2.35807C9.94723 1.89378 9.65671 1.47163 9.29096 1.11532C8.92406 0.76078 8.48942 0.479008 8.01136 0.285775C7.04292 -0.0952582 5.95953 -0.0952582 4.99109 0.285775C4.51251 0.478936 4.07732 0.760704 3.70986 1.11532C3.3446 1.47156 3.05439 1.8934 2.85543 2.35728C2.65781 2.82176 2.55553 3.31918 2.5543 3.82165C2.5543 4.32033 2.65876 4.82693 2.85543 5.28682C3.05129 5.74751 3.34752 6.17653 3.71067 6.52956L3.70986 6.52877ZM9.66309 8.52508H3.33773C2.45277 8.52591 1.60431 8.86727 0.978552 9.47423C0.352794 10.0812 0.000864215 10.9042 0 11.7625C0.000864215 12.6209 0.352794 13.4439 0.978552 14.0508C1.60431 14.6578 2.45277 14.9992 3.33773 15H9.66227C10.5472 14.9992 11.3957 14.6578 12.0214 14.0508C12.6472 13.4439 12.9991 12.6209 13 11.7625C12.9991 10.9042 12.6472 10.0812 12.0214 9.47423C11.3957 8.86727 10.5472 8.52591 9.66227 8.52508H9.66309Z" fill="currentColor"/>
</svg>
