<svg width="14" height="14" viewBox="0 0 14 14" fill="none" xmlns="http://www.w3.org/2000/svg">
<path d="M12.9857 7.1595C12.9165 7.08017 12.8152 7.05485 12.7122 7.04135C12.6278 7.04304 12.5451 7.07173 12.4759 7.12236L11.708 7.85823L13.2051 9.33502L13.8819 8.59747C13.9612 8.52827 13.9882 8.43038 14 8.32743C13.9983 8.22279 13.9527 8.1249 13.8751 8.05401L12.9857 7.1595ZM8.07089 5.57806L3.72152 5.57469C3.24388 5.58481 2.86245 5.18312 2.86751 4.71899C2.85738 4.24979 3.26582 3.8768 3.74008 3.88186L8.08945 3.88523C8.56709 3.87511 8.94852 4.2768 8.94346 4.74093C8.9384 5.20507 8.54515 5.58144 8.07089 5.57806ZM6.33418 8.96878L3.73333 8.95865C3.2557 8.96878 2.87426 8.56709 2.87932 8.10296C2.8692 7.63376 3.27764 7.26076 3.7519 7.26582L6.33924 7.27089C6.81688 7.26076 7.19662 7.66245 7.19325 8.12658C7.18819 8.59072 6.81181 8.95865 6.33418 8.96878ZM10.0574 0.0303821L2.12996 2.34467e-06C0.982278 -0.00168542 0.0438818 0.908019 0.0303797 2.03207L0 11.9274C0 13.0549 0.92827 13.9747 2.08608 13.9966L4.96371 14.0034L4.97215 12.1722L12.1097 5.03629L12.1114 2.10633C12.1519 0.943462 11.2203 0.0354454 10.0574 0.0303821ZM6.8827 12.5232L6.87932 13.9966L8.37975 14.0017L12.7359 9.70971L11.2388 8.23291L6.8827 12.5232Z" fill="currentColor"/>
</svg>
