<svg width="16" height="15" viewBox="0 0 16 15" fill="none" xmlns="http://www.w3.org/2000/svg">
<path d="M11.36 0H1.12C0.48 0 0 0.48 0 1.12V13.12C0 13.76 0.48 14.32 1.12 14.32H8.08C7.92 14.08 7.76 13.68 7.76 13.36V12.72C7.76 11.76 8.56 10.88 9.6 10.88H9.76L10.48 10C10.24 9.76 10 9.44 9.92 9.04C9.44 7.76 10.16 6.32 11.52 5.92C11.76 5.84 12.08 5.76 12.32 5.76H12.56V0.96C12.56 0.48 12 0 11.36 0ZM2.8 2.96H5.68C6 2.96 6.24 3.2 6.24 3.52C6.24 3.84 6 4.08 5.68 4.08H2.8C2.48 4.08 2.24 3.84 2.24 3.52C2.24 3.2 2.48 2.96 2.8 2.96ZM7.44 10.72H2.8C2.48 10.72 2.24 10.48 2.24 10.16C2.24 9.84 2.48 9.6 2.8 9.6H7.52C7.84 9.6 8.08 9.84 8.08 10.16C8 10.4 7.76 10.72 7.44 10.72ZM8.32 7.36H2.8C2.48 7.36 2.24 7.12 2.24 6.8C2.24 6.48 2.48 6.24 2.8 6.24H8.32C8.64 6.24 8.88 6.48 8.88 6.8C8.88 7.12 8.64 7.36 8.32 7.36Z" fill="currentColor"/>
<path d="M15.04 11.84H14.4L12.8 10C13.68 9.68 14.16 8.8 13.84 7.92C13.6 7.2 12.96 6.8 12.24 6.8C12.08 6.8 11.92 6.8 11.68 6.88C10.8 7.2 10.32 8.08 10.64 8.96C10.8 9.44 11.2 9.84 11.68 10L10.08 11.84H9.6C9.04 11.84 8.64 12.24 8.64 12.8V13.36C8.64 13.92 9.12 14.32 9.6 14.32H14.96C15.52 14.32 15.92 13.92 15.92 13.36V12.8C16 12.32 15.52 11.84 15.04 11.84Z" fill="currentColor"/>
</svg>
