<svg width="14" height="14" viewBox="0 0 14 14" fill="none" xmlns="http://www.w3.org/2000/svg">
<path d="M13.5135 7.93628C13.8291 8.45738 13.9972 9.05437 14 9.66354C14.0027 10.2727 13.8401 10.8712 13.5293 11.3952C12.8958 12.4679 11.7207 13.1277 10.4493 13.125C9.17703 13.1224 8.00453 12.4574 7.37628 11.382C6.41377 9.73528 6.9974 7.6414 8.6844 6.69465C10.3714 5.74702 12.5283 6.30177 13.5135 7.93628ZM5.77852 11.2394C5.99727 11.8764 6.21427 12.4058 6.5424 12.8302C6.32365 12.9352 6.10665 12.9352 5.8879 12.9352C4.90614 12.9352 4.14314 12.1949 4.14314 11.2394H5.77939H5.77852ZM5.99815 0C6.65177 0 7.08752 0.423501 7.08752 0.955503V1.37813C8.72203 1.80163 10.1395 3.18064 10.3574 4.87814C7.63178 5.19577 5.56064 7.31678 5.56064 9.96803L5.57814 10.206L5.65252 10.6829C5.66302 10.7617 5.67002 10.8422 5.67002 10.9218H0V10.2857L1.4175 9.01341V5.51339C1.4175 3.49914 2.94438 1.90838 4.90614 1.48488V0.953753C4.90614 0.424376 5.34189 0 5.99727 0H5.99815ZM9.71516 8.08765C9.66593 8.13519 9.62678 8.19215 9.60002 8.25514C9.57326 8.31812 9.55945 8.38585 9.55941 8.45428V10.0048C9.55941 10.29 9.79916 10.521 10.0923 10.521H11.6865C11.8255 10.5229 11.9595 10.4696 12.0592 10.3728C12.1589 10.2761 12.2162 10.1437 12.2185 10.0048C12.2162 9.86585 12.1589 9.73349 12.0592 9.63672C11.9595 9.53995 11.8255 9.48666 11.6865 9.48853H10.6225V8.4534C10.6224 8.34988 10.5911 8.2488 10.5327 8.1633C10.4743 8.07779 10.3916 8.0118 10.2953 7.9739C10.1979 7.93443 10.0912 7.92409 9.98804 7.94413C9.8849 7.96417 9.78979 8.01372 9.71428 8.08678L9.71516 8.08765Z" fill="currentColor"/>
</svg>
