<svg width="14" height="14" viewBox="0 0 14 14" fill="none" xmlns="http://www.w3.org/2000/svg">
<path d="M3.90385 2.42308C4.11923 2.42308 4.30769 2.23462 4.30769 2.01923V0.403846C4.30769 0.188462 4.11923 0 3.90385 0C3.68846 0 3.5 0.188462 3.5 0.403846V2.01923C3.5 2.23462 3.68846 2.42308 3.90385 2.42308ZM11.6308 9.1C11.5769 8.91154 11.4423 8.80385 11.2538 8.80385C10.7692 8.77692 10.3115 8.77692 9.82692 8.75C9.66538 8.75 9.50385 8.77692 9.36923 8.83077C9.31538 8.85769 9.23462 8.88461 9.20769 8.93846C9.1 9.20769 8.99231 9.50385 8.88462 9.82692C9.90769 10.0423 10.8769 10.0423 11.8731 9.82692C11.7654 9.55769 11.6846 9.31538 11.6308 9.1ZM7.40385 2.42308C7.61923 2.42308 7.80769 2.23462 7.80769 2.01923V0.403846C7.80769 0.188462 7.61923 0 7.40385 0C7.18846 0 7 0.188462 7 0.403846V2.01923C7 2.23462 7.18846 2.42308 7.40385 2.42308ZM12.0346 10.3923C11.7923 10.4731 11.5769 10.5538 11.3346 10.6615C11.2269 10.7154 11.2808 10.85 11.3885 10.8769C11.4692 10.9038 11.5769 10.9038 11.7115 10.9038C11.8192 10.9038 11.9538 10.8769 12.0615 10.85C12.2231 10.8231 12.1962 10.6615 12.1962 10.5538C12.1962 10.4462 12.1154 10.3654 12.0346 10.3923Z" fill="currentColor"/>
<path d="M10.2308 6.46154C8.15769 6.46154 6.46154 8.15769 6.46154 10.2308C6.46154 12.3038 8.15769 14 10.2308 14C12.3038 14 14 12.3038 14 10.2308C14 8.15769 12.3038 6.46154 10.2308 6.46154ZM12.6538 10.15C12.5731 10.1769 12.4654 10.2038 12.3846 10.2308C12.3846 10.3115 12.4115 10.4192 12.4115 10.5V11.7923C12.4115 11.8731 12.3577 11.9808 12.3308 12.0077C12.3038 12.0615 11.6577 12.0615 11.6038 12.0077C11.4423 11.9 11.55 11.7115 11.4962 11.5769H9.28846C9.23462 11.7385 9.20769 12.0077 9.18077 12.0077C9.07308 12.0615 8.45385 12.0615 8.42692 12.0077C8.37308 11.9808 8.34616 11.8462 8.34616 11.7654V10.2308C8.29231 10.2038 8.18462 10.1769 8.10385 10.1769V10.0692C8.15769 9.88077 8.26539 9.74616 8.48077 9.77308C8.50769 9.77308 8.56154 9.71923 8.58846 9.66539C8.66923 9.45 8.75 9.26154 8.80385 9.04616C8.91154 8.69616 9.15385 8.53462 9.50385 8.48077C9.63846 8.45385 9.74616 8.45385 9.88077 8.42692C10.2308 8.37308 10.5269 8.37308 10.85 8.42692C11.0654 8.48077 11.3077 8.50769 11.5231 8.56154C11.6846 8.61539 11.7923 8.72308 11.8731 8.88462C11.9538 9.15385 12.0615 9.42308 12.1692 9.66539C12.1962 9.71923 12.25 9.77308 12.2769 9.77308C12.4923 9.74616 12.6 9.85385 12.6538 10.0423V10.15Z" fill="currentColor"/>
<path d="M9.36923 10.6346C9.18077 10.5539 8.99231 10.4731 8.80384 10.4192C8.69615 10.3923 8.58846 10.3923 8.56154 10.5269C8.50769 10.7154 8.56154 10.85 8.72307 10.8769C8.83077 10.9039 8.96538 10.9039 9.07307 10.9039C9.15384 10.9039 9.23461 10.9039 9.31538 10.8769C9.36923 10.8769 9.45 10.8231 9.45 10.7692C9.45 10.7423 9.39615 10.6615 9.36923 10.6346Z" fill="currentColor"/>
<path d="M5.65385 10.2308C5.65385 9.23462 5.97692 8.29231 6.54231 7.53846H2.55769C2.34231 7.53846 2.15385 7.35 2.15385 7.13462C2.15385 6.91923 2.34231 6.73077 2.55769 6.73077H7.26923C8.07692 6.05769 9.1 5.65385 10.2308 5.65385C10.6077 5.65385 10.9577 5.70769 11.3077 5.78846V2.96154C11.3077 1.77692 10.3923 0.807693 9.26154 0.807693H8.34615V2.01923C8.34615 2.53077 7.91539 2.96154 7.40385 2.96154C6.89231 2.96154 6.46154 2.53077 6.46154 2.01923V0.807693H4.84615V2.01923C4.84615 2.53077 4.41538 2.96154 3.90385 2.96154C3.39231 2.96154 2.96154 2.53077 2.96154 2.01923V0.807693H2.04615C0.915385 0.807693 0 1.77692 0 2.96154V11.8462C0 13.0308 0.915385 14 2.04615 14H7.61923C6.43462 13.1654 5.65385 11.7923 5.65385 10.2308ZM2.55769 4.30769H8.75C8.96539 4.30769 9.15385 4.49615 9.15385 4.71154C9.15385 4.92692 8.96539 5.11539 8.75 5.11539H2.55769C2.34231 5.11539 2.15385 4.92692 2.15385 4.71154C2.15385 4.49615 2.34231 4.30769 2.55769 4.30769ZM4.44231 9.96154H2.55769C2.34231 9.96154 2.15385 9.77308 2.15385 9.55769C2.15385 9.34231 2.34231 9.15385 2.55769 9.15385H4.44231C4.65769 9.15385 4.84615 9.34231 4.84615 9.55769C4.84615 9.77308 4.65769 9.96154 4.44231 9.96154Z" fill="currentColor"/>
</svg>
