<svg width="14" height="16" viewBox="0 0 14 16" fill="none" xmlns="http://www.w3.org/2000/svg">
<path d="M4.34952 0H8.04423C8.41051 0 8.70692 0.333648 8.70692 0.746389V1.36109C8.70692 1.77191 8.41205 2.10402 8.04711 2.10402H4.40731C4.02566 2.10402 3.71563 1.75463 3.71563 1.32499V0.715674C3.71563 0.32021 3.99975 0.000191973 4.34952 0.000191973V0ZM13.9981 12.2287C13.9958 12.2555 13.9851 12.281 13.9674 12.3014C13.9498 12.3217 13.9261 12.3359 13.8998 12.3419C13.8161 12.364 13.7322 12.3845 13.6502 12.4053C13.583 12.4225 13.5423 12.4821 13.5519 12.5439C13.5705 12.6552 13.5909 12.7681 13.5909 12.8794C13.5963 13.5609 13.6018 14.2419 13.5872 14.9234C13.5853 15.0455 13.5089 15.2355 13.4548 15.266C13.4047 15.3463 12.2849 15.3415 12.197 15.2868C11.9513 15.1395 12.0407 14.9082 12.0184 14.6959C12.0111 14.6325 11.9532 14.5826 11.8825 14.5826H8.28957C8.22622 14.5826 8.17055 14.6239 8.1573 14.6805C8.09798 14.9287 8.05498 15.2576 7.97704 15.2849C7.78353 15.3536 6.74342 15.3568 6.68544 15.2849C6.6075 15.2336 6.55356 15.0261 6.54223 14.8948C6.52016 14.6068 6.53263 14.3173 6.53686 14.0299C6.54223 13.5264 6.54953 13.0234 6.55721 12.518C6.55721 12.46 6.51612 12.4105 6.45661 12.3947L6.2297 12.34C6.17211 12.3266 6.12911 12.2786 6.12911 12.2219C6.12865 12.1947 6.13188 12.1676 6.13871 12.1413C6.14063 12.138 6.14063 12.1332 6.14235 12.1298C6.25005 11.837 6.40824 11.6124 6.81004 11.6604C6.8586 11.6656 6.9496 11.5696 6.9759 11.5063C7.11354 11.1722 7.26271 10.8401 7.361 10.4961C7.52667 9.91788 7.98068 9.68655 8.5591 9.58385C8.77699 9.5443 8.99872 9.5205 9.21833 9.48978C9.83207 9.41107 10.34 9.41242 10.9021 9.48978C10.906 9.48978 10.9077 9.48978 10.9094 9.49112C11.2928 9.56657 11.6836 9.62512 12.0614 9.72053C12.3423 9.79252 12.5431 9.96722 12.6454 10.2341C12.8057 10.6574 12.9729 11.0768 13.1478 11.4944C13.1778 11.5644 13.2745 11.6671 13.3304 11.6623C13.7005 11.6245 13.8737 11.813 13.9873 12.0918C14 12.1398 14.0023 12.1858 13.9981 12.2287ZM8.28343 13.0868C7.97028 12.9483 7.64956 12.8276 7.32279 12.7253C7.15885 12.674 6.97686 12.684 6.92599 12.9034C6.84977 13.2235 6.92061 13.4016 7.17536 13.4529C7.36848 13.4903 7.56986 13.4976 7.76836 13.5143H7.78123C7.9158 13.5143 8.05767 13.5095 8.18686 13.4822C8.28112 13.4615 8.40168 13.3895 8.43048 13.3123C8.44852 13.2576 8.35772 13.119 8.28343 13.0868ZM12.5452 11.8025C12.626 11.7871 12.6754 11.7119 12.6491 11.6399C12.5185 11.2838 12.392 10.9584 12.292 10.6263C12.1976 10.306 11.9691 10.1486 11.6293 10.1352C10.8013 10.0981 9.97278 10.0757 9.14404 10.0684C8.8724 10.0665 8.59461 10.1246 8.32662 10.1832C8.21681 10.2072 8.07149 10.2821 8.03386 10.3694C7.83575 10.818 7.66738 11.2769 7.47292 11.7718C9.19683 12.0972 10.853 12.1139 12.5452 11.8025ZM13.2221 12.9581C13.2169 12.794 13.1079 12.6688 12.9503 12.7153C12.5559 12.8275 12.1702 12.9681 11.7961 13.1361C11.6253 13.2148 11.6871 13.4308 11.8806 13.4701C12.033 13.5009 12.1928 13.4989 12.3865 13.5129H12.412C12.5859 13.4943 12.798 13.4857 13.0029 13.441C13.2891 13.3776 13.2292 13.1501 13.2221 12.9581ZM12.2862 1.78055V9.1162C12.2862 9.20029 12.2043 9.26018 12.1225 9.23772C11.6975 9.12158 11.2619 9.05151 10.8319 8.96224C10.8299 8.96224 10.8265 8.96032 10.8248 8.96032C10.1941 8.86817 9.62455 8.86625 8.93479 8.96032C8.68714 8.99833 8.44142 9.02751 8.19608 9.07358C7.54625 9.19683 7.03771 9.47577 6.85112 10.1678C6.74131 10.5786 6.57429 10.9774 6.41937 11.3763C6.38981 11.4531 6.28883 11.5698 6.23277 11.5631C5.78164 11.5065 5.60387 11.7769 5.48389 12.1259C5.48197 12.1298 5.48197 12.1346 5.48043 12.138C5.47106 12.1779 5.4675 12.2189 5.46987 12.2598C5.47188 12.286 5.48202 12.311 5.49887 12.3312C5.51573 12.3515 5.53848 12.3659 5.56394 12.3726L5.85497 12.4479C5.91064 12.4632 5.95077 12.5132 5.94865 12.5713C5.94021 13.1841 5.93138 13.7938 5.92447 14.4012C5.92274 14.5506 5.91928 14.7013 5.91775 14.85C5.91775 14.9188 5.86015 14.9733 5.79047 14.9733H0.67056C0.234782 14.9733 0 14.6513 0 14.2405V1.78055C0 1.55786 0.18103 1.37779 0.407558 1.37644H2.21556C2.43018 1.37644 2.60238 1.5473 2.60238 1.75655V2.37278C2.60238 2.59547 2.78341 2.77496 3.00994 2.77688H9.27631C9.50284 2.77496 9.68387 2.59355 9.68387 2.37278V1.77536C9.68387 1.55459 9.86662 1.37452 10.0914 1.37452H11.8804C12.105 1.37644 12.288 1.55786 12.2862 1.78055ZM5.37523 9.56503C5.37523 9.18819 5.06193 8.88008 4.67876 8.88008H2.61601C2.23283 8.88008 1.91973 9.18819 1.91973 9.56503C1.91973 9.9413 2.23283 10.2498 2.61601 10.2498H4.67722C5.06193 10.2498 5.37523 9.9413 5.37523 9.56503ZM10.3665 5.99185C10.3665 5.6152 10.0592 5.30708 9.6831 5.30708H2.60315C2.42186 5.30774 2.24821 5.38014 2.12015 5.50845C1.99209 5.63677 1.92003 5.81056 1.91973 5.99185C1.91973 6.36869 2.22688 6.67681 2.60315 6.67681H9.6831C9.86441 6.67615 10.0381 6.60372 10.1662 6.47537C10.2942 6.34701 10.3663 6.17317 10.3665 5.99185Z" fill="currentColor"/>
</svg>
