<svg width="14" height="15" viewBox="0 0 14 15" fill="none" xmlns="http://www.w3.org/2000/svg">
<path d="M13.4015 0H0.583942C0.262774 0 0 0.262774 0 0.583942V13.4307C0 13.7518 0.262774 14.0146 0.583942 14.0146H13.4161C13.7372 14.0146 14 13.7518 14 13.4307V0.583942C13.9854 0.262774 13.7226 0 13.4015 0ZM3.73723 2.35036C4.21898 2.90511 4.67153 3.45985 5.05109 4.0438L4.16058 4.62774C4.11679 4.55474 4.0292 4.43796 3.92701 4.30657C3.48905 3.70803 3.13869 3.22628 2.87591 2.89051L3.73723 2.35036ZM4.07299 10.4234C4 10.4818 3.88321 10.5985 3.72263 10.7737C3.66423 10.8467 3.63504 10.9051 3.60584 10.9343L2.9489 10.1898C3.18248 9.89781 3.28467 9.59124 3.25547 9.24088V6.32117H2.32117V5.34307H4.26277V8.80292L5.15329 7.94161C5.18248 8.0146 5.19708 8.16058 5.22628 8.33577C5.28467 8.67153 5.32847 8.91971 5.38686 9.08029C4.90511 9.50365 4.46715 9.95621 4.07299 10.4234ZM11.4161 9.86861L9.9854 9.35766V11.6934H8.93431V9.0073L7.28467 8.40876L7.67883 7.50365L8.9635 7.94161V6.33577H7.0073V6.56934C7.0073 7.82482 6.91971 8.80292 6.74452 9.48905C6.58394 10.1898 6.26277 10.9343 5.78102 11.6934C5.72263 11.635 5.62044 11.5474 5.47445 11.4161C5.21168 11.1825 5.0365 11.0219 4.93431 10.9489C5.37226 10.365 5.66423 9.79562 5.78102 9.21168C5.91241 8.64234 5.9708 7.75183 5.9708 6.56934V3.0219C8.11679 2.89051 9.83942 2.71533 11.1533 2.51095L11.5474 3.48905C9.81022 3.69343 8.30657 3.83942 7.0219 3.92701V5.34307H11.6642V6.32117H9.9854V8.29197L11.8102 8.91971L11.4161 9.86861Z" fill="currentColor"/>
</svg>
