<svg width="14" height="15" viewBox="0 0 14 15" fill="none" xmlns="http://www.w3.org/2000/svg">
<path d="M6.35458 12.0754C6.35458 11.469 6.8475 10.9776 7.45567 10.9776H8.347C8.98667 10.6431 9.02867 9.74392 9.00767 9.28392C8.3155 8.75075 7.89608 7.92475 7.89608 7.04658C7.89608 5.48883 9.16492 4.31783 10.7378 4.31783C10.8217 4.31783 10.9162 4.31783 11 4.32833V1.00367C11 0.4495 10.5492 0 9.99333 0H1.00667C0.450833 0 0 0.449583 0 1.00367V13.2463C0 13.8005 0.450833 14.25 1.00667 14.25H6.35458V12.0754ZM2.286 2.39417H7.67592C7.73786 2.39381 7.79927 2.40573 7.85659 2.42924C7.9139 2.45274 7.966 2.48736 8.00987 2.53111C8.05373 2.57485 8.0885 2.62685 8.11217 2.6841C8.13583 2.74135 8.14793 2.80272 8.14775 2.86467C8.14792 2.92661 8.13581 2.98797 8.11214 3.04521C8.08847 3.10245 8.0537 3.15444 8.00984 3.19817C7.96597 3.24191 7.91388 3.27652 7.85657 3.30002C7.79926 3.32352 7.73786 3.33544 7.67592 3.33508H2.28583C2.22389 3.33544 2.16249 3.32352 2.10518 3.30002C2.04787 3.27652 1.99578 3.24191 1.95191 3.19817C1.90805 3.15444 1.87328 3.10245 1.84961 3.04521C1.82594 2.98797 1.81383 2.92661 1.814 2.86467C1.81382 2.80271 1.82592 2.74133 1.84959 2.68408C1.87326 2.62682 1.90804 2.57482 1.95191 2.53108C1.99579 2.48733 2.04789 2.45271 2.10522 2.42921C2.16255 2.40571 2.22396 2.3938 2.28592 2.39417H2.286ZM4.5615 8.17575H2.286C2.02383 8.17575 1.81408 7.96658 1.81408 7.69475C1.81408 7.43342 2.02383 7.22433 2.286 7.21392H4.5615C4.82367 7.21392 5.03333 7.423 5.03333 7.69475C5.03333 7.95617 4.82367 8.17575 4.5615 8.17575ZM5.78833 5.75017H2.286C2.22405 5.75053 2.16265 5.73862 2.10532 5.71513C2.048 5.69163 1.9959 5.65702 1.95203 5.61329C1.90815 5.56955 1.87337 5.51756 1.8497 5.46031C1.82602 5.40307 1.81392 5.3417 1.81408 5.27975C1.81391 5.21779 1.826 5.15642 1.84967 5.09916C1.87334 5.0419 1.90812 4.9899 1.952 4.94616C1.99587 4.90242 2.04798 4.8678 2.1053 4.8443C2.16263 4.8208 2.22404 4.80889 2.286 4.80925H5.78833C5.85029 4.80889 5.9117 4.8208 5.96903 4.8443C6.02636 4.8678 6.07846 4.90242 6.12234 4.94616C6.16621 4.9899 6.20099 5.0419 6.22466 5.09916C6.24833 5.15642 6.26043 5.21779 6.26025 5.27975C6.26042 5.3417 6.24831 5.40307 6.22464 5.46031C6.20096 5.51756 6.16618 5.56955 6.12231 5.61329C6.07843 5.65702 6.02633 5.69163 5.96901 5.71513C5.91169 5.73862 5.85028 5.75053 5.78833 5.75017Z" fill="currentColor"/>
<path d="M7.94333 14.25C7.83142 14.25 7.75 14.1583 7.75 14.0563V12.2108C7.75 12.0988 7.84167 12.0172 7.94333 12.0172H8.829L8.90025 11.9866C10.4577 11.3544 10.2744 9.38658 10.2236 8.99908L10.193 8.79517L10.0199 8.69325C9.511 8.38742 9.19542 7.83675 9.19542 7.25558C9.19542 6.32775 9.94875 5.58342 10.8648 5.58342H10.987C11.7097 5.63442 12.3306 6.16458 12.4935 6.87833C12.6462 7.56142 12.3713 8.265 11.8013 8.6525L11.6384 8.75442L11.6181 8.94808C11.5468 9.50892 11.4247 11.3747 12.9312 11.9866L13.0126 12.0172H13.8066C13.9186 12.0172 14 12.1088 14 12.2108V14.036C14 14.2297 13.9287 14.2501 13.8372 14.2501H7.94333V14.25Z" fill="currentColor"/>
</svg>
