<svg width="14" height="15" viewBox="0 0 14 15" fill="none" xmlns="http://www.w3.org/2000/svg">
<path d="M13.3568 11.8876H12.1977L12.1463 11.8361L12.1163 11.8076C11.7918 11.436 11.8733 11.2531 12.1977 10.7357L12.242 10.6628C12.3006 10.5828 12.3606 10.5028 12.4049 10.4227L12.515 10.1826C12.6065 9.9454 12.6536 9.69387 12.655 9.43948C12.655 8.33904 11.7761 7.43582 10.69 7.43582C9.60383 7.43582 8.72491 8.33189 8.72491 9.43948C8.72491 9.88394 8.86496 10.307 9.13078 10.6628C9.18938 10.75 9.24797 10.8372 9.30085 10.9186C9.61098 11.3488 9.72245 11.5089 9.2494 11.9019H8.03177C7.66163 11.9019 7.43296 12.3178 7.43296 12.6093V14.037C7.43296 14.3657 7.69878 14.6344 8.01605 14.6344H13.4454C13.7555 14.6201 13.9999 14.3572 13.9999 14.037V12.6079C14.007 12.2077 13.7198 11.8876 13.3568 11.8876ZM7.72737 10.9072H8.04464C7.7288 10.4384 7.56016 9.8868 7.56159 9.32086C7.56159 7.74881 8.85067 6.46687 10.4427 6.46687C10.8343 6.46687 11.2045 6.5469 11.5432 6.68409V1.13474C11.5432 0.643114 11.396 0 10.3727 0H1.21048C0.617389 0 0 0.320128 0 1.13474V13.3853C0 13.9613 0.318698 14.4772 1.21048 14.4772H6.37111C6.28679 14.2914 6.24249 14.0885 6.24249 13.8841V12.4635C6.25106 11.7104 6.84559 10.9072 7.72737 10.9072ZM1.81644 2.50386C1.81644 2.31092 1.97222 2.148 2.15657 2.148H9.15079C9.33515 2.148 9.49093 2.30378 9.49093 2.50386C9.49093 2.69679 9.33515 2.85971 9.15079 2.85971H2.15657C1.97222 2.86114 1.81644 2.70536 1.81644 2.50386ZM2.15657 5.01629C1.97222 5.01629 1.81644 4.86051 1.81644 4.659C1.81644 4.46607 1.97222 4.30314 2.15657 4.30314H9.15079C9.33515 4.30314 9.49093 4.45892 9.49093 4.659C9.49093 4.85193 9.33515 5.01629 9.15079 5.01629H2.15657Z" fill="currentColor"/>
</svg>
