<svg width="14" height="14" viewBox="0 0 14 14" fill="none" xmlns="http://www.w3.org/2000/svg">
<path d="M12.0012 11.7264L10.4651 13.2553C10.266 13.4544 9.99581 13.5682 9.71136 13.5682C9.42691 13.5682 9.15668 13.4544 8.95757 13.2553C8.75845 13.0562 8.64467 12.786 8.64467 12.5015C8.64467 12.2171 8.75845 11.9469 8.95757 11.7477L10.4865 10.2188C10.3798 9.62148 10.5647 9.00281 11.0056 8.56902C11.3612 8.22057 11.8234 8.02146 12.3212 8.02146C12.3425 8.02146 12.371 8.02146 12.3923 8.02146V7.51656H13.2101C13.7221 7.51656 13.8999 7.27478 13.9568 7.12544C14.0208 6.98322 14.0634 6.68455 13.7079 6.32188L7.85533 0.355561C7.62777 0.120891 7.32199 0 7.00198 0C6.68198 0 6.37619 0.128002 6.14864 0.355561L0.288989 6.32899C-0.0665718 6.69166 -0.0167933 6.99033 0.0400965 7.13256C0.0969863 7.27478 0.281878 7.52367 0.786775 7.52367H1.47656V11.9753C1.47656 13.0846 2.37969 13.9949 3.49615 13.9949H5.19573V14.0091H10.3798C11.4892 14.0091 12.3994 13.106 12.3994 11.9895V11.7477C12.3781 11.7477 12.3567 11.7477 12.3354 11.7477C12.2216 11.7549 12.1078 11.7477 12.0012 11.7264Z" fill="currentColor"/>
<path d="M12.2998 8.46235C11.9301 8.46235 11.5603 8.60458 11.2758 8.88192C10.8705 9.28015 10.7567 9.86327 10.9274 10.3682L9.2278 12.0677C8.9789 12.3166 8.9789 12.722 9.2278 12.978C9.3558 13.106 9.51936 13.1629 9.68291 13.1629C9.84647 13.1629 10.01 13.0989 10.138 12.978L11.8376 11.2713C11.9869 11.3211 12.1434 11.3495 12.2998 11.3495C12.6696 11.3495 13.0394 11.2073 13.3239 10.9299C13.7648 10.4891 13.8572 9.84193 13.6083 9.30859C13.5301 9.39392 13.395 9.5077 13.2101 9.68548C13.1105 9.78504 12.9896 9.83482 12.8687 9.83482C12.7479 9.83482 12.627 9.78504 12.5274 9.68548C12.3283 9.48637 12.3283 9.20192 12.5274 9.00281C12.7123 8.81792 12.9114 8.60458 12.9043 8.59747C12.7123 8.50502 12.5061 8.46235 12.2998 8.46235Z" fill="currentColor"/>
</svg>
