<svg width="14" height="15" viewBox="0 0 14 15" fill="none" xmlns="http://www.w3.org/2000/svg">
<path d="M0.718528 14.5471C0.527962 14.5471 0.345202 14.4714 0.210452 14.3367C0.0757018 14.2019 0 14.0191 0 13.8286V0.718528C0 0.527962 0.0757018 0.345202 0.210452 0.210452C0.345202 0.0757018 0.527962 0 0.718528 0L11.2316 0C11.4222 0 11.6049 0.0757018 11.7397 0.210452C11.8744 0.345202 11.9501 0.527962 11.9501 0.718528V8.01774C11.7471 7.97885 11.541 7.9579 11.3343 7.95513C10.5415 7.95894 9.77474 8.23828 9.1653 8.74529C8.55586 9.2523 8.14166 9.95543 7.99366 10.7343C7.84566 11.5131 7.97306 12.3191 8.35404 13.0144C8.73502 13.7096 9.34587 14.2507 10.082 14.5451L0.718528 14.5471ZM4.96605 9.3501C4.9426 9.3505 4.91945 9.35552 4.89793 9.36487C4.87642 9.37421 4.85695 9.38771 4.84065 9.40458C4.82435 9.42145 4.81154 9.44137 4.80294 9.4632C4.79434 9.48502 4.79012 9.50833 4.79053 9.53178L4.86033 13.688C4.8614 13.7354 4.88101 13.7806 4.91497 13.8138C4.94893 13.847 4.99453 13.8655 5.04201 13.8655L5.57475 13.8563C5.59829 13.8559 5.62152 13.8508 5.64311 13.8414C5.66469 13.832 5.6842 13.8184 5.70052 13.8014C5.71683 13.7845 5.72962 13.7644 5.73816 13.7425C5.7467 13.7205 5.75082 13.6971 5.75027 13.6736L5.6774 9.51536C5.67726 9.49222 5.67255 9.46934 5.66354 9.44803C5.65454 9.42672 5.6414 9.4074 5.6249 9.39118C5.60839 9.37496 5.58885 9.36217 5.56738 9.35353C5.54591 9.3449 5.52295 9.34059 5.49982 9.34086L4.96605 9.3501ZM3.23851 7.90175C3.21478 7.90229 3.19139 7.90749 3.16968 7.91706C3.14796 7.92664 3.12835 7.9404 3.11195 7.95756C3.09556 7.97471 3.0827 7.99493 3.07412 8.01706C3.06554 8.03919 3.06141 8.06279 3.06195 8.08652L3.15947 13.688C3.16001 13.7351 3.17903 13.7801 3.21244 13.8133C3.24584 13.8465 3.29096 13.8653 3.33807 13.8655L3.86978 13.8563C3.89337 13.856 3.91667 13.8511 3.93831 13.8417C3.95996 13.8323 3.97953 13.8188 3.99587 13.8017C4.01221 13.7847 4.025 13.7646 4.03348 13.7426C4.04197 13.7206 4.04599 13.6972 4.04531 13.6736L3.95088 8.06907C3.94955 8.02195 3.92996 7.9772 3.89625 7.94426C3.86254 7.91132 3.81735 7.89276 3.77022 7.89251L3.23851 7.90175ZM1.54586 10.4679C1.49846 10.4695 1.45348 10.4892 1.42024 10.5231C1.38699 10.5569 1.36802 10.6022 1.36726 10.6496L1.42166 13.6828C1.42247 13.7302 1.44186 13.7754 1.47565 13.8086C1.50944 13.8418 1.55493 13.8604 1.60232 13.8604L2.13505 13.8512C2.15851 13.8506 2.18163 13.8455 2.2031 13.836C2.22456 13.8265 2.24395 13.8129 2.26016 13.796C2.27636 13.779 2.28907 13.759 2.29754 13.7371C2.30602 13.7152 2.3101 13.6919 2.30955 13.6685L2.25618 10.6363C2.25618 10.6128 2.25156 10.5896 2.24258 10.5679C2.23361 10.5462 2.22045 10.5266 2.20386 10.51C2.18728 10.4934 2.16759 10.4802 2.14592 10.4713C2.12425 10.4623 2.10103 10.4577 2.07757 10.4577L1.54586 10.4679ZM7.86275 1.49967L5.67021 4.62219C5.63108 4.6782 5.61571 4.74742 5.62744 4.81473C5.63917 4.88204 5.67706 4.94198 5.73282 4.98145L5.74925 4.99171C5.79567 5.02193 5.84988 5.03798 5.90527 5.03791H7.62769V7.00154C7.63062 7.0746 7.662 7.14362 7.71512 7.19387C7.76825 7.24411 7.83891 7.2716 7.91202 7.27047C7.95739 7.27066 8.00215 7.25994 8.04252 7.23921C8.08289 7.21849 8.11769 7.18838 8.144 7.1514L10.3365 4.02991C10.3566 4.00256 10.371 3.97146 10.3789 3.93846C10.3867 3.90546 10.3879 3.87122 10.3824 3.83775C10.3769 3.80428 10.3647 3.77225 10.3466 3.74356C10.3285 3.71486 10.3048 3.69007 10.277 3.67065L10.2595 3.65731C10.2127 3.62824 10.1586 3.61294 10.1035 3.61317H8.37906V1.64645C8.37691 1.57412 8.34624 1.50557 8.29374 1.45577C8.24125 1.40596 8.17118 1.37894 8.09883 1.3806C8.05171 1.37953 8.00507 1.39023 7.96312 1.41174C7.92118 1.43325 7.88527 1.46488 7.85864 1.50378L7.86275 1.49967ZM8.53508 11.4C8.53444 10.7068 8.79596 10.0391 9.26717 9.53075C9.73837 9.02242 10.3844 8.71111 11.0756 8.65929V11.597H14C13.9487 12.3034 13.6254 12.9624 13.0982 13.4353C12.5709 13.9082 11.8808 14.1582 11.173 14.1327C10.4652 14.1071 9.79494 13.8081 9.30314 13.2984C8.81134 12.7888 8.53638 12.1082 8.53611 11.4H8.53508ZM11.4646 11.2018V8.65723C12.122 8.70718 12.7396 8.99156 13.205 9.4586C13.6703 9.92564 13.9524 10.5443 14 11.2018H11.4646Z" fill="currentColor"/>
</svg>
