<svg width="14" height="14" viewBox="0 0 14 14" fill="none" xmlns="http://www.w3.org/2000/svg">
<path d="M12.367 0H1.633C1.1999 0 0.784542 0.172048 0.478295 0.478295C0.172048 0.784542 0 1.1999 0 1.633V9.158C0 9.5911 0.172048 10.0065 0.478295 10.3127C0.784542 10.619 1.1999 10.791 1.633 10.791H12.367C12.8001 10.791 13.2155 10.619 13.5217 10.3127C13.828 10.0065 14 9.5911 14 9.158V1.633C14 1.1999 13.828 0.784542 13.5217 0.478295C13.2155 0.172048 12.8001 0 12.367 0ZM10.59 4.672L8.59 6.51C8.44235 6.64577 8.24908 6.72112 8.0485 6.72112C7.84792 6.72112 7.65465 6.64577 7.507 6.51L6.207 5.31L4.507 6.91C4.35264 7.05587 4.14666 7.13445 3.93437 7.12845C3.72208 7.12244 3.52087 7.03236 3.375 6.878C3.22913 6.72364 3.15055 6.51766 3.15656 6.30537C3.16256 6.09308 3.25264 5.89187 3.407 5.746L5.653 3.631C5.80028 3.49241 5.99459 3.41475 6.19682 3.41364C6.39905 3.41252 6.5942 3.48804 6.743 3.625L8.054 4.832L9.51 3.493C9.58637 3.41705 9.67728 3.35731 9.7773 3.31735C9.87731 3.27739 9.98436 3.25803 10.092 3.26044C10.1997 3.26285 10.3058 3.28698 10.4039 3.33138C10.502 3.37578 10.5902 3.43953 10.6631 3.51882C10.736 3.59811 10.7921 3.6913 10.8281 3.79281C10.8641 3.89432 10.8792 4.00205 10.8726 4.10954C10.866 4.21704 10.8377 4.32209 10.7895 4.4184C10.7413 4.5147 10.6741 4.60028 10.592 4.67L10.59 4.672ZM10.697 11.596H3.304C3.09183 11.596 2.88834 11.6803 2.73831 11.8303C2.58829 11.9803 2.504 12.1838 2.504 12.396C2.504 12.6082 2.58829 12.8117 2.73831 12.9617C2.88834 13.1117 3.09183 13.196 3.304 13.196H10.698C10.9102 13.196 11.1137 13.1117 11.2637 12.9617C11.4137 12.8117 11.498 12.6082 11.498 12.396C11.498 12.1838 11.4137 11.9803 11.2637 11.8303C11.1137 11.6803 10.9102 11.596 10.698 11.596H10.697Z" fill="currentColor"/>
</svg>
