<svg width="14" height="15" viewBox="0 0 14 15" fill="none" xmlns="http://www.w3.org/2000/svg">
<path d="M10.9095 8.12806C10.2982 8.12806 9.70073 8.30931 9.1925 8.6489C8.68427 8.98849 8.28815 9.47116 8.05424 10.0359C7.82032 10.6006 7.75912 11.222 7.87837 11.8215C7.99762 12.421 8.29196 12.9717 8.72417 13.4039C9.15639 13.8361 9.70706 14.1304 10.3066 14.2497C10.9061 14.3689 11.5275 14.3077 12.0922 14.0738C12.6569 13.8399 13.1396 13.4438 13.4792 12.9356C13.8187 12.4273 14 11.8298 14 11.2186C14 10.8127 13.9201 10.4108 13.7647 10.0359C13.6094 9.66092 13.3818 9.32022 13.0948 9.03324C12.8078 8.74626 12.4671 8.51862 12.0922 8.36331C11.7172 8.20799 11.3153 8.12806 10.9095 8.12806ZM11.9371 11.5044C12.0389 11.5064 12.136 11.5477 12.2081 11.6198C12.2801 11.6918 12.3214 11.7889 12.3234 11.8907C12.3234 11.9415 12.3134 11.9917 12.294 12.0386C12.2746 12.0855 12.2461 12.128 12.2103 12.1639C12.1744 12.1998 12.1318 12.2282 12.0849 12.2477C12.0381 12.2671 11.9878 12.2771 11.9371 12.2771H11.2958V12.617C11.2958 12.7195 11.2551 12.8177 11.1827 12.8902C11.1102 12.9626 11.0119 13.0033 10.9095 13.0033C10.807 13.0033 10.7088 12.9626 10.6363 12.8902C10.5639 12.8177 10.5232 12.7195 10.5232 12.617V12.2771H9.88962C9.78717 12.2771 9.68891 12.2364 9.61646 12.1639C9.54401 12.0915 9.50331 11.9932 9.50331 11.8907C9.50331 11.84 9.5133 11.7898 9.53272 11.7429C9.55213 11.696 9.58059 11.6535 9.61646 11.6176C9.65233 11.5817 9.69492 11.5533 9.74179 11.5338C9.78866 11.5144 9.83889 11.5044 9.88962 11.5044H10.5232V11.404H9.88962C9.78717 11.404 9.68891 11.3633 9.61646 11.2908C9.54401 11.2184 9.50331 11.1201 9.50331 11.0177C9.50331 10.9152 9.54401 10.817 9.61646 10.7445C9.68891 10.6721 9.78717 10.6314 9.88962 10.6314H10.0442L9.62693 10.1292C9.56136 10.0492 9.53022 9.94655 9.54036 9.84368C9.5505 9.7408 9.6011 9.64617 9.68101 9.58059C9.76093 9.51502 9.86362 9.48388 9.9665 9.49402C10.0694 9.50417 10.164 9.55476 10.2296 9.63468L10.9095 10.4768L11.5894 9.63468C11.6567 9.55688 11.7517 9.50848 11.8542 9.49981C11.9567 9.49115 12.0586 9.52292 12.138 9.58832C12.1771 9.62037 12.2095 9.65995 12.2331 9.70472C12.2567 9.74948 12.2711 9.79853 12.2754 9.84895C12.2797 9.89937 12.2739 9.95015 12.2582 9.99827C12.2426 10.0464 12.2175 10.0909 12.1843 10.1292L11.7671 10.6314H11.9139C12.0164 10.6314 12.1146 10.6721 12.1871 10.7445C12.2595 10.817 12.3002 10.9152 12.3002 11.0177C12.3002 11.1201 12.2595 11.2184 12.1871 11.2908C12.1146 11.3633 12.0164 11.404 11.9139 11.404H11.2726V11.5044H11.9371Z" fill="currentColor"/>
<path d="M10.9172 7.19318C11.1429 7.19667 11.3678 7.21994 11.5894 7.26271V1.61481C11.5853 1.18378 11.4107 0.771917 11.1037 0.469302C10.7968 0.166687 10.3825 -0.0020435 9.95143 1.86825e-05H1.63797C1.20693 -0.0020435 0.792616 0.166687 0.485657 0.469302C0.178699 0.771917 0.0040808 1.18378 0 1.61481V12.2925C0.0040808 12.7235 0.178699 13.1354 0.485657 13.438C0.792616 13.7406 1.20693 13.9094 1.63797 13.9073H7.96578C7.26514 13.1748 6.87242 12.2013 6.86865 11.1877C6.87168 10.6594 6.97887 10.1369 7.18407 9.65012C7.38926 9.16333 7.68845 8.72179 8.0645 8.35076C8.44055 7.97974 8.88607 7.68652 9.37558 7.48788C9.86509 7.28925 10.389 7.1891 10.9172 7.19318ZM4.38079 2.1402H9.85872C9.96527 2.1402 10.0675 2.18252 10.1428 2.25787C10.2182 2.33322 10.2605 2.43541 10.2605 2.54196C10.2605 2.64852 10.2182 2.75071 10.1428 2.82605C10.0675 2.9014 9.96527 2.94373 9.85872 2.94373H4.38079C4.27424 2.94373 4.17205 2.9014 4.0967 2.82605C4.02136 2.75071 3.97903 2.64852 3.97903 2.54196C3.97903 2.43541 4.02136 2.33322 4.0967 2.25787C4.17205 2.18252 4.27424 2.1402 4.38079 2.1402ZM4.38079 4.58942H9.85872C9.91851 4.57234 9.98145 4.56938 10.0426 4.58075C10.1037 4.59213 10.1614 4.61754 10.211 4.65499C10.2607 4.69244 10.3009 4.7409 10.3287 4.79656C10.3564 4.85222 10.3708 4.91355 10.3708 4.97574C10.3708 5.03792 10.3564 5.09926 10.3287 5.15491C10.3009 5.21057 10.2607 5.25903 10.211 5.29648C10.1614 5.33393 10.1037 5.35934 10.0426 5.37072C9.98145 5.3821 9.91851 5.37913 9.85872 5.36205H4.38079C4.321 5.37913 4.25806 5.3821 4.19693 5.37072C4.13579 5.35934 4.07813 5.33393 4.02849 5.29648C3.97885 5.25903 3.93857 5.21057 3.91084 5.15491C3.88311 5.09926 3.86868 5.03792 3.86868 4.97574C3.86868 4.91355 3.88311 4.85222 3.91084 4.79656C3.93857 4.7409 3.97885 4.69244 4.02849 4.65499C4.07813 4.61754 4.13579 4.59213 4.19693 4.58075C4.25806 4.56938 4.321 4.57234 4.38079 4.58942ZM2.8819 7.30134L2.10927 8.07397C2.09125 8.09266 2.06965 8.10753 2.04576 8.11769C2.02186 8.12785 1.99616 8.13308 1.9702 8.13308C1.94423 8.13308 1.91854 8.12785 1.89464 8.11769C1.87075 8.10753 1.84914 8.09266 1.83113 8.07397L1.46026 7.71084C1.42236 7.67293 1.40106 7.62151 1.40106 7.5679C1.40106 7.51429 1.42236 7.46287 1.46026 7.42496C1.49817 7.38705 1.54959 7.36576 1.6032 7.36576C1.65681 7.36576 1.70823 7.38705 1.74614 7.42496L1.97792 7.65675L2.65011 7.0541C2.6688 7.03518 2.69105 7.02016 2.71559 7.0099C2.74012 6.99965 2.76645 6.99437 2.79305 6.99437C2.81964 6.99437 2.84597 6.99965 2.8705 7.0099C2.89504 7.02016 2.9173 7.03518 2.93598 7.0541C2.95823 7.09492 2.96501 7.1424 2.95507 7.18781C2.94514 7.23323 2.91916 7.27354 2.8819 7.30134ZM2.99779 4.79803L2.22517 5.57066C2.20817 5.58822 2.18773 5.60209 2.16513 5.6114C2.14253 5.6207 2.11825 5.62524 2.09382 5.62474C2.03864 5.62437 1.98585 5.60214 1.94702 5.56293L1.54525 5.16117C1.52648 5.1424 1.51159 5.12011 1.50143 5.09559C1.49128 5.07106 1.48605 5.04478 1.48605 5.01823C1.48605 4.99169 1.49128 4.9654 1.50143 4.94087C1.51159 4.91635 1.52648 4.89407 1.54525 4.87529C1.56402 4.85652 1.58631 4.84163 1.61083 4.83148C1.63536 4.82132 1.66164 4.81609 1.68819 4.81609C1.71474 4.81609 1.74102 4.82132 1.76555 4.83148C1.79007 4.84163 1.81235 4.85652 1.83113 4.87529L2.06291 5.10708L2.7351 4.50443C2.7536 4.48301 2.77643 4.46574 2.80208 4.45376C2.82772 4.44177 2.85561 4.43534 2.88392 4.43489C2.91222 4.43444 2.9403 4.43998 2.96632 4.45114C2.99234 4.4623 3.0157 4.47883 3.03488 4.49966C3.05406 4.52048 3.06862 4.54512 3.07761 4.57196C3.0866 4.59881 3.08981 4.62725 3.08704 4.65542C3.08426 4.68359 3.07557 4.71086 3.06152 4.73544C3.04747 4.76002 3.02839 4.78135 3.00552 4.79803H2.99779ZM3.09051 2.43379L2.27152 3.16779C2.23508 3.20009 2.1888 3.21914 2.14018 3.22187C2.08499 3.2215 2.03221 3.19927 1.99338 3.16006L1.62252 2.79693C1.58461 2.75902 1.56331 2.7076 1.56331 2.65399C1.56331 2.60038 1.58461 2.54897 1.62252 2.51106C1.66043 2.47315 1.71184 2.45185 1.76545 2.45185C1.81906 2.45185 1.87048 2.47315 1.90839 2.51106L2.14018 2.74284L2.81236 2.1402C2.83164 2.12193 2.85433 2.10764 2.87913 2.09815C2.90392 2.08865 2.93035 2.08413 2.9569 2.08485C2.98344 2.08557 3.00959 2.09151 3.03384 2.10233C3.05809 2.11315 3.07997 2.12864 3.09823 2.14792C3.1165 2.1672 3.13078 2.18989 3.14028 2.21469C3.14978 2.23948 3.15429 2.26591 3.15358 2.29246C3.15286 2.319 3.14692 2.34515 3.1361 2.3694C3.12528 2.39365 3.10979 2.41553 3.09051 2.43379ZM3.97903 7.4945C3.97903 7.38795 4.02136 7.28575 4.0967 7.21041C4.17205 7.13506 4.27424 7.09273 4.38079 7.09273H7.02318C7.08297 7.07565 7.14591 7.07269 7.20705 7.08406C7.26818 7.09544 7.32584 7.12086 7.37548 7.1583C7.42513 7.19575 7.4654 7.24421 7.49313 7.29987C7.52086 7.35553 7.5353 7.41686 7.5353 7.47905C7.5353 7.54123 7.52086 7.60257 7.49313 7.65822C7.4654 7.71388 7.42513 7.76234 7.37548 7.79979C7.32584 7.83724 7.26818 7.86265 7.20705 7.87403C7.14591 7.88541 7.08297 7.88244 7.02318 7.86536H4.38079C4.27886 7.86754 4.18004 7.83011 4.10512 7.76095C4.0302 7.69179 3.985 7.59629 3.97903 7.4945Z" fill="currentColor"/>
</svg>
