<svg width="14" height="14" viewBox="0 0 14 14" fill="none" xmlns="http://www.w3.org/2000/svg">
<path d="M13.7663 12.8075H13.0885V4.33115C13.0885 4.21902 13.0589 4.10888 13.0029 4.01179C12.9468 3.91469 12.8662 3.83406 12.7691 3.778L9.28659 1.7524C9.18969 1.69825 9.08036 1.67029 8.96937 1.67125C8.85837 1.67222 8.74955 1.7021 8.65361 1.75793C8.55768 1.81376 8.47794 1.89362 8.42227 1.98965C8.3666 2.08568 8.3369 2.19455 8.33612 2.30555V12.7997H7.61158V0.638324C7.61149 0.532148 7.58494 0.427668 7.53433 0.334331C7.48372 0.240993 7.41065 0.161742 7.32171 0.103741C7.23278 0.0457411 7.13079 0.0108214 7.02497 0.00213948C6.91915 -0.00654245 6.81284 0.0112872 6.71564 0.0540164L1.2621 2.39125C1.14658 2.4413 1.04819 2.52399 0.978989 2.62917C0.909792 2.73435 0.872805 2.85744 0.872565 2.98334V12.8075H0.233723C0.171736 12.8075 0.112287 12.8321 0.0684558 12.876C0.0246243 12.9198 0 12.9792 0 13.0412V13.7658C0 13.8277 0.0246243 13.8872 0.0684558 13.931C0.112287 13.9749 0.171736 13.9995 0.233723 13.9995H13.7663C13.8283 13.9995 13.8877 13.9749 13.9315 13.931C13.9754 13.8872 14 13.8277 14 13.7658V13.0334C14 12.9714 13.9754 12.912 13.9315 12.8682C13.8877 12.8243 13.8283 12.7997 13.7663 12.7997V12.8075ZM10.1046 4.04289C10.1046 4.01219 10.1107 3.9818 10.1224 3.95345C10.1342 3.92509 10.1514 3.89932 10.1731 3.87762C10.1948 3.85592 10.2205 3.8387 10.2489 3.82696C10.2773 3.81521 10.3076 3.80916 10.3383 3.80916H11.0551C11.0858 3.80916 11.1162 3.81521 11.1445 3.82696C11.1729 3.8387 11.1987 3.85592 11.2204 3.87762C11.2421 3.89932 11.2593 3.92509 11.271 3.95345C11.2828 3.9818 11.2888 4.01219 11.2888 4.04289V4.76743C11.2888 4.82942 11.2642 4.88886 11.2204 4.93269C11.1765 4.97653 11.1171 5.00115 11.0551 5.00115H10.3306C10.2686 5.00115 10.2091 4.97653 10.1653 4.93269C10.1215 4.88886 10.0968 4.82942 10.0968 4.76743L10.1046 4.04289ZM10.1046 5.85813C10.1046 5.79615 10.1292 5.7367 10.1731 5.69287C10.2169 5.64904 10.2764 5.62441 10.3383 5.62441H11.0551C11.1171 5.62441 11.1765 5.64904 11.2204 5.69287C11.2642 5.7367 11.2888 5.79615 11.2888 5.85813V6.58268C11.2888 6.64466 11.2642 6.70411 11.2204 6.74794C11.1765 6.79177 11.1171 6.8164 11.0551 6.8164H10.3306C10.2686 6.8164 10.2091 6.79177 10.1653 6.74794C10.1215 6.70411 10.0968 6.64466 10.0968 6.58268L10.1046 5.85813ZM10.1046 7.67338C10.1046 7.64269 10.1107 7.6123 10.1224 7.58394C10.1342 7.55558 10.1514 7.52982 10.1731 7.50812C10.1948 7.48641 10.2205 7.4692 10.2489 7.45745C10.2773 7.4457 10.3076 7.43966 10.3383 7.43966H11.0551C11.0858 7.43966 11.1162 7.4457 11.1445 7.45745C11.1729 7.4692 11.1987 7.48641 11.2204 7.50812C11.2421 7.52982 11.2593 7.55558 11.271 7.58394C11.2828 7.6123 11.2888 7.64269 11.2888 7.67338V8.39792C11.2888 8.45991 11.2642 8.51936 11.2204 8.56319C11.1765 8.60702 11.1171 8.63165 11.0551 8.63165H10.3306C10.2686 8.63165 10.2091 8.60702 10.1653 8.56319C10.1215 8.51936 10.0968 8.45991 10.0968 8.39792L10.1046 7.67338ZM10.1046 9.48863C10.1046 9.42664 10.1292 9.3672 10.1731 9.32336C10.2169 9.27953 10.2764 9.25491 10.3383 9.25491H11.0551C11.1171 9.25491 11.1765 9.27953 11.2204 9.32336C11.2642 9.3672 11.2888 9.42664 11.2888 9.48863V10.2132C11.2888 10.2752 11.2642 10.3346 11.2204 10.3784C11.1765 10.4223 11.1171 10.4469 11.0551 10.4469H10.3306C10.2686 10.4469 10.2091 10.4223 10.1653 10.3784C10.1215 10.3346 10.0968 10.2752 10.0968 10.2132L10.1046 9.48863ZM10.1046 11.3039C10.1046 11.2419 10.1292 11.1824 10.1731 11.1386C10.2169 11.0948 10.2764 11.0702 10.3383 11.0702H11.0551C11.1171 11.0702 11.1765 11.0948 11.2204 11.1386C11.2642 11.1824 11.2888 11.2419 11.2888 11.3039V12.0284C11.2888 12.0904 11.2642 12.1499 11.2204 12.1937C11.1765 12.2375 11.1171 12.2621 11.0551 12.2621H10.3306C10.2686 12.2621 10.2091 12.2375 10.1653 12.1937C10.1215 12.1499 10.0968 12.0904 10.0968 12.0284L10.1046 11.3039ZM4.75237 2.22764C4.75237 2.19695 4.75841 2.16655 4.77016 2.1382C4.7819 2.10984 4.79912 2.08408 4.82082 2.06237C4.84252 2.04067 4.86829 2.02345 4.89665 2.01171C4.925 1.99996 4.9554 1.99392 4.98609 1.99392H5.71063C5.74132 1.99392 5.77171 1.99996 5.80007 2.01171C5.82843 2.02345 5.85419 2.04067 5.8759 2.06237C5.8976 2.08408 5.91482 2.10984 5.92656 2.1382C5.93831 2.16655 5.94435 2.19695 5.94435 2.22764V2.95218C5.94435 3.01417 5.91973 3.07362 5.8759 3.11745C5.83206 3.16128 5.77262 3.1859 5.71063 3.1859H4.9783C4.91631 3.1859 4.85686 3.16128 4.81303 3.11745C4.7692 3.07362 4.74458 3.01417 4.74458 2.95218L4.75237 2.22764ZM4.75237 4.04289C4.75237 4.01219 4.75841 3.9818 4.77016 3.95345C4.7819 3.92509 4.79912 3.89932 4.82082 3.87762C4.84252 3.85592 4.86829 3.8387 4.89665 3.82696C4.925 3.81521 4.9554 3.80916 4.98609 3.80916H5.71063C5.74132 3.80916 5.77171 3.81521 5.80007 3.82696C5.82843 3.8387 5.85419 3.85592 5.8759 3.87762C5.8976 3.89932 5.91482 3.92509 5.92656 3.95345C5.93831 3.9818 5.94435 4.01219 5.94435 4.04289V4.76743C5.94435 4.82942 5.91973 4.88886 5.8759 4.93269C5.83206 4.97653 5.77262 5.00115 5.71063 5.00115H4.9783C4.91631 5.00115 4.85686 4.97653 4.81303 4.93269C4.7692 4.88886 4.74458 4.82942 4.74458 4.76743L4.75237 4.04289ZM4.75237 5.85813C4.75237 5.79615 4.77699 5.7367 4.82082 5.69287C4.86465 5.64904 4.9241 5.62441 4.98609 5.62441H5.71063C5.77262 5.62441 5.83206 5.64904 5.8759 5.69287C5.91973 5.7367 5.94435 5.79615 5.94435 5.85813V6.58268C5.94435 6.64466 5.91973 6.70411 5.8759 6.74794C5.83206 6.79177 5.77262 6.8164 5.71063 6.8164H4.9783C4.91631 6.8164 4.85686 6.79177 4.81303 6.74794C4.7692 6.70411 4.74458 6.64466 4.74458 6.58268L4.75237 5.85813ZM4.75237 7.67338C4.75237 7.64269 4.75841 7.6123 4.77016 7.58394C4.7819 7.55558 4.79912 7.52982 4.82082 7.50812C4.84252 7.48641 4.86829 7.4692 4.89665 7.45745C4.925 7.4457 4.9554 7.43966 4.98609 7.43966H5.71063C5.74132 7.43966 5.77171 7.4457 5.80007 7.45745C5.82843 7.4692 5.85419 7.48641 5.8759 7.50812C5.8976 7.52982 5.91482 7.55558 5.92656 7.58394C5.93831 7.6123 5.94435 7.64269 5.94435 7.67338V8.39792C5.94435 8.45991 5.91973 8.51936 5.8759 8.56319C5.83206 8.60702 5.77262 8.63165 5.71063 8.63165H4.9783C4.91631 8.63165 4.85686 8.60702 4.81303 8.56319C4.7692 8.51936 4.74458 8.45991 4.74458 8.39792L4.75237 7.67338ZM4.75237 9.48863C4.75237 9.42664 4.77699 9.3672 4.82082 9.32336C4.86465 9.27953 4.9241 9.25491 4.98609 9.25491H5.71063C5.77262 9.25491 5.83206 9.27953 5.8759 9.32336C5.91973 9.3672 5.94435 9.42664 5.94435 9.48863V10.2132C5.94435 10.2752 5.91973 10.3346 5.8759 10.3784C5.83206 10.4223 5.77262 10.4469 5.71063 10.4469H4.9783C4.91631 10.4469 4.85686 10.4223 4.81303 10.3784C4.7692 10.3346 4.74458 10.2752 4.74458 10.2132L4.75237 9.48863ZM4.75237 11.3039C4.75237 11.2419 4.77699 11.1824 4.82082 11.1386C4.86465 11.0948 4.9241 11.0702 4.98609 11.0702H5.71063C5.77262 11.0702 5.83206 11.0948 5.8759 11.1386C5.91973 11.1824 5.94435 11.2419 5.94435 11.3039V12.0284C5.94435 12.0904 5.91973 12.1499 5.8759 12.1937C5.83206 12.2375 5.77262 12.2621 5.71063 12.2621H4.9783C4.91631 12.2621 4.85686 12.2375 4.81303 12.1937C4.7692 12.1499 4.74458 12.0904 4.74458 12.0284L4.75237 11.3039ZM2.56316 4.04289C2.56316 4.01219 2.56921 3.9818 2.58095 3.95345C2.5927 3.92509 2.60991 3.89932 2.63162 3.87762C2.65332 3.85592 2.67909 3.8387 2.70744 3.82696C2.7358 3.81521 2.76619 3.80916 2.79688 3.80916H3.52142C3.55212 3.80916 3.58251 3.81521 3.61087 3.82696C3.63922 3.8387 3.66499 3.85592 3.68669 3.87762C3.70839 3.89932 3.72561 3.92509 3.73736 3.95345C3.7491 3.9818 3.75515 4.01219 3.75515 4.04289V4.76743C3.75515 4.82942 3.73052 4.88886 3.68669 4.93269C3.64286 4.97653 3.58341 5.00115 3.52142 5.00115H2.79688C2.7349 5.00115 2.67545 4.97653 2.63162 4.93269C2.58779 4.88886 2.56316 4.82942 2.56316 4.76743V4.04289ZM2.56316 5.85813C2.56316 5.79615 2.58779 5.7367 2.63162 5.69287C2.67545 5.64904 2.7349 5.62441 2.79688 5.62441H3.52142C3.58341 5.62441 3.64286 5.64904 3.68669 5.69287C3.73052 5.7367 3.75515 5.79615 3.75515 5.85813V6.58268C3.75515 6.64466 3.73052 6.70411 3.68669 6.74794C3.64286 6.79177 3.58341 6.8164 3.52142 6.8164H2.79688C2.7349 6.8164 2.67545 6.79177 2.63162 6.74794C2.58779 6.70411 2.56316 6.64466 2.56316 6.58268V5.85813ZM2.56316 7.67338C2.56316 7.64269 2.56921 7.6123 2.58095 7.58394C2.5927 7.55558 2.60991 7.52982 2.63162 7.50812C2.65332 7.48641 2.67909 7.4692 2.70744 7.45745C2.7358 7.4457 2.76619 7.43966 2.79688 7.43966H3.52142C3.55212 7.43966 3.58251 7.4457 3.61087 7.45745C3.63922 7.4692 3.66499 7.48641 3.68669 7.50812C3.70839 7.52982 3.72561 7.55558 3.73736 7.58394C3.7491 7.6123 3.75515 7.64269 3.75515 7.67338V8.39792C3.75515 8.45991 3.73052 8.51936 3.68669 8.56319C3.64286 8.60702 3.58341 8.63165 3.52142 8.63165H2.79688C2.7349 8.63165 2.67545 8.60702 2.63162 8.56319C2.58779 8.51936 2.56316 8.45991 2.56316 8.39792V7.67338ZM2.56316 9.48863C2.56316 9.42664 2.58779 9.3672 2.63162 9.32336C2.67545 9.27953 2.7349 9.25491 2.79688 9.25491H3.52142C3.58341 9.25491 3.64286 9.27953 3.68669 9.32336C3.73052 9.3672 3.75515 9.42664 3.75515 9.48863V10.2132C3.75515 10.2752 3.73052 10.3346 3.68669 10.3784C3.64286 10.4223 3.58341 10.4469 3.52142 10.4469H2.79688C2.7349 10.4469 2.67545 10.4223 2.63162 10.3784C2.58779 10.3346 2.56316 10.2752 2.56316 10.2132V9.48863ZM2.56316 11.3039C2.56316 11.2419 2.58779 11.1824 2.63162 11.1386C2.67545 11.0948 2.7349 11.0702 2.79688 11.0702H3.52142C3.58341 11.0702 3.64286 11.0948 3.68669 11.1386C3.73052 11.1824 3.75515 11.2419 3.75515 11.3039V12.0284C3.75515 12.0904 3.73052 12.1499 3.68669 12.1937C3.64286 12.2375 3.58341 12.2621 3.52142 12.2621H2.79688C2.7349 12.2621 2.67545 12.2375 2.63162 12.1937C2.58779 12.1499 2.56316 12.0904 2.56316 12.0284V11.3039Z" fill="currentColor"/>
</svg>
