<svg width="12" height="14" viewBox="0 0 12 14" fill="none" xmlns="http://www.w3.org/2000/svg">
<path d="M11.467 6.04535H10.8856V5.10256C10.8856 5.02726 10.8557 4.95504 10.8024 4.9018C10.7492 4.84855 10.677 4.81864 10.6017 4.81864C10.5264 4.81864 10.4541 4.84855 10.4009 4.9018C10.3477 4.95504 10.3177 5.02726 10.3177 5.10256V6.04535H8.66038C8.58508 6.04535 8.51286 6.07527 8.45962 6.12851C8.40637 6.18176 8.37646 6.25398 8.37646 6.32928V7.77811H6.16619V4.40294C6.16619 4.32764 6.13628 4.25542 6.08303 4.20217C6.02979 4.14893 5.95757 4.11901 5.88227 4.11901H5.0563V2.5092C5.0563 2.4339 5.02639 2.36168 4.97315 2.30844C4.9199 2.25519 4.84768 2.22528 4.77238 2.22528H3.38128V0.283992C3.38129 0.246701 3.37396 0.209773 3.35969 0.175318C3.34543 0.140863 3.32451 0.109555 3.29815 0.0831834C3.27178 0.0568114 3.24048 0.0358917 3.20603 0.021619C3.17158 0.0073462 3.13465 0 3.09736 0C3.06007 0 3.02314 0.0073462 2.98869 0.021619C2.95424 0.0358917 2.92294 0.0568114 2.89657 0.0831834C2.87021 0.109555 2.84929 0.140863 2.83503 0.175318C2.82076 0.209773 2.81343 0.246701 2.81344 0.283992V2.22528H1.42098C1.34568 2.22528 1.27346 2.25519 1.22022 2.30844C1.16697 2.36168 1.13706 2.4339 1.13706 2.5092V4.11901H0.283925C0.208623 4.11901 0.136406 4.14893 0.0831598 4.20217C0.0299136 4.25542 4.2222e-09 4.32764 0 4.40294V13.7161C0 13.7914 0.0299136 13.8636 0.0831598 13.9168C0.136406 13.9701 0.208623 14 0.283925 14H11.4684C11.5437 14 11.6159 13.9701 11.6691 13.9168C11.7224 13.8636 11.7523 13.7914 11.7523 13.7161V6.3286C11.7524 6.29129 11.7451 6.25433 11.7309 6.21984C11.7166 6.18535 11.6957 6.15402 11.6693 6.12763C11.643 6.10125 11.6116 6.08034 11.5771 6.0661C11.5427 6.05187 11.5057 6.04458 11.4684 6.04467L11.467 6.04535ZM2.57977 12.2808H1.72257V11.425H2.57977V12.2808ZM2.57977 10.4428H1.72121V9.58694H2.57977V10.4428ZM2.57977 8.60339H1.72121V7.74347H2.57977V8.60068V8.60339ZM2.57977 6.764H1.72121V5.9095H2.57977V6.76535V6.764ZM4.43412 12.2801H3.57827V11.4243H4.43547L4.43412 12.2801ZM4.43412 10.4421H3.57827V9.58626H4.43683L4.43412 10.4421ZM4.43412 8.60271H3.57827V7.74347H4.43683L4.43412 8.60271ZM4.43412 6.76332H3.57827V5.9095H4.43683L4.43412 6.76332ZM8.0837 12.1151H6.1628V11.5472H8.0837V12.1151ZM8.0837 10.2295H6.1628V9.66166H8.0837V10.2295ZM11.1804 12.1151H8.93887V11.5472H11.1804V12.1151ZM11.1804 10.2295H8.93887V9.66166H11.1804V10.2295ZM11.1804 8.34392H8.93887V7.77607H11.1804V8.34392Z" fill="currentColor"/>
</svg>
