<svg width="14" height="14" viewBox="0 0 14 14" fill="none" xmlns="http://www.w3.org/2000/svg">
<path d="M10.5837 9.62791L10.3011 9.34527L13.8345 5.81178C14.0901 5.55626 14.0446 5.09598 13.733 4.78445L9.21511 0.266518C8.90271 -0.044128 8.4433 -0.0905063 8.18691 0.165886L4.65429 3.69851L4.37165 3.41586C4.06013 3.10434 3.59284 3.06584 3.32945 3.32835L0.704269 5.95441C0.526632 6.13205 0.485504 6.40069 0.57301 6.65358V6.65008L1.18118 10.2772L0.233487 11.2249C0.083973 11.3747 0 11.5777 0 11.7893C0 12.001 0.083973 12.2039 0.233487 12.3537L1.64583 13.7661C1.71994 13.8402 1.80793 13.899 1.90478 13.9391C2.00162 13.9793 2.10542 13.9999 2.21025 13.9999C2.31507 13.9999 2.41887 13.9793 2.51572 13.9391C2.61256 13.899 2.70055 13.8402 2.77466 13.7661L3.72235 12.8184L7.34948 13.4266L7.34685 13.4248C7.59887 13.5123 7.86839 13.4721 8.04603 13.2944L10.6712 10.6692C10.9355 10.405 10.8961 9.93856 10.5837 9.62704V9.62791ZM3.20082 8.87799L5.05682 10.7349C5.13652 10.8174 5.18062 10.9279 5.17962 11.0426C5.17863 11.1573 5.13261 11.2671 5.05149 11.3482C4.97037 11.4293 4.86063 11.4753 4.74591 11.4763C4.63119 11.4773 4.52067 11.4332 4.43815 11.3535L2.58302 9.49753C2.54118 9.45723 2.50779 9.409 2.48478 9.35565C2.46178 9.3023 2.44963 9.24491 2.44905 9.18682C2.44846 9.12872 2.45945 9.0711 2.48137 9.0173C2.5033 8.9635 2.53572 8.9146 2.57674 8.87347C2.61776 8.83233 2.66656 8.79977 2.7203 8.7777C2.77404 8.75562 2.83163 8.74447 2.88972 8.74489C2.94782 8.74531 3.00525 8.7573 3.05866 8.78015C3.11207 8.803 3.1604 8.83626 3.20082 8.87799ZM9.21598 4.02578C9.18997 4.05184 9.15908 4.07252 9.12507 4.08662C9.09106 4.10073 9.0546 4.10799 9.01778 4.10799C8.98096 4.10799 8.9445 4.10073 8.91049 4.08662C8.87648 4.07252 8.84559 4.05184 8.81958 4.02578L8.02765 3.23385C8.00159 3.20784 7.98091 3.17694 7.9668 3.14293C7.9527 3.10892 7.94544 3.07247 7.94544 3.03565C7.94544 2.99883 7.9527 2.96237 7.9668 2.92836C7.98091 2.89435 8.00159 2.86346 8.02765 2.83745L8.62182 2.24415C8.67431 2.19179 8.74543 2.16238 8.81958 2.16238C8.89373 2.16238 8.96485 2.19179 9.01734 2.24415L9.81015 3.03608C9.86251 3.08858 9.89192 3.1597 9.89192 3.23385C9.89192 3.308 9.86251 3.37912 9.81015 3.43161L9.21511 4.02578H9.21598ZM11.1621 5.97191C11.1361 5.99797 11.1052 6.01865 11.0712 6.03276C11.0372 6.04686 11.0007 6.05413 10.9639 6.05413C10.9271 6.05413 10.8906 6.04686 10.8566 6.03276C10.8226 6.01865 10.7917 5.99797 10.7657 5.97191L9.97378 5.17998C9.94772 5.15397 9.92705 5.12308 9.91294 5.08907C9.89883 5.05506 9.89157 5.0186 9.89157 4.98178C9.89157 4.94496 9.89883 4.9085 9.91294 4.87449C9.92705 4.84048 9.94772 4.80959 9.97378 4.78358L10.5679 4.18941C10.6204 4.13705 10.6916 4.10764 10.7657 4.10764C10.8399 4.10764 10.911 4.13705 10.9635 4.18941L11.7554 4.98134C11.7815 5.00735 11.8021 5.03825 11.8163 5.07226C11.8304 5.10627 11.8376 5.14272 11.8376 5.17954C11.8376 5.21636 11.8304 5.25282 11.8163 5.28683C11.8021 5.32084 11.7815 5.35174 11.7554 5.37775L11.1621 5.97191Z" fill="currentColor"/>
</svg>
