<svg width="14" height="14" viewBox="0 0 14 14" fill="none" xmlns="http://www.w3.org/2000/svg">
<path d="M9.69915 6.40957C10.1337 6.41237 10.5632 6.49787 10.9648 6.66256V2.10872C10.9648 1.60274 10.627 1.26565 10.1217 1.26565H8.4349V2.44581C8.4349 2.8677 8.09641 3.20478 7.67523 3.20478H7.08515C6.66396 3.12069 6.32617 2.7843 6.32617 2.44581V1.26495H4.63933V2.44581C4.63933 2.8677 4.30225 3.20478 3.88036 3.20478H3.28958C2.8684 3.12069 2.53061 2.7829 2.53061 2.44581V1.26495H0.844471C0.338489 1.26495 0 1.60204 0 2.10802V12.2284C0 12.7343 0.337788 13.0721 0.84377 13.0721H6.49437C5.90359 12.3973 5.5665 11.4701 5.5665 10.5422C5.5665 8.2646 7.42153 6.40957 9.69915 6.40957ZM1.68894 4.97642C1.68894 4.89233 1.77304 4.80753 1.85714 4.80753H9.11048C9.19457 4.80753 9.27867 4.89162 9.27867 4.97572V5.4824C9.27557 5.52599 9.25686 5.56699 9.22596 5.59789C9.19507 5.62879 9.15406 5.6475 9.11048 5.6506H1.85573C1.81215 5.6475 1.77114 5.62879 1.74025 5.59789C1.70935 5.56699 1.69064 5.52599 1.68754 5.4824V4.97642H1.68894ZM1.68894 7.50633C1.68894 7.42223 1.77304 7.33744 1.85714 7.33744H4.89373C4.97782 7.33744 5.06192 7.42153 5.06192 7.50563V8.09641C5.05883 8.13999 5.04011 8.181 5.00921 8.2119C4.97832 8.24279 4.93731 8.26151 4.89373 8.2646H1.85643C1.81285 8.26151 1.77184 8.24279 1.74095 8.2119C1.71005 8.181 1.69134 8.13999 1.68824 8.09641V7.50633H1.68894ZM4.21885 10.5415C4.21885 10.6256 4.13475 10.6256 4.13475 10.6256H1.77304C1.68894 10.6256 1.68894 10.5415 1.68894 10.5415V9.95144C1.68894 9.86735 1.77304 9.86735 1.77304 9.86735H4.04926C4.13335 9.86735 4.13335 9.95144 4.13335 9.95144V10.5415H4.21815H4.21885Z" fill="currentColor"/>
<path d="M3.88031 0H3.28953C3.20543 0 3.12134 0 3.12134 0.0840967V2.44581C3.12134 2.52991 3.20543 2.52991 3.20543 2.52991H3.79621C3.88031 2.52991 3.88031 2.44581 3.88031 2.44581V0.0840967C3.96441 0 3.96441 0 3.88031 0ZM7.67517 0H7.0851C7.001 0 7.001 0.0840967 7.001 0.0840967V2.44581C7.001 2.52991 7.0851 2.52991 7.0851 2.52991H7.67517C7.75927 2.52991 7.75927 2.44581 7.75927 2.44581V0.0840967C7.75927 0 7.75927 0 7.67517 0ZM10.9648 7.33744C10.5632 7.17278 10.1338 7.08689 9.6998 7.08445C7.75927 7.08445 6.24133 8.68719 6.24133 10.5422C6.24133 11.5549 6.66391 12.3973 7.33809 13.0721C7.92817 13.6622 8.77194 14 9.6998 14C11.6396 14 13.1576 12.3973 13.1576 10.5415C13.1576 9.02428 12.2297 7.84342 10.9648 7.33744ZM9.11042 8.39846H9.81123V11.2017H9.11042V8.39846ZM11.9136 10.5009V11.2017H9.81123V10.5009H11.9136Z" fill="currentColor"/>
</svg>
