<svg width="14" height="14" viewBox="0 0 14 14" fill="none" xmlns="http://www.w3.org/2000/svg">
<path d="M10.8522 8.91844C10.8408 8.89302 10.8257 8.86943 10.8074 8.84844L9.4949 7.53594C9.47052 7.51146 9.44154 7.49205 9.40963 7.4788C9.37773 7.46555 9.34352 7.45873 9.30897 7.45873C9.27442 7.45873 9.24021 7.46555 9.2083 7.4788C9.1764 7.49205 9.14742 7.51146 9.12303 7.53594C9.09852 7.56042 9.07908 7.58949 9.06582 7.62149C9.05256 7.65348 9.04573 7.68778 9.04573 7.72242C9.04573 7.75706 9.05256 7.79136 9.06582 7.82336C9.07908 7.85535 9.09852 7.88442 9.12303 7.90891L9.97178 8.76094H7.46819C7.43222 8.75862 7.39615 8.7637 7.36222 8.77587C7.32829 8.78804 7.29722 8.80703 7.27093 8.83169C7.24463 8.85634 7.22367 8.88613 7.20934 8.9192C7.19501 8.95228 7.18762 8.98794 7.18762 9.02398C7.18762 9.06003 7.19501 9.09569 7.20934 9.12877C7.22367 9.16184 7.24463 9.19162 7.27093 9.21628C7.29722 9.24093 7.32829 9.25993 7.36222 9.2721C7.39615 9.28427 7.43222 9.28935 7.46819 9.28703H9.99256L9.11756 10.15C9.06797 10.1993 9.0397 10.266 9.03881 10.3359C9.03875 10.3703 9.04548 10.4043 9.05862 10.436C9.07176 10.4677 9.09105 10.4965 9.11537 10.5208C9.13934 10.5456 9.16806 10.5653 9.19982 10.5788C9.23158 10.5923 9.26572 10.5992 9.30022 10.5992C9.33471 10.5992 9.36886 10.5923 9.40062 10.5788C9.43237 10.5653 9.46109 10.5456 9.48506 10.5208L10.8052 9.2214C10.8423 9.18485 10.8677 9.13804 10.878 9.08699C10.8883 9.03593 10.8832 8.98295 10.8632 8.93484C10.8621 8.92828 10.8555 8.925 10.8522 8.91844Z" fill="currentColor"/>
<path d="M12.4447 3.85159e-07H11.4417C11.4371 0.203099 11.3532 0.396317 11.2078 0.538217C11.0624 0.680118 10.8672 0.759401 10.6641 0.759063C10.4609 0.759401 10.2657 0.680118 10.1203 0.538217C9.97497 0.396317 9.89098 0.203099 9.88641 3.85159e-07H7.77766C7.77621 0.205299 7.69364 0.401696 7.54796 0.546354C7.40228 0.691013 7.2053 0.772193 7 0.772188C6.7947 0.772193 6.59772 0.691013 6.45204 0.546354C6.30636 0.401696 6.22379 0.205299 6.22234 3.85159e-07H4.11359C4.10902 0.203099 4.02503 0.396317 3.87966 0.538217C3.73428 0.680118 3.53909 0.759401 3.33594 0.759063C3.13279 0.759401 2.93759 0.680118 2.79222 0.538217C2.64684 0.396317 2.56286 0.203099 2.55828 3.85159e-07H1.55531C1.35103 -0.000143428 1.14871 0.0399878 0.959951 0.118099C0.771186 0.196209 0.599673 0.310767 0.45522 0.45522C0.310767 0.599673 0.196209 0.771186 0.118099 0.959951C0.0399878 1.14871 -0.000143428 1.35103 3.85159e-07 1.55531V12.4447C-0.000143428 12.649 0.0399878 12.8513 0.118099 13.04C0.196209 13.2288 0.310767 13.4003 0.45522 13.5448C0.599673 13.6892 0.771186 13.8038 0.959951 13.8819C1.14871 13.96 1.35103 14.0001 1.55531 14H12.4447C12.8572 14 13.2528 13.8361 13.5445 13.5445C13.8361 13.2528 14 12.8572 14 12.4447V1.55531C14 1.14282 13.8361 0.747219 13.5445 0.455541C13.2528 0.163863 12.8572 3.85159e-07 12.4447 3.85159e-07ZM6.87203 3.07016C7.21455 3.07 7.55115 3.15945 7.8484 3.32963C8.14565 3.49981 8.3932 3.7448 8.56647 4.04026C8.73975 4.33572 8.83271 4.67137 8.83612 5.01387C8.83953 5.35637 8.75328 5.6938 8.58594 5.99266C7.86544 6.08943 7.20465 6.4447 6.72656 6.99234C6.23514 6.93466 5.78345 6.69405 5.4614 6.3184C5.13936 5.94275 4.97057 5.45961 4.98863 4.96514C5.0067 4.47068 5.21029 4.00114 5.55888 3.64999C5.90748 3.29884 6.37552 3.09183 6.86984 3.07016H6.87203ZM3.25063 10.9298C3.22951 10.9294 3.20869 10.9248 3.18934 10.9164C3.17 10.9079 3.15251 10.8957 3.13789 10.8804C3.12326 10.8652 3.11178 10.8472 3.1041 10.8276C3.09642 10.8079 3.09269 10.7869 3.09313 10.7658V9.44016C3.09313 8.42625 3.88281 7.60484 4.85844 7.60484H6.31422C6.0437 8.13676 5.93801 8.7373 6.01069 9.32961C6.08336 9.92193 6.3311 10.4791 6.72219 10.9298H3.25063ZM9.0475 11.4691C8.56422 11.4701 8.09148 11.3278 7.68912 11.0601C7.28676 10.7924 6.97287 10.4113 6.78717 9.96516C6.60148 9.51898 6.55233 9.02773 6.64595 8.5536C6.73957 8.07947 6.97175 7.64378 7.3131 7.30166C7.65445 6.95955 8.08962 6.72639 8.56354 6.63171C9.03746 6.53703 9.52881 6.58508 9.97541 6.76977C10.422 6.95446 10.8038 7.2675 11.0724 7.66926C11.341 8.07102 11.4844 8.54344 11.4844 9.02672C11.4838 9.67353 11.2269 10.2938 10.7699 10.7515C10.313 11.2093 9.69322 11.4673 9.04641 11.4691H9.0475Z" fill="currentColor"/>
</svg>
