<svg width="14" height="14" viewBox="0 0 14 14" fill="none" xmlns="http://www.w3.org/2000/svg">
<path d="M6.69891 11.1884C6.74053 11.3824 6.80018 11.572 6.87711 11.7549C6.97252 11.9739 7.09319 12.1811 7.23669 12.3722C7.41413 12.6014 7.61936 12.8077 7.84766 12.9863C8.13164 13.2128 8.44269 13.4031 8.77366 13.5528C8.49163 13.6257 8.20438 13.6768 7.91448 13.7055C7.63764 13.7437 7.30033 13.7755 6.8962 13.801C6.49207 13.8264 6.03066 13.8423 5.50561 13.8423C5.23831 13.8423 4.93283 13.8423 4.58597 13.8169C4.23912 13.7914 3.88272 13.7691 3.51041 13.7341C3.1381 13.6991 2.7658 13.6546 2.40303 13.61C2.04027 13.5655 1.70296 13.5178 1.40066 13.47C1.09836 13.4223 0.840606 13.3777 0.633767 13.3268C0.494404 13.3025 0.360669 13.2529 0.239183 13.1804C0.100175 12.9816 0.0247276 12.7453 0.0227979 12.5027C-0.0220633 12.0215 -0.000649124 11.5365 0.0864405 11.0611C0.119466 10.7588 0.267599 10.4808 0.500118 10.2847C0.731868 10.1 0.9919 9.95385 1.27019 9.85194C1.55977 9.74693 1.86525 9.64828 2.18347 9.56236C2.48299 9.48242 2.76922 9.35913 3.03309 9.19642C3.19522 9.10086 3.34395 8.98422 3.47541 8.84957C3.56597 8.75728 3.63926 8.6495 3.6918 8.53135C3.73341 8.42042 3.75496 8.30298 3.75544 8.1845V7.79628C3.74873 7.60533 3.67298 7.42329 3.54224 7.28396C3.41813 7.16622 3.27494 7.04211 3.11901 6.91165C3.03735 6.83495 2.97142 6.74308 2.9249 6.64117C2.87081 6.52661 2.81989 6.40887 2.77534 6.28795C2.73079 6.16703 2.68306 6.00792 2.63533 5.86154C2.5656 5.83966 2.5 5.80632 2.44122 5.7629C2.37578 5.7059 2.31802 5.64066 2.26938 5.56879C2.19591 5.45905 2.14207 5.33738 2.11028 5.20921C2.06606 5.07388 2.04982 4.93097 2.06254 4.78917C2.07225 4.6727 2.09795 4.55813 2.13892 4.44868C2.17347 4.33311 2.22962 4.22513 2.30439 4.13046C2.30439 3.78043 2.32348 3.4304 2.35848 3.08036C2.39839 2.76673 2.46006 2.45625 2.54305 2.15118C2.71123 1.54993 3.0641 1.01674 3.55178 0.626938C3.93872 0.331249 4.39207 0.134616 4.87237 0.0541546C5.0827 0.0189817 5.29554 0.000890473 5.50879 5.8274e-05C5.76748 -0.00155996 6.02529 0.0305313 6.27569 0.0955221C6.50937 0.155314 6.73645 0.238469 6.95348 0.343729C7.15213 0.438798 7.33991 0.555093 7.51354 0.690581C7.66309 0.802485 7.79781 0.932936 7.91448 1.0788C8.1432 1.37041 8.31878 1.70002 8.43317 2.05253C8.54364 2.37874 8.62458 2.71421 8.67501 3.0549C8.72264 3.422 8.74179 3.79223 8.73229 4.16229C8.79711 4.20952 8.84952 4.27176 8.88503 4.34367C8.92607 4.42188 8.95606 4.50541 8.97413 4.59187C8.99478 4.71512 8.99478 4.84094 8.97413 4.96418C8.96557 5.12932 8.92561 5.29132 8.85639 5.4415C8.80757 5.54371 8.7395 5.63554 8.65592 5.71198C8.58 5.78145 8.48988 5.83356 8.3918 5.86473C8.34725 6.0111 8.3027 6.1543 8.25497 6.29431C8.20724 6.43433 8.15951 6.52979 8.10223 6.64753C8.05678 6.74914 7.99067 6.84017 7.90812 6.91483C7.83537 6.97931 7.77024 7.05191 7.71401 7.13121C7.66982 7.19786 7.63352 7.26941 7.60582 7.34442C7.57718 7.41761 7.54854 7.50034 7.51354 7.58626C7.47536 7.6852 7.42739 7.78007 7.37034 7.86947C7.17519 8.17187 7.00797 8.4914 6.87074 8.82411C6.75825 9.09776 6.67505 9.38256 6.62254 9.67374C6.5821 9.92189 6.57036 10.1739 6.58753 10.4247C6.60546 10.6786 6.64269 10.9307 6.69891 11.1789V11.1884ZM13.7823 13.0436C13.8891 13.1554 13.9638 13.2939 13.9987 13.4446C14.0036 13.5041 13.9944 13.564 13.9717 13.6193C13.949 13.6746 13.9136 13.7238 13.8683 13.7628C13.8417 13.7943 13.8085 13.8198 13.7712 13.8374C13.7338 13.8549 13.6931 13.8642 13.6519 13.8646C13.5573 13.8677 13.4631 13.8514 13.375 13.8169C13.2791 13.779 13.1865 13.7332 13.0982 13.68C13.019 13.6292 12.9435 13.5729 12.8722 13.5114L11.8985 12.6268C11.6444 12.7834 11.3674 12.8994 11.0775 12.9704C10.792 13.0371 10.4984 13.0628 10.2056 13.0468C9.91047 13.0276 9.62138 12.9543 9.35281 12.8304C9.07258 12.7031 8.8197 12.5226 8.60819 12.299C8.35545 12.0496 8.15717 11.7506 8.02586 11.4207C7.76809 10.7773 7.76809 10.0594 8.02586 9.41598C8.15565 9.08533 8.35414 8.78598 8.60819 8.53772C8.84939 8.2841 9.14244 8.08547 9.46736 7.95539C9.9446 7.76135 10.4686 7.71311 10.9733 7.81676C11.4779 7.9204 11.9405 8.17129 12.3026 8.53772C12.52 8.76272 12.6956 9.02454 12.8213 9.31097C12.9426 9.58753 13.0178 9.88205 13.0441 10.1829C13.0662 10.4775 13.0426 10.7738 12.9741 11.0611C12.9072 11.3504 12.7933 11.6267 12.6368 11.879L13.1618 12.404C13.2987 12.544 13.4291 12.6745 13.5469 12.7986L13.7823 13.0404V13.0436ZM10.4761 12.1844C10.7092 12.184 10.9397 12.1364 11.1539 12.0444C11.361 11.955 11.5481 11.8252 11.7044 11.6626C11.8672 11.4996 11.9978 11.3075 12.0894 11.0961C12.1824 10.8746 12.2289 10.6363 12.2263 10.3961C12.2292 10.1589 12.1826 9.92371 12.0894 9.70556C11.997 9.49844 11.8664 9.31059 11.7044 9.15187C11.5481 8.98924 11.361 8.85943 11.1539 8.77001C10.9396 8.67863 10.7091 8.63152 10.4761 8.63152C10.2431 8.63152 10.0126 8.67863 9.79831 8.77001C9.58981 8.85852 9.40144 8.98843 9.24461 9.15187C9.08537 9.3133 8.95798 9.5033 8.86912 9.71192C8.77599 9.93008 8.72939 10.1653 8.73229 10.4024C8.72963 10.6427 8.7762 10.8809 8.86912 11.1025C8.95788 11.3131 9.08524 11.5052 9.24461 11.6689C9.40144 11.8324 9.58981 11.9623 9.79831 12.0508C10.0127 12.1413 10.2434 12.1868 10.4761 12.1844Z" fill="currentColor"/>
</svg>
