<svg width="13" height="14" viewBox="0 0 13 14" fill="none" xmlns="http://www.w3.org/2000/svg">
<path d="M9.10719 0.417374L11.5614 2.87159C11.7162 3.02635 11.6067 3.2921 11.3879 3.2921H8.93368C8.79768 3.2921 8.68825 3.18267 8.68825 3.04667V0.592452C8.68669 0.373605 8.95243 0.262618 9.10719 0.417374Z" fill="currentColor"/>
<path d="M11.3691 4.00335H8.33653C8.15989 4.00335 8.01764 3.8611 8.01764 3.68446V0.639348C8.01764 0.286065 7.73158 0 7.37829 0H0.626842C0.279813 0 0 0.281376 0 0.626842V13.3732C0 13.7202 0.281376 14 0.626842 14H7.0594C6.35909 13.506 5.81353 12.8073 5.51184 11.9913H2.49955C2.22599 11.9913 2.00089 11.7662 2.00089 11.4926C2.00089 11.2191 2.22599 10.994 2.49955 10.994H5.27423C5.25703 10.8361 5.24766 10.6751 5.24766 10.5125C5.24766 9.97164 5.34926 9.45422 5.53216 8.97901H2.49955C2.22599 8.97901 2.00089 8.75391 2.00089 8.48035C2.00089 8.20679 2.22599 7.98169 2.49955 7.98169H6.08084C6.85775 6.93122 8.10362 6.25123 9.5105 6.25123C10.4422 6.25123 11.3035 6.5498 12.0054 7.05784V4.63957C12.0054 4.28785 11.7209 4.00335 11.3691 4.00335ZM10.006 5.47588C10.006 5.74944 9.78093 5.97454 9.50737 5.97454H2.49955C2.22599 5.97454 2.00089 5.74944 2.00089 5.47588C2.00089 5.20232 2.22599 4.97722 2.49955 4.97722H9.50737C9.78249 4.97722 10.006 5.20076 10.006 5.47588Z" fill="currentColor"/>
<path d="M12.0007 8.16615C11.3566 7.52211 10.5 7.16727 9.58866 7.16727C8.67731 7.16727 7.82068 7.52211 7.17664 8.16615C6.5326 8.81019 6.17776 9.66682 6.17776 10.5782C6.17776 11.4895 6.5326 12.3461 7.17664 12.9902C7.82068 13.6342 8.67731 13.9891 9.58866 13.9891C10.5 13.9891 11.3566 13.6342 12.0007 12.9902C12.6447 12.3461 12.9996 11.4895 12.9996 10.5782C12.9996 9.66682 12.6447 8.81019 12.0007 8.16615ZM11.0659 10.0342C11.2566 10.0342 11.4145 10.1905 11.4145 10.3828C11.4145 10.5735 11.2582 10.7314 11.0659 10.7314H9.93725V11.3473H10.8408C11.0315 11.3473 11.1894 11.5036 11.1894 11.6959C11.1894 11.8866 11.033 12.0444 10.8408 12.0444H9.93725V12.9355C9.93725 13.1262 9.78093 13.2841 9.58866 13.2841C9.39795 13.2841 9.24006 13.1277 9.24006 12.9355V12.0444H8.33653C8.14582 12.0444 7.98794 11.8881 7.98794 11.6959C7.98794 11.5051 8.14426 11.3473 8.33653 11.3473H9.24006V10.7314H8.113C7.92229 10.7314 7.7644 10.575 7.7644 10.3828C7.7644 10.1921 7.92072 10.0342 8.113 10.0342H8.68044L7.77378 9.12752C7.63778 8.99152 7.63778 8.77111 7.77378 8.63511C7.90978 8.49911 8.13019 8.49911 8.26619 8.63511L9.58866 9.95758L10.9111 8.63511C11.0471 8.49911 11.2675 8.49911 11.4035 8.63511C11.5395 8.77111 11.5395 8.99152 11.4035 9.12752L10.4969 10.0342H11.0659Z" fill="currentColor"/>
</svg>
