<svg width="14" height="14" viewBox="0 0 14 14" fill="none" xmlns="http://www.w3.org/2000/svg">
<path d="M12.015 12.135C12.2743 12.135 12.4845 12.3452 12.4845 12.6045C12.4845 12.8638 12.2743 13.074 12.015 13.074H2.02105C1.76176 13.074 1.55155 12.8638 1.55155 12.6045C1.55155 12.3452 1.76176 12.135 2.02105 12.135H12.015ZM11.7629 0C12.9984 0 14 1.00252 14 2.2392V8.12611C14 9.36277 12.9984 10.3653 11.7629 10.3653H2.23711C1.0016 10.3653 0 9.36277 0 8.12612V2.23922C0 1.00252 1.0016 0 2.23711 0H11.7629ZM10.3475 2.38962L10.3414 2.39615L7.82341 5.1291L6.09552 3.81288L6.08936 3.80827C5.88747 3.65926 5.6229 3.69669 5.45769 3.89765L5.45272 3.90379L2.94841 7.03839L2.94283 7.0455C2.76202 7.27933 2.77352 7.63804 2.96886 7.85555L2.97483 7.8621L2.98095 7.8686C3.18222 8.07866 3.49099 8.06527 3.6782 7.83835L3.68385 7.8314L5.89978 5.05774L7.6028 6.35503L7.60861 6.35941C7.79941 6.50044 8.04801 6.47567 8.21533 6.29892L8.22039 6.29352L11.0264 3.24797L11.0324 3.24133C11.229 3.02085 11.2377 2.65703 11.0505 2.42417C10.8632 2.1913 10.5502 2.17669 10.3475 2.38964L10.3475 2.38962Z" fill="currentColor"/>
</svg>
