<svg width="14" height="14" viewBox="0 0 14 14" fill="none" xmlns="http://www.w3.org/2000/svg">
<path d="M12.0867 2.33334C11.9933 2.14667 11.8067 1.96001 11.62 1.86667C11.34 1.72667 11.0133 1.72667 10.7333 1.72667H1.49333C1.12 1.72667 0.886667 1.72667 0.606667 1.86667C0.42 2.00667 0.233333 2.14667 0.14 2.33334C0 2.61334 0 2.94001 0 3.26667V12.5067C0 12.8333 0.0466667 13.1133 0.14 13.3933C0.233333 13.58 0.42 13.7667 0.606667 13.86C0.886667 14 1.16667 14 1.49333 14H10.7333C11.06 14 11.3867 14 11.6667 13.86C11.8533 13.7667 12.04 13.58 12.1333 13.3933C12.2267 13.2067 12.2733 12.7867 12.2733 12.5067V3.26667C12.2733 2.94001 12.2267 2.61334 12.0867 2.33334ZM3.92 3.82667C3.96667 3.73334 4.01333 3.64001 4.10667 3.59334C4.2 3.54667 4.34 3.50001 4.43333 3.50001C4.52667 3.50001 4.62 3.50001 4.66667 3.54667C4.71333 3.59334 4.80667 3.59334 4.85333 3.68667C4.9 3.73334 4.94667 3.82667 4.99333 3.87334L5.18 4.15334L7.18667 7.18667V4.10667C7.18667 3.92001 7.23333 3.78001 7.32667 3.64001C7.51333 3.45334 7.84 3.45334 8.02667 3.64001C8.12 3.78001 8.16667 3.92001 8.16667 4.10667V8.16667C8.16667 8.63334 7.98 8.86667 7.60667 8.86667C7.51333 8.86667 7.42 8.86667 7.37333 8.82001C7.28 8.77334 7.23333 8.72667 7.18667 8.68001C7.09333 8.63334 7.04667 8.54001 7 8.49334L6.81333 8.26001L4.85333 5.22667V8.26001C4.85333 8.44667 4.80667 8.58667 4.71333 8.72667C4.62 8.82001 4.48 8.86667 4.34 8.86667C4.2 8.86667 4.06 8.82001 3.96667 8.72667C3.87333 8.58667 3.82667 8.44667 3.82667 8.26001V4.24667C3.82667 4.24667 3.87333 3.96667 3.92 3.82667ZM9.61333 12.2733H2.61333C2.47333 12.2733 2.33333 12.0867 2.38 11.9467C2.38 11.8067 2.52 11.7133 2.61333 11.7133H9.61333C9.75333 11.7133 9.89333 11.9 9.84667 12.04C9.84667 12.1333 9.75333 12.2267 9.61333 12.2733ZM9.61333 10.5H2.61333C2.47333 10.5 2.33333 10.3133 2.38 10.1733C2.38 10.0333 2.52 9.94001 2.61333 9.94001H9.61333C9.75333 9.94001 9.89333 10.1267 9.84667 10.2667C9.84667 10.36 9.75333 10.5 9.61333 10.5Z" fill="currentColor"/>
<path opacity="0.3" d="M14 9.56667V1.49333C14 1.16667 13.9533 0.886667 13.86 0.606667C13.7667 0.42 13.58 0.28 13.3933 0.14C13.1133 0 12.8333 0 12.5067 0H3.82667C3.50001 0 3.22 0 2.94 0.14C2.75334 0.233333 2.56667 0.42 2.47334 0.606667C2.42667 0.746667 2.38 0.84 2.38 0.98C2.52 0.933333 2.70667 0.933333 2.89334 0.933333H11.5733C11.8533 0.933333 12.18 0.98 12.46 1.07333C12.6467 1.16667 12.8333 1.30667 12.9267 1.54C13.0667 1.82 13.0667 2.14667 13.0667 2.42667V10.5C13.0667 10.6867 13.0667 10.8733 13.02 11.06C13.16 11.0133 13.2533 11.0133 13.3933 10.92C13.58 10.8267 13.7667 10.64 13.86 10.4533C14 10.22 14 9.89333 14 9.56667Z" fill="currentColor"/>
</svg>
