<svg width="14" height="14" viewBox="0 0 14 14" fill="none" xmlns="http://www.w3.org/2000/svg">
<path d="M9.41112 4.82222C6.92222 4.82222 4.82222 6.84444 4.82222 9.41112C4.82222 11.9778 6.84444 14 9.41112 14C11.9 14 14 11.9778 14 9.41112C14 6.84444 11.9778 4.82222 9.41112 4.82222ZM9.48888 7.77778C9.64444 7.62222 9.72222 7.38888 9.8 7.23334C9.87778 7 9.95556 6.84444 9.95556 6.68888C10.1889 6.76668 10.3444 6.76668 10.5 6.84444C10.4222 6.92223 10.4222 7 10.3444 7C10.6556 7.54444 10.9667 7.93334 11.2778 8.08888C11.5889 8.32222 11.9 8.47778 12.1333 8.55556C11.9778 8.71112 11.9 8.86666 11.8222 9.02222L11.3556 8.78888C11.2 8.71112 11.0444 8.63334 10.8889 8.47778C10.7333 8.32222 10.5778 8.16666 10.5 8.01112C10.3444 7.85556 10.1889 7.62222 10.0333 7.31112C9.87778 7.54444 9.8 7.77778 9.64444 8.01112C9.56666 8.16666 9.41112 8.4 9.25556 8.55556H10.8111V8.94444H9.25556V8.63334L9.02222 8.86666C8.94444 9.02222 8.78888 9.1 8.71112 9.17778C8.63332 9.02222 8.47778 8.94444 8.32222 8.78888C8.55556 8.63334 8.78888 8.47778 8.94444 8.24444C9.17778 8.16666 9.33334 7.93334 9.48888 7.77778ZM9.64444 9.1C9.87778 9.02222 10.0333 8.94444 10.1889 8.86666C10.2667 9.1 10.3444 9.41112 10.5 9.72222C10.5778 10.0333 10.6556 10.2667 10.7333 10.4222C10.5 10.4222 10.3444 10.5 10.1889 10.5778C10.1111 10.2667 10.0333 10.0333 9.95556 9.8C9.87776 9.56666 9.8 9.33334 9.64444 9.1ZM9.72223 10.7333C9.56666 10.8111 9.41112 10.8889 9.17778 10.9667C9.1 10.6556 9.02222 10.4222 8.94444 10.1889L8.55556 9.41112C8.78888 9.33332 8.94444 9.17778 9.02222 9.17778C9.1 9.41112 9.25556 9.72222 9.33334 9.95556C9.56666 10.1889 9.64445 10.5 9.72223 10.7333ZM8.08888 12.1333H7.62222V9.33334C7.54444 9.48888 7.46666 9.72222 7.31112 9.95554C7.15556 10.1889 7.07778 10.4222 6.92222 10.5778C6.84444 10.4222 6.68888 10.2667 6.53334 10.1889C6.68888 10.0333 6.76666 9.87778 6.92222 9.64444C7 9.48888 7.07778 9.25556 7.15556 9.1C7.23334 8.94444 7.31112 8.71112 7.38888 8.55556C7.46667 8.4 7.46668 8.24444 7.54444 8.08888H6.84444V7.62222H7.62223V6.68888H8.08888C8.08888 6.84444 8.01112 7.07778 8.01112 7.23334V7.85555H8.71112V8.32222H8.01112V9.33334C8.16666 9.25555 8.24444 9.25555 8.32222 9.17778C8.4 9.25556 8.4 9.33334 8.47778 9.48888C8.55556 9.64443 8.63334 9.72222 8.71112 9.87778C8.63332 9.95556 8.47778 10.0333 8.32222 10.1111C8.24444 10.0333 8.24444 9.95556 8.16666 9.8C8.08888 9.64444 8.01112 9.56666 7.93334 9.48888V11.2778C8.01112 11.5889 8.01112 11.8222 8.08888 12.1334V12.1333ZM12.2889 11.7444H8.24444V11.2778H10.5C10.6556 11.0445 10.7333 10.7334 10.8889 10.4222C10.9667 10.1111 11.1222 9.80001 11.1222 9.64445C11.2 9.41113 11.2778 9.17779 11.2778 8.94446C11.5111 9.02225 11.7444 9.10001 11.9 9.17779C11.6667 9.56668 11.5111 9.95557 11.4333 10.2667C11.2778 10.5778 11.1222 10.9667 10.9667 11.3556H12.2111V11.7445L12.2889 11.7444Z" fill="currentColor"/>
<path d="M4.2 9.41112H2.48888C2.33334 9.41112 2.17778 9.25556 2.17778 9.1C2.17778 8.94444 2.33334 8.78888 2.48888 8.78888H4.27779C4.35557 8.08888 4.5889 7.38888 4.97779 6.76668H2.48888C2.33334 6.76668 2.17778 6.61112 2.17778 6.45556C2.17778 6.3 2.33334 6.14444 2.48888 6.14444H5.36668C6.3 4.97779 7.77777 4.2 9.4111 4.2C10.3444 4.2 11.2 4.43334 11.9778 4.82222V0.777793C11.9778 0.388883 11.6667 0 11.2 0H9.02222V1.16666C9.02222 1.32222 8.86666 1.47778 8.71112 1.47778C8.55557 1.47778 8.4 1.32221 8.4 1.16666V0H3.57778V1.16666C3.57778 1.4 3.42222 1.55556 3.26666 1.55556C3.1111 1.55556 2.95556 1.4 2.95556 1.16666V0H0.777766C0.311131 0 0 0.388883 0 0.777779V12.2111C0 12.6 0.311117 12.9889 0.777779 12.9889H5.67778C4.82221 12.0556 4.2 10.8111 4.2 9.41112ZM2.48888 3.42221H9.48888C9.64444 3.42221 9.8 3.57777 9.8 3.73332C9.8 3.88888 9.64444 4.04443 9.48888 4.04443H2.48888C2.33334 4.12222 2.17778 3.96665 2.17778 3.73332C2.17778 3.5 2.33334 3.42221 2.48888 3.42221Z" fill="currentColor"/>
</svg>
