<svg width="14" height="14" viewBox="0 0 14 14" fill="none" xmlns="http://www.w3.org/2000/svg">
<path d="M2.6772 4.45479L4.55954 3.48741L6.52013 4.45479V0H12.5142C12.9209 0 13.2506 0.329681 13.2506 0.736379V13.2636C13.2506 13.6703 12.9209 14 12.5142 14H0.736379C0.329681 14 0 13.6703 0 13.2636V0.736379C0 0.329681 0.329681 0 0.736379 0H2.6772V4.45479ZM10.1494 7.41448H3.3818C2.99293 7.41448 2.6772 7.72395 2.6772 8.10527C2.6772 8.48712 2.99293 8.7966 3.3818 8.7966H10.1488C10.3355 8.7966 10.5152 8.72421 10.6472 8.59435C10.7797 8.46503 10.8534 8.28929 10.8534 8.10581C10.8534 7.92235 10.7797 7.74662 10.6472 7.61729C10.5162 7.48825 10.3365 7.41533 10.1488 7.41503L10.1494 7.41448ZM10.1494 10.7303H3.3818C2.99293 10.7303 2.6772 11.0397 2.6772 11.4211C2.6772 11.8024 2.99293 12.1119 3.3818 12.1119H10.1488C10.3355 12.1119 10.5152 12.0395 10.6472 11.9096C10.7797 11.7803 10.8534 11.6045 10.8534 11.4211C10.8534 11.33 10.8351 11.2398 10.7997 11.1559C10.7642 11.072 10.7124 10.9961 10.6472 10.9325C10.5162 10.8035 10.3365 10.7306 10.1488 10.7303H10.1494Z" fill="currentColor"/>
</svg>
