<svg width="12" height="14" viewBox="0 0 12 14" fill="none" xmlns="http://www.w3.org/2000/svg">
<path d="M0 2.59794V14H11.4502V1.63574H8.85223V2.11684C8.85223 2.30928 8.65979 2.50172 8.46735 2.50172H2.98282C2.79038 2.50172 2.59794 2.30928 2.59794 2.11684V1.63574H0V2.59794ZM5.72509 3.56014C6.49485 3.56014 7.12028 4.18557 7.12028 4.95533C7.12028 5.72509 6.49485 6.35051 5.72509 6.35051C4.95533 6.35051 4.3299 5.72509 4.3299 4.95533C4.3299 4.18557 4.95533 3.56014 5.72509 3.56014ZM4.23368 6.01375C4.37801 6.01375 4.47423 6.06186 4.57045 6.15808C4.85911 6.44673 5.2921 6.63917 5.72509 6.63917C6.20619 6.63917 6.59107 6.44673 6.87973 6.15808C7.07217 5.96564 7.36083 5.96564 7.55327 6.15808C8.03436 6.63917 8.32302 7.31271 8.32302 8.03436C8.32302 8.27491 8.32302 8.46735 8.2268 8.7079C8.17869 8.90034 7.98625 9.04467 7.7457 9.04467H3.56014C3.3677 9.04467 3.17526 8.90034 3.07904 8.7079C3.03093 8.46735 2.98282 8.27491 2.98282 8.03436C2.98282 7.31271 3.27148 6.63917 3.75258 6.15808C3.99313 6.06186 4.08935 6.01375 4.23368 6.01375C4.18557 6.01375 4.18557 6.01375 4.23368 6.01375ZM2.16495 10.5361H9.38144C9.52577 10.5361 9.6701 10.6804 9.6701 10.921C9.6701 11.1134 9.52577 11.3058 9.38144 11.3058H2.16495C2.02062 11.3058 1.87629 11.1615 1.82818 10.9691C1.82818 10.7285 1.97251 10.5361 2.16495 10.5361C2.11684 10.5361 2.11684 10.5361 2.16495 10.5361ZM2.16495 12.268H9.38144C9.52577 12.268 9.6701 12.4124 9.6701 12.6529C9.6701 12.8454 9.52577 13.0378 9.38144 13.0378H2.16495C2.02062 13.0378 1.87629 12.8935 1.82818 12.701C1.82818 12.4605 1.97251 12.3162 2.16495 12.268Z" fill="currentColor"/>
<path d="M4.85908 0H6.63915V0.38488C6.63915 0.57732 6.83159 0.76976 7.02403 0.76976H8.13056V1.73196H3.36768V0.76976H4.47421C4.66665 0.76976 4.85908 0.57732 4.85908 0.38488V0Z" fill="currentColor"/>
</svg>
