<svg width="13" height="14" viewBox="0 0 13 14" fill="none" xmlns="http://www.w3.org/2000/svg">
<path d="M9.82758 9.62H9.27758C9.22508 9.62 9.17758 9.585 9.16258 9.535L8.99258 9.0125C8.98446 8.98808 8.96887 8.96684 8.948 8.95179C8.92713 8.93673 8.90206 8.92863 8.87633 8.92863C8.8506 8.92863 8.82552 8.93673 8.80465 8.95179C8.78379 8.96684 8.76819 8.98808 8.76008 9.0125L8.59008 9.535C8.57258 9.585 8.52758 9.62 8.47508 9.62H7.92508C7.80758 9.62 7.75758 9.7725 7.85258 9.84L8.29758 10.1625C8.34008 10.1925 8.35758 10.2475 8.34258 10.3L8.17258 10.8225C8.13508 10.935 8.26508 11.0275 8.36008 10.96L8.80508 10.6375C8.84758 10.6075 8.90508 10.6075 8.94758 10.6375L9.39258 10.96C9.48758 11.03 9.61758 10.935 9.58008 10.8225L9.41008 10.3C9.39258 10.25 9.41258 10.195 9.45508 10.1625L9.90008 9.84C9.99508 9.77 9.94508 9.62 9.82758 9.62Z" fill="currentColor"/>
<path d="M11.25 0H1C0.4475 0 -1.46484e-08 0.4475 0 1V13C0 13.5525 0.4475 14 1 14H11.25C11.8025 14 12.25 13.5525 12.25 13V1C12.25 0.4475 11.8025 0 11.25 0ZM6.125 1.81H6.1375L6.845 1.8175C7.05 1.82 7.215 1.985 7.2175 2.1925L7.22 2.8925C7.22 3.51 6.73 4.0025 6.125 4.0025C5.52 4.0025 5.03 3.5125 5.03 2.9075C5.03 2.3025 5.52 1.81 6.125 1.81ZM3.8975 6.06C3.8975 5.555 3.8975 5.2775 4.0275 5.0225C4.1425 4.795 4.325 4.615 4.55 4.5C4.8075 4.37 5.085 4.37 5.5875 4.37H6.6575C7.1625 4.37 7.44 4.37 7.695 4.5C7.9225 4.615 8.1025 4.7975 8.2175 5.0225C8.3475 5.28 8.3475 5.5575 8.3475 6.06V6.1825C8.3475 6.39 8.18 6.5575 7.9725 6.5575H4.2725C4.065 6.5575 3.8975 6.39 3.8975 6.1825V6.06ZM1.9125 8.5125H3.8625C4.1375 8.5125 4.3625 8.7375 4.3625 9.0125C4.3625 9.2875 4.1375 9.5125 3.8625 9.5125H1.9125C1.6375 9.5125 1.4125 9.2875 1.4125 9.0125C1.4125 8.7375 1.6375 8.5125 1.9125 8.5125ZM4.5025 11.7425H1.9125C1.6375 11.7425 1.4125 11.5175 1.4125 11.2425C1.4125 10.9675 1.6375 10.7425 1.9125 10.7425H4.5025C4.63511 10.7425 4.76229 10.7952 4.85605 10.8889C4.94982 10.9827 5.0025 11.1099 5.0025 11.2425C5.0025 11.3751 4.94982 11.5023 4.85605 11.5961C4.76229 11.6898 4.63511 11.7425 4.5025 11.7425ZM8.875 12.3775C7.635 12.3775 6.625 11.3675 6.625 10.1275C6.625 8.8875 7.635 7.8775 8.875 7.8775C10.115 7.8775 11.125 8.8875 11.125 10.1275C11.125 11.3675 10.115 12.3775 8.875 12.3775Z" fill="currentColor"/>
</svg>
