<svg width="14" height="15" viewBox="0 0 14 15" fill="none" xmlns="http://www.w3.org/2000/svg">
<path d="M12.5001 3.49916H12.9995C13.5512 3.49916 14 3.94625 14 4.49964V13.5006C14 14.0523 13.5529 14.5011 12.9995 14.5011H12.5001V3.49916ZM1.00048 0H10.5008C11.0525 0 11.5013 0.447096 11.5013 1.00048V13.5006C11.5013 14.0523 11.0542 14.5011 10.5008 14.5011H1.00048C0.448783 14.5011 0 14.054 0 13.5006V0.998795C0.00168715 0.447096 0.447096 0 1.00048 0ZM2.85972 7.72041H8.63991C8.839 7.72041 8.99928 7.55845 8.99928 7.36105C8.99928 7.16197 8.83731 7.00169 8.63991 7.00169H2.85972C2.66064 7.00169 2.50036 7.16365 2.50036 7.36105C2.50205 7.55845 2.66233 7.72041 2.85972 7.72041ZM2.85972 9.71969H8.63991C8.839 9.71969 8.99928 9.55772 8.99928 9.36033C8.99928 9.16124 8.83731 9.00096 8.63991 9.00096H2.85972C2.66064 9.00096 2.50036 9.16293 2.50036 9.36033C2.50205 9.55941 2.66233 9.71969 2.85972 9.71969ZM2.85972 11.7207H5.13907C5.33815 11.7207 5.49843 11.5587 5.49843 11.3613C5.49843 11.1622 5.33647 11.0019 5.13907 11.0019H2.85972C2.66064 11.0019 2.50036 11.1639 2.50036 11.3613C2.50205 11.5587 2.66233 11.7207 2.85972 11.7207ZM2.50205 4.24994C2.50205 4.66498 2.83779 5.00072 3.25283 5.00072H8.25355C8.66859 5.00072 9.00434 4.66498 9.00434 4.24994C9.00434 3.8349 8.66859 3.49916 8.25355 3.49916H3.25114C2.8361 3.49916 2.50205 3.8349 2.50205 4.24994Z" fill="currentColor"/>
</svg>
