<svg width="14" height="14" viewBox="0 0 14 14" fill="none" xmlns="http://www.w3.org/2000/svg">
<path d="M7 14H1.55556C0.953556 14 0 14 0 12.8333C0 11.6667 0.990889 11.0771 1.55556 10.8889C3.28144 10.3133 4.15567 9.73778 4.49478 8.84878C3.21378 8.085 2.33333 6.49989 2.33333 4.66667C2.33333 2.08911 4.07478 0 6.22222 0C8.36967 0 10.1111 2.08911 10.1111 4.66667C10.1111 4.93111 10.0924 5.19167 10.0567 5.44444C9.24149 5.45891 8.46455 5.79272 7.89293 6.37408C7.32131 6.95544 7.00069 7.73792 7 8.55322V14Z" fill="currentColor"/>
<path d="M11.6667 9.33333V8.55166C11.6667 8.13166 11.3182 7.77778 10.8889 7.77778C10.4564 7.77778 10.1111 8.12466 10.1111 8.55166V9.33333H11.6667ZM8.55556 9.33333V8.55322C8.55556 7.93438 8.80139 7.34089 9.23897 6.9033C9.67656 6.46572 10.2701 6.21989 10.8889 6.21989C11.5077 6.21989 12.1012 6.46572 12.5388 6.9033C12.9764 7.34089 13.2222 7.93438 13.2222 8.55322V9.33333H13.2246C13.6523 9.33333 14 9.68411 14 10.1033V13.23C14 13.6547 13.6477 14 13.2246 14H8.55322C8.34863 13.9996 8.15244 13.9185 8.00726 13.7744C7.86208 13.6302 7.77962 13.4346 7.77778 13.23V10.1033C7.77778 9.67866 8.13011 9.33333 8.55322 9.33333H8.55556Z" fill="currentColor"/>
</svg>
