<svg width="13" height="14" viewBox="0 0 13 14" fill="none" xmlns="http://www.w3.org/2000/svg">
<path d="M3.37998 1.70008C3.49897 1.85256 3.65048 1.97657 3.82348 2.06307C3.99647 2.14957 4.18659 2.19637 4.37997 2.20008H7.56995C7.76333 2.19637 7.95345 2.14957 8.12644 2.06307C8.29944 1.97657 8.45096 1.85256 8.56994 1.70008L9.05994 1.10008C9.15716 0.981731 9.21019 0.83325 9.20994 0.680087C9.21011 0.50482 9.1426 0.336256 9.0215 0.20956C8.90039 0.0828649 8.73504 0.00782339 8.55994 9.11145e-05H3.41998C3.26339 -0.00251005 3.11098 0.0506569 2.98998 0.15009C2.9107 0.203702 2.84404 0.273913 2.7946 0.355856C2.74516 0.437799 2.71413 0.529514 2.70367 0.624642C2.6932 0.719771 2.70355 0.816037 2.734 0.906767C2.76444 0.997498 2.81425 1.08052 2.87998 1.15008L3.37998 1.70008ZM11.9899 10.8H11.0399L10.6999 9.25003C10.8637 9.13907 10.9983 8.99023 11.0923 8.81614C11.1864 8.64205 11.237 8.44786 11.2399 8.25004C11.2399 7.91852 11.1082 7.60058 10.8738 7.36616C10.6394 7.13174 10.3215 7.00005 9.98994 7.00005C9.65842 7.00005 9.34048 7.13174 9.10606 7.36616C8.87164 7.60058 8.73994 7.91852 8.73994 8.25004C8.74289 8.44786 8.79352 8.64205 8.88752 8.81614C8.98153 8.99023 9.11614 9.13907 9.27994 9.25003L8.98994 10.8H7.98995C7.72473 10.8 7.47038 10.9054 7.28285 11.0929C7.09531 11.2804 6.98996 11.5348 6.98996 11.8V12.5H12.9899V11.8C12.9899 11.5348 12.8846 11.2804 12.697 11.0929C12.5095 10.9054 12.2551 10.8 11.9899 10.8Z" fill="currentColor"/>
<path d="M5.98996 11.8C5.98996 11.2696 6.20067 10.7609 6.57574 10.3858C6.95081 10.0107 7.45952 9.80003 7.98995 9.80003H8.12995V9.57003C7.84625 9.18822 7.69208 8.7257 7.68995 8.25004C7.68128 7.85787 7.77621 7.47035 7.96517 7.12659C8.15412 6.78283 8.4304 6.495 8.76614 6.29214C9.10188 6.08927 9.48519 5.97856 9.87738 5.97117C10.2696 5.96378 10.6568 6.05998 10.9999 6.25005C10.7705 5.64348 10.4186 5.09068 9.96614 4.62615C9.51365 4.16161 8.97028 3.7953 8.36995 3.55007C8.17375 3.46084 7.96949 3.39052 7.75995 3.34007H7.67995L7.12995 3.23007H4.76997L4.21997 3.34007H4.13997C3.93043 3.39052 3.72617 3.46084 3.52998 3.55007C2.85048 3.83909 2.24845 4.28382 1.77249 4.84837C1.29653 5.41292 0.959976 6.08147 0.789995 6.80005L0.109999 9.51003C0.0390215 9.79805 0.0021025 10.0934 0 10.39C0.00263895 11.3466 0.383822 12.2633 1.06025 12.9397C1.73668 13.6162 2.65336 13.9974 3.60998 14H6.07996C6.02523 13.8387 5.9949 13.6702 5.98996 13.5V11.8ZM6.98995 13.5C6.98995 13.6326 7.04263 13.7598 7.1364 13.8536C7.23017 13.9473 7.35734 14 7.48995 14H12.4899C12.6225 14 12.7497 13.9473 12.8435 13.8536C12.9372 13.7598 12.9899 13.6326 12.9899 13.5V13H6.98995V13.5Z" fill="currentColor"/>
</svg>
