<svg width="14" height="14" viewBox="0 0 14 14" fill="none" xmlns="http://www.w3.org/2000/svg">
<path d="M0.875412 0H13.1254C13.608 0 14 0.378823 14 0.844118V3.31059C14 3.77671 13.608 4.15471 13.1246 4.15471H0.875412C0.392823 4.15471 0 3.77671 0 3.31059V0.844118C0 0.378 0.392 0 0.875412 0ZM2.18071 1.66188C2.06858 1.6599 1.96024 1.70249 1.87949 1.78031C1.79874 1.85813 1.75216 1.96481 1.75 2.07694C1.75 2.30671 1.94271 2.49282 2.18071 2.49282H4.81929C4.87488 2.49381 4.93012 2.48383 4.98186 2.46346C5.03359 2.44309 5.0808 2.41272 5.1208 2.3741C5.16079 2.33548 5.19279 2.28936 5.21496 2.23837C5.23713 2.18739 5.24903 2.13253 5.25 2.07694C5.24784 1.96481 5.20126 1.85813 5.12051 1.78031C5.03976 1.70249 4.93142 1.6599 4.81929 1.66188H2.18071ZM0.875412 4.92306H13.1254C13.6088 4.92306 14 5.30188 14 5.76718V8.23365C14 8.69976 13.608 9.07694 13.1246 9.07694H0.875412C0.392823 9.07694 0.000823359 8.69977 0.000823359 8.23365V5.76718C0.000823359 5.30106 0.392823 4.92306 0.876235 4.92306H0.875412ZM0.875412 9.84612H13.1254C13.6088 9.84612 14 10.2241 14 10.6894V13.1567C14 13.6212 13.608 14 13.1246 14H0.875412C0.392823 14 0 13.622 0 13.1559V10.6894C0 10.2233 0.392 9.84529 0.875412 9.84529V9.84612ZM2.18071 6.77353C2.06858 6.77154 1.96024 6.81414 1.87949 6.89196C1.79874 6.96978 1.75216 7.07646 1.75 7.18859C1.75 7.41835 1.94271 7.60447 2.18071 7.60447H4.81929C4.87488 7.60545 4.93012 7.59547 4.98186 7.5751C5.03359 7.55473 5.0808 7.52437 5.1208 7.48575C5.16079 7.44713 5.19279 7.40101 5.21496 7.35002C5.23713 7.29903 5.24903 7.24418 5.25 7.18859C5.24784 7.07646 5.20126 6.96978 5.12051 6.89196C5.03976 6.81414 4.93142 6.77154 4.81929 6.77353H2.18071Z" fill="currentColor"/>
</svg>
