<svg width="14" height="14" viewBox="0 0 14 14" fill="none" xmlns="http://www.w3.org/2000/svg">
<path d="M13.1246 13.9996H11.3748C10.8498 13.9996 10.4999 13.6501 10.4999 13.1246V11.3748C10.4999 10.8502 10.8498 10.4999 11.3748 10.4999V8.75004H7.8747V10.4999C8.39973 10.4999 8.74962 10.8502 8.74962 11.3748V13.1246C8.74962 13.6501 8.39973 13.9996 7.8747 13.9996H6.12486C5.59982 13.9996 5.24993 13.6501 5.24993 13.1246V11.3748C5.24993 10.8502 5.59982 10.4999 6.12486 10.4999V8.75004H2.62475V10.4999C3.1498 10.4999 3.49968 10.8502 3.49968 11.3748V13.1246C3.49968 13.6501 3.1498 13.9996 2.62475 13.9996H0.874923C0.34989 13.9996 0 13.6501 0 13.1246V11.3748C0 10.8502 0.34989 10.4999 0.874923 10.4999V7.87511C0.874923 7.35008 1.2248 6.99978 1.74985 6.99978H6.12487V5.24993H5.24993C4.7249 5.24993 4.37503 4.90047 4.37503 4.37503V0.874923C4.37503 0.350301 4.7249 0 5.24993 0H8.75005C9.27508 0 9.62497 0.350318 9.62497 0.874923V4.37503C9.62497 4.90047 9.27508 5.24993 8.75005 5.24993H7.87513V6.99978H12.2502C12.7752 6.99978 13.1251 7.35051 13.1251 7.87511V10.4999C13.6501 10.4999 14 10.8502 14 11.3748V13.1246C13.9996 13.6501 13.6497 13.9996 13.1246 13.9996Z" fill="currentColor"/>
</svg>
