<svg width="14" height="14" viewBox="0 0 14 14" fill="none" xmlns="http://www.w3.org/2000/svg">
<path d="M13.6844 5.9124C13.4407 5.67433 8.88671 1.25474 8.09129 0.473328C7.77201 0.159643 7.41351 0 7.02701 0C6.38843 0 5.93471 0.439719 5.8899 0.484531L0.980174 5.27382C0.722504 5.52309 0.29959 5.9292 0.26318 5.96281C0.0867322 6.11685 -0.109321 6.49495 0.0727284 6.90386C0.240774 7.29037 0.621677 7.3968 0.826132 7.3996H1.28826C1.29666 7.3996 1.30506 7.3996 1.30786 7.4024C1.31066 7.4108 1.31346 7.422 1.31626 7.43321V10.6597C1.31626 12.0461 2.1817 12.7967 2.30213 12.8947C2.85668 13.382 3.52326 13.6369 4.22905 13.6369L9.78575 13.6313C10.4859 13.6313 11.1749 13.3764 11.7239 12.9143C12.6957 12.0993 12.7209 10.9173 12.7237 10.8613V7.408C12.7293 7.4052 12.7349 7.4024 12.7405 7.4024H13.1691C13.5136 7.4024 13.802 7.20074 13.9421 6.86185C14.1129 6.43614 13.8693 6.07204 13.6844 5.9124ZM8.8615 9.15287C9.09396 9.15287 9.27601 9.35172 9.27601 9.55618C9.27601 9.74663 9.08556 9.94268 8.8615 9.94268H7.39671V10.6989C7.39671 10.8977 7.23706 11.049 6.9962 11.049C6.76934 11.049 6.60689 10.8921 6.60689 10.6989V9.94268H5.13089C4.90963 9.94268 4.72759 9.74103 4.72759 9.53937C4.72759 9.34332 4.90403 9.15287 5.13089 9.15287H6.60689V8.75796H5.13089C4.89563 8.75796 4.72759 8.56191 4.72759 8.35185C4.72759 8.1642 4.90963 7.96815 5.13089 7.96815H6.2596L5.01046 6.00482C4.95725 5.9348 4.94044 5.80597 4.96285 5.71914C4.99086 5.61552 5.07768 5.52869 5.20371 5.47828C5.39697 5.40826 5.62943 5.47268 5.73306 5.61272L7.0102 7.57044L8.27334 5.60711C8.37977 5.44747 8.64024 5.38305 8.81949 5.47828C8.88391 5.49788 8.93152 5.5399 8.97353 5.59311L8.97913 5.5511V5.63512C8.97913 5.64912 9.01554 5.67433 9.02114 5.69114C9.05195 5.78076 9.06035 5.88999 9.00434 5.97121L8.8727 6.19247L7.7524 7.96815H8.8615C9.09116 7.96815 9.27601 8.16981 9.27601 8.36866C9.27601 8.56471 9.09396 8.76076 8.8615 8.76076H7.39671V9.15567H8.8615V9.15287Z" fill="currentColor"/>
</svg>
