<svg width="14" height="14" viewBox="0 0 14 14" fill="none" xmlns="http://www.w3.org/2000/svg">
<path d="M7 0C7.396 0 7.778 0.138 8.082 0.387L8.207 0.5L10.707 3H12C12.5304 3 13.0391 3.21071 13.4142 3.58579C13.7893 3.96086 14 4.46957 14 5V12C14 12.5304 13.7893 13.0391 13.4142 13.4142C13.0391 13.7893 12.5304 14 12 14H2C1.46957 14 0.960859 13.7893 0.585786 13.4142C0.210714 13.0391 0 12.5304 0 12V5C0 4.46957 0.210714 3.96086 0.585786 3.58579C0.960859 3.21071 1.46957 3 2 3H3.292L5.792 0.5C6.114 0.18 6.548 0 7 0ZM10.5 8C10.1022 8 9.72064 8.15804 9.43934 8.43934C9.15804 8.72064 9 9.10218 9 9.5C9 9.89782 9.15804 10.2794 9.43934 10.5607C9.72064 10.842 10.1022 11 10.5 11C10.8978 11 11.2794 10.842 11.5607 10.5607C11.842 10.2794 12 9.89782 12 9.5C12 9.10218 11.842 8.72064 11.5607 8.43934C11.2794 8.15804 10.8978 8 10.5 8ZM5.5 10H3.5C3.37505 9.99977 3.25455 10.0463 3.16222 10.1305C3.06988 10.2147 3.01241 10.3304 3.00112 10.4548C2.98984 10.5793 3.02554 10.7034 3.10122 10.8028C3.1769 10.9023 3.28705 10.9697 3.41 10.992L3.5 11H5.5C5.62495 11.0002 5.74545 10.9537 5.83778 10.8695C5.93012 10.7853 5.98759 10.6696 5.99888 10.5452C6.01016 10.4207 5.97446 10.2966 5.89878 10.1972C5.8231 10.0977 5.71295 10.0303 5.59 10.008L5.5 10ZM7.5 7H3.5C3.37505 6.99977 3.25455 7.04633 3.16222 7.13051C3.06988 7.21469 3.01241 7.33039 3.00112 7.45482C2.98984 7.57926 3.02554 7.70341 3.10122 7.80283C3.1769 7.90225 3.28705 7.96974 3.41 7.992L3.5 8H7.5C7.62495 8.00023 7.74545 7.95367 7.83778 7.86949C7.93012 7.78531 7.98759 7.66961 7.99888 7.54518C8.01017 7.42074 7.97446 7.29659 7.89878 7.19717C7.8231 7.09775 7.71295 7.03026 7.59 7.008L7.5 7ZM7 1C6.85089 1.00011 6.70564 1.04736 6.585 1.135L6.5 1.207L4.706 3H9.293L7.5 1.207C7.43433 1.14135 7.35638 1.08929 7.27059 1.05377C7.1848 1.01825 7.09285 0.99998 7 1Z" fill="currentColor"/>
</svg>
