<svg width="13" height="14" viewBox="0 0 13 14" fill="none" xmlns="http://www.w3.org/2000/svg">
<path d="M4.45682 1.07751C4.59649 0.757267 4.82657 0.484741 5.11885 0.293344C5.41114 0.101948 5.75292 0 6.10229 0C6.45166 0 6.79344 0.101948 7.08572 0.293344C7.378 0.484741 7.60808 0.757267 7.74775 1.07751H10.7687C11.1495 1.07751 11.5148 1.22878 11.784 1.49805C12.0533 1.76732 12.2046 2.13253 12.2046 2.51334V12.5642C12.2046 12.945 12.0533 13.3102 11.784 13.5795C11.5148 13.8487 11.1495 14 10.7687 14H1.43583C1.05503 14 0.689816 13.8487 0.420546 13.5795C0.151275 13.3102 0 12.945 0 12.5642V2.51334C0 2.13253 0.151275 1.76732 0.420546 1.49805C0.689816 1.22878 1.05503 1.07751 1.43583 1.07751H4.45682ZM6.10229 2.51334C6.29269 2.51334 6.4753 2.4377 6.60993 2.30307C6.74457 2.16843 6.8202 1.98583 6.8202 1.79542C6.8202 1.60502 6.74457 1.42242 6.60993 1.28778C6.4753 1.15314 6.29269 1.07751 6.10229 1.07751C5.91189 1.07751 5.72928 1.15314 5.59465 1.28778C5.46001 1.42242 5.38437 1.60502 5.38437 1.79542C5.38437 1.98583 5.46001 2.16843 5.59465 2.30307C5.72928 2.4377 5.91189 2.51334 6.10229 2.51334ZM2.69219 8.61563C2.54938 8.61563 2.41243 8.67236 2.31145 8.77333C2.21048 8.87431 2.15375 9.01126 2.15375 9.15407C2.15375 9.29687 2.21048 9.43382 2.31145 9.5348C2.41243 9.63577 2.54938 9.6925 2.69219 9.6925H9.51239C9.65519 9.6925 9.79215 9.63577 9.89312 9.5348C9.9941 9.43382 10.0508 9.29687 10.0508 9.15407C10.0508 9.01126 9.9941 8.87431 9.89312 8.77333C9.79215 8.67236 9.65519 8.61563 9.51239 8.61563H2.69219ZM2.69219 10.7694C2.54938 10.7694 2.41243 10.8261 2.31145 10.9271C2.21048 11.0281 2.15375 11.165 2.15375 11.3078C2.15375 11.4506 2.21048 11.5876 2.31145 11.6885C2.41243 11.7895 2.54938 11.8463 2.69219 11.8463H9.51239C9.65519 11.8463 9.79215 11.7895 9.89312 11.6885C9.9941 11.5876 10.0508 11.4506 10.0508 11.3078C10.0508 11.165 9.9941 11.0281 9.89312 10.9271C9.79215 10.8261 9.65519 10.7694 9.51239 10.7694H2.69219ZM4.66538 4.98261C4.55866 4.8877 4.4186 4.83906 4.27602 4.84741C4.13344 4.85576 4.00002 4.9204 3.90511 5.02712C3.81019 5.13384 3.76156 5.2739 3.7699 5.41648C3.77825 5.55906 3.8429 5.69248 3.94962 5.7874L5.56493 7.22323C5.61885 7.27125 5.68187 7.30793 5.75025 7.3311C5.81864 7.35426 5.89098 7.36344 5.96298 7.35808C6.03498 7.35272 6.10517 7.33294 6.16937 7.29991C6.23357 7.26687 6.29047 7.22127 6.33669 7.1658L9.02887 3.93517C9.12031 3.82545 9.16442 3.6839 9.1515 3.54166C9.13857 3.39942 9.06967 3.26814 8.95995 3.17669C8.85023 3.08525 8.70868 3.04114 8.56644 3.05407C8.4242 3.06699 8.29292 3.1359 8.20148 3.24561L5.86502 6.04908L4.66538 4.98261Z" fill="currentColor"/>
</svg>
