<svg width="14" height="14" viewBox="0 0 14 14" fill="none" xmlns="http://www.w3.org/2000/svg">
<path d="M1.69381 0.26202C1.87361 0.437432 1.94816 0.668755 1.91856 0.95928V12.9508C1.90869 13.2403 1.81879 13.4705 1.64886 13.6404C1.47894 13.8103 1.24871 13.9002 0.95928 13.9101C0.709319 13.9002 0.488959 13.8103 0.299295 13.6404C0.109632 13.4705 0.00986688 13.2403 0 12.9508V0.95928C0.00986688 0.709319 0.115113 0.490055 0.314644 0.299295C0.514174 0.109632 0.758653 0.00986688 1.04918 0C1.29914 0 1.51402 0.0866093 1.69381 0.26202ZM13.4376 0.561316C13.8027 0.92639 13.9901 1.37807 14 1.91746V12.0803C13.9901 12.6197 13.8027 13.0714 13.4376 13.4365C13.0725 13.8016 12.6208 13.989 12.0814 13.9989H4.21206C3.92263 13.9989 3.6924 13.9112 3.52247 13.7369C3.35255 13.5615 3.26265 13.3301 3.25278 13.0396V0.95928C3.26265 0.669851 3.35255 0.437432 3.52247 0.26202C3.6924 0.0877057 3.92154 0 4.21206 0H12.0814C12.6208 0.00986688 13.0736 0.197337 13.4376 0.561316ZM11.3842 10.2747C11.4686 10.1596 11.4467 10.0269 11.3162 9.87784C11.2164 9.48864 11.0169 9.16852 10.7165 8.91856C10.4172 8.6686 10.0719 8.53923 9.68269 8.52937H9.48755C9.34722 8.62913 9.18497 8.70478 9.00078 8.75411C8.81551 8.80454 8.62803 8.82866 8.43837 8.82866C8.24871 8.82866 8.0711 8.80345 7.90666 8.75411C7.74221 8.70368 7.56899 8.62913 7.38919 8.52937H7.19405C6.80486 8.53923 6.45951 8.66969 6.16022 8.91856C5.86092 9.16852 5.6603 9.48864 5.56053 9.87784C5.51997 10.028 5.53751 10.1607 5.61316 10.2747C5.68771 10.3898 5.80063 10.4468 5.95082 10.4468H11.0323C11.1825 10.4468 11.2998 10.3898 11.3842 10.2747ZM7.09757 4.5859C6.72263 4.9455 6.53078 5.40047 6.52091 5.94973C6.53078 6.53955 6.72373 7.03399 7.09757 7.43414C7.47251 7.8343 7.94941 8.03931 8.52937 8.04918C9.11919 8.03931 9.60157 7.84965 9.97541 7.47909C10.3504 7.10963 10.5422 6.62944 10.5521 6.04072C10.5422 5.4509 10.3493 4.97181 9.97541 4.60235C9.60047 4.23289 9.11809 4.04323 8.52937 4.03226C7.94941 4.04103 7.47251 4.22631 7.09757 4.5859Z" fill="currentColor"/>
</svg>
