<svg width="12" height="14" viewBox="0 0 12 14" fill="none" xmlns="http://www.w3.org/2000/svg">
<path d="M3.39801 0C3.46791 0 3.52555 0.0572262 3.52555 0.127942V1.14984H7.61314V0.127942C7.61314 0.057635 7.67036 0 7.74108 0H8.63504C8.70534 0 8.76298 0.0572262 8.76298 0.127942V1.14984H10.6277C10.9102 1.14984 11.1387 1.37793 11.1387 1.66079V13.4891C11.1387 13.7715 10.9102 14 10.6277 14H0.510949C0.228496 14 0 13.7715 0 13.4891V1.66038C0 1.37834 0.228496 1.14943 0.510949 1.14943H2.37612V0.127533C2.37612 0.0576351 2.43334 0 2.50365 0H3.39801ZM6.4167 5.51457C6.09035 5.18672 5.66354 4.97769 5.20445 4.92086C4.74537 4.86403 4.28048 4.96268 3.88403 5.20105L5.4275 6.74616L4.70318 7.47089C3.67066 6.43918 3.15153 5.92619 3.14908 5.92864C2.91483 6.32707 2.81959 6.79203 2.87834 7.25047C2.93709 7.70891 3.14649 8.13483 3.47364 8.46131C3.73229 8.72034 4.05461 8.90666 4.40816 9.00152C4.76171 9.09639 5.13401 9.09645 5.48759 9.00169L5.54482 8.98657L7.96222 11.4056C8.01536 11.4587 8.10201 11.4587 8.15515 11.4056L9.36181 10.1981C9.38717 10.1724 9.40139 10.1378 9.40139 10.1017C9.40139 10.0656 9.38717 10.0309 9.36181 10.0052L6.94236 7.58534L6.9579 7.52812C7.05205 7.1745 7.05161 6.80235 6.95663 6.44895C6.86164 6.09556 6.67545 5.77333 6.4167 5.51457Z" fill="currentColor"/>
</svg>
