<svg width="14" height="14" viewBox="0 0 14 14" fill="none" xmlns="http://www.w3.org/2000/svg">
<path d="M13.1107 12.2305H0.889325C0.531762 12.2305 0.210871 12.0655 0 11.7996V12.8631C0 13.4682 0.495088 13.9633 1.1002 13.9633H12.8998C13.5049 13.9633 14 13.4682 14 12.8631V11.7996C13.7891 12.0655 13.4682 12.2305 13.1107 12.2305ZM2.35625 13.3124C2.35625 13.4682 2.2279 13.6058 2.06287 13.6058H1.69614C1.54027 13.6058 1.40275 13.4774 1.40275 13.3124V12.9456C1.40275 12.7898 1.53111 12.6523 1.69614 12.6523H2.06287C2.21873 12.6523 2.35625 12.7806 2.35625 12.9456V13.3124ZM4.39162 13.3124C4.39162 13.4682 4.26326 13.6058 4.09823 13.6058H3.7315C3.57564 13.6058 3.43811 13.4774 3.43811 13.3124V12.9456C3.43811 12.7898 3.56647 12.6523 3.7315 12.6523H4.09823C4.25409 12.6523 4.39162 12.7806 4.39162 12.9456V13.3124ZM6.42698 13.3124C6.42698 13.4682 6.29862 13.6058 6.13359 13.6058H5.76686C5.611 13.6058 5.47348 13.4774 5.47348 13.3124V12.9456C5.47348 12.7898 5.60183 12.6523 5.76686 12.6523H6.13359C6.28946 12.6523 6.42698 12.7806 6.42698 12.9456V13.3124ZM8.46234 13.3124C8.46234 13.4682 8.33399 13.6058 8.16896 13.6058H7.80223C7.64636 13.6058 7.50884 13.4774 7.50884 13.3124V12.9456C7.50884 12.7898 7.6372 12.6523 7.80223 12.6523H8.16896C8.32482 12.6523 8.46234 12.7806 8.46234 12.9456V13.3124ZM10.4977 13.3124C10.4977 13.4682 10.3694 13.6058 10.2043 13.6058H9.83759C9.68173 13.6058 9.5442 13.4774 9.5442 13.3124V12.9456C9.5442 12.7898 9.67256 12.6523 9.83759 12.6523H10.2043C10.3602 12.6523 10.4977 12.7806 10.4977 12.9456V13.3124ZM12.5331 13.3124C12.5331 13.4682 12.4047 13.6058 12.2397 13.6058H11.873C11.7171 13.6058 11.5796 13.4774 11.5796 13.3124V12.9456C11.5796 12.7898 11.7079 12.6523 11.873 12.6523H12.2397C12.3955 12.6523 12.5331 12.7806 12.5331 12.9456V13.3124ZM13.0832 1.1002C13.0832 0.495088 12.5881 -1.82229e-10 11.983 0H2.01703C1.41192 0 0.91683 0.495088 0.91683 1.1002L0 10.2685C0 10.8736 0.495088 11.3687 1.1002 11.3687H12.8998C13.5049 11.3687 14 10.8736 14 10.2685L13.0832 1.1002ZM10.0576 8.389C9.87426 8.67321 9.60838 8.92076 9.27832 9.12246C8.94826 9.32416 8.55403 9.47086 8.10478 9.57171C7.65553 9.67256 7.16961 9.72757 6.64702 9.72757C6.28029 9.72757 5.94106 9.70923 5.63851 9.66339C5.32678 9.61755 5.05173 9.56254 4.80419 9.49836C4.55665 9.43418 4.35494 9.37001 4.18991 9.29666C4.02488 9.23248 3.9057 9.1683 3.84152 9.12246C3.77734 9.07662 3.7315 9.01244 3.69483 8.9391C3.66732 8.86575 3.64898 8.7649 3.64898 8.63654C3.64898 8.54486 3.65815 8.47151 3.66732 8.4165C3.67649 8.36149 3.69483 8.30648 3.71316 8.26981C3.7315 8.23314 3.759 8.20563 3.79568 8.19646C3.83235 8.17813 3.86902 8.17813 3.91487 8.17813C3.99738 8.17813 4.1074 8.2148 4.24492 8.27898C4.39162 8.34316 4.57498 8.42567 4.79502 8.49902C5.01506 8.58153 5.29011 8.65488 5.60183 8.72822C5.92272 8.80157 6.28029 8.83824 6.70203 8.83824C7.01375 8.83824 7.30714 8.81074 7.56385 8.74656C7.82056 8.68238 8.04977 8.59987 8.23314 8.48985C8.4165 8.37983 8.56319 8.2423 8.66405 8.07728C8.7649 7.91225 8.81991 7.72888 8.81991 7.52718C8.81991 7.30714 8.74656 7.1146 8.60904 6.95874C8.47151 6.80288 8.28815 6.66536 8.05894 6.54617C7.82973 6.42698 7.56385 6.31696 7.27046 6.21611C6.97708 6.11526 6.67452 6.01441 6.3628 5.91356C6.05108 5.8127 5.75769 5.69352 5.46431 5.57433C5.17092 5.44597 4.91421 5.29928 4.685 5.13425C4.45579 4.96922 4.27243 4.76752 4.12574 4.53831C3.97904 4.3091 3.91487 4.03405 3.91487 3.72233C3.91487 3.39227 3.99738 3.10805 4.16241 2.85134C4.32744 2.59463 4.55665 2.38376 4.85003 2.20956C5.14342 2.03536 5.49181 1.90701 5.90439 1.81532C6.30779 1.72364 6.74787 1.6778 7.21545 1.6778C7.45383 1.6778 7.70137 1.69614 7.93975 1.72364C8.18729 1.75115 8.4165 1.79699 8.62737 1.84283C8.84741 1.89784 9.03078 1.95285 9.20498 2.00786C9.37001 2.07204 9.48002 2.11788 9.53503 2.16372C9.59004 2.20039 9.62672 2.2279 9.63589 2.2554C9.65422 2.27374 9.66339 2.31041 9.68173 2.33792C9.6909 2.37459 9.70006 2.41126 9.70923 2.46627C9.7184 2.51212 9.7184 2.57629 9.7184 2.64964C9.7184 2.72299 9.7184 2.78716 9.70923 2.84217C9.70006 2.89718 9.6909 2.94303 9.67256 2.98887C9.65422 3.02554 9.63589 3.05305 9.59921 3.07138C9.57171 3.08972 9.53504 3.09889 9.49836 3.09889C9.43418 3.09889 9.3425 3.07138 9.20498 3.01637C9.07662 2.96136 8.91159 2.89718 8.71906 2.82384C8.52652 2.75049 8.30648 2.68631 8.0406 2.6313C7.78389 2.57629 7.4905 2.53962 7.16045 2.53962C6.85789 2.53962 6.59201 2.56713 6.37197 2.6313C6.15193 2.68631 5.9594 2.76883 5.82187 2.86051C5.67518 2.96136 5.56516 3.07138 5.49181 3.20891C5.41847 3.34643 5.38179 3.48396 5.38179 3.63065C5.38179 3.85069 5.45514 4.03405 5.59266 4.18991C5.73019 4.34578 5.92272 4.4833 6.15193 4.61166C6.38114 4.73084 6.64702 4.84086 6.94957 4.94172C7.24296 5.04257 7.54551 5.14342 7.85724 5.24427C8.16896 5.34512 8.47151 5.46431 8.7649 5.5835C9.05828 5.70268 9.32416 5.84938 9.56254 6.02358C9.79175 6.1886 9.98428 6.39031 10.1218 6.61951C10.2685 6.84872 10.3327 7.1146 10.3327 7.42633C10.3418 7.77472 10.2502 8.09561 10.0576 8.389Z" fill="currentColor"/>
</svg>
