<svg width="14" height="14" viewBox="0 0 14 14" fill="none" xmlns="http://www.w3.org/2000/svg">
<path d="M0 7C-1.36979e-08 7.91925 0.18106 8.8295 0.532843 9.67878C0.884626 10.5281 1.40024 11.2997 2.05025 11.9497C2.70026 12.5998 3.47194 13.1154 4.32122 13.4672C5.1705 13.8189 6.08075 14 7 14C7.91925 14 8.8295 13.8189 9.67878 13.4672C10.5281 13.1154 11.2997 12.5998 11.9497 11.9497C12.5998 11.2997 13.1154 10.5281 13.4672 9.67878C13.8189 8.8295 14 7.91925 14 7C14 5.14348 13.2625 3.36301 11.9497 2.05025C10.637 0.737498 8.85651 0 7 0C5.14348 0 3.36301 0.737498 2.05025 2.05025C0.737498 3.36301 2.76642e-08 5.14348 0 7Z" fill="currentColor"/>
<path d="M5.97689 10.5155C6.11835 11.277 7.31564 10.9527 8.2621 9.94175C9.20856 8.92967 8.54793 9.36805 8.55143 9.3698C7.22873 10.4705 7.62889 8.48284 7.69335 8.22238C7.75752 7.96367 8.61239 6.20871 7.97918 5.93075C7.34452 5.6528 5.40668 7.07642 5.40668 7.07642C5.31656 7.12484 5.08673 7.30305 5.12056 7.36255C5.33435 7.73209 6.26302 7.07671 6.26302 7.07671C6.26302 7.07671 6.58618 6.81946 6.54885 7.07671C6.4351 7.85925 5.86781 9.94175 5.97718 10.5155H5.97689ZM8.83114 4.1198V4.11834C8.84014 3.95355 8.80829 3.78909 8.73842 3.63957C8.66855 3.49005 8.56283 3.36011 8.43065 3.26129C8.29847 3.16248 8.14392 3.09784 7.98075 3.07314C7.81757 3.04843 7.65082 3.06441 7.49531 3.11967C7.30817 3.18591 7.14492 3.30625 7.02627 3.4654C6.90762 3.62456 6.83891 3.81537 6.82885 4.01363C6.81503 4.27934 6.90732 4.53965 7.08541 4.73732C7.2635 4.935 7.51281 5.05384 7.77852 5.06771C7.90988 5.07463 8.04133 5.0556 8.16534 5.0117C8.28935 4.9678 8.40349 4.8999 8.50125 4.81187C8.599 4.72384 8.67845 4.61741 8.73506 4.49866C8.79166 4.37991 8.82431 4.25117 8.83114 4.1198Z" fill="white"/>
</svg>
