<svg width="14" height="14" viewBox="0 0 14 14" fill="none" xmlns="http://www.w3.org/2000/svg">
<path d="M6.48202 9.62161V9.61402C6.48202 9.55327 6.45924 9.49251 6.42127 9.45454L3.29254 6.05243C3.29254 6.05243 2.72299 5.55122 2.21419 5.80942C1.70539 6.06761 2.11547 7.09281 2.11547 7.09281L2.64705 7.8674L2.00915 7.48769C2.00915 7.48769 1.64464 7.24469 1.65223 6.45491C1.65982 5.56641 1.65982 4.00204 1.65982 4.00204C1.65982 4.00204 1.59907 3.33377 0.953582 3.22745C0.475159 3.14392 0.163804 3.71347 0.148616 4.07798C0.125834 4.4425 0.027112 5.39175 0.011924 6.01446C0.00433 6.63717 -0.14755 8.54326 0.89283 9.50011C1.57629 10.1304 1.82689 10.5177 3.24697 11.3606V13.4186C3.24697 13.4186 3.209 13.6768 3.55073 13.6768H6.18586C6.18586 13.6768 6.53518 13.7072 6.54278 13.3806C6.54278 13.0009 6.48962 10.1988 6.48202 9.62161ZM7.51481 9.62161V9.61402C7.51481 9.55327 7.53759 9.49251 7.57556 9.45454L10.7043 6.05243C10.7043 6.05243 11.2738 5.55122 11.7826 5.80942C12.2914 6.06761 11.8814 7.09281 11.8814 7.09281L11.3498 7.8674L11.9877 7.48769C11.9877 7.48769 12.3522 7.24469 12.3446 6.45491C12.337 5.56641 12.337 4.00204 12.337 4.00204C12.337 4.00204 12.3978 3.33377 13.0433 3.22745C13.5217 3.14392 13.833 3.71347 13.8482 4.07798C13.871 4.4425 13.9697 5.39175 13.9849 6.01446C14.0001 6.63717 14.1444 8.54326 13.104 9.50011C12.4205 10.1304 12.1699 10.5177 10.7499 11.3606V13.4186C10.7499 13.4186 10.7878 13.6768 10.4461 13.6768H7.81098C7.81098 13.6768 7.46165 13.7072 7.45406 13.3806C7.45406 13.0009 7.50721 10.1988 7.51481 9.62161Z" fill="currentColor"/>
<path d="M9.00324 0C8.12233 0 7.35533 0.448047 6.98323 1.10113C6.61112 0.448047 5.84413 0 4.96322 0C3.62667 0 2.82171 1.15429 2.82171 2.26302C2.82171 4.89814 6.69466 7.17634 6.86172 7.27506C6.89969 7.29785 6.94526 7.30544 6.98323 7.30544C7.02879 7.30544 7.06676 7.29785 7.10473 7.27506C7.2718 7.17634 11.1447 4.89814 11.1447 2.26302C11.1447 1.15429 10.3474 0 9.00324 0Z" fill="currentColor"/>
</svg>
