<svg width="13" height="14" viewBox="0 0 13 14" fill="none" xmlns="http://www.w3.org/2000/svg">
<path d="M8.47501 10.225C8.47501 10.525 8.70001 10.75 9.00001 10.75C9.30001 10.75 9.52501 10.525 9.52501 10.225C9.52501 9.925 9.30001 9.7 9.00001 9.7C8.70001 9.7 8.47501 9.925 8.47501 10.225ZM9.00001 10.05C9.10001 10.05 9.17501 10.125 9.17501 10.225C9.17501 10.325 9.10001 10.4 9.00001 10.4C8.90001 10.4 8.82501 10.325 8.82501 10.225C8.82501 10.125 8.90001 10.05 9.00001 10.05Z" fill="currentColor"/>
<path d="M12.25 13.175L11.25 8.8L9.00001 8.05L6.97501 9.3V13.75C6.97501 13.875 7.07501 13.975 7.20001 13.975H10.825C10.95 13.975 11.05 13.875 11.05 13.75V13.675L12.075 13.45C12.2 13.425 12.275 13.3 12.25 13.175ZM7.57501 13.35V9.75L9.02501 8.85L10.45 9.75L10.475 13.375L7.57501 13.35ZM11.05 13.025V10.625L11.575 12.9L11.05 13.025Z" fill="currentColor"/>
<path d="M6.125 8.875L8.725 7.25L11.6 8.2L12.25 11.075V1.05C12.25 0.475 11.775 0 11.2 0H1.025C0.45 0 0 0.475 0 1.05V12.95C0 13.525 0.475 14 1.05 14H6.125V8.875ZM7.9 2.425H10V3.125H7.9V2.425ZM5.075 2.425H7.175V3.125H5.075V2.425ZM5.075 5.625H7.175V6.325H5.075V5.625ZM4.325 9.65H2.225V8.95H4.325V9.65ZM4.325 6.325H2.225V5.625H4.325V6.325ZM4.325 3.125H2.225V2.425H4.325V3.125Z" fill="currentColor"/>
</svg>
