<svg width="14" height="14" viewBox="0 0 14 14" fill="none" xmlns="http://www.w3.org/2000/svg">
<path d="M1.33411 0H4.6694C5.55881 0 6.00351 0.444705 6.00351 1.33411V4.6694C6.00351 5.55881 5.55881 6.00351 4.6694 6.00351H1.33411C0.444705 6.00351 1.04228e-08 5.55881 0 4.6694V1.33411C0 0.444705 0.444705 1.04228e-08 1.33411 0Z" fill="currentColor"/>
<path d="M1.33411 7.33763H4.6694C5.55881 7.33763 6.00351 7.78233 6.00351 8.67174V12.007C6.00351 12.8964 5.55881 13.3411 4.6694 13.3411H1.33411C0.444705 13.3411 1.04228e-08 12.8964 0 12.007V8.67174C0 7.78233 0.444705 7.33763 1.33411 7.33763Z" fill="currentColor"/>
<path d="M8.67174 0H12.007C12.8964 0 13.3411 0.444705 13.3411 1.33411V4.6694C13.3411 5.55881 12.8964 6.00351 12.007 6.00351H8.67174C7.78233 6.00351 7.33763 5.55881 7.33763 4.6694V1.33411C7.33763 0.444705 7.78233 1.04228e-08 8.67174 0Z" fill="currentColor"/>
<path d="M6.67057 10.0059C6.67057 8.16478 8.16611 6.67057 10.0059 6.67057C11.8469 6.67057 13.3411 8.16611 13.3411 10.0059C13.3411 11.8469 11.8456 13.3411 10.0059 13.3411C8.16478 13.3411 6.67057 11.8456 6.67057 10.0059ZM8.00468 10.0059C8.00468 11.1092 8.90188 12.007 10.0059 12.007C11.1092 12.007 12.007 11.1098 12.007 10.0059C12.007 8.90254 11.1098 8.00468 10.0059 8.00468C8.90254 8.00468 8.00468 8.90188 8.00468 10.0059Z" fill="currentColor"/>
<path d="M11.5354 12.4786L12.8695 13.8128C12.9953 13.9343 13.1638 14.0015 13.3387 14C13.5136 13.9985 13.6809 13.9283 13.8046 13.8046C13.9283 13.6809 13.9985 13.5136 14 13.3387C14.0015 13.1638 13.9343 12.9953 13.8128 12.8695L12.4786 11.5354C12.3528 11.4139 12.1843 11.3467 12.0094 11.3482C11.8345 11.3497 11.6672 11.4199 11.5435 11.5435C11.4199 11.6672 11.3497 11.8345 11.3482 12.0094C11.3467 12.1843 11.4139 12.3528 11.5354 12.4786Z" fill="currentColor"/>
</svg>
