<svg width="12" height="14" viewBox="0 0 12 14" fill="none" xmlns="http://www.w3.org/2000/svg">
<path d="M4.93201 5.39491L5.45435 3.91625L6.00556 5.39491H4.93201Z" fill="currentColor"/>
<path d="M11.0016 12.9973V2.49972C11.0016 2.3671 11.0542 2.23992 11.148 2.14614C11.2418 2.05237 11.369 1.99969 11.5016 1.99969C11.6342 1.99969 11.7614 2.05237 11.8552 2.14614C11.9489 2.23992 12.0016 2.3671 12.0016 2.49972V14H2.00013C1.46993 13.9986 0.961867 13.7873 0.587046 13.4123C0.212225 13.0374 0.0011548 12.5292 0 11.999V2.00188C0.000925278 1.47123 0.212134 0.962582 0.587358 0.587358C0.962582 0.212134 1.47123 0.000925278 2.00188 0H10.0006V9.99625H2.50234C2.10438 9.99625 1.72271 10.1543 1.44131 10.4357C1.1599 10.7172 1.00181 11.0988 1.00181 11.4968C1.00181 11.8947 1.1599 12.2764 1.44131 12.5578C1.72271 12.8392 2.10438 12.9973 2.50234 12.9973H11.0016ZM5.82276 2.63796H5.14643L3.28804 7.53765H3.9845L4.4561 6.19811H6.49472L6.99344 7.53765H7.68989L5.82276 2.63796Z" fill="currentColor"/>
<path d="M9.50197 10.9972C9.63459 10.9972 9.76178 11.0499 9.85555 11.1436C9.94932 11.2374 10.002 11.3646 10.002 11.4972C10.002 11.6298 9.94932 11.757 9.85555 11.8508C9.76178 11.9446 9.63459 11.9973 9.50197 11.9973H3.50247C3.36986 11.9973 3.24267 11.9446 3.1489 11.8508C3.05512 11.757 3.00244 11.6298 3.00244 11.4972C3.00244 11.3646 3.05512 11.2374 3.1489 11.1436C3.24267 11.0499 3.36986 10.9972 3.50247 10.9972H9.5011H9.50197Z" fill="currentColor"/>
</svg>
