<svg width="14" height="16" viewBox="0 0 14 16" fill="none" xmlns="http://www.w3.org/2000/svg">
<path d="M5.4327 1.53085H8.5673C8.99011 1.53085 9.33273 1.18823 9.33273 0.765426C9.33273 0.342619 8.99011 0 8.5673 0H5.4327C5.00989 0 4.66727 0.342619 4.66727 0.765426C4.66727 1.18823 5.00989 1.53085 5.4327 1.53085Z" fill="currentColor"/>
<path d="M12.542 0.543088H10.6795C10.6923 0.615986 10.6996 0.688883 10.6996 0.765426C10.6996 1.43608 10.1565 1.97917 9.48581 1.97917H4.51419C3.84353 1.97917 3.30044 1.43608 3.30044 0.765426C3.30044 0.688883 3.30773 0.615986 3.32049 0.543088H1.45795C0.652434 0.543088 0 1.19552 0 2.00104V13.6501C0 14.4556 0.652434 15.108 1.45795 15.108H12.542C13.3476 15.108 14 14.4556 14 13.6501V2.00104C14 1.19552 13.3476 0.543088 12.542 0.543088ZM2.3145 12.4436C1.91174 12.4436 1.58552 12.1174 1.58552 11.7147C1.58552 11.3119 1.91174 10.9857 2.3145 10.9857C2.71726 10.9857 3.04348 11.3119 3.04348 11.7147C3.04348 12.1174 2.71726 12.4436 2.3145 12.4436ZM2.3145 9.22703C1.91174 9.22703 1.58552 8.90081 1.58552 8.49805C1.58552 8.09529 1.91174 7.76907 2.3145 7.76907C2.71726 7.76907 3.04348 8.09529 3.04348 8.49805C3.04348 8.90081 2.71726 9.22703 2.3145 9.22703ZM2.3145 6.01224C1.91174 6.01224 1.58552 5.68602 1.58552 5.28326C1.58552 4.8805 1.91174 4.55428 2.3145 4.55428C2.71726 4.55428 3.04348 4.8805 3.04348 5.28326C3.04348 5.68602 2.71726 6.01224 2.3145 6.01224ZM7.51211 12.0791H4.59984C4.39938 12.0791 4.23536 11.9151 4.23536 11.7147C4.23536 11.5142 4.39938 11.3502 4.59984 11.3502H7.51211C7.71257 11.3502 7.8766 11.5142 7.8766 11.7147C7.8766 11.9151 7.71257 12.0791 7.51211 12.0791ZM7.51211 8.86254H4.59984C4.39938 8.86254 4.23536 8.69852 4.23536 8.49805C4.23536 8.29758 4.39938 8.13356 4.59984 8.13356H7.51211C7.71257 8.13356 7.8766 8.29758 7.8766 8.49805C7.8766 8.69852 7.71257 8.86254 7.51211 8.86254ZM11.2682 10.7123V13.6027C11.2682 13.7722 11.1315 13.9089 10.9729 13.8979H9.98516C9.82661 13.9071 9.68992 13.7704 9.68992 13.6027V10.7123C9.01744 10.4171 8.54361 9.73366 8.54361 8.95548C8.54361 8.11534 9.09034 7.39912 9.83754 7.13668V8.96642H11.1205V7.13668C11.8677 7.39912 12.4145 8.11351 12.4145 8.95548C12.4145 9.73184 11.9406 10.4171 11.2682 10.7123ZM12.05 5.64775H4.59984C4.39938 5.64775 4.23536 5.48373 4.23536 5.28326C4.23536 5.08279 4.39938 4.91877 4.59984 4.91877H12.05C12.2505 4.91877 12.4145 5.08279 12.4145 5.28326C12.4145 5.48373 12.2505 5.64775 12.05 5.64775Z" fill="currentColor"/>
</svg>
