<svg width="14" height="14" viewBox="0 0 14 14" fill="none" xmlns="http://www.w3.org/2000/svg">
<path d="M10.5433 7.55315C12.4601 7.55315 14.0077 9.00236 14 10.7881C13.9919 12.5742 12.4443 14.0157 10.5276 14.0084C8.61046 14.0084 7.06285 12.5595 7.07091 10.7734C7.07091 9.04649 8.54007 7.62635 10.3938 7.55315H10.5433ZM6.5053 0.000350218C6.81945 0.000350218 7.07861 0.242001 7.07861 0.534433H8.07673C8.6735 0.534433 9.16836 0.922475 9.24681 1.42749H10.7794C11.2977 1.43449 11.7218 1.80082 11.7691 2.28377L11.7768 2.37868V6.84326C11.3121 6.69423 10.8272 6.61769 10.3391 6.61632C7.91178 6.61632 5.94776 8.48298 5.94776 10.7881C5.94776 11.6738 6.24649 12.5448 6.80404 13.2621L6.92206 13.4011H0.997772C0.479449 13.4011 0.0472795 13.0204 0.00805502 12.5375L0 12.4569V2.37168C0 1.88838 0.392945 1.47862 0.911268 1.43484L0.997772 1.42749H2.75762C2.83607 0.951543 3.284 0.57856 3.84154 0.541788H4.92582C4.92582 0.249005 5.18498 0.0077048 5.49948 0.0077048L6.50495 0L6.5053 0.000350218ZM10.5272 9.14875C10.1185 9.36098 9.8751 9.7196 9.83588 10.1367L9.82782 10.232L7.81687 11.2567V11.3152L8.25674 11.9957L8.5082 12.3399H8.57124L9.19953 11.9957L10.5192 11.3152C10.7079 11.4322 10.959 11.4833 11.1478 11.4833C11.4619 11.4833 11.7134 11.4248 11.9649 11.3152C12.1533 11.1982 12.4674 10.9419 12.5305 10.6859C12.6404 10.4372 12.6562 10.1882 12.6166 9.93919L12.5931 9.82957H12.4674L11.3362 10.4589L11.2105 10.2908L11.0221 10.0635L11.2105 9.94655L12.216 9.37569V9.3172C12.1725 9.24267 12.1065 9.18382 12.0275 9.1491C11.9099 9.09026 11.2735 8.76806 10.5272 9.1491V9.14875ZM4.95769 9.52944H2.247C1.99589 9.52944 1.79172 9.71225 1.79172 9.94655C1.79172 10.1588 1.95632 10.3416 2.18431 10.371L2.24735 10.3784H4.95769C5.20915 10.3784 5.41297 10.1882 5.41297 9.9539C5.41297 9.71961 5.20915 9.52944 4.95769 9.52944ZM6.16734 6.71894H2.24735C1.99589 6.71894 1.79172 6.9091 1.79172 7.13605C1.79172 7.34828 1.95632 7.52409 2.18431 7.55315L2.24735 7.56051H6.16699C6.41845 7.56051 6.62263 7.37034 6.62263 7.13605C6.61492 6.9091 6.41074 6.71894 6.16734 6.71894ZM9.78124 3.91579H2.24735C1.99589 3.91579 1.79172 4.10596 1.79172 4.3329C1.79172 4.54513 1.95632 4.72094 2.18431 4.75001L2.24735 4.75736H9.78124C10.0327 4.75736 10.2365 4.5672 10.2365 4.3329C10.2365 4.09895 10.0327 3.91614 9.78124 3.91614V3.91579ZM6.1831 1.07622H5.82168C5.57022 1.12735 5.35028 1.28845 5.24031 1.50804L5.2088 1.58124C5.12264 1.79347 5.14611 2.02741 5.26413 2.23264C5.41332 2.4813 5.69595 2.63504 6.00239 2.63504C6.46608 2.63504 6.85097 2.28377 6.85097 1.85195C6.85097 1.73463 6.81945 1.61766 6.76446 1.50804L6.71718 1.43449L6.68567 1.39072C6.62667 1.30784 6.55192 1.23741 6.46569 1.18344C6.37946 1.12948 6.28343 1.09304 6.1831 1.07622Z" fill="currentColor"/>
</svg>
