<svg width="14" height="14" viewBox="0 0 14 14" fill="none" xmlns="http://www.w3.org/2000/svg">
<path d="M10.2543 8.6835C10.9967 8.52866 11.6548 8.10637 12.1011 7.49836C12.5475 6.89035 12.7504 6.13984 12.6706 5.39209C12.5908 4.64434 12.234 3.95251 11.6692 3.45049C11.1043 2.94847 10.3717 2.67196 9.61303 2.67447C8.85436 2.67698 8.1236 2.95834 7.56218 3.46409C7.00076 3.96983 6.64859 4.66401 6.57384 5.41228C6.49909 6.16054 6.70706 6.90969 7.15751 7.51473C7.60797 8.11977 8.26887 8.53769 9.01231 8.68761C7.97854 8.84114 7.03497 9.35805 6.35388 10.144C5.6728 10.9299 5.29964 11.9324 5.30255 12.9684C5.3028 13.0265 5.31458 13.0839 5.33723 13.1375C5.35988 13.1911 5.39295 13.2397 5.43456 13.2806C5.47617 13.3215 5.5255 13.3539 5.57974 13.3759C5.63398 13.3979 5.69205 13.4091 5.75066 13.4088L13.5556 13.3746C13.6142 13.3743 13.6722 13.3626 13.7262 13.3402C13.7803 13.3178 13.8293 13.285 13.8706 13.2437C13.9119 13.2025 13.9445 13.1536 13.9667 13.0998C13.9889 13.0461 14.0002 12.9885 14 12.9305C13.994 11.8943 13.6122 10.8948 12.9241 10.1146C12.236 9.33445 11.2877 8.82567 10.2524 8.68121L10.2543 8.6835ZM4.57923 13.0625C4.5765 12.3162 4.76924 11.582 5.13862 10.9317C5.50799 10.2814 6.04134 9.73721 6.68651 9.35241V7.90447C6.13839 7.34027 5.83217 6.58752 5.83217 5.80429C5.83217 5.02107 6.13839 4.26832 6.68651 3.70412V1.60874C6.68651 0.360013 6.68651 0.175422 6.40622 0.0753592C6.2882 0.0256306 6.16127 0 6.03303 0C5.90478 0 5.77786 0.0256306 5.65984 0.0753592L1.39917 2.30187C1.2882 2.35548 1.19451 2.4387 1.12862 2.54217C1.06274 2.64564 1.02728 2.76528 1.02621 2.88762V12.0258H0.279373C0.0949684 12.0258 0 12.1263 0 12.2186V13.2887C0 13.38 0.0922023 13.4815 0.279373 13.4815H4.89364C4.80303 13.4536 4.7237 13.3979 4.66711 13.3224C4.61051 13.247 4.57958 13.1556 4.57877 13.0616L4.57923 13.0625ZM4.55664 10.6628C4.55688 10.6882 4.55202 10.7134 4.54233 10.7369C4.53264 10.7604 4.51832 10.7818 4.5002 10.7997C4.48209 10.8177 4.46055 10.8319 4.43683 10.8415C4.41312 10.8511 4.38771 10.8559 4.36209 10.8556H3.31329C3.28764 10.856 3.26217 10.8513 3.2384 10.8417C3.21463 10.8322 3.19303 10.818 3.17489 10.8C3.15675 10.782 3.14244 10.7606 3.13279 10.737C3.12315 10.7135 3.11837 10.6882 3.11874 10.6628V9.76134C3.11837 9.73592 3.12315 9.71068 3.13279 9.68712C3.14244 9.66356 3.15675 9.64216 3.17489 9.62418C3.19303 9.6062 3.21463 9.59201 3.2384 9.58245C3.26217 9.57289 3.28764 9.56816 3.31329 9.56853H4.38606C4.41171 9.56816 4.43718 9.57289 4.46095 9.58245C4.48472 9.59201 4.50632 9.6062 4.52446 9.62418C4.5426 9.64216 4.55692 9.66356 4.56656 9.68712C4.5762 9.71068 4.58098 9.73592 4.58061 9.76134L4.55664 10.6628ZM4.55664 7.94285C4.55688 7.96824 4.55202 7.99342 4.54233 8.01692C4.53264 8.04043 4.51832 8.06178 4.5002 8.07973C4.48209 8.09769 4.46055 8.11188 4.43683 8.12148C4.41312 8.13109 4.38771 8.13591 4.36209 8.13566H3.31329C3.28764 8.13603 3.26217 8.1313 3.2384 8.12174C3.21463 8.11218 3.19303 8.09799 3.17489 8.08001C3.15675 8.06203 3.14244 8.04063 3.13279 8.01707C3.12315 7.99351 3.11837 7.96827 3.11874 7.94285V7.02584C3.1185 7.00045 3.12336 6.97527 3.13305 6.95176C3.14274 6.92826 3.15706 6.9069 3.17517 6.88895C3.19329 6.871 3.21483 6.8568 3.23855 6.8472C3.26226 6.8376 3.28767 6.83278 3.31329 6.83302H4.38606C4.41168 6.83278 4.43709 6.8376 4.4608 6.8472C4.48452 6.8568 4.50606 6.871 4.52418 6.88895C4.54229 6.9069 4.55661 6.92826 4.5663 6.95176C4.57599 6.97527 4.58086 7.00045 4.58061 7.02584L4.55664 7.94285ZM4.55664 5.23065C4.55688 5.25603 4.55202 5.28122 4.54233 5.30472C4.53264 5.32823 4.51832 5.34958 4.5002 5.36753C4.48209 5.38548 4.46055 5.39968 4.43683 5.40928C4.41312 5.41888 4.38771 5.42371 4.36209 5.42346H3.31329C3.28764 5.42383 3.26217 5.4191 3.2384 5.40954C3.21463 5.39998 3.19303 5.38579 3.17489 5.36781C3.15675 5.34983 3.14244 5.32843 3.13279 5.30487C3.12315 5.28131 3.11837 5.25607 3.11874 5.23065V4.30632C3.1185 4.28093 3.12336 4.25575 3.13305 4.23225C3.14274 4.20874 3.15706 4.18739 3.17517 4.16944C3.19329 4.15148 3.21483 4.13729 3.23855 4.12769C3.26226 4.11808 3.28767 4.11326 3.31329 4.11351H4.38606C4.41168 4.11326 4.43709 4.11808 4.4608 4.12769C4.48452 4.13729 4.50606 4.15148 4.52418 4.16944C4.54229 4.18739 4.55661 4.20874 4.5663 4.23225C4.57599 4.25575 4.58086 4.28093 4.58061 4.30632L4.55664 5.23065Z" fill="currentColor"/>
</svg>
