<svg width="14" height="14" viewBox="0 0 14 14" fill="none" xmlns="http://www.w3.org/2000/svg">
<path d="M5.94308 13.9865C5.43154 13.9564 4.68329 13.8202 4.41023 13.7073C4.37102 13.6911 4.24269 13.642 4.12505 13.5982C3.63079 13.4143 2.86772 12.9975 2.51723 12.7201C1.61609 12.007 1.15577 11.4453 0.656632 10.4499C0.430518 9.99897 0.337157 9.74894 0.185476 9.18816C-0.0111925 8.4612 -0.0580692 7.35673 0.0767148 6.62673C0.228681 5.8037 0.351202 5.44768 0.750278 4.66981C1.47214 3.26287 2.7961 2.13116 4.31462 1.62308C4.94423 1.4124 5.4854 1.32585 6.46888 1.27847L6.95904 1.25487V4.64301L6.45106 4.66033C6.0066 4.67552 5.90073 4.69156 5.60443 4.78877C5.09884 4.95457 4.75519 5.17127 4.35676 5.57534C3.7285 6.21254 3.46556 6.85509 3.46556 7.75334C3.46556 8.64906 3.7423 9.31988 4.37137 9.94888C5.00034 10.578 5.67116 10.8547 6.56692 10.8547C7.4755 10.8547 8.20001 10.5476 8.81828 9.90047C9.44091 9.24876 9.69194 8.56525 9.66128 7.60505L9.64556 7.11168H12.734L12.7343 7.3523C12.7349 7.86656 12.6568 8.55541 12.5331 9.12578C12.4134 9.67796 12.0391 10.5905 11.7745 10.9751C11.714 11.063 11.6645 11.1454 11.6645 11.1582C11.6645 11.1709 11.5133 11.3698 11.3284 11.6002C10.6817 12.4058 10.0533 12.9111 9.1692 13.3363C8.05613 13.8717 7.1381 14.0567 5.94308 13.9865ZM6.28177 10.4378C6.10132 10.3447 6.05491 10.2186 6.03851 9.77635L6.02436 9.39314H5.41995C5.07356 9.39314 4.78624 9.37745 4.74692 9.35642C4.59873 9.2771 4.53029 9.02169 4.61025 8.84619C4.67602 8.70189 4.78285 8.68018 5.4279 8.68018H6.0322V8.26125L5.4048 8.2549C5.00729 8.25084 4.75345 8.23362 4.71217 8.20785C4.5546 8.10946 4.52608 7.84474 4.65666 7.69295C4.74168 7.5941 4.74856 7.59271 5.24271 7.5751L5.74274 7.55728L5.28313 6.75521C4.90905 6.10242 4.82321 5.92657 4.82196 5.81054C4.81765 5.40647 5.25537 5.24453 5.55281 5.54012C5.61063 5.59755 5.85842 6.01455 6.1035 6.46678C6.34857 6.91901 6.55711 7.28889 6.56692 7.28871C6.57672 7.28853 6.80932 6.90945 7.08381 6.44635C7.64754 5.4952 7.74211 5.38765 8.01133 5.39175C8.21848 5.39485 8.33633 5.47274 8.38149 5.6363C8.43361 5.82501 8.38834 5.92433 7.85676 6.78718C7.59828 7.20672 7.38681 7.55407 7.38681 7.5591C7.38681 7.56416 7.61104 7.57382 7.88513 7.58059C8.3677 7.59253 8.38634 7.59589 8.47689 7.68643C8.6537 7.86335 8.56429 8.20546 8.3277 8.25711C8.27095 8.26948 7.97104 8.28153 7.66123 8.28385L7.09789 8.28806L7.10869 8.47521L7.11946 8.66236L7.74686 8.68018C8.43432 8.69972 8.46252 8.70824 8.55249 8.92355C8.59652 9.02885 8.59491 9.0568 8.53809 9.1728C8.4396 9.37378 8.37001 9.39203 7.69873 9.3926L7.10163 9.39314V9.76209C7.10163 10.1808 7.06819 10.3079 6.93166 10.4079C6.79602 10.5074 6.44775 10.5233 6.28181 10.4378H6.28177ZM9.22089 6.10599C8.93449 5.64203 8.37062 5.14486 7.87177 4.91643L7.672 4.82502L7.67196 2.41253L7.67189 0L8.03735 0.0214599C8.44291 0.0452726 8.83636 0.104056 9.13355 0.185261C9.24139 0.214706 9.36972 0.246433 9.41873 0.255772C9.46775 0.265112 9.53994 0.286002 9.57915 0.302221C9.61836 0.318441 9.74669 0.367492 9.86433 0.411268C10.1325 0.51101 10.7746 0.830057 11.0771 1.01379C11.3571 1.18393 11.9189 1.63199 12.1153 1.84188C12.7594 2.53027 12.9395 2.78323 13.3164 3.52912C13.7182 4.32417 13.9616 5.22952 13.9897 6.03338L14 6.32747H9.35756L9.22089 6.10599Z" fill="currentColor"/>
</svg>
