<svg width="14" height="14" viewBox="0 0 14 14" fill="none" xmlns="http://www.w3.org/2000/svg">
<path d="M2.68333 3.48444C2.68333 3.95889 3.06444 4.34 3.53889 4.34C4.01333 4.34 4.39444 3.95889 4.39444 3.48444C4.39444 3.01 4.01333 2.62889 3.53889 2.62889C3.06444 2.62889 2.68333 3.01 2.68333 3.48444ZM12.2889 0H1.77333C0.801111 0 0 0.801111 0 1.77333V12.2267C0 13.1989 0.801111 14 1.77333 14H12.2267C13.1989 14 14 13.1989 14 12.2267V1.71111C14 0.746667 13.2533 0 12.2889 0ZM3.54667 1.71111C4.51111 1.71111 5.31222 2.51222 5.31222 3.48444C5.31222 4.45667 4.51111 5.25778 3.53889 5.25778C2.56667 5.25778 1.76556 4.45667 1.76556 3.48444C1.77333 2.51222 2.57444 1.71111 3.54667 1.71111ZM1.77333 13.0822C1.31444 13.0822 0.917778 12.6856 0.917778 12.2267V11.83L4.40222 8.74222L8.80444 13.1444H1.77333V13.0822ZM13.1444 12.1722C13.1444 12.6311 12.7478 13.0278 12.2889 13.0278H10.0567L6.86 9.76889L10.5778 6.05111L13.2067 8.68V12.1644H13.1444V12.1722Z" fill="currentColor"/>
</svg>
