<?xml version="1.0" standalone="no"?><!DOCTYPE svg PUBLIC "-//W3C//DTD SVG 1.1//EN" "http://www.w3.org/Graphics/SVG/1.1/DTD/svg11.dtd"><svg t="1666870410021" class="icon" viewBox="0 0 1024 1024" version="1.1" xmlns="http://www.w3.org/2000/svg" p-id="10740" xmlns:xlink="http://www.w3.org/1999/xlink" width="200" height="200"><path d="M384 162.909091A34.909091 34.909091 0 0 1 418.909091 197.818182v81.431273h-46.545455V232.727273a23.272727 23.272727 0 0 0-23.272727-23.272728h-116.363636a23.272727 23.272727 0 0 0-23.272728 23.272728v558.545454a23.272727 23.272727 0 0 0 23.272728 23.272728h116.363636a23.272727 23.272727 0 0 0 23.272727-23.272728V395.659636h46.545455V826.181818a34.909091 34.909091 0 0 1-34.909091 34.909091h-186.181818A34.909091 34.909091 0 0 1 162.909091 826.181818v-628.363636A34.909091 34.909091 0 0 1 197.818182 162.909091h186.181818z m-69.818182 93.090909c22.202182 0 42.309818 8.866909 57.018182 23.272727H896a58.181818 58.181818 0 1 1 0 116.363637H837.818182v116.340363L861.090909 512a23.272727 23.272727 0 0 1 0 46.545455l-23.272727-0.023273V674.909091a23.272727 23.272727 0 0 1-46.545455 0v-116.386909L698.181818 558.545455v116.363636a23.272727 23.272727 0 0 1-46.545454 0v-116.363636h-93.090909v116.363636a23.272727 23.272727 0 0 1-46.545455 0v-116.363636h-23.272727a23.272727 23.272727 0 0 1 0-46.545455h23.272727v-116.340364h-140.846545A81.454545 81.454545 0 1 1 314.181818 256z m-11.636363 209.454545a23.272727 23.272727 0 0 1 0 46.545455h-23.272728a23.272727 23.272727 0 0 1 0-46.545455h23.272728z m349.090909-69.818181l-93.090909 0.023272V512h93.090909v-116.363636z m139.636363 0h-93.090909v116.363636l93.090909-0.023273V395.636364z m-474.414545-93.090909c-20.759273 0-37.585455 15.639273-37.585455 34.90909s16.826182 34.909091 37.585455 34.909091c10.24 0 19.525818-3.793455 26.298182-9.960727h545.675636a24.925091 24.925091 0 1 0 0-49.873454l-545.675636-0.023273a39.005091 39.005091 0 0 0-26.298182-9.960727z" fill="" p-id="10741"></path></svg>
