<svg width="17" height="13" viewBox="0 0 17 13" fill="none" xmlns="http://www.w3.org/2000/svg">
<path d="M14.1401 10.4348H11.9079C11.8209 10.4348 11.7489 10.5068 11.7489 10.5938C11.7489 10.6808 11.8209 10.7528 11.9079 10.7528H14.1401C14.2271 10.7528 14.2991 10.6808 14.2991 10.5938C14.2991 10.5068 14.2301 10.4348 14.1401 10.4348Z" fill="currentColor"/>
<path d="M12.985 6.00946C11.0558 6.00946 9.48973 7.57558 9.48973 9.50473C9.48973 11.4339 11.0558 13 12.985 13C14.9141 13 16.4803 11.4339 16.4803 9.50473C16.4803 7.57558 14.9171 6.00946 12.985 6.00946ZM14.9381 11.0708C14.9381 11.2479 14.7941 11.3889 14.6201 11.3889H11.4309C11.2539 11.3889 11.1129 11.2449 11.1129 11.0708V10.1138C11.1129 9.93676 11.2569 9.79575 11.4309 9.79575H11.9829C12.1869 9.78375 12.3459 9.60974 12.3339 9.40272C12.3279 9.30071 12.2799 9.20471 12.2019 9.1387L12.2049 9.1417L12.1809 9.1177C11.9709 8.89868 11.8539 8.60766 11.8539 8.30464C11.8539 7.65959 12.3759 7.13455 13.024 7.13455C13.672 7.13455 14.1941 7.65659 14.1941 8.30464C14.1941 8.63166 14.0591 8.92868 13.8401 9.1417C13.7591 9.21371 13.7141 9.31271 13.7141 9.42072C13.7141 9.62174 13.8761 9.78675 14.0771 9.79275H14.6171C14.7941 9.79275 14.9351 9.93676 14.9351 10.1108V11.0708H14.9381Z" fill="currentColor"/>
<path d="M8.46365 9.50473C8.46365 6.98454 10.5068 4.94438 13.024 4.94438C13.582 4.94438 14.1161 5.04339 14.6111 5.2294C14.6441 5.13039 14.6651 5.02539 14.6651 4.91438C14.6651 4.39534 14.2661 3.99631 13.7471 3.99631H12.736L12.0609 1.39211C11.9379 0.963074 11.6319 0.627048 11.2029 0.504039C8.65567 -0.168013 5.97646 -0.168013 3.42626 0.504039C3.03023 0.627048 2.69421 0.966074 2.5712 1.39211L1.92915 3.99331H1.22409C0.705054 3.99331 0.306024 4.39234 0.306024 4.91138C0.306024 5.31041 0.552042 5.64643 0.918071 5.76944C0.366028 6.07847 0 6.69051 0 7.36257V9.81075C0 10.3928 0.399031 10.8518 0.918071 11.0048V11.6469C0.918071 11.9829 1.19409 12.2589 1.53012 12.2589H3.36626C3.70228 12.2589 3.97831 11.9829 3.97831 11.6469V11.0348H8.72467C8.55666 10.5578 8.46365 10.0418 8.46365 9.50473ZM2.44819 9.50473C1.77614 9.50473 1.22409 8.95269 1.22409 8.28064C1.22409 7.60858 1.77614 7.05654 2.44819 7.05654C3.12024 7.05654 3.67228 7.60858 3.67228 8.28064C3.67228 8.95569 3.12324 9.50473 2.44819 9.50473ZM3.09324 4.91438L3.76529 1.70113C4.92938 1.39511 6.12347 1.2421 7.34756 1.2421C8.57166 1.2421 9.76575 1.39511 10.9298 1.70113L11.6019 4.91438H3.09324Z" fill="currentColor"/>
</svg>
