<svg width="15" height="11" viewBox="0 0 15 11" fill="none" xmlns="http://www.w3.org/2000/svg">
<path d="M9.34629 9.24654C9.34629 8.48969 9.53774 7.77867 9.8752 7.15808C9.83538 7.17678 9.79184 7.18621 9.74786 7.18567H4.4418C4.40632 7.1854 4.37125 7.17807 4.33863 7.16411C4.30601 7.15015 4.27649 7.12983 4.2518 7.10435C4.22711 7.07887 4.20773 7.04873 4.1948 7.01568C4.18188 6.98264 4.17565 6.94735 4.1765 6.91188C4.1765 6.75694 4.28687 6.63893 4.44138 6.63893H9.74743C9.90237 6.63893 10.0212 6.75737 10.0301 6.90296C10.4249 6.28137 10.9706 5.76978 11.6163 5.41583C12.262 5.06187 12.9868 4.87706 13.7232 4.8786H13.8785C13.7045 4.62649 13.4508 4.44021 13.1582 4.34969C13.2218 4.22234 13.2494 4.05807 13.1853 3.92096L11.2887 0.556074C11.1062 0.218609 10.6321 0 10.3128 0H3.83946C3.52959 0 3.02742 0.218609 2.86315 0.556074L0.966551 3.95789C0.893539 4.09458 0.911792 4.23126 0.966551 4.35011C0.410476 4.54113 0.00933865 5.05221 0.00933865 5.66304V7.94295H0V10.2407C0 10.5506 0.25554 10.7968 0.574752 10.7968H1.99677C2.30707 10.7968 2.57153 10.5506 2.57153 10.2407V9.8943H9.40105C9.36431 9.68035 9.34599 9.46363 9.34629 9.24654ZM3.62934 0.921131C3.67518 0.884625 3.78428 0.829867 3.84837 0.829867H10.3218C10.3769 0.839205 10.5043 0.903302 10.5408 0.948722L12.1458 3.79404H2.03328L3.62934 0.921131ZM2.22515 7.87885C1.63214 7.87885 1.15799 7.41362 1.15799 6.83887C1.15799 6.26454 1.63214 5.7993 2.22515 5.7993C2.81773 5.7993 3.29188 6.26454 3.29188 6.83929C3.29188 7.41362 2.81773 7.87885 2.22515 7.87885ZM13.5321 8.3165L14.5441 6.96664L15 6.3558H14.2066L13.2218 7.72392L12.1097 6.36514H11.307L12.8479 8.3165H11.79V8.85474H12.8479V9.23763H11.7994V9.78479H12.8479V10.7972H13.541V9.78436H14.5989V9.2372H13.541V8.85432H14.6082V8.31607H13.5321V8.3165Z" fill="currentColor"/>
</svg>
