<svg width="14" height="14" viewBox="0 0 14 14" fill="none" xmlns="http://www.w3.org/2000/svg">
<path d="M9.341 5.90718C9.15556 5.90718 8.97771 5.83351 8.84658 5.70238C8.71545 5.57125 8.64178 5.3934 8.64178 5.20796C8.62742 4.77637 8.44589 4.36726 8.1355 4.06703C7.82512 3.7668 7.4102 3.59897 6.97838 3.59897C6.54655 3.59897 6.13163 3.7668 5.82125 4.06703C5.51087 4.36726 5.32933 4.77637 5.31498 5.20796C5.31513 5.33095 5.28285 5.45181 5.22137 5.55834C5.1599 5.66487 5.07141 5.7533 4.96484 5.81471C4.85827 5.87611 4.73738 5.90832 4.61439 5.90808C4.49139 5.90783 4.37064 5.87515 4.26431 5.81333C4.15781 5.75185 4.06931 5.6635 4.00764 5.55711C3.94597 5.45072 3.91329 5.33001 3.91286 5.20704C3.92678 4.40381 4.25563 3.6382 4.82858 3.07509C5.40153 2.51198 6.17274 2.19645 6.97608 2.19645C7.77942 2.19645 8.55062 2.51198 9.12357 3.07509C9.69652 3.6382 10.0254 4.40381 10.0393 5.20704C10.0398 5.29892 10.0221 5.38999 9.98715 5.47498C9.95224 5.55997 9.90084 5.6372 9.83591 5.70222C9.77098 5.76723 9.69382 5.81874 9.60887 5.85376C9.52392 5.88878 9.43288 5.90662 9.341 5.90626V5.90718Z" fill="currentColor"/>
<path d="M11.4865 5.90717C11.301 5.90717 11.1232 5.83351 10.9921 5.70238C10.8609 5.57125 10.7873 5.3934 10.7873 5.20796C10.7873 4.19838 10.3862 3.23016 9.67235 2.51629C8.95847 1.80241 7.99025 1.40136 6.98068 1.40136C5.97111 1.40136 5.00288 1.80241 4.28901 2.51629C3.57513 3.23016 3.17408 4.19838 3.17408 5.20796C3.17408 5.39364 3.10032 5.57173 2.96902 5.70303C2.83771 5.83433 2.65963 5.90809 2.47394 5.90809C2.28825 5.90809 2.11017 5.83433 1.97887 5.70303C1.84757 5.57173 1.77381 5.39364 1.77381 5.20796C1.77381 3.34767 2.76743 1.62907 4.37747 0.697081C5.16921 0.240402 6.06713 0 6.98114 0C7.89514 0 8.79307 0.240402 9.58481 0.697081C10.3766 1.15393 11.0342 1.81129 11.4913 2.603C11.9483 3.39472 12.1888 4.29286 12.1885 5.20704C12.1875 5.39266 12.1131 5.57036 11.9816 5.70136C11.8501 5.83236 11.6721 5.90601 11.4865 5.90625V5.90717Z" fill="currentColor"/>
<path d="M13.1278 8.31396H7.70152V5.90717C7.70152 5.72161 7.6278 5.54364 7.49659 5.41243C7.36537 5.28121 7.18741 5.2075 7.00184 5.2075C6.81627 5.2075 6.63831 5.28121 6.50709 5.41243C6.37588 5.54364 6.30216 5.72161 6.30216 5.90717V8.31396H0.874022C0.642217 8.31396 0.419906 8.40604 0.255995 8.56995C0.0920842 8.73386 0 8.95617 0 9.18798V13.1036C0 13.5875 0.39193 13.9776 0.874022 13.9776H13.126C13.3578 13.9776 13.5801 13.8855 13.744 13.7216C13.9079 13.5577 14 13.3354 14 13.1036V9.18982C14.0002 9.07504 13.9779 8.96134 13.9342 8.8552C13.8905 8.74907 13.8263 8.65258 13.7453 8.57125C13.6643 8.48992 13.5681 8.42534 13.4621 8.38119C13.3562 8.33704 13.2426 8.3142 13.1278 8.31396ZM2.15838 11.8468C1.97281 11.8468 1.79484 11.7731 1.66363 11.6419C1.53241 11.5107 1.4587 11.3327 1.4587 11.1472C1.4587 10.9616 1.53241 10.7836 1.66363 10.6524C1.79484 10.5212 1.97281 10.4475 2.15838 10.4475C2.34382 10.4475 2.52167 10.5212 2.6528 10.6523C2.78393 10.7834 2.85759 10.9613 2.85759 11.1467C2.85759 11.3322 2.78393 11.51 2.6528 11.6411C2.52167 11.7723 2.34382 11.8459 2.15838 11.8459V11.8468ZM4.27995 11.8468C4.09438 11.8468 3.91642 11.7731 3.7852 11.6419C3.65399 11.5107 3.58027 11.3327 3.58027 11.1472C3.58027 10.9616 3.65399 10.7836 3.7852 10.6524C3.91642 10.5212 4.09438 10.4475 4.27995 10.4475C4.46539 10.4475 4.64324 10.5212 4.77437 10.6523C4.9055 10.7834 4.97917 10.9613 4.97917 11.1467C4.97917 11.3322 4.9055 11.51 4.77437 11.6411C4.64324 11.7723 4.46539 11.8459 4.27995 11.8459V11.8468Z" fill="currentColor"/>
</svg>
