<svg width="14" height="14" viewBox="0 0 14 14" fill="none" xmlns="http://www.w3.org/2000/svg">
<path d="M5.83333 7.77778C5.93647 7.77778 6.03539 7.81875 6.10832 7.89168C6.18125 7.96461 6.22222 8.06353 6.22222 8.16667V13.6111C6.22222 13.7143 6.18125 13.8132 6.10832 13.8861C6.03539 13.959 5.93647 14 5.83333 14H0.388889C0.285749 14 0.186834 13.959 0.113903 13.8861C0.040972 13.8132 0 13.7143 0 13.6111V8.16667C0 8.06353 0.040972 7.96461 0.113903 7.89168C0.186834 7.81875 0.285749 7.77778 0.388889 7.77778H5.83333ZM8.94444 7.77778C8.99551 7.77778 9.04608 7.78784 9.09327 7.80738C9.14045 7.82692 9.18332 7.85557 9.21943 7.89168C9.25554 7.92779 9.28419 7.97066 9.30373 8.01784C9.32327 8.06503 9.33333 8.1156 9.33333 8.16667V13.6111C9.33333 13.6622 9.32327 13.7127 9.30373 13.7599C9.28419 13.8071 9.25554 13.85 9.21943 13.8861C9.18332 13.9222 9.14045 13.9509 9.09327 13.9704C9.04608 13.9899 8.99551 14 8.94444 14H8.16667C8.06353 14 7.96461 13.959 7.89168 13.8861C7.81875 13.8132 7.77778 13.7143 7.77778 13.6111V8.16667C7.77778 8.06353 7.81875 7.96461 7.89168 7.89168C7.96461 7.81875 8.06353 7.77778 8.16667 7.77778H8.94444ZM11.2778 9.33333C11.3809 9.33333 11.4798 9.37431 11.5528 9.44724C11.6257 9.52017 11.6667 9.61908 11.6667 9.72222V13.6111C11.6667 13.7143 11.6257 13.8132 11.5528 13.8861C11.4798 13.959 11.3809 14 11.2778 14H10.5C10.4489 14 10.3984 13.9899 10.3512 13.9704C10.304 13.9509 10.2611 13.9222 10.225 13.8861C10.1889 13.85 10.1603 13.8071 10.1407 13.7599C10.1212 13.7127 10.1111 13.6622 10.1111 13.6111V9.72222C10.1111 9.67115 10.1212 9.62058 10.1407 9.5734C10.1603 9.52622 10.1889 9.48335 10.225 9.44724C10.2611 9.41112 10.304 9.38248 10.3512 9.36294C10.3984 9.34339 10.4489 9.33333 10.5 9.33333H11.2778ZM13.6111 10.8889C13.6622 10.8889 13.7127 10.8989 13.7599 10.9185C13.8071 10.938 13.85 10.9667 13.8861 11.0028C13.9222 11.0389 13.9509 11.0818 13.9704 11.129C13.9899 11.1761 14 11.2267 14 11.2778V13.6111C14 13.7143 13.959 13.8132 13.8861 13.8861C13.8132 13.959 13.7143 14 13.6111 14H12.8333C12.7302 14 12.6313 13.959 12.5583 13.8861C12.4854 13.8132 12.4444 13.7143 12.4444 13.6111V11.2778C12.4444 11.2267 12.4545 11.1761 12.474 11.129C12.4936 11.0818 12.5222 11.0389 12.5583 11.0028C12.5945 10.9667 12.6373 10.938 12.6845 10.9185C12.7317 10.8989 12.7823 10.8889 12.8333 10.8889H13.6111ZM5.83333 0C5.8844 0 5.93497 0.0100589 5.98215 0.0296024C6.02934 0.0491459 6.07221 0.0777911 6.10832 0.113903C6.14443 0.150014 6.17308 0.192885 6.19262 0.240068C6.21216 0.28725 6.22222 0.337819 6.22222 0.388889V5.83333C6.22222 5.93647 6.18125 6.03539 6.10832 6.10832C6.03539 6.18125 5.93647 6.22222 5.83333 6.22222H0.388889C0.285749 6.22222 0.186834 6.18125 0.113903 6.10832C0.040972 6.03539 0 5.93647 0 5.83333V0.388889C0 0.285749 0.040972 0.186834 0.113903 0.113903C0.186834 0.040972 0.285749 0 0.388889 0H5.83333ZM13.6111 0C13.6622 0 13.7127 0.0100589 13.7599 0.0296024C13.8071 0.0491459 13.85 0.0777911 13.8861 0.113903C13.9222 0.150014 13.9509 0.192885 13.9704 0.240068C13.9899 0.28725 14 0.337819 14 0.388889V5.83333C14 5.93647 13.959 6.03539 13.8861 6.10832C13.8132 6.18125 13.7143 6.22222 13.6111 6.22222H8.16667C8.06353 6.22222 7.96461 6.18125 7.89168 6.10832C7.81875 6.03539 7.77778 5.93647 7.77778 5.83333V0.388889C7.77778 0.285749 7.81875 0.186834 7.89168 0.113903C7.96461 0.040972 8.06353 0 8.16667 0H13.6111Z" fill="currentColor"/>
</svg>
