<svg width="14" height="14" viewBox="0 0 14 14" fill="none" xmlns="http://www.w3.org/2000/svg">
<g clip-path="url(#clip0_8_77)">
<path d="M11.9 0.318184H5.25C4.08991 0.318184 3.18182 1.28991 3.18182 2.45V10.8182H2.54545V3.81818H2.1C0.940227 3.81818 0 4.78991 0 5.95V11.55C0 12.7101 0.940227 13.6818 2.1 13.6818H11.9C13.0601 13.6818 14 12.7101 14 11.55V2.45C14 1.28991 13.0598 0.318184 11.9 0.318184ZM7.95455 6.01364C7.95455 6.10646 7.91767 6.19549 7.85203 6.26113C7.7864 6.32676 7.69737 6.36364 7.60455 6.36364H6.07727C6.03131 6.36364 5.9858 6.35459 5.94333 6.337C5.90087 6.31941 5.86229 6.29363 5.82979 6.26113C5.79729 6.22863 5.7715 6.19004 5.75391 6.14758C5.73633 6.10511 5.72727 6.0596 5.72727 6.01364V4.48637C5.72727 4.4404 5.73633 4.39489 5.75391 4.35243C5.7715 4.30996 5.79729 4.27138 5.82979 4.23888C5.86229 4.20638 5.90087 4.1806 5.94333 4.16301C5.9858 4.14542 6.03131 4.13637 6.07727 4.13637H7.60455C7.69737 4.13637 7.7864 4.17324 7.85203 4.23888C7.91767 4.30452 7.95455 4.39354 7.95455 4.48637V6.01364ZM11.7727 8.55909C11.7727 8.60506 11.7637 8.65057 11.7461 8.69303C11.7285 8.7355 11.7027 8.77408 11.6702 8.80658C11.6377 8.83908 11.5991 8.86486 11.5567 8.88245C11.5142 8.90004 11.4687 8.90909 11.4227 8.90909H6.07727C5.98445 8.90909 5.89542 8.87222 5.82979 8.80658C5.76415 8.74094 5.72727 8.65192 5.72727 8.55909V8.30455C5.72727 8.21172 5.76415 8.1227 5.82979 8.05706C5.89542 7.99142 5.98445 7.95455 6.07727 7.95455H11.4227C11.4687 7.95455 11.5142 7.9636 11.5567 7.98119C11.5991 7.99878 11.6377 8.02456 11.6702 8.05706C11.7027 8.08956 11.7285 8.12814 11.7461 8.17061C11.7637 8.21307 11.7727 8.25858 11.7727 8.30455V8.55909ZM11.4545 6.01364C11.4545 6.10646 11.4177 6.19549 11.352 6.26113C11.2864 6.32676 11.1974 6.36364 11.1045 6.36364H8.94091C8.84808 6.36364 8.75906 6.32676 8.69342 6.26113C8.62778 6.19549 8.59091 6.10646 8.59091 6.01364V5.75909C8.59091 5.66627 8.62778 5.57724 8.69342 5.51161C8.75906 5.44597 8.84808 5.40909 8.94091 5.40909H11.1045C11.1974 5.40909 11.2864 5.44597 11.352 5.51161C11.4177 5.57724 11.4545 5.66627 11.4545 5.75909V6.01364Z" fill="currentColor"/>
</g>
<defs>
<clipPath id="clip0_8_77">
<rect width="14" height="14" fill="white"/>
</clipPath>
</defs>
</svg>
