<svg width="14" height="15" viewBox="0 0 14 15" fill="none" xmlns="http://www.w3.org/2000/svg">
<path d="M7.56588 8.16389C7.59588 8.13575 7.6331 8.1165 7.67339 8.10825C7.71368 8.10001 7.75548 8.10311 7.79411 8.1172L13.8757 10.4248C13.9087 10.441 13.9372 10.4652 13.9586 10.4951C13.98 10.525 13.9936 10.5598 13.9982 10.5963C14.0029 10.6328 13.9984 10.6699 13.9851 10.7043C13.9719 10.7386 13.9503 10.7691 13.9224 10.793L12.507 11.7416C12.4698 11.7675 12.4254 11.7815 12.38 11.7815C12.3345 11.7815 12.2902 11.7675 12.2529 11.7416L8.82562 9.27913L11.6875 12.0728C11.7341 12.1173 11.7586 12.1802 11.7549 12.2447L11.6823 13.4682C11.6799 13.5103 11.6656 13.551 11.641 13.5853C11.6164 13.6197 11.5826 13.6463 11.5434 13.6621C11.5042 13.6779 11.4613 13.6822 11.4198 13.6745C11.3782 13.6668 11.3397 13.6474 11.3088 13.6186L10.7234 13.0999L9.45846 13.9921C9.42953 14.0126 9.3961 14.026 9.36096 14.031C9.32582 14.036 9.28999 14.0325 9.25647 14.0208C9.22296 14.0091 9.19272 13.9896 9.1683 13.9638C9.14388 13.9381 9.12598 13.9068 9.1161 13.8728L7.50363 8.38693C7.4926 8.34756 7.49264 8.3059 7.50376 8.26655C7.51487 8.2272 7.53662 8.19168 7.56662 8.16389H7.56588ZM9.63334 0L11.8564 2.22308V8.86786L8.05644 7.42434L8.04532 7.42064C7.87889 7.36044 7.69909 7.34726 7.52566 7.38254C7.35223 7.41782 7.19187 7.50019 7.06218 7.62062C6.93249 7.74105 6.83848 7.89487 6.79047 8.06522C6.74246 8.23556 6.74231 8.41584 6.79002 8.58627L8.15129 13.2192V13.3385H0.741026C0.544494 13.3385 0.356011 13.2604 0.217042 13.1214C0.0780722 12.9825 0 12.794 0 12.5974V0.741026C0 0.544494 0.0780722 0.356011 0.217042 0.217042C0.356011 0.0780722 0.544494 0 0.741026 0H9.63334ZM5.18718 5.92821H1.48205V6.66924H5.18718V5.92821ZM8.89231 3.70513H1.48205V4.44616H8.89231V3.70513ZM9.63334 0V2.22308H11.8564L10.0039 1.85257L9.63334 0Z" fill="currentColor"/>
</svg>
