<svg width="12" height="14" viewBox="0 0 12 14" fill="none" xmlns="http://www.w3.org/2000/svg">
<path d="M0.00067798 3.72246C0.00067798 3.02922 0.00135476 2.33594 1.18954e-06 1.64268C-0.000213401 1.5289 0.0285747 1.42875 0.111456 1.34886C0.208319 1.25545 0.324775 1.21294 0.455394 1.25241C0.813232 1.36055 1.17196 1.3326 1.53153 1.26997C1.84726 1.21497 2.14149 1.10484 2.42183 0.946553C3.02285 0.60717 3.64988 0.326618 4.32079 0.152734C4.70824 0.0523227 5.10137 -0.00474179 5.50224 0.000309334C5.77772 0.00377579 6.05382 -3.73347e-05 6.32853 0.0173775C6.89343 0.0531975 7.43421 0.198607 7.95895 0.406726C8.35373 0.563295 8.73375 0.750979 9.08901 0.982983C9.34051 1.14719 9.61534 1.23141 9.90604 1.27879C10.1917 1.32534 10.4785 1.34795 10.7667 1.30338C10.8293 1.29368 10.8915 1.27941 10.9523 1.26179C11.218 1.18467 11.4483 1.3548 11.4493 1.63235C11.4504 1.92069 11.4496 2.20905 11.4496 2.49741C11.4496 3.45575 11.4541 4.41413 11.4484 5.37246C11.4402 6.74946 11.118 8.055 10.5073 9.28562C9.48813 11.3395 7.9538 12.8911 5.91656 13.9451C5.77649 14.0176 5.64552 14.0189 5.50561 13.9455C3.13064 12.7016 1.47006 10.8282 0.546381 8.30907C0.27669 7.57361 0.111208 6.81168 0.0592116 6.03019C0.0275844 5.55481 0.0315129 5.07695 0.0239362 4.60013C0.0192977 4.30764 0.0230778 4.01504 0.0230778 3.72246H0.000694603H0.00067798ZM5.7022 6.99633V1.26276C5.69456 1.25881 5.691 1.2555 5.68727 1.25527C5.66612 1.25399 5.64493 1.25284 5.62376 1.25282C4.87958 1.25239 4.16627 1.39368 3.49865 1.73004C2.91692 2.02312 2.32472 2.28698 1.6892 2.44317C1.54621 2.47833 1.40631 2.526 1.26281 2.56857C1.26281 2.59796 1.26295 2.62113 1.2628 2.64427C1.26014 3.02801 1.2554 3.41176 1.25519 3.7955C1.25473 4.63268 1.23597 5.47074 1.35118 6.3034C1.38447 6.54412 1.42504 6.78388 1.46319 7.02982C2.88175 7.01864 4.29045 7.0075 5.7022 6.99633ZM5.71709 6.99562C5.72733 8.90553 5.73755 10.807 5.7478 12.7141C5.77667 12.7017 5.79811 12.6931 5.81911 12.6836C6.30558 12.4609 6.7324 12.1502 7.12748 11.7934C7.64251 11.3283 8.0894 10.8021 8.50092 10.2455C8.80683 9.83167 9.11925 9.42128 9.34855 8.95722C9.45902 8.7336 9.58064 8.51269 9.66268 8.27847C9.79681 7.89531 9.90528 7.50289 9.9705 7.10053C9.98651 7.00167 9.98007 6.99565 9.88095 6.99565H5.79829C5.77317 6.99562 5.74799 6.99562 5.71708 6.99562H5.71709Z" fill="currentColor"/>
</svg>
