<svg width="14" height="14" viewBox="0 0 14 14" fill="none" xmlns="http://www.w3.org/2000/svg">
<path d="M13.6211 4.77544L7.94386 0.305263C7.37544 -0.101754 6.59649 -0.101754 6.06316 0.305263L0.378947 4.77544C-0.126316 5.18246 -0.126316 5.84912 0.378947 6.25614H1.75439V11.7649C1.75439 12.607 2.46316 13.2737 3.33333 13.2737H10.6947C11.5719 13.2737 12.2737 12.6 12.2737 11.7649V6.28421H13.6211C14.1263 5.84912 14.1263 5.17544 13.6211 4.77544ZM9.60702 10.1018H6.18246V9.4421H6.64561V8.29825L6.20351 8.7193C6.07018 8.55088 5.93684 8.38947 5.80351 8.24912V10.2421H5.14386V8.22105C5.00351 8.61403 4.83509 8.99298 4.6386 9.34386C4.57544 9.06316 4.49123 8.76842 4.38596 8.46667C4.61754 8.11579 4.82807 7.70175 5.01053 7.21754H4.42105V6.59298H5.14386V6.02456C4.93333 6.04561 4.72281 6.05965 4.51228 6.07368C4.49123 5.81403 4.46316 5.58947 4.42105 5.40702C4.98947 5.37895 5.61404 5.30877 6.30877 5.18947L6.47018 5.8421C6.25263 5.88421 6.02807 5.9193 5.80351 5.94737V6.6H6.48421V7.22456H5.80351V7.83509L5.98596 7.65263C6.15439 7.79298 6.37193 7.99649 6.6386 8.24912V5.30175H9.27719V9.43509H9.59298V10.1018H9.60702ZM7.34035 9.4421H8.59649V8.69123H7.34035V9.4421ZM7.34035 8.05965H8.59649V7.32281H7.34035V8.05965ZM7.34035 6.69825H8.59649V5.9614H7.34035V6.69825Z" fill="currentColor"/>
</svg>
