<svg width="13" height="14" viewBox="0 0 13 14" fill="none" xmlns="http://www.w3.org/2000/svg">
<path d="M9.88695 7.22424L12.4787 8.69072C12.632 8.77658 12.7275 8.93864 12.7279 9.11429V12.0459C12.7276 12.1323 12.7043 12.2171 12.6604 12.2915C12.6165 12.3659 12.5537 12.4274 12.4783 12.4695L9.88695 13.9347C9.81079 13.9775 9.72488 14 9.6375 14C9.55012 14 9.46421 13.9775 9.38805 13.9347L6.79673 12.4682C6.72132 12.426 6.65846 12.3646 6.61459 12.2902C6.57072 12.2158 6.54741 12.131 6.54706 12.0446V9.11297C6.54706 8.93777 6.64123 8.7757 6.79673 8.68941L9.38805 7.22205C9.46434 7.17928 9.55037 7.15689 9.63783 7.15704C9.7253 7.1572 9.81125 7.17989 9.88739 7.22292V7.22424H9.88695ZM10.4726 0C11.1625 0 11.7222 0.547523 11.7222 1.22426V6.56502C11.7218 6.60818 11.7099 6.65045 11.6879 6.68753C11.6658 6.72461 11.6343 6.75519 11.5965 6.77614C11.5585 6.79768 11.5155 6.809 11.4717 6.809C11.428 6.809 11.3849 6.79768 11.3469 6.77614L10.4498 6.2698C10.202 6.12993 9.92227 6.05644 9.63772 6.05644C9.35317 6.05644 9.07344 6.12993 8.82563 6.2698L6.23694 7.73453C5.99138 7.87187 5.78674 8.07201 5.64396 8.31445C5.50119 8.5569 5.42542 8.83293 5.42442 9.11429V12.7849C5.4235 12.8504 5.39674 12.9128 5.34998 12.9587C5.30322 13.0046 5.24024 13.0301 5.17475 13.0297H1.2501C0.919529 13.0304 0.601859 12.9015 0.365307 12.6706C0.250017 12.558 0.158327 12.4236 0.0956013 12.2753C0.0328757 12.1269 0.000374771 11.9675 0 11.8063V1.22426C0 0.548399 0.559787 0 1.24967 0H10.4726ZM9.63772 9.80811C9.54427 9.80707 9.45152 9.82445 9.36479 9.85927C9.27806 9.89409 9.19904 9.94565 9.13225 10.011C9.06545 10.0764 9.0122 10.1543 8.97552 10.2402C8.93884 10.3262 8.91947 10.4186 8.91849 10.512C8.91849 10.9018 9.24044 11.2172 9.63772 11.2172C9.73117 11.2181 9.82388 11.2005 9.91054 11.1655C9.99721 11.1306 10.0761 11.0789 10.1428 11.0134C10.2095 10.9479 10.2626 10.8699 10.2991 10.7839C10.3356 10.6978 10.3548 10.6055 10.3556 10.512C10.3537 10.3234 10.2769 10.1433 10.1422 10.0113C10.0075 9.87934 9.82587 9.80624 9.63728 9.80811H9.63772ZM5.21811 5.08627H2.41874C2.28375 5.08627 2.15429 5.13989 2.05884 5.23535C1.96338 5.3308 1.90976 5.46026 1.90976 5.59525C1.90976 5.73024 1.96338 5.8597 2.05884 5.95515C2.15429 6.0506 2.28375 6.10422 2.41874 6.10422H5.21899C5.35404 6.10422 5.48355 6.05058 5.57904 5.95508C5.67454 5.85959 5.72819 5.73008 5.72819 5.59503C5.72819 5.45998 5.67454 5.33046 5.57904 5.23497C5.48355 5.13948 5.35404 5.08583 5.21899 5.08583L5.21811 5.08627ZM9.03676 2.54051H2.4183C2.35146 2.54051 2.28527 2.55367 2.22352 2.57925C2.16177 2.60483 2.10566 2.64232 2.0584 2.68958C2.01114 2.73685 1.97364 2.79295 1.94807 2.85471C1.92249 2.91646 1.90932 2.98264 1.90932 3.04948C1.90932 3.11632 1.92249 3.18251 1.94807 3.24426C1.97364 3.30601 2.01114 3.36212 2.0584 3.40939C2.10566 3.45665 2.16177 3.49414 2.22352 3.51972C2.28527 3.5453 2.35146 3.55846 2.4183 3.55846H9.03676C9.17175 3.55846 9.30121 3.50484 9.39666 3.40939C9.49211 3.31393 9.54573 3.18447 9.54573 3.04948C9.54573 2.91449 9.49211 2.78503 9.39666 2.68958C9.30121 2.59413 9.17175 2.54051 9.03676 2.54051Z" fill="currentColor"/>
</svg>
