<svg width="14" height="14" viewBox="0 0 14 14" fill="none" xmlns="http://www.w3.org/2000/svg">
<g clip-path="url(#clip0_9_132)">
<path d="M2.33275 0H11.6672C12.2859 0 12.8793 0.245771 13.3168 0.683247C13.7542 1.12072 14 1.71407 14 2.33275V11.6672C14 12.2859 13.7542 12.8793 13.3168 13.3168C12.8793 13.7542 12.2859 14 11.6672 14H2.33275C1.71407 14 1.12072 13.7542 0.683247 13.3168C0.245771 12.8793 0 12.2859 0 11.6672L0 2.33275C0 1.71407 0.245771 1.12072 0.683247 0.683247C1.12072 0.245771 1.71407 0 2.33275 0ZM7.12775 9.33275H2.66612C2.51134 9.33275 2.36289 9.39424 2.25344 9.50369C2.14399 9.61314 2.0825 9.76159 2.0825 9.91638C2.0825 10.0712 2.14399 10.2196 2.25344 10.3291C2.36289 10.4385 2.51134 10.5 2.66612 10.5H7.12863C7.24893 10.8417 7.47234 11.1377 7.768 11.3471C8.06367 11.5564 8.41703 11.6689 8.77931 11.6689C9.1416 11.6689 9.49496 11.5564 9.79062 11.3471C10.0863 11.1377 10.3097 10.8417 10.43 10.5H11.4179C11.5727 10.5 11.7211 10.4385 11.8306 10.3291C11.94 10.2196 12.0015 10.0712 12.0015 9.91638C12.0015 9.76159 11.94 9.61314 11.8306 9.50369C11.7211 9.39424 11.5727 9.33275 11.4179 9.33275H10.43C10.3095 8.99133 10.0861 8.69568 9.79052 8.48656C9.49496 8.27744 9.14181 8.16514 8.77975 8.16514C8.41769 8.16514 8.06454 8.27744 7.76898 8.48656C7.47341 8.69568 7.24999 8.99133 7.1295 9.33275H7.12775ZM3.59975 3.5H2.632C2.47721 3.5 2.32877 3.56149 2.21931 3.67094C2.10986 3.78039 2.04838 3.92884 2.04838 4.08362C2.04838 4.23841 2.10986 4.38686 2.21931 4.49631C2.32877 4.60576 2.47721 4.66725 2.632 4.66725H3.59975C3.72024 5.00867 3.94367 5.30432 4.23923 5.51344C4.53479 5.72256 4.88794 5.83486 5.25 5.83486C5.61206 5.83486 5.96521 5.72256 6.26077 5.51344C6.55633 5.30432 6.77976 5.00867 6.90025 4.66725H11.3802C11.535 4.66725 11.6835 4.60576 11.7929 4.49631C11.9024 4.38686 11.9639 4.23841 11.9639 4.08362C11.9639 3.92884 11.9024 3.78039 11.7929 3.67094C11.6835 3.56149 11.535 3.5 11.3802 3.5H6.90025C6.77976 3.15858 6.55633 2.86293 6.26077 2.65381C5.96521 2.44469 5.61206 2.33239 5.25 2.33239C4.88794 2.33239 4.53479 2.44469 4.23923 2.65381C3.94367 2.86293 3.72024 3.15858 3.59975 3.5Z" fill="currentColor"/>
</g>
<defs>
<clipPath id="clip0_9_132">
<rect width="14" height="14" fill="white"/>
</clipPath>
</defs>
</svg>
