<svg width="14" height="14" viewBox="0 0 14 14" fill="none" xmlns="http://www.w3.org/2000/svg">
<path d="M0.0220045 1.86703C0.00720924 1.81602 -0.000199515 1.76315 4.08462e-06 1.71003C4.08462e-06 0.766013 2.46205 0 5.5001 0C8.53815 0 11.0002 0.766013 11.0002 1.71103C11.0002 1.76381 10.9928 1.81633 10.9782 1.86703H11.0002V4.14807C11.0002 4.77808 8.53815 5.28809 5.5001 5.28809C2.46205 5.28809 4.08462e-06 4.77908 4.08462e-06 4.14907V1.86703H0.0220045ZM6.55012 10.8892H5.5001C2.46205 10.8892 4.08462e-06 10.3792 4.08462e-06 9.74917V8.25514C1.75874 8.90687 3.62497 9.21972 5.5001 9.17716C5.8561 9.17716 6.20711 9.16716 6.55012 9.14916C6.59012 9.72814 6.59012 10.3092 6.55012 10.8882V10.8892ZM8.15014 13.5952C7.27005 13.6614 6.38768 13.6928 5.5051 13.6892C2.46705 13.6892 0.00500418 13.1792 0.00500418 12.5492V11.0562C1.76374 11.7079 3.62997 12.0208 5.5051 11.9782C5.93611 11.9782 6.94512 11.9212 6.94512 11.9212L8.14514 13.6002L8.15014 13.5952ZM6.42511 8.07314C6.12511 8.08314 5.8151 8.08914 5.5001 8.08914C2.46205 8.08914 4.08462e-06 7.57913 4.08462e-06 6.94912V5.49009C1.70649 6.33352 3.59838 6.73219 5.5001 6.64911C6.05288 6.64248 6.60495 6.60743 7.15413 6.54411C7.32613 6.52611 6.56712 8.06714 6.42411 8.07214L6.42511 8.07314ZM13.3652 9.50016C13.3656 9.60048 13.3592 9.7007 13.3462 9.80017C13.3405 9.86197 13.3521 9.92415 13.3796 9.97978C13.4071 10.0354 13.4496 10.0823 13.5022 10.1152L13.8922 10.3342C13.9164 10.3476 13.9376 10.3657 13.9547 10.3873C13.9718 10.409 13.9845 10.4338 13.9921 10.4604C13.9996 10.4869 14.0018 10.5147 13.9986 10.5422C13.9953 10.5696 13.9867 10.5961 13.9732 10.6202L13.2342 11.8702C13.2046 11.9202 13.1565 11.9564 13.1003 11.971C13.0441 11.9856 12.9844 11.9774 12.9342 11.9482L12.5442 11.7282C12.4878 11.7 12.4249 11.6874 12.362 11.6916C12.299 11.6959 12.2384 11.7168 12.1862 11.7522C12.104 11.8127 12.0182 11.8682 11.9292 11.9182C11.8396 11.9685 11.7471 12.0136 11.6522 12.0532C11.5956 12.0787 11.547 12.1192 11.5117 12.1703C11.4765 12.2214 11.4559 12.2812 11.4522 12.3432V12.7832C11.4514 12.8399 11.4283 12.894 11.3878 12.9337C11.3474 12.9734 11.2929 12.9955 11.2362 12.9952H9.76017C9.70366 12.9955 9.64932 12.9735 9.60889 12.934C9.56847 12.8945 9.54522 12.8407 9.54417 12.7842V12.3442C9.54085 12.2819 9.52044 12.2216 9.48516 12.1701C9.44988 12.1186 9.4011 12.0778 9.34416 12.0522C9.24355 12.0108 9.14569 11.9631 9.05116 11.9092C8.96775 11.8618 8.88727 11.8093 8.81016 11.7522C8.75803 11.7167 8.69736 11.6957 8.63442 11.6915C8.57148 11.6873 8.50855 11.6999 8.45215 11.7282L8.06214 11.9482C8.01243 11.9759 7.95393 11.9832 7.89892 11.9687C7.84391 11.9541 7.79668 11.9188 7.76714 11.8702L7.02713 10.6202C6.99908 10.5722 6.99122 10.515 7.00528 10.4612C7.01934 10.4074 7.05417 10.3613 7.10213 10.3332L7.49213 10.1152C7.5455 10.0828 7.58877 10.0361 7.61704 9.98048C7.64531 9.92482 7.65747 9.86237 7.65214 9.80017C7.63984 9.70064 7.63382 9.60044 7.63414 9.50016C7.63375 9.39988 7.63976 9.29968 7.65214 9.20016C7.65847 9.13858 7.64761 9.07646 7.62078 9.02068C7.59395 8.9649 7.55219 8.91764 7.50013 8.88415L7.11113 8.66415C7.06252 8.63717 7.02659 8.59202 7.01122 8.53859C6.99585 8.48517 7.00229 8.42783 7.02913 8.37914L7.76914 7.12912C7.79868 7.0805 7.84591 7.04521 7.90092 7.03067C7.95593 7.01612 8.01443 7.02345 8.06414 7.05112L8.45415 7.27112C8.51045 7.29909 8.57317 7.31161 8.6359 7.30739C8.69862 7.30317 8.7591 7.28238 8.81116 7.24712C8.89281 7.18661 8.97832 7.13149 9.06716 7.08212C9.15709 7.03139 9.24992 6.98598 9.34517 6.94612C9.40181 6.92066 9.4504 6.88016 9.48566 6.82904C9.52091 6.77791 9.5415 6.71811 9.54517 6.65611V6.21611C9.54504 6.18779 9.5505 6.15972 9.56125 6.13352C9.57199 6.10732 9.58781 6.0835 9.60779 6.06343C9.62776 6.04336 9.65151 6.02743 9.67766 6.01656C9.70381 6.0057 9.73185 6.0001 9.76017 6.0001H11.2382C11.2948 5.99957 11.3493 6.02147 11.3898 6.06101C11.4302 6.10056 11.4534 6.15452 11.4542 6.21111V6.65111C11.4575 6.71334 11.4779 6.77345 11.5132 6.82481C11.5485 6.87616 11.5973 6.91676 11.6542 6.94212C11.8196 7.06301 11.9989 7.16372 12.1882 7.24212C12.2403 7.27772 12.3009 7.2988 12.3638 7.30319C12.4267 7.30759 12.4897 7.29514 12.5462 7.26712L12.9362 7.04712C12.9859 7.01945 13.0444 7.01212 13.0994 7.02667C13.1545 7.04121 13.2017 7.0765 13.2312 7.12512L13.9712 8.37514C13.9851 8.39941 13.9941 8.42619 13.9976 8.45394C14.0011 8.48168 13.999 8.50984 13.9916 8.53679C13.9842 8.56375 13.9715 8.58897 13.9542 8.611C13.937 8.63302 13.9156 8.65143 13.8912 8.66515L13.5012 8.88415C13.4486 8.91705 13.4061 8.96393 13.3786 9.01955C13.3511 9.07517 13.3395 9.13735 13.3452 9.19916C13.3583 9.29862 13.3646 9.39885 13.3642 9.49916L13.3652 9.50016ZM10.5002 10.6672C10.7298 10.6619 10.9527 10.5889 11.141 10.4575C11.3294 10.3261 11.4747 10.142 11.5589 9.92837C11.6431 9.71471 11.6624 9.48096 11.6144 9.25639C11.5664 9.03181 11.4531 8.82641 11.2889 8.66589C11.1247 8.50536 10.9167 8.39687 10.6911 8.35398C10.4655 8.3111 10.2322 8.33573 10.0206 8.4248C9.8089 8.51387 9.6282 8.66341 9.50112 8.8547C9.37404 9.04598 9.30623 9.27051 9.30616 9.50016C9.30986 9.81322 9.4377 10.112 9.6616 10.3308C9.8855 10.5497 10.1871 10.6707 10.5002 10.6672Z" fill="currentColor"/>
</svg>
