<svg width="14" height="15" viewBox="0 0 14 15" fill="none" xmlns="http://www.w3.org/2000/svg">
<path d="M7.00263 7.70194H7.37213C7.61025 7.43645 7.88258 7.1997 8.18091 7.00126H7.00263V7.70194ZM6.42786 12.2508C6.3827 12.1455 6.34849 12.0374 6.32522 11.9251C6.30333 11.8348 6.29648 11.7418 6.30606 11.6501C6.31975 11.5556 6.35259 11.4872 6.4087 11.4421C6.34028 11.141 6.30333 10.8276 6.30333 10.5046C5.91604 10.5046 5.60265 10.1912 5.60265 9.80396V9.10329H3.50063C3.11335 9.10329 2.79996 8.7899 2.79996 8.40261C2.79996 8.01532 3.11335 7.70194 3.50063 7.70194H5.60128V7.00126H3.50063C3.11335 7.00126 2.79996 6.68788 2.79996 6.30059C2.79996 5.9133 3.11335 5.59992 3.50063 5.59992H5.27284L5.28242 5.59034L5.28379 5.58897L3.01071 3.31725C2.73701 3.04355 2.73701 2.60016 3.01071 2.32646L3.04903 2.28814C3.32273 2.01444 3.76612 2.01444 4.03982 2.28814L6.31291 4.56122L8.58599 2.28814C8.85969 2.01444 9.30309 2.01444 9.57679 2.28814L9.6151 2.32646C9.88881 2.60016 9.88881 3.04355 9.6151 3.31725L7.34202 5.59034L7.35297 5.60128H9.10329C9.49057 5.60128 9.80396 5.91467 9.80396 6.30196C9.80396 6.32112 9.80259 6.34164 9.80122 6.3608C10.0298 6.32249 10.2651 6.30196 10.5046 6.30196C10.829 6.30196 11.1465 6.33891 11.4489 6.4087L11.4776 6.37996C11.5173 6.33343 11.5748 6.30606 11.635 6.30196C11.7281 6.30333 11.8198 6.31564 11.9101 6.33754C12.01 6.3608 12.1085 6.39365 12.2016 6.43607C12.2974 6.4785 12.3877 6.53187 12.4684 6.59756C12.5136 6.63314 12.5533 6.67282 12.5902 6.71525C12.5998 6.5784 12.6039 6.44018 12.6039 6.30059C12.6039 2.82185 9.78206 0 6.30196 0C2.82185 0 0 2.82185 0 6.30196C0 9.78206 2.82185 12.6039 6.30196 12.6039C6.41007 12.6039 6.51681 12.6012 6.62356 12.5957C6.6085 12.5779 6.59482 12.5588 6.58113 12.5382C6.52229 12.4465 6.47028 12.3507 6.42786 12.2508ZM13.8684 11.286C13.8397 11.2642 13.8109 11.2436 13.7795 11.2258C13.633 11.1725 13.5058 11.0767 13.4154 10.9508C13.3224 10.8208 13.2731 10.6634 13.2759 10.5019C13.2745 10.3308 13.332 10.1639 13.4401 10.0311C13.5427 9.89975 13.6809 9.79985 13.8383 9.74238C13.8848 9.72048 13.9245 9.68764 13.9546 9.64795C13.9929 9.60005 14.0066 9.53436 13.9971 9.44815C13.9765 9.30035 13.9382 9.15392 13.8807 9.0157C13.8233 8.87201 13.7562 8.76526 13.6809 8.69547C13.6412 8.65578 13.5892 8.63115 13.5345 8.62705C13.4839 8.6202 13.4319 8.63115 13.3867 8.65715C13.2334 8.72695 13.0651 8.75705 12.8981 8.74337C12.7312 8.73379 12.5724 8.66263 12.4547 8.54357C12.3384 8.42998 12.2618 8.28218 12.2372 8.12207C12.2112 7.96606 12.2317 7.80731 12.2974 7.66362C12.3111 7.63078 12.3206 7.59656 12.3275 7.56235C12.3371 7.51719 12.3288 7.46929 12.3042 7.43097C12.2618 7.36255 12.2071 7.30097 12.1427 7.25033C12.0743 7.19559 12.0004 7.15043 11.9197 7.11622C11.8417 7.08064 11.7596 7.05327 11.6761 7.03411C11.6008 7.01495 11.5242 7.00537 11.4462 7.004C11.3955 7.00674 11.3476 7.03 11.3148 7.06832C11.2765 7.1039 11.2436 7.14632 11.2204 7.19285C11.1656 7.34339 11.0657 7.4734 10.9343 7.56646C10.7989 7.66499 10.636 7.71562 10.4691 7.71425C10.3076 7.71836 10.1502 7.66362 10.0257 7.55961C9.9066 7.46519 9.81491 7.34202 9.75606 7.20243C9.73827 7.15454 9.71227 7.10938 9.67669 7.07106C9.637 7.02727 9.58089 7.004 9.52205 7.00674C9.45362 7.00947 9.3852 7.01769 9.31814 7.03274C9.22919 7.0519 9.14023 7.0779 9.05539 7.11211C8.96643 7.14633 8.88159 7.19012 8.80358 7.24349C8.73379 7.28728 8.67768 7.3516 8.6421 7.42687C8.62705 7.45971 8.62431 7.49666 8.63115 7.53224C8.63663 7.56782 8.6462 7.6034 8.65715 7.63762C8.66263 7.66772 8.66947 7.71836 8.67631 7.78815C8.68315 7.86479 8.68315 7.94279 8.67631 8.0208C8.66947 8.10975 8.65168 8.19597 8.62431 8.28081C8.59968 8.36429 8.55451 8.44093 8.49293 8.50388C8.38756 8.60652 8.25481 8.67631 8.11112 8.70642C8.0947 8.71052 8.07828 8.71463 8.06049 8.71737C7.90174 8.74063 7.74026 8.72147 7.59109 8.66126C7.55003 8.64894 7.50898 8.63799 7.46655 8.63115C7.4255 8.62705 7.38444 8.63799 7.35023 8.66126C7.29412 8.69684 7.24623 8.74474 7.21065 8.80085C7.16959 8.86243 7.13401 8.92812 7.1039 8.99517C7.10253 8.99928 7.0998 9.00338 7.09843 9.00612C7.06558 9.08139 7.03821 9.15802 7.01905 9.23877C7.00126 9.30993 6.99032 9.38383 6.98895 9.45773C6.99032 9.51931 7.00537 9.57952 7.03548 9.63426C7.05737 9.68353 7.09706 9.72322 7.14769 9.74238C7.3037 9.8067 7.44466 9.90523 7.55688 10.0311C7.67457 10.1543 7.73889 10.3199 7.73752 10.4896C7.73752 10.6606 7.6732 10.8262 7.55688 10.9521C7.4474 11.0821 7.30781 11.1848 7.15043 11.2505C7.06421 11.2806 7.01632 11.3504 6.9999 11.4612C6.99168 11.5379 6.99716 11.6159 7.01632 11.6911C7.03548 11.7842 7.06421 11.8745 7.10253 11.9621C7.13948 12.0456 7.18191 12.1249 7.23117 12.2016C7.2777 12.2741 7.33107 12.3206 7.38581 12.3412C7.4515 12.3713 7.52677 12.3767 7.59656 12.3576C7.70057 12.3234 7.80868 12.3042 7.91816 12.2974C8.01396 12.2919 8.10975 12.3015 8.20418 12.3234C8.30271 12.3453 8.39166 12.3959 8.46009 12.4698C8.57367 12.5943 8.63936 12.7326 8.65168 12.879C8.66673 13.0145 8.64484 13.1513 8.58873 13.2745C8.54767 13.3607 8.53125 13.4264 8.53262 13.4743C8.53536 13.5194 8.54904 13.5619 8.57504 13.5988C8.61883 13.6577 8.67221 13.7083 8.73242 13.7494C8.80632 13.8014 8.88569 13.8451 8.96917 13.8807C9.05402 13.919 9.1416 13.9505 9.23192 13.9752C9.30856 13.9984 9.38793 14.0107 9.46868 14.0121C9.52615 14.0121 9.58363 13.9984 9.6329 13.9697C9.68353 13.9396 9.72322 13.893 9.74511 13.8383C9.80259 13.6823 9.90249 13.5454 10.0339 13.4428C10.1625 13.3333 10.3267 13.2731 10.4964 13.2731C10.6661 13.2717 10.8303 13.332 10.959 13.4428C11.0876 13.5482 11.1861 13.6878 11.2423 13.8451H11.2491C11.2669 13.8889 11.2956 13.9273 11.3312 13.9574C11.3654 13.9902 11.412 14.0094 11.4585 14.0094C11.5351 14.008 11.6104 13.9984 11.6843 13.9793C11.7678 13.9601 11.8499 13.9327 11.9279 13.8972C12.0018 13.8629 12.0729 13.8246 12.1414 13.7795C12.1961 13.7466 12.2454 13.7056 12.2851 13.6549C12.3494 13.555 12.359 13.4538 12.3083 13.3539C12.2426 13.2102 12.2194 13.0514 12.2399 12.8954C12.2604 12.7326 12.3343 12.582 12.4506 12.4671C12.5054 12.4082 12.5738 12.3644 12.6504 12.3398C12.7257 12.3152 12.8037 12.2987 12.8831 12.2905C12.9597 12.2823 13.0364 12.2851 13.113 12.2974C13.176 12.3083 13.2389 12.322 13.3005 12.3398C13.3484 12.3576 13.399 12.3685 13.451 12.3699C13.5058 12.3672 13.5605 12.3507 13.6084 12.3234C13.6741 12.2878 13.7316 12.2358 13.7726 12.1728C13.8246 12.0989 13.867 12.0196 13.8999 11.9361C13.9341 11.8526 13.9601 11.7664 13.9752 11.6774C13.9888 11.6049 13.9916 11.531 13.982 11.4585C13.9656 11.3873 13.9245 11.3271 13.8684 11.286ZM11.7992 11.0493H11.7979C11.7281 11.2163 11.6268 11.3695 11.4995 11.4995C11.2368 11.7664 10.8769 11.9156 10.5033 11.9128C10.3158 11.9142 10.131 11.8772 9.9586 11.8033C9.79164 11.7322 9.63974 11.6295 9.51384 11.4995C9.38793 11.3695 9.28666 11.2163 9.2155 11.0493C9.1416 10.8769 9.10465 10.6907 9.10602 10.5033C9.10465 10.3158 9.14297 10.1297 9.2155 9.95723C9.35783 9.62058 9.62468 9.35372 9.95997 9.2114C10.1324 9.1375 10.3171 9.09918 10.5046 9.10192C10.6935 9.10055 10.8796 9.1375 11.0534 9.2114C11.3914 9.35235 11.6596 9.62058 11.802 9.95723C11.9457 10.3062 11.9457 10.699 11.7992 11.0493Z" fill="currentColor"/>
</svg>
