<svg width="14" height="14" viewBox="0 0 14 14" fill="none" xmlns="http://www.w3.org/2000/svg">
<path d="M0.175001 7.53297H1.44667C1.46908 7.53137 1.49158 7.53441 1.51276 7.54189C1.53394 7.54938 1.55336 7.56115 1.56978 7.57649C1.5862 7.59181 1.59929 7.61037 1.60822 7.63099C1.61715 7.6516 1.62172 7.67384 1.62167 7.69631V7.87131C1.6187 7.91567 1.59897 7.95724 1.56646 7.98758C1.53396 8.01791 1.49113 8.03474 1.44667 8.03464H0.175001C0.152782 8.03542 0.130628 8.03181 0.109805 8.02402C0.0889813 8.01624 0.0698976 8.00442 0.0536447 7.98925C0.0373917 7.97408 0.0242882 7.95586 0.0150835 7.93562C0.00587885 7.91538 0.000753494 7.89353 5.33014e-07 7.87131V7.69631C-5.68603e-05 7.67384 0.00452159 7.6516 0.0134496 7.63099C0.0223776 7.61037 0.0354632 7.59181 0.051888 7.57649C0.0683129 7.56115 0.0877239 7.54938 0.108907 7.54189C0.130091 7.53441 0.152591 7.53137 0.175001 7.53297ZM0.175001 2.53381H1.44667C1.46908 2.5322 1.49158 2.53524 1.51276 2.54272C1.53394 2.55021 1.55336 2.56199 1.56978 2.57732C1.5862 2.59265 1.59929 2.6112 1.60822 2.63182C1.61715 2.65244 1.62172 2.67467 1.62167 2.69714V2.87214C1.62172 2.89461 1.61715 2.91685 1.60822 2.93746C1.59929 2.95808 1.5862 2.97663 1.56978 2.99196C1.55336 3.00729 1.53394 3.01907 1.51276 3.02656C1.49158 3.03404 1.46908 3.03708 1.44667 3.03547H0.175001C0.152591 3.03708 0.130091 3.03404 0.108907 3.02656C0.0877239 3.01907 0.0683129 3.00729 0.051888 2.99196C0.0354631 2.97663 0.0223776 2.95808 0.0134496 2.93746C0.00452159 2.91685 -5.68622e-05 2.89461 5.33014e-07 2.87214V2.69714C-5.68603e-05 2.67467 0.00452159 2.65244 0.0134496 2.63182C0.0223776 2.6112 0.0354632 2.59265 0.051888 2.57732C0.0683129 2.56199 0.0877239 2.55021 0.108907 2.54272C0.130091 2.53524 0.152591 2.5322 0.175001 2.53381ZM0.175001 5.03631H1.44667C1.46859 5.03473 1.49062 5.03759 1.51141 5.04472C1.53221 5.05185 1.55135 5.06311 1.56769 5.07781C1.58403 5.09252 1.59723 5.11037 1.60651 5.13031C1.61578 5.15024 1.62094 5.17184 1.62167 5.19381V5.37464C1.62094 5.39661 1.61578 5.41821 1.60651 5.43814C1.59723 5.45808 1.58403 5.47593 1.56769 5.49064C1.55135 5.50534 1.53221 5.5166 1.51141 5.52373C1.49062 5.53086 1.46859 5.53372 1.44667 5.53214H0.175001C0.153073 5.53372 0.131053 5.53086 0.110257 5.52373C0.0894621 5.5166 0.0703207 5.50534 0.05398 5.49064C0.0376393 5.47593 0.0244357 5.45808 0.0151603 5.43814C0.0058849 5.41821 0.000728659 5.39661 5.33014e-07 5.37464V5.19381C0.000728661 5.17184 0.00588491 5.15024 0.0151603 5.13031C0.0244357 5.11037 0.0376393 5.09252 0.05398 5.07781C0.0703207 5.06311 0.0894621 5.05185 0.110257 5.04472C0.131053 5.03759 0.153073 5.03473 0.175001 5.03631ZM0.175001 10.0296H1.44667C1.46889 10.0289 1.49104 10.0325 1.51186 10.0403C1.53269 10.048 1.55177 10.0599 1.56802 10.075C1.58428 10.0902 1.59738 10.1084 1.60658 10.1287C1.61579 10.1489 1.62091 10.1708 1.62167 10.193V10.368C1.62172 10.3904 1.61715 10.4127 1.60822 10.4333C1.59929 10.4539 1.5862 10.4725 1.56978 10.4878C1.55336 10.5031 1.53394 10.5149 1.51276 10.5224C1.49158 10.5299 1.46908 10.5329 1.44667 10.5313H0.175001C0.152591 10.5329 0.130091 10.5299 0.108907 10.5224C0.0877239 10.5149 0.0683129 10.5031 0.051888 10.4878C0.0354632 10.4725 0.0223776 10.4539 0.0134496 10.4333C0.00452159 10.4127 -5.68603e-05 10.3904 5.33014e-07 10.368V10.193C0.000753494 10.1708 0.00587885 10.1489 0.0150835 10.1287C0.0242882 10.1084 0.0373917 10.0902 0.0536447 10.075C0.0698976 10.0599 0.0889813 10.048 0.109805 10.0403C0.130628 10.0325 0.152782 10.0289 0.175001 10.0296Z" fill="currentColor"/>
<path d="M12.9325 0.999641H11.9817C11.9491 1.00035 11.9173 0.989674 11.8917 0.969441C11.8662 0.949208 11.8485 0.920691 11.8417 0.888808C11.8021 0.636455 11.6718 0.407204 11.4753 0.243989C11.2788 0.0807744 11.0295 -0.00520956 10.7742 0.00214072H1.75004C1.59443 -0.00729908 1.4385 0.0145457 1.29147 0.0663846C1.14444 0.118223 1.00929 0.199005 0.894008 0.303956C0.778725 0.408907 0.685646 0.5359 0.620269 0.67743C0.554893 0.818961 0.518546 0.972159 0.513376 1.12797V1.87464C0.513358 1.892 0.51686 1.90917 0.523671 1.92514C0.530482 1.9411 0.54046 1.95552 0.553002 1.96751C0.565544 1.97951 0.580388 1.98884 0.596638 1.99493C0.612888 2.00103 0.630205 2.00376 0.647542 2.00297H1.45838C1.62975 1.99661 1.79675 2.05788 1.92334 2.17356C2.04994 2.28924 2.12597 2.45006 2.13504 2.62131V2.99464C2.13278 3.0636 2.11695 3.13143 2.08846 3.19427C2.05996 3.2571 2.01937 3.3137 1.96898 3.36084C1.9186 3.40797 1.85942 3.44471 1.79483 3.46895C1.73023 3.4932 1.6615 3.50448 1.59254 3.50214H0.647542C0.630685 3.50136 0.613839 3.50391 0.597968 3.50964C0.582097 3.51538 0.567513 3.52419 0.555051 3.53556C0.542589 3.54694 0.532493 3.56067 0.525342 3.57595C0.518191 3.59124 0.514124 3.60778 0.513376 3.62464V4.37131C0.513358 4.38866 0.51686 4.40584 0.523671 4.4218C0.530482 4.43777 0.54046 4.45218 0.553002 4.46418C0.565544 4.47618 0.580388 4.4855 0.596638 4.4916C0.612888 4.49769 0.630205 4.50043 0.647542 4.49964H1.45838C1.54419 4.49652 1.62977 4.51035 1.71023 4.54033C1.7907 4.57031 1.86446 4.61586 1.9273 4.67437C1.99015 4.73288 2.04084 4.80321 2.07649 4.88133C2.11214 4.95945 2.13203 5.04383 2.13504 5.12964V5.37464C2.12746 5.54743 2.05226 5.71031 1.92568 5.82817C1.7991 5.94602 1.63126 6.0094 1.45838 6.00464H0.647542C0.630685 6.00386 0.613839 6.00641 0.597968 6.01214C0.582097 6.01788 0.567513 6.02669 0.555051 6.03806C0.542589 6.04944 0.532493 6.06317 0.525342 6.07845C0.518191 6.09374 0.514124 6.11028 0.513376 6.12714V6.87381C0.513358 6.89116 0.51686 6.90834 0.523671 6.92431C0.530482 6.94027 0.54046 6.95468 0.553002 6.96668C0.565544 6.97868 0.580388 6.988 0.596638 6.9941C0.612888 7.0002 0.630205 7.00293 0.647542 7.00214H1.45838C1.62972 6.99738 1.79607 7.06015 1.92156 7.17691C2.04705 7.29367 2.12162 7.45507 2.12921 7.62631V7.99964C2.12314 8.13788 2.06275 8.26813 1.96116 8.36207C1.85957 8.45602 1.725 8.50605 1.58671 8.50131H0.647542C0.629919 8.50053 0.612315 8.50323 0.595737 8.50925C0.579158 8.51528 0.563932 8.52452 0.550928 8.53644C0.537924 8.54836 0.527399 8.56273 0.519954 8.57872C0.51251 8.59471 0.508292 8.61202 0.507542 8.62964V9.37631C0.508292 9.39393 0.51251 9.41124 0.519954 9.42723C0.527399 9.44322 0.537924 9.45759 0.550928 9.46951C0.563932 9.48143 0.579158 9.49067 0.595737 9.4967C0.612315 9.50273 0.629919 9.50543 0.647542 9.50464H1.45254C1.53759 9.50152 1.62241 9.5152 1.70217 9.54489C1.78192 9.57458 1.85504 9.61969 1.91735 9.67766C1.97965 9.73563 2.02992 9.80532 2.06527 9.88273C2.10062 9.96014 2.12037 10.0438 2.12338 10.1288V10.5021C2.11731 10.6388 2.05753 10.7676 1.95703 10.8604C1.85654 10.9533 1.72345 11.0027 1.58671 10.998H0.641709C0.606514 10.9979 0.572565 11.011 0.546621 11.0348C0.520677 11.0586 0.504642 11.0912 0.501709 11.1263V12.8763C0.506811 13.0332 0.543511 13.1874 0.609612 13.3297C0.675713 13.4721 0.769856 13.5996 0.886406 13.7048C1.00296 13.8099 1.13952 13.8904 1.28791 13.9415C1.43631 13.9926 1.59349 14.0132 1.75004 14.0021H12.8334C13.1358 14.0023 13.4266 13.885 13.6442 13.675C13.8619 13.465 13.9895 13.1786 14 12.8763V2.00297C13.9894 1.72702 13.8699 1.46652 13.6676 1.27848C13.4654 1.09044 13.1969 0.990179 12.9209 0.999641H12.9325ZM8.23671 2.24797C8.32615 2.13934 8.44828 2.0625 8.58492 2.02886C8.72155 1.99523 8.8654 2.00661 8.99504 2.06131L10.2842 2.73214C10.3994 2.7964 10.4859 2.90211 10.5259 3.02779C10.566 3.15347 10.5568 3.28971 10.5 3.40881L6.41671 9.78464C6.39679 9.81235 6.36778 9.83219 6.33474 9.84072C6.3017 9.84925 6.26672 9.84592 6.23588 9.83131L4.21754 8.78714C4.20272 8.77977 4.18955 8.76946 4.17882 8.75686C4.1681 8.74425 4.16003 8.72959 4.15513 8.71378C4.15022 8.69797 4.14857 8.68133 4.15027 8.66486C4.15198 8.6484 4.157 8.63245 4.16504 8.61798L8.23671 2.24797ZM5.79254 10.4146L4.15338 10.998C4.11996 11.0085 4.08389 11.0066 4.05176 10.9926C4.01963 10.9787 3.99358 10.9537 3.97838 10.9221V10.8871L3.84421 9.41131C3.84343 9.39445 3.84597 9.37761 3.85171 9.36174C3.85744 9.34586 3.86625 9.33128 3.87763 9.31882C3.88901 9.30636 3.90273 9.29626 3.91802 9.28911C3.93331 9.28196 3.94985 9.27789 3.96671 9.27714C3.9936 9.27112 4.02149 9.27112 4.04838 9.27714L5.79838 10.193C5.8132 10.2004 5.82637 10.2107 5.8371 10.2233C5.84782 10.2359 5.85588 10.2505 5.86079 10.2663C5.8657 10.2821 5.86735 10.2988 5.86564 10.3153C5.86394 10.3317 5.85892 10.3477 5.85088 10.3621C5.84501 10.3766 5.83631 10.3897 5.82529 10.4007C5.81427 10.4117 5.80115 10.4204 5.78671 10.4263L5.79254 10.4146ZM12.9325 12.4971C12.9325 13.0455 12.8975 13.4946 11.8534 13.4946H2.13504C1.88395 13.5031 1.63816 13.4212 1.44229 13.2638C1.24642 13.1065 1.11346 12.8841 1.06754 12.6371C1.06245 12.6055 1.06998 12.5731 1.08853 12.5469C1.10707 12.5207 1.13514 12.5028 1.16671 12.4971H10.6342C10.7879 12.5034 10.9414 12.4792 11.0857 12.4259C11.23 12.3726 11.3623 12.2913 11.4751 12.1867C11.5879 12.082 11.6788 11.9561 11.7428 11.8162C11.8067 11.6762 11.8423 11.5251 11.8475 11.3713V1.62381C11.8505 1.58925 11.8668 1.55719 11.8929 1.53435C11.919 1.51152 11.9529 1.49967 11.9875 1.50131C12.5184 1.50131 12.9267 1.57131 12.9267 2.49881V12.4971H12.9325Z" fill="currentColor"/>
</svg>
