<svg width="14" height="14" viewBox="0 0 14 14" fill="none" xmlns="http://www.w3.org/2000/svg">
<path d="M10.7645 11.1736C10.7093 11.1297 10.6633 11.0753 10.6293 11.0135C10.5953 10.9517 10.5739 10.8837 10.5663 10.8136C10.5588 10.7435 10.5652 10.6726 10.5853 10.605C10.6054 10.5373 10.6388 10.4744 10.6834 10.4198L12.0093 8.75353L11.5861 8.40705L10.2611 10.0733C10.2192 10.1292 10.1664 10.1759 10.1058 10.2105C10.0452 10.2452 9.97811 10.2671 9.90872 10.2749C9.83934 10.2826 9.76911 10.2761 9.70234 10.2557C9.63558 10.2353 9.5737 10.2014 9.52053 10.1562L9.30542 9.99748L13.2242 5.0966V1.61335C13.2242 0.722923 12.5127 8.05515e-07 11.639 8.05515e-07H1.58514C0.711461 -0.000880817 0 0.722041 0 1.61247V12.3867C0 13.2771 0.711461 14 1.58514 14H11.639C12.5127 14 13.2242 13.2771 13.2242 12.3867V8.51108L10.9796 11.3314L10.7645 11.1727V11.1736ZM2.64484 3.89144H9.12733V3.92141C9.36448 3.97431 9.52758 4.19295 9.52758 4.43451C9.52994 4.55289 9.49142 4.66847 9.41851 4.76177C9.34561 4.85507 9.24277 4.92039 9.12733 4.94673V4.9767H2.64484C2.50422 4.97507 2.36996 4.91789 2.27136 4.81763C2.17275 4.71737 2.11781 4.58218 2.11851 4.44156C2.11851 4.133 2.35655 3.89144 2.64484 3.89144ZM6.74874 8.43791L2.64484 8.46788C2.50422 8.46626 2.36996 8.40907 2.27136 8.30882C2.17275 8.20856 2.11781 8.07337 2.11851 7.93275C2.11851 7.63917 2.35655 7.39761 2.64484 7.39761H6.74874V7.42758C6.98678 7.48048 7.14899 7.69912 7.14899 7.94068C7.1497 8.05697 7.11027 8.16994 7.03735 8.26052C6.96443 8.35111 6.86249 8.41376 6.74874 8.43791ZM9.0762 12.3576C8.89018 12.4404 8.67506 12.2747 8.73501 12.064L9.00126 10.3977L10.6384 11.7466L9.07531 12.3576H9.0762Z" fill="currentColor"/>
</svg>
