<svg width="13" height="14" viewBox="0 0 13 14" fill="none" xmlns="http://www.w3.org/2000/svg">
<path d="M6.46159 9.69238C6.5892 9.69238 6.71574 9.69346 6.84121 9.69615L7.2149 9.70692C7.33875 9.71177 7.46152 9.71769 7.58267 9.72469L7.94344 9.74946L8.29614 9.78069C8.35429 9.78607 8.41191 9.792 8.46952 9.79846L8.80984 9.83884L8.97676 9.86146L9.30307 9.91154C9.51738 9.94654 9.72523 9.9853 9.92554 10.0278L10.2201 10.0941L10.5028 10.1657C10.5954 10.1905 10.6858 10.2158 10.7731 10.2422L11.0305 10.3229C12.2 10.7133 12.9232 11.2518 12.9232 11.8462C12.9232 12.4412 12.2 12.9797 11.0305 13.369L10.7731 13.4503C10.6853 13.4773 10.5954 13.502 10.5028 13.5268L10.2201 13.5984L9.92554 13.6646C9.72523 13.7077 9.51738 13.7459 9.30307 13.7809L8.97676 13.831L8.80984 13.8536L8.46952 13.894C8.41191 13.9005 8.35429 13.9064 8.29614 13.9118L7.9429 13.943L7.58267 13.9678C7.46152 13.9748 7.33875 13.9807 7.2149 13.9856L6.84121 13.9963C6.58815 14.0012 6.33502 14.0012 6.08197 13.9963L5.70827 13.9856C5.58443 13.9807 5.46166 13.9748 5.3405 13.9678L4.97973 13.943L4.62703 13.9118C4.56888 13.9064 4.51126 13.9005 4.45365 13.894L4.11334 13.8536C4.05766 13.8464 4.00202 13.8389 3.94641 13.831L3.6201 13.7809C3.41173 13.7471 3.20419 13.7083 2.99764 13.6646L2.7031 13.5984L2.4204 13.5268C2.32993 13.5026 2.23982 13.4771 2.15009 13.4503L1.89271 13.3696C0.723159 12.9792 0 12.4407 0 11.8462C0 11.1134 1.09847 10.4656 2.77687 10.0768L3.32395 12.1176C3.43487 12.5314 3.70561 12.8842 4.0766 13.0983C4.4476 13.3125 4.88848 13.3706 5.30227 13.2597L5.39327 13.2328C5.78429 13.1029 6.1109 12.8285 6.30628 12.4658C6.50167 12.103 6.55106 11.6794 6.44436 11.2814L6.02005 9.69723C6.16597 9.694 6.31351 9.69238 6.46159 9.69238ZM3.50003 0C4.2178 0 4.83004 0.212694 5.42935 0.44908L5.87843 0.627851C6.47828 0.864237 7.08998 1.07693 7.80775 1.07693C9.10276 1.07693 10.2255 0.904084 11.1742 0.418926L11.3665 0.315002C11.4054 0.292462 11.4496 0.280541 11.4946 0.280434C11.5395 0.280326 11.5838 0.292035 11.6228 0.314389C11.6618 0.336744 11.6943 0.368959 11.717 0.407811C11.7397 0.446663 11.7517 0.490789 11.752 0.535773L11.7488 0.579928L11.6965 0.866391L11.6395 1.15501C11.3659 2.45917 10.8716 3.81234 9.42315 4.84619C8.55137 5.46866 7.73775 5.63073 6.90097 5.73143L6.05451 5.8262C5.59573 5.8822 5.12296 5.95812 4.62434 6.11535L4.42888 6.18051C4.31311 6.22167 4.21708 6.30492 4.15991 6.41368C4.10274 6.52243 4.08861 6.64873 4.12034 6.76744L5.40404 11.5598C5.43672 11.6962 5.41486 11.84 5.34311 11.9606C5.27137 12.0811 5.1554 12.1689 5.0199 12.2053C4.8844 12.2416 4.74006 12.2237 4.61761 12.1552C4.49515 12.0867 4.40426 11.9732 4.36426 11.8387L1.41347 0.827083C1.38533 0.722269 1.39638 0.61079 1.44456 0.513544C1.49274 0.416297 1.57473 0.339962 1.67517 0.298848L1.72847 0.281079C2.39079 0.0936931 2.98148 0 3.50003 0Z" fill="currentColor"/>
</svg>
