<svg width="12" height="14" viewBox="0 0 12 14" fill="none" xmlns="http://www.w3.org/2000/svg">
<path d="M0.56315 0H9.29299C9.60266 0 9.85592 0.253349 9.85592 0.562906V11.9978C9.85592 12.3073 9.60268 12.5607 9.29299 12.5607H0.56315C0.253593 12.5607 0.000244141 12.3073 0.000244141 11.9978V0.562906C0.00023003 0.253349 0.253593 0 0.56315 0ZM3.05638 9.01071C2.97894 9.01071 2.91566 9.07399 2.91566 9.15131V10.0912C2.91566 10.1685 2.97905 10.232 3.05638 10.232H9.48449C9.56193 10.232 9.62521 10.1685 9.62521 10.0912V9.15131C9.62521 9.07399 9.56194 9.01071 9.48449 9.01071H3.05638ZM3.05638 6.38939C2.97894 6.38939 2.91566 6.45266 2.91566 6.53011V7.46988C2.91566 7.54733 2.97894 7.61062 3.05638 7.61062H8.04733C8.12467 7.61062 8.18806 7.54734 8.18806 7.46988V6.53011C8.18806 6.45267 8.12467 6.38939 8.04733 6.38939H3.05638ZM3.05638 3.74728C2.97894 3.74728 2.91566 3.81068 2.91566 3.88813V4.8279C2.91566 4.90533 2.97894 4.96863 3.05638 4.96863H8.04733C8.12467 4.96863 8.18806 4.90535 8.18806 4.8279V3.88813C8.18806 3.81069 8.12467 3.74728 8.04733 3.74728H3.05638Z" fill="currentColor"/>
<path d="M0.56292 0.549326H10.8027C11.1122 0.549326 11.3654 0.802576 11.3654 1.11226V13.4371C11.3654 13.7466 11.1122 14 10.8027 14H1.61957C0.728794 14 0 13.2712 0 12.3804V1.11226C0 0.802576 0.253363 0.549326 0.56292 0.549326ZM3.05615 9.0107C2.97871 9.0107 2.91543 9.07399 2.91543 9.15131V10.0912C2.91543 10.1685 2.97882 10.232 3.05615 10.232H9.48426C9.5617 10.232 9.62498 10.1685 9.62498 10.0912V9.15131C9.62498 9.07399 9.56171 9.0107 9.48426 9.0107H3.05615ZM3.05615 6.38939C2.97871 6.38939 2.91543 6.45266 2.91543 6.53011V7.46988C2.91543 7.54733 2.97871 7.61062 3.05615 7.61062H8.0471C8.12444 7.61062 8.18783 7.54734 8.18783 7.46988V6.53011C8.18783 6.45267 8.12444 6.38939 8.0471 6.38939H3.05615ZM3.05615 3.74728C2.97871 3.74728 2.91543 3.81068 2.91543 3.88813V4.8279C2.91543 4.90533 2.97871 4.96863 3.05615 4.96863H8.0471C8.12444 4.96863 8.18783 4.90535 8.18783 4.8279V3.88813C8.18783 3.81069 8.12444 3.74728 8.0471 3.74728H3.05615Z" fill="currentColor"/>
</svg>
