<svg width="14" height="15" viewBox="0 0 14 15" fill="none" xmlns="http://www.w3.org/2000/svg">
<path d="M7.03514 8.37197C7.03514 6.54275 8.51254 5.20612 10.201 5.20612C11.1858 5.20612 12.1005 5.69852 12.6632 6.40156V0H0V14.0705H4.92458V14.0002C4.92458 12.382 5.97986 10.9751 7.59803 10.2012C7.2462 9.70777 7.03514 9.07542 7.03514 8.37197ZM5.69852 7.03535H2.18085V6.33169H5.69852V7.03514V7.03535ZM2.18085 3.51767V2.81402H10.6231V3.51747H2.18085V3.51767Z" fill="currentColor"/>
<path d="M8.2312 8.37197C8.2312 9.49753 9.14592 10.342 10.2012 10.342C11.2565 10.342 12.171 9.42745 12.171 8.37197C12.171 7.31648 11.2565 6.40218 10.2012 6.40218C9.14592 6.40218 8.2312 7.2462 8.2312 8.37197ZM11.2563 11.0452H9.07543C7.52775 11.0452 6.3317 12.2406 6.3317 13.7889V14.0705H14V13.7887C14 12.2413 12.8042 11.0452 11.2563 11.0452Z" fill="currentColor"/>
</svg>
