<svg width="14" height="15" viewBox="0 0 14 15" fill="none" xmlns="http://www.w3.org/2000/svg">
<path d="M3.88161 5.04327C4.15594 5.3176 4.48161 5.53522 4.84004 5.68369C5.19847 5.83216 5.58263 5.90858 5.97059 5.90858C6.35855 5.90858 6.74272 5.83217 7.10115 5.6837C7.45957 5.53523 7.78525 5.31761 8.05958 5.04328C8.3339 4.76894 8.5515 4.44326 8.69996 4.08483C8.84842 3.72639 8.92482 3.34223 8.92481 2.95426C8.92479 2.5663 8.84836 2.18214 8.69988 1.82372C8.55139 1.4653 8.33377 1.13963 8.05942 0.865314C7.78509 0.590977 7.45942 0.373361 7.10099 0.22489C6.74256 0.0764186 6.3584 9.18355e-07 5.97044 0C5.58248 -9.18338e-07 5.19831 0.0764149 4.83988 0.224884C4.48146 0.373354 4.15578 0.590969 3.88146 0.865304C3.60713 1.13964 3.38953 1.46532 3.24107 1.82376C3.09261 2.18219 3.01621 2.56636 3.01622 2.95432C3.01624 3.34228 3.09267 3.72644 3.24115 4.08486C3.38964 4.44329 3.60726 4.76895 3.88161 5.04327Z" fill="currentColor"/>
<path d="M8.70922 13.3984C8.70922 12.9261 9.09567 12.5396 9.568 12.5396H11.8457C11.8029 12.2965 11.7506 12.0552 11.689 11.8162H10.1492C9.67689 11.8162 9.29044 11.4297 9.29044 10.9574C9.29044 10.4851 9.67689 10.0986 10.1492 10.0986H11.0528C10.928 9.84716 10.7923 9.60567 10.6463 9.37518H8.40452C7.93219 9.37518 7.54574 8.98873 7.54574 8.5164C7.54574 8.04407 7.93219 7.65761 8.40452 7.65761H9.12195C8.20512 6.9328 7.1258 6.51475 5.97039 6.51475C2.93151 6.51475 0.418027 9.40678 0.00598406 13.166C-0.0577375 13.7471 0.395527 14.2555 0.980186 14.2555H9.51733C9.06853 14.2294 8.70922 13.8539 8.70922 13.3984Z" fill="currentColor"/>
<path d="M7.94559 8.49647C7.94559 8.8271 8.21611 9.09762 8.54674 9.09762H12.9475C13.2781 9.09762 13.5486 8.8271 13.5486 8.49647C13.5486 8.16584 13.2781 7.89532 12.9475 7.89532H8.54674C8.21611 7.89532 7.94559 8.16584 7.94559 8.49647ZM13.3989 12.8225H9.8502C9.51956 12.8225 9.24905 13.093 9.24905 13.4236C9.24905 13.7543 9.51956 14.0248 9.8502 14.0248H13.3989C13.7295 14.0248 14 13.7543 14 13.4236C14 13.093 13.7295 12.8225 13.3989 12.8225ZM10.3423 10.359C10.0116 10.359 9.74113 10.6295 9.74113 10.9601C9.74113 11.2908 10.0116 11.5613 10.3423 11.5613H12.7163C13.0469 11.5613 13.3174 11.2908 13.3174 10.9601C13.3174 10.6295 13.0469 10.359 12.7163 10.359H10.3423Z" fill="currentColor"/>
</svg>
