<svg width="14" height="16" viewBox="0 0 14 16" fill="none" xmlns="http://www.w3.org/2000/svg">
<path d="M11.0645 8.95236C11.1323 8.95236 11.1974 8.97931 11.2453 9.02728C11.2933 9.07525 11.3203 9.1403 11.3203 9.20814V10.0386C11.4584 10.0812 11.5905 10.1366 11.7159 10.2023L12.3042 9.61569C12.3521 9.56805 12.4169 9.54131 12.4845 9.54131C12.5521 9.54131 12.6169 9.56805 12.6648 9.61569L13.3367 10.2875C13.3846 10.3355 13.4115 10.4005 13.4115 10.4683C13.4115 10.5361 13.3846 10.6011 13.3367 10.649L12.7501 11.2365C12.8157 11.3618 12.8712 11.494 12.9138 11.6312H13.7442C13.8121 11.6312 13.8771 11.6582 13.9251 11.7062C13.9731 11.7541 14 11.8192 14 11.887V12.8377C14 12.9055 13.9731 12.9706 13.9251 13.0185C13.8771 13.0665 13.8121 13.0935 13.7442 13.0935H12.9138C12.871 13.2299 12.8162 13.3623 12.7501 13.4891L13.3367 14.0774C13.3843 14.1253 13.4111 14.1901 13.4111 14.2577C13.4111 14.3253 13.3843 14.3901 13.3367 14.438L12.6648 15.1099C12.6169 15.1578 12.5518 15.1847 12.4841 15.1847C12.4163 15.1847 12.3513 15.1578 12.3033 15.1099L11.7159 14.5233C11.5894 14.5894 11.4573 14.6442 11.3211 14.687V15.5174C11.3211 15.5853 11.2942 15.6503 11.2462 15.6983C11.1982 15.7463 11.1332 15.7732 11.0653 15.7732H10.1147C10.0468 15.7732 9.98178 15.7463 9.93381 15.6983C9.88584 15.6503 9.85889 15.5853 9.85889 15.5174V14.687C9.72245 14.6442 9.59006 14.5894 9.46328 14.5233L8.87499 15.1099C8.82706 15.1575 8.76223 15.1843 8.69466 15.1843C8.62709 15.1843 8.56226 15.1575 8.51433 15.1099L7.84248 14.438C7.79458 14.3901 7.76768 14.3251 7.76768 14.2573C7.76768 14.1895 7.79458 14.1245 7.84248 14.0765L8.42907 13.4891C8.36298 13.3626 8.3082 13.2305 8.26537 13.0943H7.43494C7.3671 13.0943 7.30204 13.0674 7.25407 13.0194C7.2061 12.9714 7.17915 12.9064 7.17915 12.8385V11.8879C7.17915 11.82 7.2061 11.755 7.25407 11.707C7.30204 11.659 7.3671 11.6321 7.43494 11.6321H8.26537C8.30815 11.4957 8.36293 11.3633 8.42907 11.2365L7.84248 10.6482C7.79484 10.6003 7.7681 10.5354 7.7681 10.4679C7.7681 10.4003 7.79484 10.3355 7.84248 10.2875L8.51433 9.61569C8.56229 9.56779 8.6273 9.54088 8.69509 9.54088C8.76287 9.54088 8.82788 9.56779 8.87584 9.61569L9.46328 10.2023C9.58979 10.1362 9.72189 10.0814 9.85804 10.0386V9.20814C9.85804 9.1403 9.88499 9.07525 9.93296 9.02728C9.98093 8.97931 10.046 8.95236 10.1138 8.95236H11.0645ZM8.98156 8.52606C9.24161 8.52606 9.49824 8.54993 9.7472 8.59512L9.80006 8.6062C9.70926 8.65464 9.63058 8.72297 9.5699 8.80609C9.50922 8.88921 9.46811 8.98498 9.44964 9.08622C9.43496 9.15425 9.43122 9.22419 9.43856 9.2934V9.55174L9.31919 9.43749L9.17937 9.29852C9.05065 9.17142 8.8768 9.10051 8.69591 9.10131C8.51502 9.1021 8.34181 9.17455 8.21422 9.30278L7.54066 9.98231C7.41362 10.1101 7.34231 10.283 7.34231 10.4632C7.34231 10.6434 7.41362 10.8162 7.54066 10.944L7.80752 11.2118H7.43494C7.35464 11.2117 7.27498 11.2258 7.19962 11.2535C7.08219 11.2964 6.97885 11.3708 6.90094 11.4686C6.82303 11.5664 6.77356 11.6837 6.75797 11.8077L6.75285 11.8939V12.8317C6.75274 12.9218 6.77046 13.011 6.80501 13.0942C6.83956 13.1774 6.89024 13.2529 6.95413 13.3164C7.01802 13.3799 7.09386 13.4301 7.17726 13.4641C7.26066 13.4982 7.34998 13.5153 7.44005 13.5147H7.80752L7.54663 13.7747C7.42983 13.8904 7.35865 14.0444 7.34612 14.2083C7.33359 14.3723 7.38056 14.5352 7.47842 14.6674L7.54492 14.7441L8.14771 15.3469H1.70542C1.44524 15.3469 1.18849 15.2874 0.954846 15.1729C0.721202 15.0584 0.516857 14.892 0.357458 14.6863C0.19806 14.4807 0.0878348 14.2413 0.0352236 13.9865C-0.0173875 13.7317 -0.0109894 13.4682 0.0539278 13.2162L0.4376 11.7267C0.673259 10.8109 1.20674 9.99944 1.9541 9.42001C2.70145 8.84059 3.62026 8.52611 4.56592 8.52606H8.98156ZM10.5896 11.1444C10.4296 11.1444 10.2711 11.1759 10.1233 11.2371C9.97544 11.2983 9.84111 11.3881 9.72796 11.5012C9.6148 11.6143 9.52504 11.7487 9.46381 11.8965C9.40257 12.0443 9.37105 12.2028 9.37105 12.3628C9.37105 12.5228 9.40257 12.6812 9.46381 12.8291C9.52504 12.9769 9.6148 13.1112 9.72796 13.2244C9.84111 13.3375 9.97544 13.4272 10.1233 13.4885C10.2711 13.5497 10.4296 13.5812 10.5896 13.5812C10.9127 13.5811 11.2225 13.4527 11.451 13.2242C11.6795 12.9958 11.8078 12.6859 11.8078 12.3628C11.8078 12.0397 11.6795 11.7298 11.451 11.5013C11.2225 11.2728 10.9127 11.1445 10.5896 11.1444ZM6.75285 0C7.77041 0 8.7463 0.404225 9.46583 1.12375C10.1854 1.84328 10.5896 2.81916 10.5896 3.83673C10.5896 4.85429 10.1854 5.83017 9.46583 6.5497C8.7463 7.26923 7.77041 7.67345 6.75285 7.67345C5.73529 7.67345 4.7594 7.26923 4.03988 6.5497C3.32035 5.83017 2.91613 4.85429 2.91613 3.83673C2.91613 2.81916 3.32035 1.84328 4.03988 1.12375C4.7594 0.404225 5.73529 0 6.75285 0Z" fill="currentColor"/>
</svg>
