<svg width="13" height="14" viewBox="0 0 13 14" fill="none" xmlns="http://www.w3.org/2000/svg">
<path d="M3.3716 4.1682C3.3716 4.1682 1.31881 4.03411 0.88556 7.31444C0.88556 7.31444 0.730828 8.26347 1.22597 8.22219C1.22597 8.22219 1.69017 8.30472 1.60765 7.51042C1.60765 7.51042 1.82427 5.70521 2.35036 5.42669C2.35036 5.42669 1.67985 9.59414 1.41165 10.3162L2.61856 10.3575L2.6392 13.6069C2.6392 13.6069 2.77329 13.9988 3.16529 13.9988C3.16529 13.9988 3.5779 14.0504 3.73263 13.4624V10.3575L5.0427 10.3266L6.22899 10.3472C6.22899 10.3472 5.33154 6.20036 5.39343 6.11785C5.39343 6.11785 6.22896 6.63363 6.93042 6.22101C6.93042 6.22101 8.01355 5.96311 7.82787 5.34418C7.82787 5.34418 7.71442 4.93158 6.42497 5.57113C6.42497 5.57113 5.5069 5.65365 5.38311 5.01409C5.38311 5.01408 5.20776 3.94126 3.3716 4.1682Z" fill="#333333"/>
<path d="M3.91828 13.4984L3.89804 10.3536L5.04267 10.3266V13.4727C5.04267 13.4727 4.9292 14.0039 4.43406 13.9472C4.43406 13.9472 4.02659 13.973 3.91828 13.4984ZM7.24793 3.55367C7.24793 3.55367 6.24732 3.37443 5.62839 4.97334C5.62839 4.97334 5.8966 5.44786 6.22669 5.43754L6.48459 5.43771C6.48459 5.43771 6.43301 5.17964 6.60837 5.13839C6.60837 5.13839 6.69091 5.29312 6.70121 5.35502C6.70121 5.35502 7.03132 5.35502 7.44393 5.00429C7.44393 5.00429 8.08346 4.94239 8.10411 5.49943C8.10411 5.49943 8.166 6.12868 6.90752 6.4072L7.10351 7.2015H9.75459V7.02611L7.24793 3.55367ZM7.65023 3.55367L9.8268 6.6135L10.1672 5.08359C10.1672 5.08359 10.6005 4.82893 10.5901 7.20148H11.5804C11.5804 7.20148 11.8383 4.93207 10.5076 3.86957C10.5076 3.86957 10.3116 3.60913 9.90932 3.55367H7.65023ZM5.62839 6.36591C5.62839 6.36591 5.82439 7.11895 5.82439 7.20147H6.27827V6.51033L5.62839 6.36591ZM5.8347 7.37684L5.95333 7.96482H12.2819V7.37684H5.8347ZM0.227295 7.37684H0.800748V7.96482H0.227295V7.37684ZM7.30649 1.44542H7.06923C7.06923 1.44542 6.82165 1.301 7.06923 0.764594C7.06923 0.764594 7.40965 0 8.69908 0C8.69908 0 10.2361 0.279756 9.98851 1.3732L9.73062 1.44542C9.73062 1.44542 9.92663 2.86895 8.91571 3.11652C8.91571 3.11652 8.00796 3.46724 7.55406 2.7039C7.55406 2.7039 7.18271 2.42538 7.30649 1.44542Z" fill="#333333"/>
<path d="M7.33564 1.30099C7.33564 1.30099 8.42859 0.733631 9.67185 1.30099C9.67185 1.30099 9.83149 1.34225 9.67185 1.10499C9.67185 1.10499 9.14087 0.764578 8.19184 0.847097C8.19184 0.847112 7.21186 0.950272 7.33564 1.30099Z" fill="white"/>
<path d="M2.62366 2.60529C2.62366 2.92401 2.75027 3.22969 2.97564 3.45506C3.20102 3.68043 3.50669 3.80705 3.82542 3.80705C4.14414 3.80705 4.44981 3.68043 4.67519 3.45506C4.90056 3.22969 5.02717 2.92401 5.02717 2.60529C5.02717 2.28656 4.90056 1.98089 4.67519 1.75552C4.44981 1.53014 4.14414 1.40353 3.82542 1.40353C3.50669 1.40353 3.20102 1.53014 2.97564 1.75552C2.75027 1.98089 2.62366 2.28656 2.62366 2.60529Z" fill="#333333"/>
</svg>
