<svg width="13" height="14" viewBox="0 0 13 14" fill="none" xmlns="http://www.w3.org/2000/svg">
<path d="M7.20397 0.0168463L0.328449 2.79382e-06C0.241725 -0.000355393 0.158408 0.0337408 0.0968171 0.0947952C0.0352257 0.15585 0.000401176 0.238864 0 0.325588V13.6576C0.000176551 13.7005 0.00881363 13.743 0.0254174 13.7826C0.0420212 13.8222 0.0662664 13.8582 0.096768 13.8884C0.12727 13.9186 0.163429 13.9426 0.203182 13.9588C0.242935 13.9751 0.285501 13.9834 0.328449 13.9832L7.20397 14C7.24692 14.0002 7.28948 13.9919 7.32924 13.9757C7.36899 13.9594 7.40515 13.9355 7.43565 13.9053C7.46615 13.875 7.4904 13.8391 7.507 13.7995C7.52361 13.7599 7.53224 13.7174 7.53242 13.6744V0.342432C7.53202 0.255708 7.49719 0.172693 7.4356 0.111639C7.37401 0.0505843 7.29069 0.0164881 7.20397 0.0168463ZM1.3997 1.04161C1.39996 0.988029 1.42149 0.93675 1.45955 0.899039C1.49761 0.861328 1.54908 0.84027 1.60266 0.840494H3.08287C3.1363 0.840493 3.18756 0.86165 3.22543 0.899337C3.26331 0.937024 3.28472 0.988175 3.28499 1.04161V2.52282C3.28472 2.57626 3.26331 2.62741 3.22543 2.66509C3.18756 2.70278 3.1363 2.72394 3.08287 2.72394H1.60266C1.54908 2.72416 1.49761 2.7031 1.45955 2.66539C1.42149 2.62768 1.39996 2.5764 1.3997 2.52282V1.04161ZM1.3997 3.85144C1.39981 3.8249 1.40514 3.79864 1.4154 3.77416C1.42566 3.74968 1.44064 3.72746 1.45949 3.70877C1.47834 3.69008 1.50068 3.67528 1.52525 3.66522C1.54981 3.65517 1.57612 3.65005 1.60266 3.65016H3.08287C3.13633 3.65016 3.18761 3.67134 3.22549 3.70906C3.26337 3.74679 3.28477 3.79798 3.28499 3.85144V5.33283C3.28477 5.38629 3.26337 5.43748 3.22549 5.47521C3.18761 5.51293 3.13633 5.53411 3.08287 5.53411H1.60266C1.57612 5.53422 1.54981 5.5291 1.52525 5.51905C1.50068 5.50899 1.47834 5.49419 1.45949 5.4755C1.44064 5.45681 1.42566 5.43459 1.4154 5.41011C1.40514 5.38563 1.39981 5.35937 1.3997 5.33283V3.85144ZM1.3997 8.14233V6.66111C1.39996 6.60753 1.42149 6.55625 1.45955 6.51854C1.49761 6.48083 1.54908 6.45977 1.60266 6.46H3.08287C3.1363 6.46 3.18756 6.48115 3.22543 6.51884C3.26331 6.55653 3.28472 6.60768 3.28499 6.66111V8.14233C3.28472 8.19576 3.26331 8.24691 3.22543 8.2846C3.18756 8.32228 3.1363 8.34344 3.08287 8.34344H1.60266C1.54908 8.34366 1.49761 8.32261 1.45955 8.28489C1.42149 8.24718 1.39996 8.1959 1.3997 8.14233ZM4.83779 13.9885H2.69463V10.035C2.69485 9.98157 2.71624 9.93038 2.75412 9.89266C2.792 9.85493 2.84329 9.83375 2.89675 9.83375H4.63483C4.66137 9.83364 4.68768 9.83876 4.71224 9.84882C4.73681 9.85887 4.75915 9.87367 4.778 9.89236C4.79685 9.91105 4.81183 9.93327 4.82209 9.95775C4.83235 9.98223 4.83768 10.0085 4.83779 10.035V13.9885ZM6.13373 8.14233C6.13347 8.19576 6.11205 8.24691 6.07418 8.2846C6.0363 8.32228 5.98504 8.34344 5.93161 8.34344H4.45073C4.3973 8.34344 4.34604 8.32228 4.30816 8.2846C4.27029 8.24691 4.24888 8.19576 4.24861 8.14233V6.66111C4.24888 6.60768 4.27029 6.55653 4.30816 6.51884C4.34604 6.48115 4.3973 6.46 4.45073 6.46H5.93094C5.98437 6.46 6.03563 6.48115 6.0735 6.51884C6.11138 6.55653 6.13279 6.60768 6.13306 6.66111L6.13373 8.14233ZM6.13373 5.33249C6.13351 5.38595 6.11212 5.43715 6.07424 5.47487C6.03636 5.51259 5.98507 5.53377 5.93161 5.53377H4.45073C4.39727 5.53377 4.34599 5.51259 4.3081 5.47487C4.27022 5.43715 4.24883 5.38595 4.24861 5.33249V3.85144C4.24883 3.79798 4.27022 3.74679 4.3081 3.70906C4.34599 3.67134 4.39727 3.65016 4.45073 3.65016H5.93094C5.9844 3.65016 6.03568 3.67134 6.07356 3.70906C6.11144 3.74679 6.13284 3.79798 6.13306 3.85144L6.13373 5.33249ZM6.13373 2.52282C6.13347 2.57626 6.11205 2.62741 6.07418 2.66509C6.0363 2.70278 5.98504 2.72394 5.93161 2.72394H4.45073C4.3973 2.72394 4.34604 2.70278 4.30816 2.66509C4.27029 2.62741 4.24888 2.57626 4.24861 2.52282V1.04161C4.24888 0.988175 4.27029 0.937024 4.30816 0.899337C4.34604 0.86165 4.3973 0.840493 4.45073 0.840494H5.93094C5.98437 0.840493 6.03563 0.86165 6.0735 0.899337C6.11138 0.937024 6.13279 0.988175 6.13306 1.04161L6.13373 2.52282ZM12.8984 3.57521C12.8981 3.49819 12.8672 3.42445 12.8126 3.37015C12.758 3.31585 12.6841 3.28541 12.607 3.2855L8.21088 1.94577C8.16793 1.94557 8.12536 1.95383 8.08561 1.97009C8.04586 1.98634 8.0097 2.01027 7.9792 2.04051C7.94869 2.07074 7.92445 2.10669 7.90785 2.1463C7.89124 2.18591 7.8826 2.2284 7.88243 2.27135V13.6407C7.8826 13.6837 7.89124 13.7262 7.90785 13.7658C7.92445 13.8054 7.94869 13.8413 7.9792 13.8716C8.0097 13.9018 8.04586 13.9257 8.08561 13.942C8.12536 13.9582 8.16793 13.9665 8.21088 13.9663L12.6144 13.982C12.6529 13.9824 12.6911 13.9752 12.7268 13.9608C12.7625 13.9464 12.795 13.9251 12.8224 13.8981C12.8498 13.871 12.8715 13.8388 12.8864 13.8033C12.9013 13.7678 12.909 13.7297 12.909 13.6913L12.8984 3.57521ZM12.0114 9.43052C12.0113 9.4567 12.0007 9.48174 11.9821 9.50018C11.9636 9.51861 11.9384 9.52893 11.9122 9.52888H8.88041C8.85423 9.52893 8.82909 9.51861 8.8105 9.50018C8.79191 9.48174 8.78137 9.4567 8.7812 9.43052V8.91292C8.78137 8.88674 8.79191 8.86169 8.8105 8.84326C8.82909 8.82483 8.85423 8.81451 8.88041 8.81455H11.9122C11.9384 8.81451 11.9636 8.82483 11.9821 8.84326C12.0007 8.86169 12.0113 8.88674 12.0114 8.91292V9.43052ZM12.0114 7.41368C12.0113 7.43986 12.0007 7.4649 11.9821 7.48333C11.9636 7.50177 11.9384 7.51209 11.9122 7.51204H8.88041C8.85423 7.51209 8.82909 7.50177 8.8105 7.48333C8.79191 7.4649 8.78137 7.43986 8.7812 7.41368V6.89608C8.78137 6.8699 8.79191 6.84485 8.8105 6.82642C8.82909 6.80799 8.85423 6.79766 8.88041 6.79771H11.9122C11.9384 6.79766 11.9636 6.80799 11.9821 6.82642C12.0007 6.84485 12.0113 6.8699 12.0114 6.89608V7.41368ZM12.0114 5.39683C12.0113 5.42301 12.0007 5.44806 11.9821 5.46649C11.9636 5.48492 11.9384 5.49525 11.9122 5.4952H8.88041C8.85423 5.49525 8.82909 5.48492 8.8105 5.46649C8.79191 5.44806 8.78137 5.42301 8.7812 5.39683V4.87923C8.78137 4.85305 8.79191 4.82801 8.8105 4.80958C8.82909 4.79114 8.85423 4.78082 8.88041 4.78087H11.9122C11.9384 4.78082 11.9636 4.79114 11.9821 4.80958C12.0007 4.82801 12.0113 4.85305 12.0114 4.87923V5.39683Z" fill="#323333"/>
</svg>
