<svg width="14" height="15" viewBox="0 0 14 15" fill="none" xmlns="http://www.w3.org/2000/svg">
<path d="M8.84409 11.6566C8.76024 11.9438 8.69735 12.2551 8.59253 12.5193C8.59253 12.3757 8.69734 12.2436 8.73927 12.1115C8.74445 12.0638 8.74445 12.0156 8.73927 11.9679C8.76023 11.8725 8.81264 11.7698 8.84409 11.6566ZM8.84409 11.6566V11.4711C8.87553 11.5308 8.85457 11.5969 8.84409 11.6566Z" fill="currentColor"/>
<path d="M6.66286 6.6202C5.78497 6.6202 4.94303 6.27145 4.32227 5.65069C3.7015 5.02993 3.35276 4.18799 3.35276 3.3101C3.35276 2.43221 3.7015 1.59027 4.32227 0.969505C4.94303 0.348741 5.78497 0 6.66286 0C7.54075 0 8.38269 0.348741 9.00345 0.969505C9.62421 1.59027 9.97296 2.43221 9.97296 3.3101C9.97296 4.18799 9.62421 5.02993 9.00345 5.65069C8.38269 6.27145 7.54075 6.6202 6.66286 6.6202Z" fill="currentColor"/>
<path d="M7.81165 10.6451C8.06674 9.94201 8.52952 9.33301 9.13862 8.8989C9.53301 8.62145 9.97925 8.4263 10.4507 8.32509C10.9222 8.22388 11.4092 8.21869 11.8827 8.30983C11.1625 7.46353 10.2494 6.80279 9.22038 6.38331C8.59987 6.9598 7.80641 7.31617 6.96368 7.39583H6.9532C6.92807 7.39818 6.90291 7.40028 6.87773 7.40212L6.86201 7.40317C6.83862 7.40482 6.81521 7.40622 6.79178 7.40736L6.77292 7.40841L6.70269 7.41051H6.68487C6.62688 7.41182 6.56887 7.41182 6.51088 7.41051H6.49306L6.42283 7.40841H6.40396C6.38054 7.40691 6.35713 7.40517 6.33374 7.40317H6.31801C6.29284 7.40097 6.26768 7.39852 6.24255 7.39583H6.23207C5.38882 7.31619 4.59549 6.96025 3.97537 6.38331C2.27106 7.07824 0.959806 9.04774 0.0395194 12.2908C-0.0044858 12.4464 -0.0118559 12.6102 0.017986 12.7692C0.047828 12.9282 0.114072 13.0781 0.211531 13.2073C0.308989 13.3364 0.435017 13.4412 0.579746 13.5135C0.724474 13.5858 0.883974 13.6236 1.04576 13.624L4.28353 13.6345V13.6471L6.59787 13.6408L8.08941 13.645C7.57581 12.7457 7.45317 11.6304 7.81165 10.6451Z" fill="currentColor"/>
<path d="M11.2045 9.04984C10.8374 9.04984 10.4739 9.12214 10.1348 9.26263C9.79562 9.40311 9.48745 9.60902 9.22787 9.8686C8.96829 10.1282 8.76238 10.4364 8.62189 10.7755C8.48141 11.1147 8.4091 11.4782 8.4091 11.8453C8.4091 12.2124 8.48141 12.5759 8.62189 12.9151C8.76238 13.2542 8.96829 13.5624 9.22787 13.822C9.48745 14.0815 9.79562 14.2875 10.1348 14.4279C10.4739 14.5684 10.8374 14.6407 11.2045 14.6407C11.9459 14.6407 12.657 14.3462 13.1812 13.822C13.7055 13.2977 14 12.5867 14 11.8453C14 11.1039 13.7055 10.3929 13.1812 9.8686C12.657 9.34436 11.9459 9.04984 11.2045 9.04984ZM13.065 11.2374L12.8606 11.4606L11.4414 13.0182C11.2915 13.1838 11.04 13.1534 10.8859 13.0182L10.7392 12.8903L9.72245 11.9983C9.55684 11.8537 9.58619 11.5906 9.72245 11.4428C9.87233 11.2782 10.1239 11.3065 10.278 11.4428L10.4247 11.5707L11.1333 12.1912L12.5095 10.6818C12.6563 10.5194 12.9141 10.5424 13.065 10.6818C13.2265 10.8286 13.2034 11.0854 13.065 11.2374Z" fill="currentColor"/>
</svg>
