<svg width="12" height="14" viewBox="0 0 12 14" fill="none" xmlns="http://www.w3.org/2000/svg">
<path d="M0.60006 1.44704L6.15966 0.0155232C6.31185 -0.0211823 6.46405 0.00634687 6.58938 0.107287C6.70577 0.208227 6.77739 0.355049 6.76844 0.511048V13.4956C6.76844 13.6424 6.70577 13.7893 6.59834 13.881C6.4909 13.982 6.33871 14.0187 6.19547 13.9912L0.635871 12.9359C0.268812 12.8625 0.00918497 12.5413 0.00023232 12.1559V2.22703C-0.00872033 1.8508 0.241954 1.52963 0.60006 1.44704ZM8.07552 12.7799H10.3226C10.5554 12.7799 10.7792 12.6881 10.9404 12.5138C11.1015 12.3394 11.2 12.1192 11.2 11.8806V2.09856C11.2 1.85998 11.1105 1.63057 10.9404 1.46539C10.7792 1.30022 10.5554 1.19928 10.3226 1.19928H8.07552V12.7799ZM4.76304 5.92511C4.43179 5.92511 4.1274 6.39311 4.1274 6.9804C4.1274 7.57686 4.39598 8.03568 4.76304 8.03568C5.1301 8.03568 5.39868 7.56769 5.39868 6.9804C5.39868 6.39311 5.09429 5.92511 4.76304 5.92511Z" fill="currentColor"/>
</svg>
