<svg width="14" height="12" viewBox="0 0 14 12" fill="none" xmlns="http://www.w3.org/2000/svg">
<path d="M12.4513 2.9995C12.6592 3.02294 12.8592 3.07609 13.0671 3.16049C13.275 3.2449 13.4516 3.36838 13.597 3.52156C13.7502 3.67474 13.858 3.87481 13.9346 4.11395C14.0112 4.3531 14.019 4.62976 13.9659 4.95957V4.9752C13.9424 5.06742 13.9049 5.2753 13.8346 5.60511C13.7736 5.94273 13.6955 6.33505 13.6111 6.77427C13.5267 7.21192 13.4266 7.66677 13.3188 8.13569C13.2109 8.6046 13.1109 9.00475 13.0108 9.33611C12.9577 9.52837 12.8796 9.72844 12.7795 9.93633C12.6795 10.1442 12.5482 10.3287 12.3872 10.4896C12.2262 10.6585 12.0339 10.7976 11.8026 10.9054C11.5791 11.0133 11.3102 11.0664 10.9945 11.0664H2.06167C1.83815 11.0664 1.60057 11.0195 1.36142 10.921C1.12227 10.821 0.892503 10.6897 0.692432 10.5053C0.492362 10.3208 0.323552 10.1129 0.192255 9.85973C0.0609591 9.60652 0 9.32205 0 9.01412V2.09136C0 1.43801 0.176625 0.922201 0.529875 0.55332C0.883125 0.18444 1.38486 0 2.03041 0H9.96602C10.2052 0 10.4506 0.0468915 10.696 0.139112C10.9492 0.231332 11.1805 0.354813 11.3806 0.515807C11.5885 0.676802 11.7495 0.861242 11.8808 1.07694C12.0121 1.29264 12.073 1.52241 12.073 1.76938C12.073 1.86941 11.9964 1.946 11.8964 1.946H11.2368C10.8054 1.946 10.3068 1.946 9.73 1.93819C9.15324 1.93037 8.53739 1.93037 7.89185 1.93037C7.24631 1.93037 6.63047 1.93037 6.06933 1.92255C5.5082 1.91474 5.01584 1.91474 4.60788 1.91474H3.8623C3.58564 1.91474 3.36213 2.00696 3.20895 2.18358C3.05577 2.36021 2.93229 2.59936 2.84788 2.88383C2.76348 3.19957 2.66344 3.52937 2.55559 3.87637C2.44774 4.22337 2.3477 4.55317 2.2633 4.85328C2.15545 5.20653 2.0476 5.54571 1.93975 5.87551C1.93975 5.88333 1.93975 5.88333 1.93193 5.89115C1.90849 5.97555 1.90067 6.04432 1.90067 6.09122C1.90067 6.27566 1.96163 6.42883 2.08511 6.55232C2.20859 6.6758 2.36177 6.73676 2.54621 6.73676C2.87758 6.73676 3.10735 6.52887 3.22301 6.10685L4.04518 3.10735C4.06863 3.03076 4.1374 2.97605 4.2218 2.97605C5.56759 2.98387 6.79771 2.99168 7.9278 2.99168L12.4513 2.9995Z" fill="currentColor"/>
</svg>
