<svg width="13" height="14" viewBox="0 0 13 14" fill="none" xmlns="http://www.w3.org/2000/svg">
<path d="M10.0521 13.9604H1.6727C0.776894 13.9604 0.0396347 13.2231 0.0396347 12.3273V1.67271C0.0396347 0.776898 0.776894 0.0396385 1.6727 0.0396385H10.0521C10.9479 0.0396385 11.6852 0.776898 11.6852 1.67271V12.3273C11.6852 13.2231 10.9479 13.9604 10.0521 13.9604Z" fill="currentColor"/>
<path d="M10.0521 14H1.67271C0.753114 14 0 13.2469 0 12.3273V1.67271C0 0.753114 0.753114 0 1.67271 0H10.0521C10.9717 0 11.7248 0.753114 11.7248 1.67271V12.3352C11.7248 13.2548 10.9717 14 10.0521 14ZM1.67271 0.0792752C0.792752 0.0792752 0.0792752 0.792752 0.0792752 1.67271V12.3352C0.0792752 13.2152 0.792752 13.9287 1.67271 13.9287H10.0521C10.932 13.9287 11.6455 13.2152 11.6455 12.3352V1.67271C11.6455 0.792752 10.932 0.0792752 10.0521 0.0792752H1.67271Z" fill="currentColor"/>
<path d="M4.01133 4.52661H1.67271C1.4983 4.52661 1.35561 4.38392 1.35561 4.20951C1.35561 4.03511 1.4983 3.89241 1.67271 3.89241H4.0034C4.1778 3.89241 4.3205 4.03511 4.3205 4.20951C4.32843 4.38392 4.18573 4.52661 4.01133 4.52661ZM4.01133 7H1.67271C1.4983 7 1.35561 6.8573 1.35561 6.6829C1.35561 6.50849 1.4983 6.3658 1.67271 6.3658H4.0034C4.1778 6.3658 4.3205 6.50849 4.3205 6.6829C4.32843 6.8573 4.18573 7 4.01133 7ZM4.01133 9.47338H1.67271C1.4983 9.47338 1.35561 9.33069 1.35561 9.15628C1.35561 8.98188 1.4983 8.83918 1.67271 8.83918H4.0034C4.1778 8.83918 4.3205 8.98188 4.3205 9.15628C4.32843 9.33069 4.18573 9.47338 4.01133 9.47338ZM5.61268 12.4383H1.64892C1.55379 12.4383 1.48245 12.359 1.48245 12.2718C1.48245 12.1767 1.56172 12.1053 1.64892 12.1053H5.61268C5.70781 12.1053 5.77916 12.1846 5.77916 12.2718C5.77916 12.359 5.70781 12.4383 5.61268 12.4383Z" fill="#FFFDFD"/>
<path d="M6.17554 12.2639C6.17554 12.3059 6.19224 12.3463 6.22198 12.376C6.25171 12.4057 6.29204 12.4224 6.33409 12.4224C6.37614 12.4224 6.41647 12.4057 6.4462 12.376C6.47593 12.3463 6.49264 12.3059 6.49264 12.2639C6.49264 12.2218 6.47593 12.1815 6.4462 12.1518C6.41647 12.122 6.37614 12.1053 6.33409 12.1053C6.29204 12.1053 6.25171 12.122 6.22198 12.1518C6.19224 12.1815 6.17554 12.2218 6.17554 12.2639Z" fill="#FFFDFD"/>
<path d="M8.71235 2.40204C6.46886 2.40204 4.65346 4.21744 4.65346 6.46093C4.65346 8.70442 6.46886 10.5198 8.71235 10.5198C10.9558 10.5198 12.7712 8.70442 12.7712 6.46093C12.7712 4.21744 10.9558 2.40204 8.71235 2.40204ZM8.71235 9.51302C7.03171 9.51302 5.66025 8.14949 5.66025 6.46093C5.66025 4.77237 7.02379 3.40883 8.71235 3.40883C10.4009 3.40883 11.7644 4.77237 11.7644 6.46093C11.7644 8.14949 10.393 9.51302 8.71235 9.51302Z" fill="#FCFCFC"/>
<path d="M7.03964 6.01699C7.04756 5.81087 7.21404 5.64439 7.42016 5.64439C7.62627 5.64439 7.80068 5.81087 7.80068 6.01699H8.35561C8.34768 5.5017 7.93545 5.08947 7.42016 5.08947C6.90487 5.08947 6.49264 5.5017 6.48471 6.01699H7.03964ZM9.6795 6.01699C9.68743 5.81087 9.85391 5.64439 10.06 5.64439C10.2661 5.64439 10.4405 5.81087 10.4405 6.01699H10.9955C10.9875 5.5017 10.5753 5.08947 10.06 5.08947C9.54473 5.08947 9.1325 5.5017 9.12457 6.01699H9.6795ZM9.30691 7.19819C9.29898 7.47565 9.07701 7.69762 8.79162 7.69762C8.51416 7.69762 8.28426 7.47565 8.27633 7.19819H7.53907C7.547 7.87995 8.10192 8.43488 8.79162 8.43488C9.48131 8.43488 10.0362 7.87995 10.0442 7.19819H9.30691Z" fill="#FCFCFC"/>
</svg>
