<svg width="16" height="14" viewBox="0 0 16 14" fill="none" xmlns="http://www.w3.org/2000/svg">
<path d="M9.60053 7.07764C9.58194 7.00329 9.35115 6.90726 9.27835 6.92584L9.23343 6.93824L9.01812 6.6904L9.01502 6.6873L9.00418 6.67491L8.96545 6.63464C8.91124 6.57887 8.85238 6.53086 8.78732 6.48748C8.66186 6.41313 7.686 6.62379 7.56054 6.82051C7.50632 6.90571 7.48309 7.00484 7.47224 7.05286L7.3948 7.43855L7.34988 7.45094C7.27862 7.46953 7.12682 7.6709 7.14541 7.7437C7.164 7.8165 7.2368 7.85987 7.30805 7.84129C7.3096 7.84129 7.31115 7.83974 7.3127 7.83974L7.60546 7.76074C7.67516 8.14334 8.00819 8.4237 8.39698 8.42525C8.84463 8.4237 9.20554 8.05814 9.20245 7.61204C9.20245 7.56402 9.1978 7.51755 9.19005 7.47263C9.18231 7.42771 9.16992 7.38279 9.15598 7.33942L9.5014 7.24493C9.57575 7.22944 9.62067 7.15354 9.60053 7.07764C9.60053 7.07919 9.60053 7.07919 9.60053 7.07764Z" fill="currentColor"/>
<path d="M15.2403 6.5417L8.39078 0.263713C8.00664 -0.0879042 7.41648 -0.0879042 7.03233 0.263713L0.185877 6.5417C0.0681548 6.65013 0 6.80347 0 6.96302C0 7.28056 0.25558 7.53769 0.57312 7.53769H1.25002V12.5641C1.25002 13.3572 1.89284 14 2.68592 14H12.7372C13.5303 14 14.1731 13.3572 14.1731 12.5641V7.53924H14.8515C15.0126 7.53924 15.166 7.47108 15.2744 7.35336C15.4897 7.11946 15.4742 6.75546 15.2403 6.5417ZM9.04755 11.9523C8.6696 12.2326 8.34431 12.4479 8.13056 12.5827V9.73878L8.24983 9.8596C8.26842 9.87973 8.29165 9.89677 8.31488 9.91226C8.32573 10.03 8.42486 10.1214 8.54258 10.1229C8.65256 10.1229 8.74705 10.0439 8.76873 9.9355H8.77338V9.88748C8.77338 9.81003 8.83689 9.74807 8.91124 9.74807C8.98869 9.74807 9.0491 9.81158 9.0491 9.88748V11.9523H9.04755ZM9.4162 11.6703V9.88903C9.4224 9.61176 9.2009 9.38251 8.92363 9.37632C8.85393 9.37477 8.78422 9.38871 8.71917 9.41504L8.70832 9.4011L7.4645 8.14488C7.3824 8.06124 7.26158 8.03026 7.15006 8.06279L7.14851 8.06124L7.13921 8.06589C7.09739 8.07828 7.05867 8.09996 7.02459 8.12939C6.26095 8.59564 5.73739 9.71864 5.73739 10.648C5.73739 10.7022 5.7343 11.091 5.7312 11.5371C4.49976 10.5737 3.11498 9.07117 3.11498 7.17523C3.11498 5.93915 4.00254 4.6597 5.48956 4.6597C6.46851 4.6597 7.31889 5.16001 7.73402 5.88648C8.14914 5.15847 8.99953 4.6597 9.97848 4.6597C11.4655 4.6597 12.3531 5.93915 12.3531 7.17523C12.3546 8.98443 10.7142 10.6418 9.4162 11.6703Z" fill="currentColor"/>
</svg>
