<svg width="13" height="14" viewBox="0 0 13 14" fill="none" xmlns="http://www.w3.org/2000/svg">
<path d="M3.89261 9.06405C3.8006 8.9658 3.64621 8.9658 3.54795 9.06405C3.4497 9.15607 3.4497 9.31046 3.54795 9.40871L5.10126 10.962C5.19327 11.0603 5.34766 11.0603 5.44592 10.962C5.53793 10.8638 5.53793 10.7094 5.44592 10.6174L3.89261 9.06405Z" fill="currentColor"/>
<path d="M11.55 0H1.04957C0.472541 0 0 0.472541 0 1.04957V12.9504C0 13.5275 0.472541 14 1.04957 14H11.5515C12.1286 14 12.6011 13.5275 12.6011 12.9504V1.05113C12.6011 0.472541 12.1286 0 11.55 0ZM4.54918 2.14437H8.05035C8.33887 2.14437 8.57592 2.37986 8.57592 2.66993C8.57592 2.95845 8.33887 3.1955 8.05035 3.1955H4.54918C4.26067 3.1955 4.02362 2.95845 4.02362 2.66993C4.02518 2.38142 4.26067 2.14437 4.54918 2.14437ZM5.65022 11.3519C5.53169 11.4704 5.36794 11.5422 5.19327 11.5422L3.47622 11.5515C3.13624 11.5515 2.96157 11.3769 2.96157 11.0369V9.33697C2.96157 9.16698 3.02863 9.00323 3.15183 8.88003L5.89195 6.129L8.37941 8.61646L5.65022 11.3519ZM9.33697 7.65579L8.75682 8.24217L6.2678 5.75315L6.85418 5.16676C7.25031 4.77531 7.88816 4.77531 8.27804 5.16676L9.34165 6.2366C9.73777 6.62649 9.73777 7.26434 9.33697 7.65579Z" fill="currentColor"/>
</svg>
