<svg width="12" height="14" viewBox="0 0 12 14" fill="none" xmlns="http://www.w3.org/2000/svg">
<path d="M11.0177 1.92074H9.77394V0.884314C9.77394 0.395992 9.36206 7.00004e-05 8.85385 7.00004e-05C8.34579 7.00004e-05 7.93377 0.395992 7.93377 0.884314V1.92074H4.34555V0.884245C4.34555 0.395922 3.93367 0 3.42547 0C2.91726 0 2.50538 0.395922 2.50538 0.884245V1.92074H0.895305C0.400892 1.92074 0 2.35215 0 2.88436V13.0293C0 13.5614 0.400892 13.9929 0.895305 13.9929H5.4517C5.04969 13.588 4.73412 13.1169 4.50543 12.5786C4.27471 12.036 4.15935 11.4524 4.15935 10.8281C4.15935 10.2038 4.27478 9.62015 4.50543 9.0773C4.73615 8.53451 5.05501 8.05949 5.4622 7.65237C5.86932 7.24518 6.34427 6.92619 6.88713 6.69539C7.42998 6.46467 8.01357 6.34952 8.6379 6.34952C9.26217 6.34952 9.84583 6.46467 10.3886 6.69539C10.9315 6.92619 11.4065 7.24511 11.8136 7.65237C11.8476 7.68639 11.8802 7.72167 11.913 7.75667V2.88436C11.913 2.35215 11.5121 1.92074 11.0177 1.92074ZM3.69966 7.9568H2.14215C1.78543 7.9568 1.49619 7.64474 1.49619 7.25967C1.49619 6.87459 1.78536 6.56232 2.14215 6.56232H3.69959C4.05631 6.56232 4.34555 6.87452 4.34555 7.25967C4.34555 7.64481 4.05638 7.9568 3.69966 7.9568ZM7.62759 5.35545H4.46231C4.03524 5.35545 3.68888 5.00916 3.68888 4.58201C3.68888 4.15487 4.03517 3.80858 4.46231 3.80858H7.62759C8.05466 3.80858 8.40095 4.15487 8.40095 4.58201C8.40095 5.00916 8.05466 5.35545 7.62759 5.35545Z" fill="currentColor"/>
<path d="M10.9401 8.4237C10.6435 8.12711 10.2975 7.89464 9.90196 7.72657C9.50646 7.5585 9.08128 7.47457 8.62649 7.47457C8.17169 7.47457 7.74658 7.5585 7.35101 7.72657C6.95544 7.89464 6.6095 8.12711 6.3129 8.4237C6.01624 8.72029 5.78391 9.06631 5.61591 9.46181C5.44784 9.85731 5.36377 10.2825 5.36377 10.7373C5.36377 11.1921 5.44784 11.6172 5.61591 12.0126C5.78391 12.4083 6.01624 12.7542 6.3129 13.0509C6.6095 13.3473 6.95551 13.5798 7.35101 13.7479C7.74651 13.9159 8.17169 14 8.62649 14C9.08128 14 9.50639 13.9159 9.90196 13.7479C10.2975 13.5798 10.6435 13.3473 10.9401 13.0509C11.2367 12.7543 11.469 12.4083 11.6372 12.0126C11.8051 11.6173 11.8892 11.1921 11.8892 10.7373C11.8892 10.2825 11.8051 9.85738 11.6372 9.46181C11.469 9.06631 11.2367 8.72029 10.9401 8.4237ZM10.2992 12.6489H6.9539C6.89053 12.6489 6.82977 12.6237 6.78496 12.5789C6.74016 12.5341 6.71499 12.4733 6.71499 12.4099C6.71499 12.3466 6.74016 12.2858 6.78496 12.241C6.82977 12.1962 6.89053 12.171 6.9539 12.171C6.95422 11.8362 7.05505 11.5091 7.24334 11.2322C7.43163 10.9553 7.6987 10.7413 8.00999 10.6179C7.73691 10.5092 7.49727 10.3305 7.31522 10.0998C7.13316 9.86909 7.0151 9.59447 6.97294 9.30361H6.95383C6.89046 9.30361 6.8297 9.27844 6.78489 9.23363C6.74009 9.18883 6.71492 9.12806 6.71492 9.0647C6.71492 9.00133 6.74009 8.94056 6.78489 8.89576C6.8297 8.85095 6.89046 8.82578 6.95383 8.82578H10.2991C10.3624 8.82578 10.4232 8.85095 10.468 8.89576C10.5128 8.94056 10.538 9.00133 10.538 9.0647C10.538 9.12806 10.5128 9.18883 10.468 9.23363C10.4232 9.27844 10.3624 9.30361 10.2991 9.30361H10.2799C10.2377 9.59445 10.1197 9.86905 9.93761 10.0998C9.75557 10.3305 9.51596 10.5092 9.24291 10.6179C9.5542 10.7413 9.82128 10.9553 10.0096 11.2322C10.1979 11.5091 10.2988 11.8362 10.2991 12.171C10.3625 12.171 10.4233 12.1962 10.4681 12.241C10.5129 12.2858 10.5381 12.3465 10.5381 12.4099C10.5381 12.4733 10.5129 12.534 10.4681 12.5789C10.4233 12.6237 10.3626 12.6488 10.2992 12.6489Z" fill="currentColor"/>
<path d="M8.62649 11.1516C8.04996 11.1516 7.58264 11.6189 7.58264 12.1954H9.6704C9.67033 11.6189 9.20301 11.1516 8.62649 11.1516Z" fill="currentColor"/>
</svg>
