<svg width="14" height="16" viewBox="0 0 14 16" fill="none" xmlns="http://www.w3.org/2000/svg">
<path d="M10.8966 6.92769H10.6081C8.08222 6.92769 5.98985 9.02062 5.98985 11.546C5.98985 12.701 6.42283 13.7834 7.14428 14.5768H1.15452C1.00238 14.5788 0.851378 14.5503 0.710429 14.493C0.56948 14.4356 0.441434 14.3507 0.333842 14.2431C0.22625 14.1355 0.141289 14.0075 0.083969 13.8665C0.0266492 13.7256 -0.00186939 13.5746 9.4999e-05 13.4224V1.15443C9.4999e-05 0.504957 0.505052 0 1.15452 0H9.74217C10.3916 0 10.8966 0.504957 10.8966 1.15443V6.92769ZM8.80423 5.48424C8.80423 5.1238 8.5152 4.9073 8.15476 4.9073H2.09302C1.80399 4.9073 1.51553 5.19577 1.51553 5.48424C1.51553 5.77327 1.80399 6.06173 2.09302 6.06173H8.22673C8.5152 6.06173 8.80423 5.77327 8.80423 5.48424ZM1.51553 2.66986C1.51553 2.95889 1.80399 3.24736 2.09302 3.24736H8.15476C8.44322 3.24736 8.73169 2.95889 8.73169 2.66986C8.73169 2.3814 8.44322 2.09293 8.15476 2.09293H2.09302C1.80399 2.09293 1.51553 2.3814 1.51553 2.66986ZM5.19587 8.29861C5.19587 7.93817 4.9074 7.72168 4.5464 7.72168H2.09302C1.80399 7.72168 1.51553 8.01015 1.51553 8.29861C1.51553 8.58764 1.80399 8.87611 2.09302 8.87611H4.61837C4.9074 8.87611 5.19587 8.58764 5.19587 8.29861ZM10.3197 7.72168C12.412 7.72168 14 9.38107 14 11.402C14 13.4224 12.3401 15.0824 10.3197 15.0824C8.29871 15.0824 6.63932 13.4224 6.63932 11.402C6.63932 9.38107 8.29871 7.72168 10.3197 7.72168ZM9.52568 9.52558C9.41019 9.6381 9.31867 9.77283 9.25663 9.92165C9.19459 10.0705 9.16331 10.2303 9.16467 10.3915C9.16467 10.7525 9.30919 11.041 9.52568 11.2575C9.81414 11.474 10.0306 11.6185 10.3916 11.6185C10.7526 11.6185 11.0411 11.474 11.2576 11.2575C11.4741 10.969 11.6186 10.7525 11.6186 10.3915C11.6186 10.0305 11.4741 9.74207 11.2576 9.52558C10.9691 9.30909 10.7526 9.16458 10.3916 9.16458C10.0306 9.16458 9.74217 9.30909 9.52568 9.52558ZM12.3401 13.5669V12.8449C12.3401 12.268 11.8351 11.7625 11.2576 11.7625H9.4537C8.8762 11.7625 8.37125 12.268 8.37125 12.8449V13.5669C8.37125 13.7109 8.44322 13.7834 8.58774 13.7834H12.1236C12.2681 13.7834 12.3401 13.7109 12.3401 13.5669Z" fill="currentColor"/>
</svg>
