<svg width="14" height="14" viewBox="0 0 14 14" fill="none" xmlns="http://www.w3.org/2000/svg">
<path d="M11.4942 8.84784C11.8441 8.58941 12.1283 8.25236 12.324 7.86388C12.5196 7.4754 12.6212 7.04636 12.6206 6.61139C12.6374 6.25555 12.5837 5.89989 12.4627 5.56485C12.3416 5.22981 12.1556 4.92199 11.9152 4.65907C11.6748 4.39616 11.3849 4.18333 11.062 4.03282C10.7391 3.8823 10.3896 3.79707 10.0337 3.78202C9.67781 3.76696 9.32242 3.82238 8.98798 3.9451C8.65354 4.06781 8.34665 4.25539 8.08493 4.49707C7.8232 4.73875 7.61181 5.02976 7.4629 5.35338C7.31399 5.677 7.23049 6.02686 7.2172 6.38285V6.61139C7.21813 7.04695 7.32127 7.4762 7.51832 7.86463C7.71537 8.25306 8.00083 8.58983 8.35174 8.84784C7.65575 9.20674 7.06446 9.73963 6.63538 10.3947C6.2063 11.0498 5.95402 11.8047 5.90308 12.5861C5.90308 12.8392 6.03368 13.0432 6.27854 13.0432H13.6245C13.8694 13.0432 14 12.8392 14 12.5861C13.9459 11.8055 13.6924 11.0519 13.2637 10.3973C12.8349 9.74278 12.2453 9.20926 11.5513 8.84784H11.4942Z" fill="currentColor"/>
<path d="M7.09477 8.61114C6.77139 8.20775 6.53307 7.74304 6.39419 7.24504C6.25531 6.74704 6.21875 6.22607 6.28671 5.71355C6.42945 4.7679 6.9362 3.91551 7.69877 3.33835C8.18003 3.00462 8.73398 2.79054 9.31459 2.71388C9.8952 2.63722 10.4857 2.7002 11.0371 2.89759C11.4813 3.05947 11.8714 3.34216 12.1635 3.71381C12.2826 3.71381 12.3967 3.66651 12.4809 3.58232C12.5651 3.49813 12.6124 3.38395 12.6124 3.26489V2.44866C12.6368 1.82564 12.4135 1.21833 11.9913 0.759477C11.5692 0.300628 10.9825 0.0275712 10.3597 0L2.25457 0C1.63169 0.0275712 1.04505 0.300628 0.622909 0.759477C0.200767 1.21833 -0.0225413 1.82564 0.00180024 2.44866V10.415C-0.0225413 11.038 0.200767 11.6453 0.622909 12.1042C1.04505 12.563 1.63169 12.8361 2.25457 12.8637H4.08291C4.13549 12.8705 4.18891 12.8668 4.24006 12.8528C4.2912 12.8388 4.33906 12.8148 4.38083 12.7821C4.4226 12.7495 4.45747 12.7088 4.48339 12.6626C4.50931 12.6163 4.52578 12.5654 4.53183 12.5127V12.4637C4.54492 12.1055 4.62811 11.7533 4.7767 11.4271C5.0145 10.8683 5.33055 10.3461 5.71535 9.87628C6.10852 9.38722 6.57362 8.96066 7.09477 8.61114ZM3.16058 1.96709H6.42546C6.50259 1.97036 6.57607 2.00084 6.63285 2.05314C6.68963 2.10544 6.72605 2.17617 6.73563 2.25277C6.75236 2.34579 6.73176 2.44165 6.67828 2.51958C6.6248 2.5975 6.54276 2.65121 6.44995 2.66904H3.18506C3.10222 2.67617 3.01978 2.65143 2.95456 2.59986C2.88934 2.54829 2.84625 2.47378 2.83409 2.39153V2.34256C2.82959 2.25511 2.85955 2.16938 2.91753 2.10376C2.97552 2.03815 3.05691 1.99787 3.14425 1.99158L3.16058 1.96709ZM1.91992 1.88547C1.99814 1.88367 2.07543 1.90272 2.14385 1.94067C2.21227 1.97862 2.26936 2.0341 2.30925 2.10141C2.34913 2.16872 2.37039 2.24544 2.37082 2.32368C2.37125 2.40192 2.35085 2.47886 2.31171 2.54661C2.27154 2.61454 2.21417 2.67068 2.14538 2.70937C2.0766 2.74806 1.99883 2.76794 1.91992 2.76699C1.80302 2.76699 1.69091 2.72055 1.60826 2.6379C1.5256 2.55524 1.47916 2.44313 1.47916 2.32623C1.47916 2.20933 1.5256 2.09723 1.60826 2.01457C1.69091 1.93191 1.80302 1.88547 1.91992 1.88547ZM4.49102 8.30097H1.78933C1.68109 8.31288 1.57255 8.2813 1.4876 8.21318C1.40264 8.14507 1.34823 8.04599 1.33632 7.93775C1.32442 7.82952 1.35599 7.72098 1.42411 7.63603C1.49223 7.55107 1.5913 7.49666 1.69954 7.48475C1.72888 7.47636 1.75999 7.47636 1.78933 7.48475H4.49102C4.59926 7.47284 4.70779 7.50442 4.79274 7.57254C4.8777 7.64066 4.93212 7.73973 4.94402 7.84797C4.95593 7.95621 4.92435 8.06474 4.85623 8.1497C4.78812 8.23465 4.68904 8.28907 4.5808 8.30097H4.49102ZM5.39702 6.07269H1.78933C1.5363 6.07269 1.33224 5.94209 1.34857 5.6809C1.34857 5.57483 1.3907 5.4731 1.46571 5.39809C1.54071 5.32309 1.64244 5.28095 1.74851 5.28095H5.39702C5.44959 5.27531 5.50276 5.28015 5.55345 5.29519C5.60414 5.31023 5.65134 5.33517 5.69233 5.36856C5.73332 5.40196 5.76728 5.44316 5.79225 5.48976C5.81721 5.53637 5.83269 5.58746 5.83778 5.64009V5.71355C5.83781 5.81822 5.79679 5.91873 5.72354 5.99351C5.65029 6.06828 5.55065 6.11136 5.446 6.1135L5.39702 6.07269Z" fill="currentColor"/>
</svg>
