<svg width="14" height="13" viewBox="0 0 14 13" fill="none" xmlns="http://www.w3.org/2000/svg">
<path d="M9.01118 0.281741L12.9712 4.16379C13.0621 4.25216 13.1343 4.35785 13.1836 4.47462C13.2329 4.59139 13.2584 4.71686 13.2584 4.84362C13.2584 4.97038 13.2329 5.09585 13.1836 5.21262C13.1343 5.32939 13.0621 5.43508 12.9712 5.52345L8.42629 9.97749H12.4425C12.6969 9.97339 12.9348 10.1041 13.0673 10.3209L13.9798 12.3797C14.0642 12.5708 13.8766 12.7232 13.5619 12.7232H0.438315C0.120085 12.7232 -0.0639372 12.569 0.0204552 12.3797L0.932948 10.325C1.06598 10.1082 1.30334 9.97808 1.55769 9.98218H5.04239L2.08162 7.07767C1.99074 6.9893 1.91851 6.88361 1.86918 6.76684C1.81985 6.65008 1.79444 6.5246 1.79444 6.39785C1.79444 6.27109 1.81985 6.14561 1.86918 6.02885C1.91851 5.91208 1.99074 5.80639 2.08162 5.71802L7.62573 0.281155C7.81125 0.10086 8.05976 0 8.31846 0C8.57715 0 8.82566 0.10086 9.01118 0.281155V0.281741ZM9.35871 4.52011L6.8832 6.94698L5.99239 6.07376C5.94043 6.01937 5.87496 5.97976 5.80268 5.95896C5.7304 5.93816 5.65389 5.93692 5.58098 5.95537C5.50846 5.97316 5.44206 6.01013 5.38875 6.06241C5.33544 6.11469 5.29718 6.18035 5.27798 6.2525C5.25942 6.32433 5.26086 6.39987 5.28214 6.47094C5.30342 6.54201 5.34373 6.6059 5.39871 6.65571L6.58665 7.8208C6.66612 7.89833 6.77275 7.94173 6.88378 7.94173C6.99481 7.94173 7.10145 7.89833 7.18092 7.8208L9.95297 5.10207C10.0273 5.02467 10.0679 4.92101 10.0661 4.81373C10.0642 4.70644 10.02 4.60426 9.94301 4.52949C9.86534 4.4537 9.76164 4.41046 9.65313 4.40861C9.54462 4.40675 9.43951 4.44643 9.3593 4.51953H9.35871V4.52011Z" fill="currentColor"/>
</svg>
