<svg width="14" height="14" viewBox="0 0 14 14" fill="none" xmlns="http://www.w3.org/2000/svg">
<g clip-path="url(#clip0_14_224)">
<path d="M12.8625 7C12.8625 6.2125 13.3 5.5125 14 5.25C13.65 4.025 12.95 2.8875 12.075 2.0125C11.4625 2.45 10.5875 2.5375 9.8875 2.1875C9.1875 1.75 8.8375 1.05 8.925 0.2625C8.3125 0.0875 7.6125 0 7 0C6.3 0 5.6875 0.0875 5.075 0.2625C5.1625 0.9625 4.8125 1.75 4.1125 2.1875C3.4125 2.625 2.5375 2.5375 1.925 2.0125C1.05 2.8875 0.35 4.025 0 5.25C0.7 5.5125 1.1375 6.2125 1.1375 7C1.1375 7.7875 0.7 8.4875 0 8.75C0.35 9.975 1.05 11.1125 1.925 11.9875C2.5375 11.55 3.4125 11.4625 4.1125 11.8125C4.8125 12.25 5.1625 12.95 5.075 13.7375C5.6875 13.9125 6.3875 14 7 14C7.7 14 8.3125 13.9125 8.925 13.7375C8.8375 13.0375 9.1875 12.25 9.8875 11.8125C10.5875 11.375 11.4625 11.4625 12.075 11.9875C12.95 11.1125 13.65 9.975 14 8.75C13.3 8.4875 12.8625 7.7875 12.8625 7ZM7 9.8875C5.3375 9.8875 4.025 8.575 4.025 7C4.025 5.425 5.3375 4.1125 7 4.1125C8.6625 4.1125 9.975 5.425 9.975 7C9.975 8.575 8.6625 9.8875 7 9.8875ZM7 8.75C7.9665 8.75 8.75 7.9665 8.75 7C8.75 6.0335 7.9665 5.25 7 5.25C6.0335 5.25 5.25 6.0335 5.25 7C5.25 7.9665 6.0335 8.75 7 8.75Z" fill="#333322"/>
</g>
<defs>
<clipPath id="clip0_14_224">
<rect width="14" height="14" fill="white"/>
</clipPath>
</defs>
</svg>
