<svg width="14" height="15" viewBox="0 0 14 15" fill="none" xmlns="http://www.w3.org/2000/svg">
<path d="M9.90678 0.949153H8.95763V0H4.98305V0.949153H4.0339V2.90678H9.9661C9.90678 2.25424 9.90678 1.66102 9.90678 0.949153Z" fill="currentColor"/>
<path d="M6.82203 9.84746H5.04237V8.89831H7.11864C7.17797 8.77966 7.29661 8.66102 7.35593 8.48305C9.84746 9.13559 10.2034 6.88136 10.2034 6.88136H11.6271C11.9237 8.42373 13.1695 8.6017 13.8814 8.54237V4.09322V2.72881C13.822 2.13559 13.5254 1.6017 13.0508 1.24576C12.3983 0.771187 11.6864 0.889831 10.9153 0.889831V3.85593H3.02542V0.889831H1.95763C0.771186 1.00847 0 2.01695 0 3.02542V11.6864C0 11.8644 4.12978e-08 12.1017 0.0593221 12.2797C0.237288 12.9915 0.88983 13.822 2.13559 13.822H7.29661L6.64407 12.7542C8.18644 11.3898 7.23729 10.2627 6.82203 9.84746ZM3.97458 9.84746H3.02542V8.89831H3.97458V9.84746ZM3.02542 6.88136V5.9322H3.91525C3.97458 5.9322 4.0339 5.99153 4.0339 6.05085V6.88136H3.02542ZM4.98305 5.9322H10.8559V6.88136H4.98305V5.9322Z" fill="currentColor"/>
<path d="M14 10.2627C13.4661 9.4322 13.5254 9.4322 13.5254 9.4322C13.5254 9.4322 11.7458 9.90678 11.4492 8.30508H10.4407C10.4407 8.30508 10.1441 9.90678 8.36441 9.4322C7.83051 10.2627 7.77119 10.322 7.77119 10.322C7.77119 10.322 9.19492 11.2712 7.77119 12.5763L8.30509 13.4661C8.30509 13.4661 9.84746 12.8136 10.3814 14.5932H11.3898C11.3898 14.5932 11.6864 12.9915 13.4661 13.4661C13.9407 12.6356 14 12.6356 14 12.6356C14 12.6356 12.6949 11.4492 14 10.2627ZM10.9153 12.8136C10.0847 12.8136 9.4322 12.161 9.4322 11.3898C9.4322 10.6186 10.0847 9.9661 10.9153 9.9661C11.7458 9.9661 12.3983 10.6186 12.3983 11.3898C12.3983 12.2203 11.6864 12.8136 10.9153 12.8136Z" fill="currentColor"/>
</svg>
