<?xml version="1.0" standalone="no"?><!DOCTYPE svg PUBLIC "-//W3C//DTD SVG 1.1//EN" "http://www.w3.org/Graphics/SVG/1.1/DTD/svg11.dtd"><svg t="1666870120140" class="icon" viewBox="0 0 1024 1024" version="1.1" xmlns="http://www.w3.org/2000/svg" p-id="2582" xmlns:xlink="http://www.w3.org/1999/xlink" width="200" height="200"><path d="M697 255.83a7 7 0 0 1 7 7v497.8a7 7 0 0 1-7 7H327a7 7 0 0 1-7-7V262.85a7 7 0 0 1 7-7h370m0-32H327a39.07 39.07 0 0 0-39 39v497.8a39.07 39.07 0 0 0 39 39h370a39.07 39.07 0 0 0 39-39v-497.8a39.07 39.07 0 0 0-39-39z" fill="" p-id="2583"></path><path d="M790 160a10.13 10.13 0 0 1 10.1 10.09V853.9A10.13 10.13 0 0 1 790 864H234a10.13 10.13 0 0 1-10.1-10.09V170.1A10.13 10.13 0 0 1 234 160h556m0-32H234a42.14 42.14 0 0 0-42.1 42.09V853.9A42.14 42.14 0 0 0 234 896h556a42.14 42.14 0 0 0 42.1-42.09V170.1A42.14 42.14 0 0 0 790 128z" fill="" p-id="2584"></path><path d="M640 591.92a16 16 0 0 1-16-16V448.08a16 16 0 1 1 32 0v127.84a16 16 0 0 1-16 16z" fill="" p-id="2585"></path></svg>
