<?xml version="1.0" standalone="no"?><!DOCTYPE svg PUBLIC "-//W3C//DTD SVG 1.1//EN" "http://www.w3.org/Graphics/SVG/1.1/DTD/svg11.dtd"><svg t="1642058711265" class="icon" viewBox="0 0 1024 1024" version="1.1" xmlns="http://www.w3.org/2000/svg" p-id="6948" xmlns:xlink="http://www.w3.org/1999/xlink" width="200" height="200"><defs><style type="text/css"></style></defs><path d="M886.710857 43.227429c-276.772571 19.017143-365.641143 195.291429-359.862857 547.108571l179.858286-0.950857a31.670857 31.670857 0 0 1 29.915428 18.432 29.696 29.696 0 0 1-6.436571 33.938286l-294.180572 373.028571a33.060571 33.060571 0 0 1-45.348571 0.365714L82.797714 645.266286A30.72 30.72 0 0 1 75.337143 611.474286a31.158857 31.158857 0 0 1 29.330286-18.651429l183.149714-1.243428C281.965714 233.179429 391.021714-68.242286 869.083429 13.531429l17.554285 29.696z" fill="#FFB948" p-id="6949"></path></svg>