<?xml version="1.0" standalone="no"?><!DOCTYPE svg PUBLIC "-//W3C//DTD SVG 1.1//EN" "http://www.w3.org/Graphics/SVG/1.1/DTD/svg11.dtd"><svg t="1666870289272" class="icon" viewBox="0 0 1024 1024" version="1.1" xmlns="http://www.w3.org/2000/svg" p-id="4330" xmlns:xlink="http://www.w3.org/1999/xlink" width="200" height="200"><path d="M744.727273 93.090909a46.545455 46.545455 0 0 1 46.545454 46.545455v744.727272a46.545455 46.545455 0 0 1-46.545454 46.545455H279.272727a46.545455 46.545455 0 0 1-46.545454-46.545455V139.636364a46.545455 46.545455 0 0 1 46.545454-46.545455h465.454546z m-23.272728 46.545455H302.545455a23.272727 23.272727 0 0 0-23.272728 23.272727v698.181818a23.272727 23.272727 0 0 0 23.272728 23.272727h418.90909a23.272727 23.272727 0 0 0 23.272728-23.272727V162.909091a23.272727 23.272727 0 0 0-23.272728-23.272727zM368.453818 556.311273l33.117091 33.140363A139.031273 139.031273 0 0 0 372.363636 674.909091c0 32.209455 10.914909 61.858909 29.230546 85.480727l-33.140364 33.093818A185.413818 185.413818 0 0 1 325.818182 674.909091c0-45.056 16.011636-86.388364 42.635636-118.597818z m287.092364 0A185.413818 185.413818 0 0 1 698.181818 674.909091a185.413818 185.413818 0 0 1-42.635636 118.574545l-33.140364-33.093818A139.031273 139.031273 0 0 0 651.636364 674.909091a139.031273 139.031273 0 0 0-29.230546-85.480727l33.140364-33.117091z m-220.648727 66.420363l34.164363 34.164364a46.405818 46.405818 0 0 0 0 36.002909l-34.164363 34.187636A92.648727 92.648727 0 0 1 418.909091 674.909091c0-19.316364 5.888-37.306182 15.988364-52.177455z m154.20509 0c10.100364 14.894545 15.988364 32.837818 15.988364 52.177455 0 19.316364-5.888 37.282909-15.988364 52.177454l-34.164363-34.187636a46.405818 46.405818 0 0 0 0-36.002909l34.164363-34.164364zM651.636364 209.454545a46.545455 46.545455 0 0 1 46.545454 46.545455v139.636364a46.545455 46.545455 0 0 1-46.545454 46.545454H372.363636a46.545455 46.545455 0 0 1-46.545454-46.545454v-139.636364a46.545455 46.545455 0 0 1 46.545454-46.545455h279.272728z m-23.272728 46.545455H395.636364a23.272727 23.272727 0 0 0-23.272728 23.272727v93.090909a23.272727 23.272727 0 0 0 23.272728 23.272728h232.727272a23.272727 23.272727 0 0 0 23.272728-23.272728v-93.090909a23.272727 23.272727 0 0 0-23.272728-23.272727z" fill="" p-id="4331"></path></svg>
